<?xml version="1.0" encoding="UTF-8"?>
<svg version="1.1" xmlns="http://www.w3.org/2000/svg" width="2000" height="2000">
<path d="M0 0 C247.5 0 495 0 750 0 C765.77884995 233.48655678 765.77884995 233.48655678 768.66308673 310.45197047 C768.85439607 315.54666468 769.04678326 320.64131541 769.240225 325.73592912 C770.73242517 365.13252882 772.0047845 404.53424334 773.13269574 443.94286219 C773.27173057 448.7918695 773.41384578 453.64077995 773.55747539 458.48965317 C775.5583982 526.12428074 776.9586048 593.7571439 774.7421875 711.5625 C774.72271764 712.22397534 774.70324778 712.88545069 774.68318792 713.56697074 C768.14120795 934.0538365 768.14120795 934.0538365 616.93237305 1144.65161133 C600.49045982 1159.99025352 583.17341212 1174.3096317 565.6165834 1188.34485436 C563.9344372 1189.68994911 562.25396963 1191.03711772 560.57376438 1192.38463587 C521.31740349 1223.84265065 481.01741208 1254.51006407 437.65230674 1280.10048368 C434.68909399 1281.85377103 431.73692854 1283.62431053 428.78757519 1285.40079671 C426.87846128 1286.54793063 424.96903963 1287.69455255 423.05929852 1288.84064198 C422.13250685 1289.39717425 421.20571519 1289.95370652 420.25083893 1290.52710341 C414.93972449 1293.69039747 409.5691136 1296.66732663 404.09167566 1299.53158175 C385.95941471 1308.91999159 385.95941471 1308.91999159 374.92406845 1325.30358946 C371.57191407 1337.41877737 370.8458452 1349.99183566 370.28880084 1362.49468267 C369.96936372 1369.44836127 368.97241228 1376.21879573 367.87417603 1383.09114075 C367.57133486 1385.24341973 367.27400897 1387.3964827 366.98248291 1389.55032349 C366.76754055 1391.11725386 366.76754055 1391.11725386 366.54825592 1392.71583939 C366.32641758 1394.33340197 366.32641758 1394.33340197 366.10009766 1395.98364258 C365.765887 1398.40949309 365.43149915 1400.8353192 365.09695435 1403.26112366 C364.39485293 1408.3544535 363.69384803 1413.44793239 362.99379349 1418.54154396 C361.98124082 1425.90825986 360.96610077 1433.27461678 359.95020764 1440.64087256 C358.29907844 1452.61335931 356.64916053 1464.58601256 355.00048828 1476.55883789 C354.85429816 1477.62047823 354.85429816 1477.62047823 354.7051547 1478.70356586 C353.61036465 1486.6542005 352.5158923 1494.60487882 351.42175293 1502.55560303 C351.02026745 1505.47302298 350.61877885 1508.3904425 350.21728516 1511.30786133 C350.06855508 1512.38860229 350.06855508 1512.38860229 349.91682036 1513.4911764 C348.2654497 1525.49033695 346.61186392 1537.48919105 344.95651662 1549.48780364 C344.03211312 1556.18888344 343.1088636 1562.8901184 342.1884346 1569.59174538 C341.32891474 1575.84949615 340.46682248 1582.10688689 339.60270309 1588.36400414 C339.28604348 1590.66053948 338.97037832 1592.9572122 338.65576172 1595.25402832 C338.22778119 1598.37742979 337.79630443 1601.50032849 337.36392212 1604.62312317 C337.23931756 1605.53881618 337.11471299 1606.45450919 336.98633254 1607.39795047 C336.87022293 1608.23123738 336.75411332 1609.06452429 336.63448524 1609.92306232 C336.53537554 1610.64319329 336.43626584 1611.36332425 336.33415282 1612.10527736 C336 1614 336 1614 335 1617 C56.15 1617 -222.7 1617 -510 1617 C-510 1252.02 -510 887.04 -510 511 C-341.7 511 -173.4 511 0 511 C0 342.37 0 173.74 0 0 Z M-255 696 C-255 734.94 -255 773.88 -255 814 C-0.24 814 254.52 814 517 814 C517 775.06 517 736.12 517 696 C262.24 696 7.48 696 -255 696 Z M-255 952 C-255 990.94 -255 1029.88 -255 1070 C-127.62 1070 -0.24 1070 131 1070 C131 1031.06 131 992.12 131 952 C3.62 952 -123.76 952 -255 952 Z " fill="#000000" transform="translate(535,157)"/>
<path d="M0 0 C4.19463901 3.52892516 8.2467646 7.12193537 12.12487698 11.00182915 C12.5938799 11.46967823 13.06288283 11.93752731 13.54609796 12.41955364 C15.10174181 13.97257118 16.65382181 15.52909974 18.20591736 17.08566284 C19.33781604 18.217125 20.46993463 19.3483672 21.60225302 20.47940934 C24.7013147 23.5762419 27.79726126 26.67617219 30.89269555 29.77662992 C34.23571145 33.12397292 37.58162573 36.46841659 40.92718506 39.81321716 C46.71929187 45.60480017 52.50956805 51.39820817 58.29859734 57.19286728 C66.66851783 65.57092221 75.04120529 73.94620744 83.41456599 82.32082392 C97.00042139 95.90886679 110.58404312 109.49914032 124.16625977 123.09082031 C137.35844602 136.29218859 150.5516844 149.49250394 163.74633789 162.69140625 C164.55994862 163.5052797 165.37355935 164.31915315 166.21182495 165.15768944 C170.29356474 169.24073429 174.37532522 173.32375847 178.45709598 177.40677238 C212.30793741 211.2679769 246.15515376 245.13280325 280 279 C275.13138446 284.85934262 269.89734263 290.2564301 264.51661968 295.64553452 C263.5544108 296.61273765 262.59241322 297.58015105 261.63060662 298.54775423 C258.9896303 301.20338585 256.34561048 303.85596873 253.70105237 306.50803288 C250.82339298 309.39489245 247.94851152 312.28451636 245.07323533 315.17374921 C239.37125973 320.90245557 233.66653972 326.62842182 227.96091204 332.35349057 C223.21572946 337.11497222 218.4716805 341.87758088 213.7283287 346.64088631 C161.41817957 399.1705961 109.05917321 451.65164312 56.68527241 504.11778354 C49.10386007 511.71259508 41.52270676 519.30766516 33.94165039 526.90283203 C33.10397418 527.74205599 32.26629796 528.58127994 31.40323762 529.44593493 C4.23526674 556.66444066 -22.90857143 583.90685861 -50.03954486 611.16223903 C-77.93552674 639.18590246 -105.85427653 667.18667781 -133.80242174 695.15832361 C-137.74925012 699.10848576 -141.69582453 703.05890156 -145.64224815 707.00946808 C-146.41893668 707.78695403 -147.19562521 708.56443998 -147.99584975 709.36548611 C-160.49510261 721.87888605 -172.97024403 734.41606003 -185.43660716 746.96221684 C-197.96574944 759.57048842 -210.52029615 772.15300237 -223.10114823 784.70968071 C-230.57426602 792.16997504 -238.02725884 799.64913658 -245.45278233 807.15681114 C-250.41685983 812.17193011 -255.40602631 817.16112547 -260.41621105 822.13018061 C-263.26907749 824.961069 -266.10982514 827.80169215 -268.92049215 830.67453548 C-289.3457677 851.52398618 -289.3457677 851.52398618 -302.24323612 851.97801006 C-304.10283424 851.98889508 -304.10283424 851.98889508 -306 852 C-308.18281789 852.29727513 -310.36157943 852.62676432 -312.53374958 852.99383831 C-314.63652012 853.29201528 -316.73973339 853.5870837 -318.84333801 853.87931824 C-320.019815 854.04522361 -321.19629198 854.21112898 -322.40841979 854.38206178 C-325.61474798 854.83355052 -328.82143521 855.28237049 -332.02831566 855.72991645 C-335.50998751 856.2164758 -338.99116711 856.70653589 -342.47242737 857.19602966 C-350.84311217 858.37218798 -359.21461797 859.5424422 -367.58625963 860.71176741 C-370.74933096 861.15365454 -373.91235221 861.59589945 -377.07537309 862.03814754 C-391.05370516 863.99252708 -405.03229632 865.94504306 -419.01160145 867.89245129 C-422.41797424 868.36700499 -425.82434539 868.84157046 -429.23071289 869.31616211 C-430.50036887 869.49305424 -430.50036887 869.49305424 -431.79567447 869.67351995 C-445.51081736 871.5846731 -459.22432917 873.50727913 -472.93720523 875.43462285 C-487.06609025 877.42024231 -501.19639864 879.39546542 -515.32813472 881.3606928 C-523.24259364 882.46157594 -531.15638004 883.5668631 -539.06858253 884.68385887 C-545.80384005 885.63467176 -552.54034583 886.57595877 -559.27859668 887.50533124 C-562.70693181 887.97846954 -566.13453485 888.45576441 -569.56056213 888.94535828 C-584.47312282 891.06666969 -598.92801623 892.56897258 -614 892 C-611.94710753 874.37117459 -609.67548797 856.77729585 -607.28815389 839.19090688 C-606.90086226 836.33567243 -606.51499447 833.48024611 -606.12904969 830.62482934 C-602.47656486 803.60582924 -598.78266028 776.59242829 -595.07908249 749.58038998 C-594.59966963 746.08314663 -594.12034915 742.58589065 -593.64111328 739.08862305 C-593.52203075 738.2196371 -593.40294823 737.35065115 -593.28025714 736.45533229 C-591.34416189 722.32234176 -589.42984068 708.18648411 -587.52364132 694.04943388 C-585.55957652 679.48655146 -583.57362633 664.9267784 -581.56695962 650.36970431 C-580.3330038 641.41327577 -579.11586758 632.45489788 -577.92044172 623.49324394 C-577.10114952 617.36400513 -576.26049484 611.23793413 -575.40300861 605.11392289 C-574.9094469 601.58449066 -574.42529189 598.05443852 -573.96645546 594.52030945 C-573.46838844 590.6859695 -572.92542116 586.85875105 -572.37811279 583.03111267 C-572.24102016 581.9197477 -572.10392753 580.80838273 -571.96268058 579.66334003 C-571.80777412 578.63174403 -571.65286766 577.60014802 -571.49326706 576.53729153 C-571.37300305 575.65470336 -571.25273904 574.7721152 -571.12883067 573.86278194 C-567.91810544 565.72019117 -559.42873053 559.28762421 -553.34608555 553.22303772 C-552.37755874 552.25376994 -551.40925151 551.28428271 -550.44114223 550.3145979 C-547.78745246 547.65785401 -545.13067139 545.00422071 -542.47336303 542.35109684 C-539.5803055 539.46148548 -536.69016451 536.56895945 -533.79964918 533.6768055 C-528.7358083 528.61089395 -523.6701173 523.54683842 -518.60320473 518.48399925 C-511.06892266 510.95575733 -503.53751492 503.42464478 -496.00669109 495.89294363 C-483.33798143 483.2229206 -470.66694697 470.55522498 -457.99458504 457.88885498 C-445.44770321 445.34789055 -432.90185632 432.80589228 -420.35738945 420.26251221 C-419.18734136 419.09256723 -419.18734136 419.09256723 -417.99365594 417.898987 C-414.03225867 413.93792807 -410.07087989 409.97685066 -406.10950821 406.01576614 C-378.05246307 377.96082131 -349.99310025 349.90819556 -321.93237305 321.85693359 C-294.67208416 294.60582933 -267.41284602 267.35367471 -240.1550293 240.10009766 C-238.8946801 238.83994575 -238.8946801 238.83994575 -237.60886931 237.55433623 C-229.17089304 229.11767849 -220.73293813 220.68099939 -212.29499886 212.24430464 C-195.10600493 195.05784691 -177.91686849 177.87153173 -160.72764587 160.68530273 C-159.93731664 159.89511079 -159.14698741 159.10491885 -158.3327088 158.29078169 C-105.55752657 105.52479983 -52.77902234 52.76214077 0 0 Z M-515 638 C-516.72216136 649.77714638 -518.43525851 661.55557206 -520.13678074 673.33571911 C-520.92714162 678.80560936 -521.72062331 684.27500892 -522.52124023 689.7434082 C-523.29369322 695.02024187 -524.05794417 700.29820409 -524.81651115 705.57705116 C-525.10743044 707.59130574 -525.40130785 709.60513536 -525.69818306 711.61852074 C-526.11333876 714.4375667 -526.51797237 717.25793722 -526.92016602 720.07885742 C-527.04532089 720.91179825 -527.17047577 721.74473907 -527.29942322 722.60292053 C-528.12624305 728.51693729 -528.31573564 732.05489599 -524.84085083 737.19195557 C-523.88068267 738.41335317 -522.90821856 739.62514512 -521.92626953 740.82910156 C-521.39153991 741.49421092 -520.85681028 742.15932028 -520.30587673 742.84458447 C-513.20912829 751.57480453 -505.75893041 759.9878673 -498.125 768.25 C-497.39186962 769.0445245 -496.65873924 769.839049 -495.90339279 770.65764999 C-474.15648777 794.23536143 -474.15648777 794.23536143 -444.6697998 803.91549683 C-426.3356762 804.28705319 -408.22036012 800.0461341 -390.60483932 795.3654995 C-383.99267179 793.6536695 -377.41531261 792.90213608 -370.6129303 792.49067688 C-366.92188623 792.26422526 -365.15832308 792.10554872 -362 790 C-381.79804097 770.17863511 -401.598917 750.36010632 -421.40320492 730.54498291 C-430.5978784 721.34514539 -439.79160941 712.14436964 -448.9831543 702.94140625 C-456.99120672 694.92341028 -465.00099455 686.90715281 -473.01290232 678.89300919 C-477.25805314 674.6465507 -481.50230869 670.39920577 -485.74448967 666.14978027 C-489.73213782 662.15537708 -493.72209078 658.1632912 -497.71387291 654.17301941 C-499.18337094 652.70324482 -500.65200336 651.23260423 -502.1197319 649.76106262 C-504.11395193 647.76191342 -506.11117925 645.76581959 -508.10923767 643.77050781 C-508.69774897 643.17908367 -509.28626027 642.58765953 -509.89260525 641.97831345 C-512.08572257 639.2541182 -512.08572257 639.2541182 -515 638 Z " fill="#000000" transform="translate(1587,951)"/>
<path d="M0 0 C0 127.38 0 254.76 0 386 C-130.02 386 -260.04 386 -394 386 C-392.28718079 382.57436159 -391.19438433 380.94631425 -388.5859375 378.35546875 C-387.90660156 377.67806641 -387.22726562 377.00066406 -386.52734375 376.30273438 C-385.81707031 375.60470703 -385.10679687 374.90667969 -384.375 374.1875 C-383.68792969 373.50107422 -383.00085938 372.81464844 -382.29296875 372.10742188 C-379.04517201 368.88704556 -375.75389181 365.77837334 -372.28759766 362.79418945 C-367.71468642 358.81162692 -363.45060703 354.55936217 -359.1875 350.25 C-357.96776489 349.02458496 -357.96776489 349.02458496 -356.72338867 347.77441406 C-354.14646703 345.18537329 -351.57282375 342.59311263 -349 340 C-345.60712847 336.58037281 -342.21085343 333.16417851 -338.8125 329.75 C-338.04768311 328.97688477 -337.28286621 328.20376953 -336.49487305 327.40722656 C-332.46117512 323.35538474 -328.3345945 319.50875158 -324.00341797 315.77856445 C-320.3135809 312.50285606 -316.87448564 308.97572427 -313.40625 305.46875 C-312.61528931 304.67400269 -311.82432861 303.87925537 -311.00939941 303.0604248 C-308.50380477 300.54271568 -306.00149142 298.02178554 -303.5 295.5 C-300.2008832 292.17411811 -296.89835626 288.85167664 -293.59375 285.53125 C-292.47933533 284.40438782 -292.47933533 284.40438782 -291.34240723 283.25476074 C-287.3580632 279.25199252 -283.27531393 275.45861305 -278.99768066 271.77282715 C-275.38610461 268.56776029 -272.01856173 265.12011613 -268.625 261.6875 C-267.85623535 260.91494873 -267.0874707 260.14239746 -266.29541016 259.34643555 C-263.86114235 256.90005818 -261.43015894 254.4504586 -259 252 C-255.79463822 248.76786312 -252.58585927 245.53917465 -249.375 242.3125 C-248.293396 241.21844849 -248.293396 241.21844849 -247.18994141 240.10229492 C-243.88937032 236.78602142 -240.55887843 233.5683686 -237.01367188 230.51367188 C-232.59675232 226.70596396 -228.50518256 222.61346579 -224.40625 218.46875 C-223.61528931 217.67400269 -222.82432861 216.87925537 -222.00939941 216.0604248 C-219.50380477 213.54271568 -217.00149142 211.02178554 -214.5 208.5 C-211.2008832 205.17411811 -207.89835626 201.85167664 -204.59375 198.53125 C-203.85080688 197.78000854 -203.10786377 197.02876709 -202.34240723 196.25476074 C-198.3580632 192.25199252 -194.27531393 188.45861305 -189.99768066 184.77282715 C-186.38610461 181.56776029 -183.01856173 178.12011613 -179.625 174.6875 C-178.85623535 173.91494873 -178.0874707 173.14239746 -177.29541016 172.34643555 C-174.86114235 169.90005818 -172.43015894 167.4504586 -170 165 C-166.79463822 161.76786312 -163.58585927 158.53917465 -160.375 155.3125 C-159.293396 154.21844849 -159.293396 154.21844849 -158.18994141 153.10229492 C-154.88937032 149.78602142 -151.55887843 146.5683686 -148.01367188 143.51367188 C-143.59675232 139.70596396 -139.50518256 135.61346579 -135.40625 131.46875 C-134.61528931 130.67400269 -133.82432861 129.87925537 -133.00939941 129.0604248 C-130.50380477 126.54271568 -128.00149142 124.02178554 -125.5 121.5 C-122.2008832 118.17411811 -118.89835626 114.85167664 -115.59375 111.53125 C-114.85080688 110.78000854 -114.10786377 110.02876709 -113.34240723 109.25476074 C-109.36239727 105.25634664 -105.28400453 101.46803164 -101.0111084 97.78625488 C-97.31931031 94.50722111 -93.87708134 90.97834896 -90.40625 87.46875 C-89.61528931 86.67400269 -88.82432861 85.87925537 -88.00939941 85.0604248 C-85.50380477 82.54271568 -83.00149142 80.02178554 -80.5 77.5 C-77.2008832 74.17411811 -73.89835626 70.85167664 -70.59375 67.53125 C-69.85080688 66.78000854 -69.10786377 66.02876709 -68.34240723 65.25476074 C-64.3580632 61.25199252 -60.27531393 57.45861305 -55.99768066 53.77282715 C-52.38610461 50.56776029 -49.01856173 47.12011613 -45.625 43.6875 C-44.85623535 42.91494873 -44.0874707 42.14239746 -43.29541016 41.34643555 C-40.86114235 38.90005818 -38.43015894 36.4504586 -36 34 C-32.79463822 30.76786312 -29.58585927 27.53917465 -26.375 24.3125 C-25.65393066 23.58313232 -24.93286133 22.85376465 -24.18994141 22.10229492 C-20.16843382 18.06165508 -16.05207552 14.20555502 -11.72068787 10.49803162 C-9.38435931 8.46402294 -7.22152119 6.2822318 -5.0625 4.0625 C-1.10851419 0 -1.10851419 0 0 0 Z " fill="#000000" transform="translate(425,157)"/>
<path d="M0 0 C8.61928381 7.96237466 16.00629522 16.58875418 23 26 C23.62390625 26.82886719 24.2478125 27.65773438 24.890625 28.51171875 C55.42523007 70.53247199 67.5517251 124.17124039 59.75 175.375 C56.09608644 197.77775798 48.79506527 219.05018739 38 239 C37.45859375 240.010625 36.9171875 241.02125 36.359375 242.0625 C28.99400058 255.22006206 20.16695742 267.3357721 9.69140625 278.16796875 C7.80642076 280.15144405 6.05472921 282.1052987 4.328125 284.21484375 C2.08426551 286.89919243 -0.19958743 288.91969352 -3 291 C-6.66348681 289.45689774 -9.00457422 287.24896321 -11.80537891 284.4546833 C-12.27628502 283.98758286 -12.74719114 283.52048242 -13.23236713 283.03922743 C-14.81493918 281.46699227 -16.39028759 279.88771269 -17.96577454 278.30838013 C-19.10796607 277.17063981 -20.25058804 276.03333149 -21.39360398 274.89641941 C-24.53787209 271.76635483 -27.67583335 268.63003289 -30.8127867 265.49263978 C-34.1950131 262.11205943 -37.58293733 258.73719743 -40.97007751 255.36154175 C-48.37582366 247.97865748 -55.77408641 240.58830416 -63.17093682 233.19650888 C-67.78631308 228.58438705 -72.40332042 223.97390048 -77.02068138 219.36376572 C-89.79646696 206.60754449 -102.57067153 193.84974614 -115.3381319 181.08519173 C-116.15530369 180.26820751 -116.97247548 179.4512233 -117.81441004 178.60948198 C-119.47109267 176.95316562 -121.12777401 175.29684797 -122.78445408 173.64052905 C-123.60686598 172.81829997 -124.42927787 171.99607089 -125.27661133 171.14892578 C-126.5117263 169.91408163 -126.5117263 169.91408163 -127.77179309 168.65429114 C-141.12899016 155.30063945 -154.4978973 141.95877826 -167.87198744 128.62204756 C-181.59193747 114.94011812 -195.30256973 101.2489109 -209.00367421 87.54810894 C-216.70106836 79.85130062 -224.40240844 72.15853429 -232.1139164 64.47586441 C-238.67685842 57.93735232 -245.23123169 51.39040258 -251.77441654 44.83211674 C-255.11579768 41.4835333 -258.461167 38.13919735 -261.81742477 34.8055191 C-264.8855076 31.75788108 -267.94197827 28.69909196 -270.9893352 25.63073383 C-272.09786857 24.51867769 -273.2107065 23.4108938 -274.32806662 22.30770685 C-275.83840089 20.81531362 -277.3327305 19.30857655 -278.82382679 17.79699898 C-279.66046071 16.96117952 -280.49709463 16.12536005 -281.35908109 15.26421273 C-283 13 -283 13 -282.87258309 10.83226764 C-281.65107495 8.26732011 -279.97830649 6.65829597 -277.9375 4.6875 C-277.20402344 3.96949219 -276.47054688 3.25148438 -275.71484375 2.51171875 C-263.2190795 -9.04911062 -249.82552641 -19.5874595 -235 -28 C-233.86691406 -28.65355469 -232.73382812 -29.30710937 -231.56640625 -29.98046875 C-208.82576468 -42.79572258 -183.81310973 -49.80990126 -158 -53 C-156.94039062 -53.13148438 -155.88078125 -53.26296875 -154.7890625 -53.3984375 C-97.9938471 -59.15576071 -41.64755745 -38.33382774 0 0 Z " fill="#000000" transform="translate(1912,903)"/>
</svg>
