<?xml version="1.0" encoding="UTF-8"?>
<svg version="1.1" xmlns="http://www.w3.org/2000/svg" width="1500" height="188">
<path d="M0 0 C495 0 990 0 1500 0 C1500 62.04 1500 124.08 1500 188 C1005 188 510 188 0 188 C0 125.96 0 63.92 0 0 Z " fill="#FDFDFD" transform="translate(0,0)"/>
<path d="M0 0 C83.16 0 166.32 0 252 0 C252 40.92 252 81.84 252 124 C168.84 124 85.68 124 0 124 C0 83.08 0 42.16 0 0 Z " fill="#D7F3F6" transform="translate(1072,1)"/>
<path d="M0 0 C82.83 0 165.66 0 251 0 C251 40.92 251 81.84 251 124 C168.17 124 85.34 124 0 124 C0 83.08 0 42.16 0 0 Z " fill="#D7F3F6" transform="translate(256,1)"/>
<path d="M0 0 C78.87 0 157.74 0 239 0 C239 40.92 239 81.84 239 124 C194.17830089 124 166.64766439 121.54214813 135.87890625 90.88671875 C124.7229456 78.99137669 118.3081862 64.53940987 114 49 C113.5875 50.22074219 113.175 51.44148438 112.75 52.69921875 C103.19596655 80.23368509 85.55414995 100.79905915 59.43652344 113.91259766 C40.2752086 123.1138231 21.16284458 124 0 124 C0 83.08 0 42.16 0 0 Z " fill="#EFE9FE" transform="translate(693,1)"/>
<path d="M0 0 C1.93760119 -0.00980741 3.87519412 -0.02139257 5.81277466 -0.03466797 C9.86627657 -0.05396817 13.91870338 -0.04706848 17.97216797 -0.02246094 C23.14682344 0.00619569 28.31794061 -0.03746589 33.49217033 -0.10186768 C37.49202106 -0.14233529 41.49103396 -0.14044138 45.49103165 -0.12646484 C47.39749626 -0.1254965 49.30402269 -0.13827934 51.21029282 -0.16552734 C67.9108303 -0.36900335 67.9108303 -0.36900335 74.33251953 5.2734375 C76.46780396 7.60693359 76.46780396 7.60693359 78.3203125 10 C78.98715057 10.82935059 79.65398865 11.65870117 80.34103394 12.51318359 C90.09609325 25.13132226 94.86658212 39.79617967 94.6953125 55.5625 C94.70691406 56.63435547 94.71851563 57.70621094 94.73046875 58.81054688 C94.70607256 65.45850815 93.84154793 70.85827048 91.3203125 77 C90.75570313 78.54300781 90.75570313 78.54300781 90.1796875 80.1171875 C82.90418616 98.20346899 70.97918223 111.66819099 53.3203125 120 C35.99560057 126.6534266 15.7022167 127.91972838 -1.640625 120.78125 C-20.09727238 112.24089903 -34.74353161 97.413232 -42.0546875 78.3125 C-42.62586041 76.55096232 -43.16953388 74.78016762 -43.6796875 73 C-43.90398438 72.23816406 -44.12828125 71.47632812 -44.359375 70.69140625 C-48.49337345 53.90057692 -45.51976308 35.8282304 -37.375 20.74609375 C-34.53560223 16.14679276 -31.39783959 11.9247161 -27.6796875 8 C-27.25572693 7.42735916 -26.83176636 6.85471832 -26.3949585 6.26472473 C-19.51537011 -1.56428085 -9.57670292 -0.0512073 0 0 Z " fill="#F0F4DC" transform="translate(977.6796875,0)"/>
<path d="M0 0 C0.84966843 -0.02015167 1.69933685 -0.04030334 2.57475281 -0.06106567 C5.37443194 -0.11789817 8.17194843 -0.12977187 10.97216797 -0.13623047 C12.9302558 -0.15552863 14.88833506 -0.17571477 16.84640503 -0.19674683 C20.95037862 -0.23264191 25.0535954 -0.24379273 29.15771484 -0.24023438 C34.39122683 -0.23962617 39.61982493 -0.32136633 44.85217476 -0.42486763 C48.89842512 -0.49194821 52.94351188 -0.50373904 56.99026108 -0.50057602 C58.91752876 -0.50760963 60.84483415 -0.53388836 62.77154922 -0.58057022 C79.35469087 -0.94460847 79.35469087 -0.94460847 85.79742241 4.95619392 C100.30252676 20.11759528 106.12963835 37.01737355 105.85888672 57.64526367 C105.21512551 76.56580798 99.15968777 91.63936183 85.98779297 105.39892578 C70.88582157 119.49855394 54.18934343 125.69142457 33.73022461 125.39013672 C14.72251182 124.68597114 -0.33338636 117.31574597 -13.66064453 103.87158203 C-14.33353516 103.24380859 -15.00642578 102.61603516 -15.69970703 101.96923828 C-28.11936128 89.47536299 -34.78606639 71.72878194 -35.03564453 54.37158203 C-34.82718816 37.28384493 -28.91547525 21.42023672 -16.93408203 9.08251953 C-16.18384766 8.35291016 -15.43361328 7.62330078 -14.66064453 6.87158203 C-14.25473146 6.37731783 -13.8488184 5.88305363 -13.43060493 5.37381172 C-9.31701014 0.61447218 -6.13878498 -0.02108139 0 0 Z " fill="#F0F4DC" transform="translate(149.66064453125,0.12841796875)"/>
<path d="M0 0 C47.85 0 95.7 0 145 0 C145 40.92 145 81.84 145 124 C126.4632544 124 110.61633246 122.54188296 93 118 C93 117.34 93 116.68 93 116 C92.38833984 115.90420654 91.77667969 115.80841309 91.14648438 115.7097168 C84.74580616 114.58641491 79.31684433 112.67513673 73.5 109.8125 C72.25682007 109.2103064 72.25682007 109.2103064 70.98852539 108.59594727 C64.89421003 105.58202477 59.32798322 102.24141777 54 98 C53.18660156 97.37480469 52.37320313 96.74960938 51.53515625 96.10546875 C48.98478299 94.11311245 46.48521913 92.07296056 44 90 C42.77990234 88.98486328 42.77990234 88.98486328 41.53515625 87.94921875 C19.57858757 68.975691 5.66347652 43.31738258 0 15 C0 10.05 0 5.1 0 0 Z " fill="#FCE0E4" transform="translate(548,1)"/>
<path d="M0 0 C44.88 0 89.76 0 136 0 C136 40.92 136 81.84 136 124 C129.28140839 124 123.41930599 123.71398898 116.875 122.75 C115.95920166 122.61577637 115.04340332 122.48155273 114.09985352 122.34326172 C85.57583123 117.95725357 59.88499881 104.79448463 39 85 C38.1646875 84.21753906 37.329375 83.43507813 36.46875 82.62890625 C30.2108546 76.59312751 24.95368031 70.13833424 20 63 C18.98099609 61.55753906 18.98099609 61.55753906 17.94140625 60.0859375 C6.18377892 42.34635943 0 21.06940016 0 0 Z " fill="#FCE1E5" transform="translate(1364,1)"/>
<path d="M0 0 C37.95 0 75.9 0 115 0 C115.59539412 32.30013122 116.10296772 64.57164612 116.0625 96.875 C116.06164398 97.56331154 116.06078796 98.25162308 116.05990601 98.96079254 C116.048735 107.30722077 116.02900197 115.65361425 116 124 C110.89952654 124.07544507 105.79939381 124.12919726 100.69848633 124.16479492 C98.9715406 124.17966998 97.24463115 124.19997636 95.51782227 124.22631836 C68.28296538 124.63067868 42.79185297 118.52168532 22 100 C21.18402344 99.33742188 20.36804688 98.67484375 19.52734375 97.9921875 C11.84676678 91.55807202 3.73374656 82.47351662 0 73 C-0.24050903 69.74761963 -0.24050903 69.74761963 -0.22705078 65.84472656 C-0.22729185 65.12065487 -0.22753292 64.39658318 -0.2277813 63.65056992 C-0.22629211 61.3137953 -0.21107773 58.97734232 -0.1953125 56.640625 C-0.19237083 55.1951513 -0.19033115 53.74967548 -0.18920898 52.30419922 C-0.17873596 46.95276693 -0.15081345 41.60138028 -0.125 36.25 C-0.08375 24.2875 -0.0425 12.325 0 0 Z " fill="#EFE9FE" transform="translate(0,1)"/>
</svg>
