<?xml version="1.0" encoding="UTF-8"?>
<svg version="1.1" xmlns="http://www.w3.org/2000/svg" width="1600" height="1600">
<path d="M0 0 C2.41806935 -0.00735198 4.8361352 -0.01594146 7.25419617 -0.02566528 C13.10931487 -0.04548639 18.96431664 -0.05126816 24.81946641 -0.0494774 C29.588183 -0.04816215 34.356869 -0.0520125 39.12557983 -0.05940247 C54.17364556 -0.08227352 69.22161714 -0.0878219 84.26969683 -0.07988816 C96.08380477 -0.07432204 107.89769524 -0.09510818 119.71175241 -0.12824863 C131.89502061 -0.16215446 144.07818516 -0.17713275 156.26150131 -0.1725316 C163.08027815 -0.17030319 169.89885431 -0.17528753 176.71759033 -0.20042419 C183.13975927 -0.22288824 189.56148008 -0.2206516 195.98365211 -0.20049667 C198.32189097 -0.19712065 200.66016116 -0.20202571 202.99835777 -0.21648026 C256.17646409 -0.52216902 305.33263056 24.72778287 342.8046875 61.41992188 C350.85350111 69.52756063 358.1165456 78.16442271 364.8046875 87.41992188 C365.39515869 88.22574707 365.39515869 88.22574707 365.99755859 89.04785156 C384.79276976 114.95372544 396.73343543 145.13779561 402.8046875 176.41992188 C402.98257813 177.32983887 403.16046875 178.23975586 403.34375 179.17724609 C405.97826437 193.50241797 405.94816218 207.7282064 405.875 222.23632812 C405.86934474 224.20023455 405.86421384 226.16414256 405.85961914 228.12805176 C405.84734873 232.89204826 405.82800047 237.65596714 405.8046875 242.41992188 C407.06291069 242.4162347 408.32113388 242.41254753 409.61748505 242.40874863 C439.54052353 242.32196288 469.46352934 242.25608281 499.38666299 242.21566056 C503.07629768 242.21065822 506.76593211 242.20548089 510.45556641 242.20019531 C511.55729373 242.19862145 511.55729373 242.19862145 512.68127817 242.19701579 C524.54628643 242.17964961 536.41121652 242.14813301 548.27617854 242.11131069 C560.4668247 242.07379548 572.65743015 242.05166376 584.84813166 242.0435679 C592.35971679 242.03810195 599.87108089 242.02089065 607.38259792 241.98825601 C613.15970123 241.96444786 618.93666552 241.96212854 624.71380806 241.96749115 C627.07111019 241.96639727 629.42842125 241.95852901 631.78567314 241.94309998 C653.75678976 241.80643354 672.96095456 244.13590253 689.58984375 260.03710938 C703.28017698 274.76568657 707.31212701 291.04300405 707.09765625 310.68554688 C707.09204616 312.21538879 707.08778276 313.74523617 707.08479309 315.27508545 C707.07345531 319.26010583 707.04408668 323.24478698 707.01068115 327.22967529 C706.97973849 331.31257542 706.96623658 335.39553151 706.95117188 339.47851562 C706.91920367 347.45913833 706.86814533 355.43948765 706.8046875 363.41992188 C707.55415146 363.41770126 708.30361542 363.41548065 709.07579041 363.41319275 C716.12451041 363.39319008 723.17322065 363.37794787 730.22196102 363.3681097 C733.8461471 363.36288186 737.4703098 363.355786 741.09448242 363.34448242 C744.58928725 363.33365003 748.08406954 363.3276443 751.57888985 363.32504463 C753.56708139 363.32228637 755.55526381 363.314475 757.54344177 363.30662537 C758.74461136 363.30654984 759.94578094 363.3064743 761.18334961 363.30639648 C762.24702255 363.30417587 763.3106955 363.30195526 764.40660095 363.29966736 C766.8046875 363.41992188 766.8046875 363.41992188 767.8046875 364.41992188 C767.90059949 365.98879822 767.92656746 367.5619998 767.92494202 369.13380432 C767.92631951 370.15116197 767.92769701 371.16851961 767.92911625 372.21670628 C767.92551814 373.34668002 767.92192003 374.47665377 767.91821289 375.64086914 C767.91833343 376.84036414 767.91845396 378.03985914 767.91857815 379.27570248 C767.91782855 383.17926287 767.91019816 387.08277621 767.90234375 390.98632812 C767.90087448 393.38797991 767.89985368 395.78963201 767.89929199 398.19128418 C767.8940374 407.12166828 767.88007635 416.05204553 767.8671875 424.98242188 C767.8465625 444.92679687 767.8259375 464.87117188 767.8046875 485.41992188 C727.8746875 485.41992188 687.9446875 485.41992188 646.8046875 485.41992188 C646.80912872 496.82173004 646.81356995 508.22353821 646.81814575 519.97085571 C646.82109041 527.70696003 646.82402584 535.44306436 646.8269043 543.1791687 C646.82727829 544.18413707 646.82765228 545.18910544 646.8280376 546.22452739 C646.85277033 612.78374764 646.87511358 679.34296775 646.88937378 745.90219116 C646.88964989 747.18765402 646.88992601 748.47311688 646.89021049 749.79753316 C646.89605078 777.05494223 646.90148979 804.31235136 646.90644686 831.5697606 C646.90893756 845.26296287 646.9115075 858.95616512 646.91415238 872.64936736 C646.91455088 874.71487806 646.91494712 876.78038877 646.91534326 878.84589948 C646.92146002 910.63514181 646.92927157 942.42438261 646.9420166 974.21362305 C646.9422904 974.89662313 646.9425642 975.57962322 646.94284629 976.28332028 C646.94727079 987.29463255 646.9518381 998.30594478 646.95642438 1009.31725699 C646.97561844 1055.40836717 646.98839943 1101.49947329 646.99251748 1147.59058785 C646.99309377 1154.00648133 646.99374505 1160.42237481 646.99444199 1166.83826828 C646.99457683 1168.10098451 646.99471168 1169.36370075 646.99485061 1170.66468111 C646.99721229 1190.97533461 647.00648369 1211.28597934 647.01835157 1231.59662927 C647.03014038 1252.02511489 647.03461986 1272.45359184 647.03169025 1292.88208075 C647.03017132 1305.01285683 647.03420477 1317.14360108 647.04628259 1329.2743714 C647.05380787 1337.38848438 647.05399692 1345.50257662 647.04835113 1353.61669105 C647.04534521 1358.23307684 647.04540493 1362.84940264 647.05445386 1367.46578188 C647.13973937 1413.67404136 647.13973937 1413.67404136 642.6171875 1433.04492188 C642.40360596 1433.98601807 642.19002441 1434.92711426 641.9699707 1435.89672852 C638.42158238 1450.88901509 633.13306241 1465.04040477 625.79882812 1478.58349609 C624.84031536 1480.35410832 623.9078969 1482.13877053 622.9765625 1483.92382812 C600.88802965 1524.71336672 560.94805795 1555.6330056 516.80712891 1568.95532227 C499.60888077 1573.92373975 482.77767376 1576.57828366 464.86016464 1576.55134964 C463.58218356 1576.55340227 462.30420249 1576.55545491 460.98749471 1576.55756974 C457.44975378 1576.56310469 453.9120372 1576.56246983 450.37429334 1576.56079215 C446.52161732 1576.56005826 442.66894801 1576.56509053 438.81627488 1576.56936717 C431.17912884 1576.57693229 423.54198979 1576.57913947 415.90484039 1576.57969623 C406.75497517 1576.58061135 397.60511638 1576.58728332 388.45525394 1576.59404305 C366.34125662 1576.61009073 344.22726 1576.61600507 322.1132579 1576.6207918 C311.64744123 1576.62312913 301.18162511 1576.62673194 290.71580887 1576.63048718 C254.87556141 1576.64332201 219.03531425 1576.65404092 183.19506454 1576.65748978 C180.94587938 1576.65771141 178.69669423 1576.65793319 176.44750907 1576.65815513 C174.19295383 1576.65837577 171.9383986 1576.65859625 169.68384337 1576.65881658 C165.16097371 1576.65925912 160.63810404 1576.65970624 156.11523438 1576.66015625 C154.99382855 1576.66026564 153.87242272 1576.66037503 152.71703489 1576.66048774 C116.36726703 1576.6641172 80.01751912 1576.68003341 43.66775889 1576.70334661 C5.21809791 1576.72796142 -33.23155168 1576.7416634 -71.68122077 1576.74285769 C-75.90486892 1576.74302914 -80.12851707 1576.74324457 -84.35216522 1576.74349213 C-85.39211237 1576.7435479 -86.43205953 1576.74360366 -87.50352023 1576.74366112 C-104.21517496 1576.74481017 -120.92680915 1576.75581978 -137.63845695 1576.77037918 C-154.44745747 1576.78476977 -171.25643176 1576.78796673 -188.06543675 1576.7799392 C-198.04115212 1576.77549492 -208.01678262 1576.77929528 -217.99248678 1576.79517771 C-224.66974278 1576.80497232 -231.34693974 1576.80370698 -238.02419528 1576.79374148 C-241.8197663 1576.78838155 -245.61517512 1576.78753419 -249.4107323 1576.8002502 C-301.56837813 1576.96373387 -348.20710975 1563.30498195 -387.1953125 1527.41992188 C-387.7428418 1526.9176709 -388.29037109 1526.41541992 -388.85449219 1525.89794922 C-422.13625833 1494.97652198 -442.25652632 1450.6098435 -445.1953125 1405.41992188 C-445.33334939 1400.17908493 -445.32818297 1394.94052006 -445.31836033 1389.6984148 C-445.31910105 1388.11660033 -445.32028079 1386.53478601 -445.32185683 1384.95297214 C-445.32491491 1380.61228072 -445.32175984 1376.27161285 -445.31757869 1371.93092319 C-445.31413585 1367.20642636 -445.31651694 1362.48193185 -445.31815618 1357.75743455 C-445.32022788 1349.47938123 -445.31858962 1341.2013351 -445.31451797 1332.92328262 C-445.30848043 1320.61413961 -445.30818241 1308.30500114 -445.30905996 1295.99585692 C-445.31037364 1275.28945065 -445.30703329 1254.58304757 -445.30104256 1233.87664223 C-445.29512599 1213.37403663 -445.2912767 1192.87143236 -445.29018974 1172.36882591 C-445.290121 1171.09414301 -445.29005226 1169.81946011 -445.28998144 1168.50615045 C-445.28964311 1162.03270768 -445.28934172 1155.5592649 -445.28905457 1149.08582213 C-445.28695403 1103.23177425 -445.2802171 1057.37772848 -445.27075195 1011.52368164 C-445.26846027 1000.41164145 -445.26618489 989.29960125 -445.26397705 978.18756104 C-445.2638401 977.49838035 -445.26370315 976.80919966 -445.26356205 976.0991347 C-445.2572166 944.05386397 -445.25349194 912.0085931 -445.25044226 879.9633219 C-445.25024419 877.88262043 -445.250045 875.80191897 -445.24984558 873.7212175 C-445.24852578 859.93216539 -445.24725113 846.14311328 -445.24600672 832.35406116 C-445.24347128 804.2640508 -445.24064924 776.17404047 -445.23765564 748.08403015 C-445.2374497 746.14672072 -445.2374497 746.14672072 -445.23723961 744.17027373 C-445.23011037 677.34089159 -445.21874943 610.51151026 -445.2064209 543.68212891 C-445.20624749 542.7419986 -445.20607409 541.80186829 -445.20589543 540.83324919 C-445.20248087 522.36214006 -445.19887877 503.89103097 -445.1953125 485.41992188 C-485.1253125 485.41992188 -525.0553125 485.41992188 -566.1953125 485.41992188 C-566.1953125 445.15992188 -566.1953125 404.89992188 -566.1953125 363.41992188 C-546.0653125 363.41992188 -525.9353125 363.41992188 -505.1953125 363.41992188 C-505.26492188 355.95818359 -505.26492188 355.95818359 -505.3359375 348.34570312 C-505.35640759 345.16924959 -505.37566545 341.99287891 -505.390625 338.81640625 C-505.41441422 333.78913199 -505.44236691 328.76215277 -505.49707031 323.73510742 C-505.54095636 319.67612186 -505.56453836 315.61745327 -505.57482147 311.55824852 C-505.58213703 310.01988939 -505.5964194 308.481545 -505.61823273 306.94332314 C-505.86351004 288.90785087 -501.00850446 273.93449964 -488.5012207 260.63427734 C-477.19761589 249.10107103 -462.31570867 242.57687085 -446.10734367 242.17382622 C-444.27681094 242.16554576 -442.44620783 242.16796999 -440.61569214 242.17941284 C-439.08991962 242.17684957 -439.08991962 242.17684957 -437.53332341 242.17423451 C-434.15088567 242.17096027 -430.76864969 242.18190917 -427.38623047 242.19287109 C-424.95128891 242.19343565 -422.516347 242.19311777 -420.08140564 242.19198608 C-414.8524572 242.19153177 -409.62355373 242.19717645 -404.39461899 242.20846176 C-396.83461096 242.2247674 -389.27462702 242.22992993 -381.71460332 242.23243774 C-369.44676608 242.23680693 -357.17895556 242.25009489 -344.91113281 242.26904297 C-332.99935031 242.28742192 -321.08757508 242.30156854 -309.17578125 242.31005859 C-308.07304024 242.31084676 -308.07304024 242.31084676 -306.94802164 242.31165086 C-303.25966243 242.31426107 -299.57130316 242.31678846 -295.88294387 242.31927466 C-265.32038096 242.33998297 -234.75785045 242.37533672 -204.1953125 242.41992188 C-204.20414963 241.13594513 -204.21298676 239.85196838 -204.22209167 238.52908325 C-204.25299563 233.69430585 -204.2721388 228.85953688 -204.28800964 224.02468872 C-204.29641464 221.94545008 -204.30786775 219.86622115 -204.32261658 217.78701782 C-204.43438396 201.60728887 -203.66462095 186.28083043 -200.1953125 170.41992188 C-200.00807617 169.55415527 -199.82083984 168.68838867 -199.62792969 167.79638672 C-198.38622636 162.26019131 -196.89069897 156.83340268 -195.1953125 151.41992188 C-194.94410645 150.61538574 -194.69290039 149.81084961 -194.43408203 148.98193359 C-186.37715993 123.68625715 -174.14291394 99.92277725 -157.1953125 79.41992188 C-156.34868785 78.36935855 -155.50233833 77.31857344 -154.65625 76.26757812 C-144.10596614 63.32754876 -132.35190548 51.60960344 -118.91162109 41.6875 C-117.20963661 40.43050093 -115.52486252 39.15265868 -113.83984375 37.87304688 C-91.60646228 21.23901694 -65.91977655 10.46576714 -39.1953125 3.41992188 C-38.18536728 3.15258995 -37.17542206 2.88525803 -36.13487244 2.60982513 C-24.14078983 -0.16887205 -12.25966984 -0.01771571 0 0 Z M-53.1953125 150.41992188 C-53.99453125 151.19851562 -54.79375 151.97710937 -55.6171875 152.77929688 C-79.49329222 177.31405276 -79.1953125 210.03154712 -79.1953125 242.41992188 C39.6046875 242.41992188 158.4046875 242.41992188 280.8046875 242.41992188 C280.8046875 207.51537224 280.19625555 177.88455267 255.8046875 151.41992188 C254.90556641 150.38351563 254.90556641 150.38351563 253.98828125 149.32617188 C238.90568361 132.90796624 216.62897534 124.76483021 194.8046875 123.41992188 C188.72031533 123.2726839 182.63787752 123.27265698 176.55200195 123.2746582 C174.72414583 123.27166117 172.89629034 123.2682574 171.06843567 123.26448059 C166.13015031 123.25569131 161.1918823 123.25330461 156.25358987 123.2526648 C153.16033707 123.25195136 150.06708861 123.24981149 146.9738369 123.24716759 C136.15971982 123.23793061 125.34561503 123.23383059 114.53149414 123.23461914 C104.48809421 123.23521933 94.44474809 123.22467468 84.40136176 123.20887548 C75.7478804 123.19575306 67.09441652 123.19043722 58.4409253 123.19107455 C53.28625892 123.19132818 48.1316404 123.18855235 42.97698402 123.1778965 C38.12351109 123.16813612 33.27013101 123.16819011 28.41665459 123.17541313 C26.64793892 123.17644921 24.87921722 123.17415508 23.11051178 123.16805267 C-6.50184792 123.07260191 -31.96211269 128.69003903 -53.1953125 150.41992188 Z M-323.1953125 485.41992188 C-323.24672469 572.66038084 -323.294424 659.90084163 -323.32234192 747.14131165 C-323.32275609 748.43224623 -323.32317026 749.72318081 -323.32359698 751.05323463 C-323.33235679 778.42465989 -323.34051537 805.79608529 -323.34795153 833.16751094 C-323.35168769 846.91730911 -323.35554261 860.66710726 -323.35950982 874.41690537 C-323.36010757 876.4909963 -323.36070193 878.56508723 -323.36129614 880.63917816 C-323.37047489 912.57309399 -323.38219906 944.50700639 -323.40130615 976.44091797 C-323.40171685 977.12740182 -323.40212755 977.81388568 -323.40255069 978.52117207 C-323.40918771 989.58915711 -323.41603857 1000.65714202 -323.42291782 1011.72512692 C-323.45168873 1058.022095 -323.4708756 1104.31905329 -323.47705747 1150.61603106 C-323.47792195 1157.05589321 -323.47889886 1163.49575533 -323.47994423 1169.93561745 C-323.4801465 1171.20308994 -323.48034877 1172.47056243 -323.48055717 1173.77644318 C-323.484104 1194.18930118 -323.49802274 1214.60213959 -323.5158086 1235.0149896 C-323.53346316 1255.53069794 -323.54021823 1276.04638685 -323.53581663 1296.56210252 C-323.5335328 1308.75477466 -323.53963688 1320.94737573 -323.55770513 1333.14003505 C-323.56895025 1341.2839165 -323.56930664 1349.42775137 -323.56080794 1357.57163602 C-323.55627671 1362.21242898 -323.55648102 1366.85308748 -323.56996205 1371.49386605 C-323.58214544 1375.72008236 -323.58038036 1379.94605991 -323.56773243 1384.17227277 C-323.56559882 1385.68754419 -323.56843973 1387.20283341 -323.57701823 1388.71808205 C-323.67497526 1407.20006624 -319.57036625 1423.60817858 -306.66381836 1437.28540039 C-296.22517101 1447.6536946 -281.6391589 1454.53933102 -266.8047542 1454.54757237 C-265.1885177 1454.55209633 -265.1885177 1454.55209633 -263.53962997 1454.55671167 C-261.76921527 1454.55405747 -261.76921527 1454.55405747 -259.96303463 1454.55134964 C-258.07048338 1454.55442859 -258.07048338 1454.55442859 -256.13969877 1454.55756974 C-252.62437518 1454.56313953 -249.10907594 1454.56246341 -245.59374935 1454.56079215 C-241.77421375 1454.5600617 -237.95468506 1454.56508249 -234.1351524 1454.56936717 C-226.55359207 1454.57695221 -218.97203878 1454.57914049 -211.39047505 1454.57969623 C-202.31164824 1454.58060937 -193.23282797 1454.58727545 -184.15400397 1454.59404305 C-162.20922687 1454.61011063 -140.26445045 1454.6160072 -118.31966852 1454.6207918 C-107.94005234 1454.62312699 -97.56043671 1454.62672956 -87.18082097 1454.63048718 C-51.65636002 1454.64332336 -16.13189939 1454.65404249 19.39256382 1454.65748978 C21.62301195 1454.65771141 23.85346007 1454.65793319 26.0839082 1454.65815513 C28.31977202 1454.65837577 30.55563585 1454.65859625 32.79149967 1454.65881658 C37.27709679 1454.65925913 41.7626939 1454.65970625 46.24829102 1454.66015625 C47.36046012 1454.66026564 48.47262923 1454.66037503 49.61850044 1454.66048774 C85.68356694 1454.66411866 121.74861334 1454.6800397 157.81367214 1454.70334661 C195.93591343 1454.72793796 234.05814323 1454.74166229 272.18039268 1454.74285769 C276.36462049 1454.74302915 280.54884829 1454.74324458 284.7330761 1454.74349213 C286.27850912 1454.74357578 286.27850912 1454.74357578 287.85516301 1454.74366112 C304.44168037 1454.74481218 321.02817712 1454.75583884 337.61468752 1454.77037918 C354.2840994 1454.78473959 370.95348484 1454.78798374 387.62290121 1454.7799392 C397.52737491 1454.77548079 407.43176331 1454.77935204 417.33622582 1454.79517771 C423.95340772 1454.80492303 430.57052983 1454.80375372 437.18771118 1454.79374148 C440.9572612 1454.78834624 444.72664733 1454.78764964 448.49618382 1454.8002502 C452.56142235 1454.81372564 456.62627865 1454.80388022 460.69152164 1454.79185867 C461.85540994 1454.79945387 463.01929824 1454.80704906 464.21845588 1454.81487441 C481.53678003 1454.70419521 496.38408077 1448.55389921 508.8046875 1436.41992188 C522.01186404 1421.20687722 525.28558332 1404.06517791 525.17383099 1384.40735817 C525.17605499 1382.83057228 525.17959614 1381.25378781 525.18432048 1379.67700744 C525.19346578 1375.36420164 525.18405426 1371.05161035 525.17148608 1366.73882064 C525.16113305 1362.03940664 525.16830543 1357.34001317 525.17321855 1352.64059484 C525.17942608 1344.41122005 525.17453187 1336.18191046 525.16230392 1327.95254326 C525.14417216 1315.71585565 525.14329899 1303.47920901 525.14592989 1291.24251041 C525.1498686 1270.65680505 525.13985873 1250.07112861 525.12187767 1229.48543167 C525.10412185 1209.10532106 525.09257887 1188.7252225 525.08931923 1168.34510422 C525.08911301 1167.07755927 525.08890679 1165.81001432 525.08869432 1164.50405892 C525.08767931 1158.06674325 525.08677517 1151.62942758 525.0859137 1145.19211189 C525.07961378 1099.60592952 525.05940771 1054.01976643 525.03100586 1008.43359375 C525.02413074 997.38885504 525.01730459 986.3441163 525.01068115 975.29937744 C525.0102703 974.61436133 525.00985946 973.92934523 525.00943616 973.22357106 C524.9903962 941.3658423 524.97922466 909.50811218 524.97007677 877.65037923 C524.96948258 875.58159449 524.968885 873.51280975 524.96828673 871.44402501 C524.96432731 857.73382879 524.96050337 844.02363254 524.95677015 830.31343625 C524.94916404 802.38460628 524.94069792 774.45577659 524.93171692 746.52694702 C524.93130505 745.24284672 524.93089318 743.95874641 524.93046883 742.63573398 C524.90287049 656.8971234 524.85533531 571.15852155 524.8046875 485.41992188 C484.95614067 485.39703024 445.10759469 485.37941078 405.25904259 485.36885655 C400.55396133 485.36760585 395.84888008 485.36631152 391.14379883 485.36499023 C390.20710658 485.36472792 389.27041434 485.36446561 388.30533748 485.36419535 C373.14094449 485.35984471 357.97655529 485.35196048 342.81216455 485.34276908 C327.25072056 485.33341572 311.68927856 485.32786269 296.12783188 485.32583338 C286.526539 485.32446166 276.92525685 485.32012998 267.32396727 485.31200541 C260.73893881 485.30671722 254.15391588 485.30512231 247.56888545 485.3064205 C243.77038833 485.30706063 239.97190993 485.30608309 236.17341614 485.3007164 C232.05147603 485.29493539 227.92957569 485.29693705 223.80763245 485.29966736 C222.61209025 485.29675452 221.41654806 485.29384168 220.18477732 485.29084057 C213.96592501 485.30197844 207.97311967 485.63898321 201.8046875 486.41992188 C198.90622567 486.54171284 196.01502692 486.55549185 193.11425781 486.54690552 C192.2880405 486.54846551 191.4618232 486.5500255 190.610569 486.55163276 C187.86796485 486.55559151 185.12541697 486.55247314 182.3828125 486.54931641 C180.40596484 486.55067272 178.42911744 486.55245395 176.45227051 486.55462646 C171.10112383 486.55917337 165.74999649 486.55742252 160.39884949 486.55424738 C154.78966216 486.55170961 149.18047646 486.55406527 143.57128906 486.55563354 C134.15299178 486.5574511 124.73470234 486.55505978 115.31640625 486.55029297 C104.43904618 486.54485115 93.56170486 486.5466141 82.68434525 486.55211937 C73.33293116 486.55666229 63.98152271 486.55729528 54.63010788 486.55468071 C49.05031782 486.55312443 43.47053656 486.55290639 37.89074707 486.55621719 C32.64419175 486.55911301 27.39766052 486.55708879 22.15110779 486.55132294 C20.22948751 486.55000451 18.30786519 486.55037382 16.38624573 486.5525856 C13.75584248 486.55533327 11.12551562 486.551872 8.49511719 486.54690552 C7.36469183 486.5502516 7.36469183 486.5502516 6.2114296 486.55366528 C2.69092268 486.54084349 -0.643096 486.36323138 -4.14744091 485.91957271 C-10.16089266 485.23316161 -16.15238628 485.28493708 -22.19825745 485.29966736 C-23.48818271 485.29881293 -24.77810798 485.29795851 -26.10712188 485.29707819 C-29.66689329 485.29485335 -33.22663433 485.29882685 -36.78640187 485.30385625 C-40.63290535 485.30818957 -44.47940724 485.30671229 -48.32591248 485.30595398 C-54.98341335 485.30543057 -61.64090439 485.30855827 -68.29840279 485.31419182 C-77.92393358 485.32233159 -87.54945964 485.32492458 -97.17499351 485.32617981 C-112.7931787 485.32836644 -128.41135866 485.33501597 -144.02954102 485.34448242 C-159.19783502 485.35366661 -174.3661276 485.36074252 -189.53442383 485.36499023 C-190.46997593 485.36525296 -191.40552803 485.36551568 -192.36943019 485.36578637 C-197.06299285 485.36709144 -201.75655551 485.36835514 -206.45011818 485.36959827 C-245.36518662 485.37995876 -284.28024921 485.39756649 -323.1953125 485.41992188 Z " fill="#000000" transform="translate(687.1953125,-0.419921875)"/>
<path d="M0 0 C40.26 0 80.52 0 122 0 C122 240.24 122 480.48 122 728 C82.07 728 42.14 728 1 728 C0 727 0 727 -0.12467116 724.96282389 C-0.12451518 724.05579656 -0.1243592 723.14876923 -0.1241985 722.21425623 C-0.12756944 720.64774383 -0.12756944 720.64774383 -0.13100848 719.04958472 C-0.12838146 717.88585259 -0.12575445 716.72212047 -0.12304783 715.52312374 C-0.12420167 714.29452223 -0.12535552 713.06592071 -0.12654433 711.80008885 C-0.12875051 708.35901596 -0.12642176 704.91799794 -0.12226619 701.47693022 C-0.11884896 697.74503105 -0.12119953 694.01313502 -0.12284368 690.28123528 C-0.1249234 683.73044349 -0.12326349 677.17966075 -0.11920547 670.62887001 C-0.11318798 660.88797554 -0.11286803 651.14708683 -0.11374746 641.40619084 C-0.11506361 625.02307017 -0.11171147 608.63995353 -0.10573006 592.25683403 C-0.09981993 576.02749041 -0.09596551 559.79814847 -0.09487724 543.56880379 C-0.0948085 542.56099842 -0.09473976 541.55319305 -0.09466894 540.51484812 C-0.09433062 535.39704443 -0.09402923 530.27924074 -0.09374207 525.16143704 C-0.09163975 488.87984035 -0.08489707 452.59824585 -0.07543945 416.31665039 C-0.06626014 381.06209322 -0.05917402 345.80753664 -0.05493164 310.55297852 C-0.05480011 309.46693139 -0.05466859 308.38088427 -0.05453308 307.26192663 C-0.0532146 296.35573451 -0.05193878 285.44954239 -0.05069422 274.54335026 C-0.04815777 252.32472228 -0.04533652 230.10609435 -0.04234314 207.88746643 C-0.04220585 206.86581327 -0.04206856 205.84416012 -0.04192711 204.79154777 C-0.03479461 151.90278431 -0.02343325 99.01402187 -0.0111084 46.1252594 C-0.01093499 45.38101819 -0.01076159 44.63677698 -0.01058293 43.869983 C-0.00716816 29.24665531 -0.0035662 14.62332766 0 0 Z " fill="#000000" transform="translate(969,606)"/>
<path d="M0 0 C40.26 0 80.52 0 122 0 C122.00810491 33.23446415 122.00810491 33.23446415 122.0111084 46.1252594 C122.01138889 47.32892225 122.01138889 47.32892225 122.01167505 48.55690153 C122.02403319 101.66708952 122.03520618 154.77727746 122.04234314 207.88746643 C122.0424812 208.91220757 122.04261925 209.9369487 122.04276149 210.9927426 C122.04575404 233.2603101 122.04852427 255.52787762 122.05106533 277.79544517 C122.05231272 288.71462296 122.05360927 299.63380074 122.05493164 310.55297852 C122.0550624 311.63959839 122.05519316 312.72621827 122.05532788 313.84576603 C122.05959323 349.09959256 122.06710751 384.3534175 122.07629722 419.60724307 C122.08571961 455.81923861 122.09188307 492.03123325 122.09391499 528.24322999 C122.09420317 533.35175459 122.0945288 538.46027919 122.09487724 543.56880379 C122.09497838 545.07702825 122.09497838 545.07702825 122.09508156 546.6157219 C122.09626569 562.83553482 122.10091025 579.05534502 122.10683203 595.27515683 C122.1127046 611.56075073 122.11497168 627.84634192 122.11350138 644.13193684 C122.11273776 653.82093471 122.1147955 663.50992268 122.12079754 673.19891877 C122.12452762 679.65860833 122.12467774 686.11829134 122.12183181 692.57798133 C122.12031172 696.26664752 122.12042861 699.95529488 122.12488318 703.6439591 C122.12962915 707.60368932 122.12676662 711.56339188 122.12304783 715.52312374 C122.12567484 716.68685586 122.12830186 717.85058798 122.13100848 719.04958472 C122.12763754 720.61609711 122.12763754 720.61609711 122.1241985 722.21425623 C122.12443247 723.57479722 122.12443247 723.57479722 122.12467116 724.96282389 C122 727 122 727 121 728 C81.07 728 41.14 728 0 728 C0 487.76 0 247.52 0 0 Z " fill="#000000" transform="translate(727,606)"/>
<path d="M0 0 C39.93 0 79.86 0 121 0 C121 240.24 121 480.48 121 728 C81.07 728 41.14 728 0 728 C0 487.76 0 247.52 0 0 Z " fill="#000000" transform="translate(485,606)"/>
</svg>
