<?xml version="1.0" encoding="UTF-8"?>
<svg version="1.1" xmlns="http://www.w3.org/2000/svg" width="512" height="512">
<path d="M0 0 C1.06087326 0.00007553 2.12174652 0.00015106 3.21476746 0.00022888 C4.3585939 0.00539017 5.50242035 0.01055145 6.6809082 0.01586914 C8.43912651 0.01799156 8.43912651 0.01799156 10.23286438 0.02015686 C13.98249852 0.02576151 17.73207331 0.03831483 21.48168945 0.05102539 C24.02140213 0.05603979 26.56111575 0.0606028 29.10083008 0.06469727 C35.33197018 0.07573245 41.56307558 0.09247514 47.79418945 0.11352539 C47.7996579 1.1137825 47.7996579 1.1137825 47.80523682 2.13424683 C47.84723316 9.11075987 47.91669849 16.08662551 48.00170898 23.06274414 C48.02983485 25.66196194 48.05109081 28.26126394 48.06518555 30.8605957 C48.08673042 34.60940396 48.13344322 38.35720873 48.18481445 42.10571289 C48.18604309 43.2571579 48.18727173 44.40860291 48.1885376 45.59494019 C48.34003002 54.04888275 50.11901171 60.58630151 54.41918945 67.86352539 C65.3143563 78.1852624 77.72080048 78.45192426 91.95288086 78.37426758 C94.28957058 78.36354658 96.62549176 78.37421298 98.9621582 78.38696289 C113.28092859 78.76309515 113.28092859 78.76309515 126.23168945 73.55102539 C128.54600993 71.92278739 130.05316983 71.0271986 132.79418945 70.11352539 C133.91572302 68.28277864 133.91572302 68.28277864 134.79418945 66.11352539 C135.13579102 65.44192383 135.47739258 64.77032227 135.8293457 64.07836914 C136.33788086 63.07483398 136.33788086 63.07483398 136.85668945 62.05102539 C137.19829102 61.37942383 137.53989258 60.70782227 137.8918457 60.01586914 C139.57783978 56.46141409 139.93725693 53.61059853 139.99951172 49.72412109 C140.01945694 48.62320633 140.03940216 47.52229156 140.05995178 46.38801575 C140.07666428 45.20044174 140.09337677 44.01286774 140.1105957 42.78930664 C140.14176735 40.9645002 140.14176735 40.9645002 140.17356873 39.10282898 C140.23903663 35.21061943 140.29793661 31.31834154 140.35668945 27.42602539 C140.39987728 24.78995057 140.44349165 22.1538827 140.48754883 19.51782227 C140.59551909 13.04979238 140.6946137 6.58171181 140.79418945 0.11352539 C156.96418945 0.11352539 173.13418945 0.11352539 189.79418945 0.11352539 C189.85026367 5.57012695 189.85026367 5.57012695 189.9074707 11.13696289 C189.95376614 14.68503615 190.00497074 18.23300727 190.05664062 21.78100586 C190.08976396 24.23471803 190.11783452 26.68850409 190.140625 29.14233398 C190.17440274 32.68252867 190.22673112 36.22205388 190.2824707 39.76196289 C190.29205559 41.39069839 190.29205559 41.39069839 190.30183411 43.05233765 C190.49921007 53.42584814 192.32438629 62.51324531 199.79418945 70.11352539 C209.89277027 78.81919851 221.54599614 78.46434913 234.27026367 78.42919922 C236.6576109 78.42604071 239.04371341 78.44956231 241.4309082 78.47485352 C252.53073273 78.52155988 264.13125795 78.4267801 273.04418945 70.90649414 C282.16261161 61.56418215 283.07244537 51.64781857 283.20825195 39.07836914 C283.2276181 37.95910538 283.24698425 36.83984161 283.26693726 35.68666077 C283.32631168 32.14152444 283.37294917 28.59635489 283.41918945 25.05102539 C283.45740802 22.63499627 283.49646197 20.21898021 283.53637695 17.80297852 C283.63353721 11.90656537 283.71344114 6.01027707 283.79418945 0.11352539 C299.96418945 0.11352539 316.13418945 0.11352539 332.79418945 0.11352539 C332.8199707 3.96782227 332.84575195 7.82211914 332.87231445 11.79321289 C332.9107897 15.54979578 332.95593254 19.30624396 333.00170898 23.06274414 C333.02983485 25.66196194 333.05109081 28.26126394 333.06518555 30.8605957 C333.08673042 34.60940396 333.13344322 38.35720873 333.18481445 42.10571289 C333.18665741 43.8328804 333.18665741 43.8328804 333.1885376 45.59494019 C333.34003002 54.04888275 335.11901171 60.58630151 339.41918945 67.86352539 C350.3143563 78.1852624 362.72080048 78.45192426 376.95288086 78.37426758 C379.28957058 78.36354658 381.62549176 78.37421298 383.9621582 78.38696289 C398.28092859 78.76309515 398.28092859 78.76309515 411.23168945 73.55102539 C413.54600993 71.92278739 415.05316983 71.0271986 417.79418945 70.11352539 C418.91572302 68.28277864 418.91572302 68.28277864 419.79418945 66.11352539 C420.13579102 65.44192383 420.47739258 64.77032227 420.8293457 64.07836914 C421.16836914 63.4093457 421.50739258 62.74032227 421.85668945 62.05102539 C422.19829102 61.37942383 422.53989258 60.70782227 422.8918457 60.01586914 C424.57783978 56.46141409 424.93725693 53.61059853 424.99951172 49.72412109 C425.01945694 48.62320633 425.03940216 47.52229156 425.05995178 46.38801575 C425.07666428 45.20044174 425.09337677 44.01286774 425.1105957 42.78930664 C425.14176735 40.9645002 425.14176735 40.9645002 425.17356873 39.10282898 C425.23903663 35.21061943 425.29793661 31.31834154 425.35668945 27.42602539 C425.39987728 24.78995057 425.44349165 22.1538827 425.48754883 19.51782227 C425.59471524 13.04979588 425.69648691 6.58170128 425.79418945 0.11352539 C433.23227368 0.03737048 440.67025708 -0.01511875 448.10864258 -0.05126953 C450.6383032 -0.06634247 453.16793774 -0.08680422 455.69750977 -0.11279297 C459.33657268 -0.14924077 462.97528961 -0.16621631 466.61450195 -0.17944336 C467.74284454 -0.19492722 468.87118713 -0.21041107 470.03372192 -0.22636414 C475.67986609 -0.22757036 479.97893467 -0.20368301 484.79418945 3.11352539 C489.2054573 8.00168706 489.94165669 10.98968769 489.92841053 17.40191269 C489.93076276 18.1655677 489.93311499 18.92922272 489.9355385 19.7160188 C489.94225101 22.3018024 489.9417696 24.88753602 489.94136047 27.47332764 C489.9446577 29.33518814 489.94838296 31.19704793 489.95250195 33.05890679 C489.96254614 38.19631685 489.96624262 43.33371522 489.96889126 48.47113371 C489.97278715 54.00364907 489.98236594 59.53615512 489.99110413 65.06866455 C490.01088852 78.43986894 490.02093711 91.81107411 490.02983192 105.18228948 C490.03421146 111.47349877 490.03957912 117.76470721 490.04482079 124.05591583 C490.06183481 144.95972892 490.07635506 165.86354183 490.08356953 186.76736069 C490.08404429 188.1196644 490.08452018 189.4719681 490.08499719 190.82427181 C490.08523356 191.49490412 490.08546994 192.16553643 490.08571348 192.85649093 C490.0869147 196.25434357 490.08813014 199.6521962 490.08935547 203.05004883 C490.08959562 203.7243674 490.08983577 204.39868597 490.0900832 205.09343844 C490.09797774 226.96097749 490.12141218 248.82846233 490.15391141 270.6959777 C490.18819533 293.80646375 490.20791818 316.91692443 490.21121377 340.02743936 C490.21338209 352.62890016 490.22217776 365.23028129 490.24767494 377.83171844 C490.26933403 388.56126856 490.27745602 399.29071966 490.26770816 410.02028915 C490.26314958 415.49744447 490.26513994 420.97439529 490.2844696 426.45152283 C490.302003 431.46281951 490.30118385 436.47376102 490.28557231 441.48506096 C490.28318124 443.30071258 490.28759681 445.11638817 490.29940096 446.93200299 C490.31443 449.39569501 490.30491068 451.85811387 490.28917408 454.32177353 C490.30450739 455.38501907 490.30450739 455.38501907 490.32015046 456.46974432 C490.25024731 461.46653358 489.00279646 464.31573798 485.79418945 468.11352539 C481.68406939 471.51597438 477.70377432 471.53883762 472.57443333 471.49384212 C471.74653533 471.49850204 470.91863733 471.50316196 470.06565151 471.50796309 C467.27924938 471.51995582 464.49333102 471.5105012 461.70692444 471.50120544 C459.69397971 471.50537648 457.68103733 471.51085273 455.66809934 471.51752526 C450.12696516 471.53202868 444.5859791 471.52771987 439.04483664 471.52035844 C433.0726878 471.51564117 427.10057168 471.52812381 421.12843323 471.53837585 C410.10177457 471.55460138 399.07515834 471.55700331 388.04849118 471.55207086 C377.86185973 471.54751635 367.67524592 471.54810954 357.48861504 471.55391121 C356.12299231 471.55466807 354.75736959 471.55542405 353.39174686 471.55617915 C351.33395908 471.55732433 349.27617131 471.55847421 347.21838355 471.5596384 C328.08309053 471.57034584 308.9478034 471.57506612 289.81250858 471.56716824 C289.09095417 471.56687106 288.36939975 471.56657389 287.62598005 471.56626771 C281.76618552 471.56381869 275.90639107 471.56120715 270.04659662 471.55858358 C247.18712376 471.54848027 224.32772434 471.55683714 201.46826172 471.58007812 C175.7933146 471.60613927 150.11841171 471.61900175 124.44345087 471.61189038 C121.70682713 471.6111743 118.97020339 471.61049991 116.23357964 471.60984993 C115.55973924 471.60968012 114.88589885 471.60951031 114.19163905 471.60933536 C104.01152724 471.60703058 93.83145644 471.61501786 83.65135384 471.6281414 C72.07646174 471.64303629 60.50166422 471.64354249 48.92677362 471.62607049 C43.01822868 471.61753074 37.10986766 471.61548337 31.20133209 471.63072205 C25.79601132 471.6444906 20.39103338 471.63990734 14.98573285 471.62048281 C13.02683934 471.61669833 11.06791887 471.61971457 9.10904921 471.63009446 C6.45221124 471.64317537 3.79657217 471.631761 1.13978672 471.61409664 C0.37405746 471.62374715 -0.39167179 471.63339767 -1.18060496 471.64334062 C-6.33549101 471.57266495 -9.29579629 470.45932976 -13.20581055 467.11352539 C-16.4600621 463.12065565 -16.6332699 459.42598522 -16.58612728 454.45599461 C-16.5907872 453.68887806 -16.59544712 452.92176151 -16.60024825 452.13139901 C-16.61223294 449.55174634 -16.60278957 446.97261699 -16.5934906 444.39295959 C-16.597662 442.52850744 -16.60313844 440.66405782 -16.60981041 438.79961294 C-16.62430918 433.66893166 -16.62000648 428.53841041 -16.6126436 423.40772021 C-16.60792518 417.87729216 -16.62040999 412.34689939 -16.63066101 406.81648254 C-16.6478803 395.97922523 -16.64868255 385.14202582 -16.64344811 374.30475838 C-16.63941107 365.49866733 -16.64084441 356.69259344 -16.64619637 347.88650322 C-16.64694479 346.63444973 -16.64769321 345.38239623 -16.64846431 344.09240172 C-16.64999574 341.54907978 -16.65153409 339.00575783 -16.65307928 336.46243589 C-16.66291205 319.37938771 -16.66706754 302.29634534 -16.65945339 285.21329594 C-16.65915622 284.54512449 -16.65885905 283.87695304 -16.65855287 283.18853398 C-16.65610386 277.76231116 -16.65349231 272.33608842 -16.65086873 266.90986568 C-16.64076556 245.74212642 -16.64912221 224.57446648 -16.67236328 203.40673828 C-16.69842622 179.63035144 -16.7112369 155.85400585 -16.70417553 132.07760042 C-16.70067784 119.48625409 -16.70295163 106.8949729 -16.72042656 94.30363655 C-16.73511741 83.58512729 -16.73582483 72.86672905 -16.71835565 62.14822204 C-16.70981766 56.67712952 -16.70776424 51.20623559 -16.7230072 45.7351532 C-16.73678102 40.72951416 -16.73218571 35.72424521 -16.71276797 30.71862798 C-16.70898511 28.90509025 -16.71199517 27.09152339 -16.72237962 25.27801145 C-16.73547173 22.81719056 -16.72403675 20.35766178 -16.7063818 17.89689732 C-16.71603231 17.1889245 -16.72568282 16.48095168 -16.73562577 15.75152513 C-16.66198606 10.76988359 -15.28754827 7.97274189 -12.20581055 4.11352539 C-8.3134777 0.69299046 -5.09989283 -0.01211376 0 0 Z M19.79418945 141.11352539 C19.79418945 238.13352539 19.79418945 335.15352539 19.79418945 435.11352539 C163.01418945 435.11352539 306.23418945 435.11352539 453.79418945 435.11352539 C453.79418945 338.09352539 453.79418945 241.07352539 453.79418945 141.11352539 C310.57418945 141.11352539 167.35418945 141.11352539 19.79418945 141.11352539 Z " fill="#000000" transform="translate(19.205810546875,40.886474609375)"/>
<path d="M0 0 C0.97514557 -0.0099852 1.95029114 -0.0199704 2.95498657 -0.03025818 C5.01421883 -0.04541912 7.07352449 -0.0524846 9.1328125 -0.05200195 C12.2720774 -0.05855828 15.40817008 -0.11304701 18.546875 -0.16992188 C20.55207257 -0.17872583 22.55728509 -0.18467878 24.5625 -0.1875 C25.4950058 -0.20905655 26.4275116 -0.2306131 27.38827515 -0.25282288 C33.0811719 -0.19340098 36.30256033 0.79578286 40.55142212 4.629776 C44.02905093 9.41279097 44.20553144 14.6290375 44.17285156 20.34179688 C44.1763562 21.10356735 44.17986084 21.86533783 44.18347168 22.65019226 C44.1922321 25.1536079 44.18646007 27.65673803 44.1796875 30.16015625 C44.18103579 31.90840712 44.18297768 33.65665763 44.18548584 35.40490723 C44.18842939 39.06310609 44.18416421 42.72120707 44.17480469 46.37939453 C44.16341062 51.06001834 44.1699742 55.74041274 44.18194962 60.42102814 C44.18918898 64.02933469 44.18687075 67.63758718 44.18169403 71.24589539 C44.18036328 72.97141039 44.18198507 74.69693037 44.18665314 76.42243958 C44.19175255 78.83709652 44.18396043 81.25138593 44.17285156 83.66601562 C44.17690002 84.37372604 44.18094849 85.08143646 44.18511963 85.81059265 C44.12770016 92.57404165 42.67477051 97.60717801 37.9140625 102.50390625 C33.31287382 105.01101665 28.76998638 104.81014401 23.66796875 104.8046875 C22.77923569 104.80897263 21.89050262 104.81325775 20.97483826 104.81767273 C19.09968923 104.82340247 17.22451798 104.8239263 15.34936523 104.81958008 C12.48968375 104.81642075 9.63103806 104.83989375 6.77148438 104.86523438 C4.9453138 104.86750766 3.11914045 104.86821073 1.29296875 104.8671875 C0.44279678 104.87639725 -0.40737518 104.88560699 -1.28330994 104.89509583 C-6.29879988 104.85625208 -9.73953312 104.27915119 -14.0859375 101.50390625 C-18.77241609 96.43744291 -19.23882333 92.43037 -19.26293945 85.76293945 C-19.26951065 84.97555893 -19.27608185 84.18817841 -19.28285217 83.37693787 C-19.30257147 80.76952008 -19.3142461 78.16215992 -19.32421875 75.5546875 C-19.32829428 74.66275381 -19.3323698 73.77082012 -19.33656883 72.85185814 C-19.35742598 68.12886156 -19.37172797 63.40589399 -19.38110352 58.68286133 C-19.39215367 53.81501325 -19.42653841 48.94762409 -19.46627522 44.07993793 C-19.49247953 40.32829464 -19.50079884 36.57675994 -19.50438499 32.82503319 C-19.50924286 31.03136288 -19.52083396 29.23769715 -19.53942299 27.44411659 C-19.56389113 24.92632846 -19.56283554 22.40971746 -19.5559082 19.8918457 C-19.56871826 19.15856049 -19.58152832 18.42527527 -19.59472656 17.66976929 C-19.54042047 12.2216359 -18.04781124 8.0833182 -15.0859375 3.50390625 C-10.79008405 -0.48566601 -5.55896082 0.01981564 0 0 Z " fill="#000000" transform="translate(386.0859375,-0.50390625)"/>
<path d="M0 0 C1.46771095 -0.00006042 1.46771095 -0.00006042 2.96507263 -0.00012207 C5.02682951 0.0052235 7.08858654 0.02276486 9.15014648 0.05175781 C12.30190398 0.09366106 15.4515261 0.09281904 18.60351562 0.0859375 C20.6106919 0.09642914 22.61785719 0.1093671 24.625 0.125 C25.56469131 0.12520142 26.50438263 0.12540283 27.47254944 0.12561035 C36.18884501 0.28300265 36.18884501 0.28300265 39.74609375 3.59375 C43.18586328 8.93703394 44.33244158 13.54370124 44.24780273 19.82641602 C44.25320572 20.60637939 44.2586087 21.38634277 44.26417542 22.18994141 C44.27658273 24.74291081 44.26022761 27.29473473 44.2421875 29.84765625 C44.24234266 31.63549356 44.24383444 33.4233312 44.24659729 35.21116638 C44.24797764 38.94748917 44.23548316 42.68342639 44.21264648 46.41967773 C44.18424231 51.19666968 44.18700965 55.97302259 44.1997366 60.75006199 C44.20670745 64.43822134 44.19888879 68.12623427 44.18647957 71.81437492 C44.18198019 73.57534154 44.18161497 75.33632396 44.18554497 77.09729195 C44.1884716 79.56201275 44.17188255 82.02586748 44.15014648 84.49047852 C44.15464813 85.21015305 44.15914978 85.92982758 44.16378784 86.67131042 C44.08972128 91.75339897 43.05026728 95.15494634 40.74609375 99.59375 C36.9633156 103.18738925 33.92991728 104.70448946 28.73706055 104.75488281 C27.53517342 104.76929413 27.53517342 104.76929413 26.30900574 104.78399658 C25.01522758 104.7903714 25.01522758 104.7903714 23.6953125 104.796875 C22.80374954 104.80257507 21.91218658 104.80827515 20.99360657 104.81414795 C19.10650823 104.82359349 17.21939343 104.83013016 15.33227539 104.83398438 C12.45494554 104.84367807 9.57833374 104.87470055 6.70117188 104.90625 C4.86588965 104.91278157 3.03060232 104.91803144 1.1953125 104.921875 C0.33886642 104.9342218 -0.51757965 104.9465686 -1.39997864 104.95928955 C-6.44163841 104.94062636 -9.8839653 104.3859004 -14.25390625 101.59375 C-19.27415904 96.30213219 -19.40414032 91.95287047 -19.41503906 84.90698242 C-19.42000397 84.13735672 -19.42496887 83.36773102 -19.43008423 82.57478333 C-19.44466882 80.03291931 -19.45150176 77.49111771 -19.45703125 74.94921875 C-19.46278586 73.17808532 -19.46854356 71.40695189 -19.4743042 69.63581848 C-19.48480373 65.9228181 -19.49065321 62.2098393 -19.49414062 58.49682617 C-19.49962236 53.74893681 -19.52364791 49.00133464 -19.55211258 44.25353527 C-19.57077536 40.59458086 -19.5759465 36.93569513 -19.5774765 33.27669716 C-19.58049547 31.5268732 -19.5884984 29.77705023 -19.60166168 28.02727318 C-19.61879819 25.57419621 -19.61682361 23.12181441 -19.61035156 20.66870117 C-19.61956635 19.9520932 -19.62878113 19.23548523 -19.63827515 18.49716187 C-19.58512798 12.0367058 -17.99191343 7.57318872 -13.70727539 2.69335938 C-9.53924717 -0.43288178 -5.01770698 -0.08773543 0 0 Z " fill="#000000" transform="translate(101.25390625,-0.59375)"/>
<path d="M0 0 C0.9553212 -0.00524185 1.9106424 -0.0104837 2.89491272 -0.0158844 C4.91129588 -0.02229548 6.92771648 -0.02097945 8.9440918 -0.01245117 C12.02135136 -0.00394441 15.09675194 -0.0327104 18.17382812 -0.06445312 C20.1367182 -0.06606542 22.09961154 -0.06548706 24.0625 -0.0625 C24.9782933 -0.07373398 25.89408661 -0.08496796 26.83763123 -0.09654236 C32.39812411 -0.0361913 35.779651 0.58580515 40.09765625 4.43359375 C43.37277292 8.68708129 43.52675949 12.54298068 43.48583984 17.72460938 C43.4910968 18.54636154 43.49635376 19.36811371 43.50177002 20.21476746 C43.5149428 22.92332121 43.50624168 25.63128431 43.49609375 28.33984375 C43.49811527 30.22644157 43.50102736 32.11303864 43.50479126 33.99963379 C43.50921092 37.95051525 43.50279505 41.90119302 43.48876953 45.85205078 C43.47167789 50.91290756 43.48152098 55.97328701 43.49948692 61.03412628 C43.5103344 64.92893054 43.50687398 68.82362188 43.49910355 72.71842957 C43.49710421 74.58432573 43.49955146 76.45023219 43.50654221 78.31611633 C43.51417253 80.92521264 43.50253053 83.53353906 43.48583984 86.14257812 C43.49494888 87.29604988 43.49494888 87.29604988 43.50424194 88.4728241 C43.45089612 92.98070532 42.86472718 95.84355087 40.09765625 99.43359375 C34.61135683 104.25083227 31.07820878 104.61248062 23.92578125 104.671875 C23.0106073 104.67994675 22.09543335 104.68801849 21.15252686 104.69633484 C19.21238095 104.71018004 17.27221064 104.72090024 15.33203125 104.72875977 C12.37322377 104.74594525 9.41554158 104.78982382 6.45703125 104.83398438 C4.5716228 104.84411376 2.68620484 104.8526291 0.80078125 104.859375 C-0.08067566 104.87688309 -0.96213257 104.89439117 -1.87030029 104.91242981 C-8.36581433 104.88964335 -11.75603414 103.14592962 -16.71484375 98.87109375 C-19.67844906 95.28357153 -19.06411357 90.77346418 -19.0793457 86.38549805 C-19.0859169 85.56564423 -19.0924881 84.74579041 -19.09925842 83.90109253 C-19.11897654 81.18666492 -19.13065032 78.47229258 -19.140625 75.7578125 C-19.14470053 74.83028482 -19.14877605 73.90275715 -19.15297508 72.94712257 C-19.17382885 68.03839974 -19.18813393 63.12970481 -19.19750977 58.22094727 C-19.20857656 53.1533725 -19.24298154 48.08623655 -19.28268147 43.01881695 C-19.30883566 39.11970711 -19.31720051 35.22070207 -19.32079124 31.32151222 C-19.3256598 29.45362189 -19.33728146 27.58573633 -19.35582924 25.71793175 C-19.38019685 23.10155893 -19.37926028 20.48632478 -19.37231445 17.86987305 C-19.38512451 17.10134506 -19.39793457 16.33281708 -19.41113281 15.54100037 C-19.36101985 10.35120194 -18.15963592 7.44087864 -14.90234375 3.43359375 C-10.44483562 -0.43155449 -5.61266073 -0.01795209 0 0 Z " fill="#000000" transform="translate(243.90234375,-0.43359375)"/>
<path d="M0 0 C1.2707563 -0.00855011 1.2707563 -0.00855011 2.56718445 -0.01727295 C4.36012526 -0.02671702 6.15308338 -0.03325458 7.94604492 -0.03710938 C10.67853383 -0.04680163 13.41026613 -0.07782462 16.14257812 -0.109375 C17.8867143 -0.11590678 19.63085583 -0.12115657 21.375 -0.125 C22.18769852 -0.1373468 23.00039703 -0.1496936 23.83772278 -0.16241455 C28.76774701 -0.14321641 32.10754334 0.4914561 36.38671875 3.203125 C41.21105988 8.41862893 41.56088245 12.66484228 41.625 19.52734375 C41.63307175 20.34757523 41.64114349 21.1678067 41.64945984 22.01289368 C41.66328743 23.75035498 41.67401551 25.48784329 41.68188477 27.2253418 C41.69338307 28.99332699 41.7138008 30.76127807 41.7434082 32.52905273 C41.78631477 35.09122169 41.80228716 37.65235902 41.8125 40.21484375 C41.83000809 40.99534592 41.84751617 41.77584808 41.86555481 42.58000183 C41.84389971 48.13522396 40.90750556 52.77103247 37.38671875 57.203125 C32.34448474 61.16059565 27.01850654 61.80222367 20.79296875 61.734375 C20.00200806 61.7382019 19.21104736 61.74202881 18.39611816 61.74597168 C16.73558264 61.7486752 15.07500337 61.74142408 13.41455078 61.72460938 C10.89257634 61.70317478 8.37344979 61.7244619 5.8515625 61.75 C4.22785838 61.74735644 2.60415602 61.74223088 0.98046875 61.734375 C0.23752563 61.74247192 -0.50541748 61.75056885 -1.27087402 61.75891113 C-6.7345313 61.66247372 -11.18295067 60.5119187 -15.61328125 57.203125 C-19.91333757 52.48043873 -20.19569306 47.3317471 -20.109375 41.19921875 C-20.11083023 40.35770767 -20.11228546 39.51619659 -20.11378479 38.64918518 C-20.11213331 36.8801017 -20.10065669 35.11100272 -20.07983398 33.34204102 C-20.0508253 30.6447208 -20.05925127 27.94936315 -20.07226562 25.25195312 C-20.06602865 23.52603218 -20.05763802 21.8001174 -20.046875 20.07421875 C-20.04981064 19.27406845 -20.05274628 18.47391815 -20.05577087 17.64952087 C-19.97422296 12.77778568 -19.27500207 9.4348343 -16.61328125 5.203125 C-11.30862033 0.29631365 -6.97368799 0.03619732 0 0 Z " fill="#000000" transform="translate(197.61328125,297.796875)"/>
<path d="M0 0 C1.2707563 -0.00855011 1.2707563 -0.00855011 2.56718445 -0.01727295 C4.36012526 -0.02671702 6.15308338 -0.03325458 7.94604492 -0.03710938 C10.67853383 -0.04680163 13.41026613 -0.07782462 16.14257812 -0.109375 C17.8867143 -0.11590678 19.63085583 -0.12115657 21.375 -0.125 C22.18769852 -0.1373468 23.00039703 -0.1496936 23.83772278 -0.16241455 C28.76774701 -0.14321641 32.10754334 0.4914561 36.38671875 3.203125 C41.2767008 8.48959208 41.56203526 12.82894707 41.625 19.78125 C41.63307175 20.62604919 41.64114349 21.47084839 41.64945984 22.34124756 C41.66328709 24.12998409 41.67401532 25.91874686 41.68188477 27.70751953 C41.69906787 30.42922674 41.74296149 33.1497094 41.78710938 35.87109375 C41.7972396 37.61197027 41.80575468 39.35285708 41.8125 41.09375 C41.83000809 41.90128723 41.84751617 42.70882446 41.86555481 43.54083252 C41.8451786 48.90794723 41.09991508 53.14234382 37.38671875 57.203125 C32.22698535 61.05484667 27.0776271 61.802868 20.79296875 61.734375 C20.00200806 61.7382019 19.21104736 61.74202881 18.39611816 61.74597168 C16.73558264 61.7486752 15.07500337 61.74142408 13.41455078 61.72460938 C10.89257634 61.70317478 8.37344979 61.7244619 5.8515625 61.75 C4.22785838 61.74735644 2.60415602 61.74223088 0.98046875 61.734375 C0.23752563 61.74247192 -0.50541748 61.75056885 -1.27087402 61.75891113 C-6.70010987 61.66308128 -11.27432593 60.61264879 -15.61328125 57.203125 C-19.5922889 52.14850399 -20.20337619 46.81710303 -20.109375 40.57421875 C-20.11083023 39.78088638 -20.11228546 38.98755402 -20.11378479 38.17018127 C-20.11213618 36.505425 -20.10069234 34.84065181 -20.07983398 33.17602539 C-20.0508128 30.6433782 -20.05925958 28.11282133 -20.07226562 25.58007812 C-20.06602852 23.95311494 -20.05763779 22.32615829 -20.046875 20.69921875 C-20.05127846 19.57706215 -20.05127846 19.57706215 -20.05577087 18.43223572 C-19.96517 13.32927365 -18.98566987 9.74276689 -16.61328125 5.203125 C-11.3859853 0.23719385 -6.93322849 0.03598731 0 0 Z " fill="#000000" transform="translate(102.61328125,297.796875)"/>
<path d="M0 0 C1.2707563 -0.00855011 1.2707563 -0.00855011 2.56718445 -0.01727295 C4.36012526 -0.02671702 6.15308338 -0.03325458 7.94604492 -0.03710938 C10.67853383 -0.04680163 13.41026613 -0.07782462 16.14257812 -0.109375 C17.8867143 -0.11590678 19.63085583 -0.12115657 21.375 -0.125 C22.18769852 -0.1373468 23.00039703 -0.1496936 23.83772278 -0.16241455 C28.76904568 -0.14321135 32.10405166 0.49572437 36.38671875 3.203125 C41.51849914 8.61229893 41.55525754 13.1969616 41.625 20.40625 C41.63307175 21.20287048 41.64114349 21.99949097 41.64945984 22.82025146 C41.66326763 24.50465744 41.67400451 26.18909102 41.68188477 27.87353516 C41.6933932 29.58618438 41.71382715 31.29879806 41.7434082 33.01123047 C41.78632135 35.49731601 41.8022862 37.98233893 41.8125 40.46875 C41.83000809 41.22424133 41.84751617 41.97973267 41.86555481 42.75811768 C41.84327641 48.29619827 40.507921 52.58949265 37.38671875 57.203125 C32.17112366 61.24521119 27.02407213 61.36844736 20.62109375 61.40625 C19.86886536 61.41195007 19.11663696 61.41765015 18.34161377 61.42352295 C16.75135698 61.43295224 15.16108084 61.43949869 13.57080078 61.44335938 C11.15882503 61.45303631 8.74771247 61.4840663 6.3359375 61.515625 C4.78516127 61.52215889 3.23437899 61.52740784 1.68359375 61.53125 C0.97184998 61.5435968 0.2601062 61.5559436 -0.47320557 61.56866455 C-5.7837288 61.54547313 -9.75884392 60.38833933 -14.61328125 58.203125 C-19.63543381 53.0521993 -19.78061737 48.48484286 -19.81640625 41.58984375 C-19.82210632 40.74267288 -19.8278064 39.89550201 -19.8336792 39.0226593 C-19.84312327 37.22971849 -19.84966083 35.43676037 -19.85351562 33.64379883 C-19.86320788 30.91130992 -19.89423087 28.17957762 -19.92578125 25.44726562 C-19.93231303 23.70312945 -19.93756282 21.95898792 -19.94140625 20.21484375 C-19.95375305 19.40214523 -19.96609985 18.58944672 -19.9788208 17.75212097 C-19.95962266 12.82209674 -19.32495015 9.48230041 -16.61328125 5.203125 C-11.30862033 0.29631365 -6.97368799 0.03619732 0 0 Z " fill="#000000" transform="translate(292.61328125,297.796875)"/>
<path d="M0 0 C1.2707563 -0.00855011 1.2707563 -0.00855011 2.56718445 -0.01727295 C4.36012526 -0.02671702 6.15308338 -0.03325458 7.94604492 -0.03710938 C10.67853383 -0.04680163 13.41026613 -0.07782462 16.14257812 -0.109375 C17.8867143 -0.11590678 19.63085583 -0.12115657 21.375 -0.125 C22.18769852 -0.1373468 23.00039703 -0.1496936 23.83772278 -0.16241455 C28.76904568 -0.14321135 32.10405166 0.49572437 36.38671875 3.203125 C41.51849914 8.61229893 41.55525754 13.1969616 41.625 20.40625 C41.63307175 21.20287048 41.64114349 21.99949097 41.64945984 22.82025146 C41.66326763 24.50465744 41.67400451 26.18909102 41.68188477 27.87353516 C41.6933932 29.58618438 41.71382715 31.29879806 41.7434082 33.01123047 C41.78632135 35.49731601 41.8022862 37.98233893 41.8125 40.46875 C41.83000809 41.22424133 41.84751617 41.97973267 41.86555481 42.75811768 C41.84327641 48.29619827 40.507921 52.58949265 37.38671875 57.203125 C32.17112366 61.24521119 27.02407213 61.36844736 20.62109375 61.40625 C19.86886536 61.41195007 19.11663696 61.41765015 18.34161377 61.42352295 C16.75135698 61.43295224 15.16108084 61.43949869 13.57080078 61.44335938 C11.15882503 61.45303631 8.74771247 61.4840663 6.3359375 61.515625 C4.78516127 61.52215889 3.23437899 61.52740784 1.68359375 61.53125 C0.97184998 61.5435968 0.2601062 61.5559436 -0.47320557 61.56866455 C-5.7837288 61.54547313 -9.75884392 60.38833933 -14.61328125 58.203125 C-19.63543381 53.0521993 -19.78061737 48.48484286 -19.81640625 41.58984375 C-19.82210632 40.74267288 -19.8278064 39.89550201 -19.8336792 39.0226593 C-19.84312327 37.22971849 -19.84966083 35.43676037 -19.85351562 33.64379883 C-19.86320788 30.91130992 -19.89423087 28.17957762 -19.92578125 25.44726562 C-19.93231303 23.70312945 -19.93756282 21.95898792 -19.94140625 20.21484375 C-19.95375305 19.40214523 -19.96609985 18.58944672 -19.9788208 17.75212097 C-19.95962266 12.82209674 -19.32495015 9.48230041 -16.61328125 5.203125 C-11.30862033 0.29631365 -6.97368799 0.03619732 0 0 Z " fill="#000000" transform="translate(387.61328125,297.796875)"/>
<path d="M0 0 C0.89297791 -0.00807175 1.78595581 -0.01614349 2.70599365 -0.02445984 C4.59906063 -0.03830445 6.49215262 -0.04902491 8.38525391 -0.05688477 C11.2716451 -0.07406855 14.15688222 -0.11794717 17.04296875 -0.16210938 C18.88280408 -0.17223895 20.72264915 -0.18075422 22.5625 -0.1875 C23.42208313 -0.20500809 24.28166626 -0.22251617 25.16729736 -0.24055481 C30.6284638 -0.22092564 33.70457845 0.61647618 38.046875 4.23828125 C42.23048452 8.99894036 42.21749352 13.53750018 42.25 19.6328125 C42.25570007 20.45778732 42.26140015 21.28276215 42.26727295 22.13273621 C42.27671623 23.87859823 42.28325426 25.62447802 42.28710938 27.37036133 C42.29680086 30.03043043 42.32782412 32.68972203 42.359375 35.34960938 C42.36590689 37.04817251 42.37115663 38.74674115 42.375 40.4453125 C42.3873468 41.23613724 42.3996936 42.02696198 42.41241455 42.8417511 C42.3865288 49.31644567 40.91096152 53.1830653 36.47290039 58.07617188 C32.40891785 61.1952182 28.17126736 60.92264981 23.23046875 60.83203125 C22.29638687 60.83207153 21.36230499 60.83211182 20.3999176 60.83215332 C18.43231448 60.82680928 16.4647111 60.80927445 14.49731445 60.78027344 C11.49038323 60.73836499 8.48569017 60.73921291 5.47851562 60.74609375 C3.56248448 60.73560214 1.64646484 60.72266419 -0.26953125 60.70703125 C-1.16547501 60.70682983 -2.06141876 60.70662842 -2.98451233 60.7064209 C-11.3508894 60.54815555 -11.3508894 60.54815555 -14.953125 57.23828125 C-18.73893094 51.83435576 -19.54348115 46.82556201 -19.44921875 40.35546875 C-19.45067398 39.53756866 -19.45212921 38.71966858 -19.45362854 37.87698364 C-19.45197963 36.16095387 -19.44053242 34.44490774 -19.41967773 32.72900391 C-19.39062149 30.11296506 -19.39910965 27.49894494 -19.41210938 24.8828125 C-19.40587353 23.20702148 -19.39748379 21.5312368 -19.38671875 19.85546875 C-19.38965439 19.08032928 -19.39259003 18.30518982 -19.39561462 17.50656128 C-19.31266629 12.70319717 -18.56894042 9.41247976 -15.953125 5.23828125 C-10.60524335 0.41214415 -7.0270832 0.05982457 0 0 Z " fill="#000000" transform="translate(291.953125,206.76171875)"/>
<path d="M0 0 C0.89297791 -0.00807175 1.78595581 -0.01614349 2.70599365 -0.02445984 C4.59906063 -0.03830445 6.49215262 -0.04902491 8.38525391 -0.05688477 C11.2716451 -0.07406855 14.15688222 -0.11794717 17.04296875 -0.16210938 C18.88280408 -0.17223895 20.72264915 -0.18075422 22.5625 -0.1875 C23.42208313 -0.20500809 24.28166626 -0.22251617 25.16729736 -0.24055481 C30.62989184 -0.22092051 33.70075423 0.62002205 38.046875 4.23828125 C42.41334232 9.05645208 42.21427849 13.99710937 42.25 20.2578125 C42.25570007 21.03460861 42.26140015 21.81140472 42.26727295 22.61174011 C42.27670248 24.25327196 42.28324879 25.89482256 42.28710938 27.53637695 C42.2968011 30.03175363 42.32783719 32.52630126 42.359375 35.02148438 C42.36590731 36.62108889 42.37115689 38.22069926 42.375 39.8203125 C42.3873468 40.55909134 42.3996936 41.29787018 42.41241455 42.05903625 C42.38487314 48.55007482 40.87640101 53.17674573 36.47290039 58.13867188 C32.40816835 61.18837196 28.13392554 60.92196492 23.23046875 60.83203125 C22.29638687 60.83207153 21.36230499 60.83211182 20.3999176 60.83215332 C18.43231448 60.82680928 16.4647111 60.80927445 14.49731445 60.78027344 C11.49038323 60.73836499 8.48569017 60.73921291 5.47851562 60.74609375 C3.56248448 60.73560214 1.64646484 60.72266419 -0.26953125 60.70703125 C-1.16547501 60.70682983 -2.06141876 60.70662842 -2.98451233 60.7064209 C-7.73003145 60.61665071 -11.25679966 60.5268958 -14.953125 57.23828125 C-18.87871555 51.86175546 -19.54141022 47.78418447 -19.44921875 41.234375 C-19.45067398 40.39286392 -19.45212921 39.55135284 -19.45362854 38.68434143 C-19.45197706 36.91525795 -19.44050044 35.14615897 -19.41967773 33.37719727 C-19.39066905 30.67987705 -19.39909502 27.9845194 -19.41210938 25.28710938 C-19.4058724 23.56118843 -19.39748177 21.83527365 -19.38671875 20.109375 C-19.38965439 19.3092247 -19.39259003 18.5090744 -19.39561462 17.68467712 C-19.31408688 12.8141472 -18.61908926 9.46659862 -15.953125 5.23828125 C-10.60524335 0.41214415 -7.0270832 0.05982457 0 0 Z " fill="#000000" transform="translate(386.953125,206.76171875)"/>
<path d="M0 0 C0.91330078 -0.00287018 1.82660156 -0.00574036 2.76757812 -0.00869751 C4.69401674 -0.01073439 6.62047622 -0.00523085 8.546875 0.00732422 C11.49005524 0.02338324 14.4318623 0.0074628 17.375 -0.01171875 C19.25000302 -0.00973625 21.12500519 -0.00589244 23 0 C23.87720703 -0.00607269 24.75441406 -0.01214539 25.65820312 -0.0184021 C30.43765129 0.03642469 33.61553303 0.30995267 37.5 3.3984375 C42.53895972 8.85731053 42.66197746 13.20627765 42.703125 20.41796875 C42.70882507 21.19476486 42.71452515 21.97156097 42.72039795 22.77189636 C42.72982748 24.41342821 42.73637379 26.05497881 42.74023438 27.6965332 C42.7499261 30.19190988 42.78096219 32.68645751 42.8125 35.18164062 C42.81903231 36.78124514 42.82428189 38.38085551 42.828125 39.98046875 C42.8404718 40.71924759 42.8528186 41.45802643 42.86553955 42.2191925 C42.8438617 47.32829204 41.88445949 50.85781028 39.5 55.3984375 C34.22875898 60.28397795 30.53062451 60.5772631 23.546875 60.63671875 C22.65389709 60.6447905 21.76091919 60.65286224 20.84088135 60.66117859 C18.94781437 60.6750232 17.05472238 60.68574366 15.16162109 60.69360352 C12.2752299 60.7107873 9.38999278 60.75466592 6.50390625 60.79882812 C4.66407092 60.8089577 2.82422585 60.81747297 0.984375 60.82421875 C0.12479187 60.84172684 -0.73479126 60.85923492 -1.62042236 60.87727356 C-7.0815888 60.85764439 -10.15770345 60.02024257 -14.5 56.3984375 C-18.66031929 51.66428106 -18.68161664 47.13903162 -18.73828125 41.07421875 C-18.746353 40.25398727 -18.75442474 39.4337558 -18.76274109 38.58866882 C-18.77656868 36.85120752 -18.78729676 35.11371921 -18.79516602 33.3762207 C-18.80666432 31.60823551 -18.82708205 29.84028443 -18.85668945 28.07250977 C-18.89959602 25.51034081 -18.91556841 22.94920348 -18.92578125 20.38671875 C-18.94328934 19.60621658 -18.96079742 18.82571442 -18.97883606 18.02156067 C-18.9568621 12.38454052 -17.7719378 8.04653831 -14.5 3.3984375 C-10.26664269 -0.47926411 -5.44621327 -0.03770282 0 0 Z " fill="#000000" transform="translate(197.5,389.6015625)"/>
<path d="M0 0 C0.91330078 -0.00287018 1.82660156 -0.00574036 2.76757812 -0.00869751 C4.69401674 -0.01073439 6.62047622 -0.00523085 8.546875 0.00732422 C11.49005524 0.02338324 14.4318623 0.0074628 17.375 -0.01171875 C19.25000302 -0.00973625 21.12500519 -0.00589244 23 0 C23.87720703 -0.00607269 24.75441406 -0.01214539 25.65820312 -0.0184021 C30.43765129 0.03642469 33.61553303 0.30995267 37.5 3.3984375 C42.53895972 8.85731053 42.66197746 13.20627765 42.703125 20.41796875 C42.70882507 21.19476486 42.71452515 21.97156097 42.72039795 22.77189636 C42.72982748 24.41342821 42.73637379 26.05497881 42.74023438 27.6965332 C42.7499261 30.19190988 42.78096219 32.68645751 42.8125 35.18164062 C42.81903231 36.78124514 42.82428189 38.38085551 42.828125 39.98046875 C42.8404718 40.71924759 42.8528186 41.45802643 42.86553955 42.2191925 C42.8438617 47.32829204 41.88445949 50.85781028 39.5 55.3984375 C34.22875898 60.28397795 30.53062451 60.5772631 23.546875 60.63671875 C22.65389709 60.6447905 21.76091919 60.65286224 20.84088135 60.66117859 C18.94781437 60.6750232 17.05472238 60.68574366 15.16162109 60.69360352 C12.2752299 60.7107873 9.38999278 60.75466592 6.50390625 60.79882812 C4.66407092 60.8089577 2.82422585 60.81747297 0.984375 60.82421875 C0.12479187 60.84172684 -0.73479126 60.85923492 -1.62042236 60.87727356 C-7.0815888 60.85764439 -10.15770345 60.02024257 -14.5 56.3984375 C-18.66031929 51.66428106 -18.68161664 47.13903162 -18.73828125 41.07421875 C-18.746353 40.25398727 -18.75442474 39.4337558 -18.76274109 38.58866882 C-18.77656868 36.85120752 -18.78729676 35.11371921 -18.79516602 33.3762207 C-18.80666432 31.60823551 -18.82708205 29.84028443 -18.85668945 28.07250977 C-18.89959602 25.51034081 -18.91556841 22.94920348 -18.92578125 20.38671875 C-18.94328934 19.60621658 -18.96079742 18.82571442 -18.97883606 18.02156067 C-18.9568621 12.38454052 -17.7719378 8.04653831 -14.5 3.3984375 C-10.26664269 -0.47926411 -5.44621327 -0.03770282 0 0 Z " fill="#000000" transform="translate(102.5,389.6015625)"/>
</svg>
