<?xml version="1.0" encoding="UTF-8"?>
<svg version="1.1" xmlns="http://www.w3.org/2000/svg" width="2000" height="2000">
<path d="M0 0 C1.54850009 -0.00165103 3.09699977 -0.00373794 4.64549875 -0.0062201 C8.90777048 -0.01177854 13.17002209 -0.01111585 17.43229629 -0.00944251 C22.06678179 -0.00871095 26.70126165 -0.01373544 31.33574474 -0.01801753 C40.53079923 -0.02559604 49.72584792 -0.02779052 58.92090521 -0.02834659 C69.93340412 -0.02926036 80.94589767 -0.03592828 91.95839427 -0.04269341 C118.5742612 -0.05875367 145.19012755 -0.06465652 171.80599845 -0.06944216 C184.39542004 -0.07177787 196.98484118 -0.07538048 209.57426242 -0.07913754 C251.98920987 -0.09177136 294.40415736 -0.10258529 336.81910665 -0.10597799 C338.84593687 -0.10614023 340.87276709 -0.10630579 342.89959732 -0.10647238 C346.96438994 -0.10680617 351.02918256 -0.10713666 355.09397519 -0.10746694 C359.85278938 -0.10785383 364.61160358 -0.10824344 369.37041777 -0.108638 C370.73242514 -0.10875042 372.09443252 -0.10886184 373.45643989 -0.10897225 C417.20029537 -0.11252176 460.94413442 -0.12760096 504.68798362 -0.15091 C551.61009035 -0.17590246 598.53218804 -0.19029499 645.45430267 -0.19150805 C650.52937309 -0.19167951 655.60444351 -0.19189494 660.67951393 -0.19214249 C662.55396682 -0.19222614 662.55396682 -0.19222614 664.46628745 -0.19231148 C684.58467939 -0.19346258 704.70305435 -0.20448945 724.82144055 -0.21902954 C745.03821663 -0.23338824 765.25497091 -0.23663505 785.47175069 -0.22858956 C797.4842875 -0.22413052 809.49675399 -0.22800496 821.50928158 -0.24382807 C829.53408578 -0.25357107 837.55884066 -0.2524063 845.5836444 -0.24239184 C850.15546252 -0.23699499 854.7271455 -0.23630531 859.29895248 -0.24890056 C863.46365847 -0.26027842 867.62811995 -0.25767262 871.79281767 -0.24423349 C873.28468021 -0.2418115 874.77656184 -0.24434073 876.26840332 -0.25262997 C894.52854342 -0.34736481 907.3882077 2.94442779 920.87608147 15.50766373 C921.43824112 16.02936097 922.00040077 16.55105821 922.57959557 17.08856446 C929.22913768 23.29889982 935.65385998 29.7317432 942.07725334 36.17415237 C943.44028378 37.53746572 944.8035361 38.90055725 946.16699028 40.26344681 C949.8277715 43.92394396 953.4854852 47.58749187 957.14261055 51.25164104 C960.98611543 55.10145116 964.83250422 58.94837788 968.6785717 62.79562759 C975.94863463 70.0687852 983.21614814 77.34448461 990.48272228 84.62112767 C998.74262803 92.8922303 1007.0053887 101.16047837 1015.26838875 109.42848957 C1029.3885289 123.55729189 1043.5065551 137.68820362 1057.62219048 151.8215065 C1058.21713058 152.4171862 1058.81207069 153.01286591 1059.42503929 153.62659651 C1060.51609007 154.71901532 1061.60712549 155.81144949 1062.6981411 156.90390342 C1067.31500925 161.52662848 1071.93335617 166.14768075 1076.56854057 170.75204849 C1077.47258125 171.65030853 1078.37662193 172.54856857 1079.30805779 173.47404861 C1080.02969423 174.19103235 1080.02969423 174.19103235 1080.76590919 174.92250061 C1091.90777693 185.99320326 1103.03782155 197.07573276 1114.16151714 208.16469288 C1120.58544468 214.56801662 1127.01308066 220.96753341 1133.44956779 227.35823441 C1139.07932172 232.94796251 1144.70186911 238.5448257 1150.3160879 244.15015835 C1153.28121081 247.11009827 1156.24966705 250.06649961 1159.22682953 253.01433372 C1162.03213178 255.792219 1164.8276096 258.57964143 1167.6162529 261.3742466 C1168.63335754 262.39026314 1169.6538179 263.40293497 1170.67810631 264.41170883 C1181.85864497 275.43132901 1190.81516934 286.44496859 1191.30001086 302.65692484 C1191.31715813 305.1814322 1191.31799358 307.70608346 1191.3057642 310.23061943 C1191.30969706 311.64755116 1191.31494164 313.06447974 1191.32136998 314.48140234 C1191.33522366 318.36900158 1191.3305174 322.25638845 1191.32274113 326.14399637 C1191.31758842 330.37554944 1191.32983969 334.60705829 1191.33987266 338.83859766 C1191.3550599 346.25268721 1191.35916373 353.6667185 1191.35599518 361.08082199 C1191.35133396 372.10528908 1191.36382379 383.12969019 1191.37982491 394.15414427 C1191.40625636 412.699485 1191.4187829 431.2448108 1191.42338943 449.79016876 C1191.42799601 468.15284706 1191.4387799 486.5155046 1191.45781708 504.87817383 C1191.45899721 506.01983618 1191.46017733 507.16149853 1191.46139322 508.33775671 C1191.46741863 514.13566422 1191.47355443 519.93357162 1191.47973273 525.73147897 C1191.52329696 566.79984835 1191.55300611 607.86821722 1191.57456779 648.93660355 C1191.5955466 688.83439758 1191.62280088 728.73217927 1191.65855217 768.62996292 C1191.65965165 769.85974973 1191.66075112 771.08953654 1191.66188392 772.35658962 C1191.67293224 784.70659506 1191.68410815 797.05660039 1191.69537754 809.40660564 C1191.71833177 834.56507231 1191.74043437 859.72353971 1191.76202202 884.8820076 C1191.76301564 886.03875757 1191.76400926 887.19550755 1191.76503299 888.38731055 C1191.83128947 965.6353395 1191.8776937 1042.88338296 1191.92100334 1120.13142776 C1192.94259041 1120.46966064 1193.96417747 1120.80789352 1195.01672173 1121.15637589 C1196.37488691 1121.60724024 1197.73303523 1122.05815541 1199.09116936 1122.50911331 C1199.76238068 1122.73119209 1200.433592 1122.95327087 1201.12514305 1123.18207932 C1206.43424393 1124.94664701 1211.66879939 1126.85200062 1216.85850334 1128.94392776 C1217.70130852 1129.28303177 1218.54411369 1129.62213577 1219.41245842 1129.97151566 C1226.79644667 1132.9927133 1233.91747434 1136.41033022 1240.97764397 1140.11922073 C1242.91163098 1141.12654613 1244.85913223 1142.10194996 1246.81162834 1143.07283401 C1265.31862341 1152.40532482 1283.06475277 1163.77238439 1298.92100334 1177.13142776 C1300.01027379 1178.03056026 1301.1001279 1178.92898607 1302.19053459 1179.82674026 C1317.02942763 1192.12916424 1331.71765074 1205.24452735 1343.72178459 1220.37361526 C1345.99636751 1223.22593417 1348.35970327 1225.98636536 1350.73350334 1228.75642776 C1360.27211521 1240.20572431 1368.48907775 1252.55831718 1375.93906975 1265.4483223 C1376.84384805 1266.999178 1377.77763234 1268.53301464 1378.71397209 1270.06502151 C1407.71558217 1317.91435988 1420.12971403 1375.89606813 1420.17100334 1431.31892776 C1420.17201546 1432.55757584 1420.17201546 1432.55757584 1420.17304802 1433.8212471 C1420.11835858 1476.35634205 1412.11475396 1521.00701241 1393.67100334 1559.62361526 C1391.71312176 1566.17028181 1395.70135148 1572.70064419 1398.31162834 1578.58845901 C1398.76330376 1579.62238281 1399.21497917 1580.65630661 1399.68034172 1581.72156143 C1400.6584227 1583.9585911 1401.63955697 1586.19428773 1402.62339592 1588.42879105 C1405.00085285 1593.82879497 1407.36026688 1599.23666523 1409.72166252 1604.64370728 C1410.53487934 1606.50501096 1411.34894976 1608.36593938 1412.16319084 1610.2267952 C1416.88056342 1621.01206064 1421.52593732 1631.82734795 1426.14915276 1642.65324783 C1433.84461577 1660.67303236 1441.60848073 1678.66210149 1449.42100334 1696.63142776 C1457.01142477 1714.08990898 1464.55689296 1731.56673858 1472.04600334 1749.06892776 C1472.70721687 1750.6141713 1472.70721687 1750.6141713 1473.38178825 1752.19063187 C1473.81649437 1753.20653397 1474.25120049 1754.22243607 1474.69907951 1755.26912308 C1478.84529637 1764.95805544 1482.99310024 1774.64606942 1487.18687248 1784.31453323 C1488.20050916 1786.65221782 1489.21151126 1788.99104694 1490.21958733 1791.3311348 C1492.78833229 1797.28153467 1495.39928478 1803.20728547 1498.07861137 1809.1085701 C1499.57126573 1812.40503642 1501.04546355 1815.7096095 1502.51801872 1819.01509476 C1503.22956654 1820.59992301 1503.94928333 1822.18111617 1504.67823601 1823.75801468 C1512.01252767 1839.63554009 1515.33738657 1854.94379665 1509.98350334 1872.14314651 C1505.28445244 1884.62500046 1498.27663797 1895.39303679 1485.92100334 1901.13142776 C1474.21277581 1906.03790133 1461.72017978 1905.04696722 1449.66319084 1902.19002151 C1448.73688362 1901.97482361 1447.8105764 1901.7596257 1446.85619926 1901.53790665 C1432.1066979 1898.05664644 1417.45497985 1894.16476516 1402.79441643 1890.33015823 C1399.54968049 1889.48267321 1396.30380657 1888.63959377 1393.05794144 1887.79644585 C1376.28761369 1883.4383288 1359.54346818 1879.03033239 1342.92100334 1874.13142776 C1342.65110588 1875.01234085 1342.38120842 1875.89325394 1342.10313225 1876.80086136 C1340.98742966 1879.9442762 1339.69080145 1882.55061981 1338.00694084 1885.42049026 C1337.41920891 1886.42966507 1336.83147697 1887.43883987 1336.22593498 1888.47859573 C1335.58905754 1889.5602803 1334.9521801 1890.64196487 1334.29600334 1891.75642776 C1333.27666348 1893.50266652 1332.25940424 1895.25010759 1331.24212456 1896.99754715 C1330.53605772 1898.20998184 1329.82933248 1899.42203334 1329.12197685 1900.63371658 C1325.36726822 1907.06744759 1321.67349998 1913.53536581 1317.98350334 1920.00642776 C1317.31929161 1921.16964928 1316.65498461 1922.33281641 1315.99058342 1923.49592972 C1312.90227513 1928.90309083 1309.81751241 1934.3122561 1306.73695183 1939.72383499 C1302.47993864 1947.20167007 1298.20831924 1954.67090978 1293.92100334 1962.13142776 C1293.43986076 1962.97173538 1292.95871819 1963.812043 1292.46299553 1964.67781448 C1283.87181213 1979.63008823 1274.82778775 1991.27669337 1257.64756584 1996.44002151 C1244.62462808 1999.74239972 1231.29109661 1999.0335671 1219.48350334 1992.25642776 C1215.8336534 1989.88722693 1212.80538449 1987.41641741 1209.92100334 1984.13142776 C1208.99287834 1983.20330276 1208.06475334 1982.27517776 1207.10850334 1981.31892776 C1204.22569885 1977.89442802 1202.25069967 1974.12625726 1200.28428459 1970.13142776 C1199.93885612 1969.43430176 1199.59342766 1968.73717575 1199.23753166 1968.01892471 C1194.87081915 1959.11199887 1190.90083993 1950.02832187 1186.92100334 1940.94392776 C1186.08323531 1939.03929702 1185.24525944 1937.13475768 1184.40708733 1935.23030472 C1177.9071401 1920.44543858 1171.48637054 1905.62663163 1165.09287834 1890.79549026 C1160.3316082 1879.75069019 1155.53206742 1868.72256317 1150.73350334 1857.69392776 C1149.03025147 1853.77861836 1147.3271436 1849.86324634 1145.62412834 1845.94783401 C1145.21626091 1845.01011658 1144.80839348 1844.07239914 1144.38816643 1843.10626602 C1139.39602992 1831.62730157 1134.41992689 1820.14141288 1129.44639397 1808.65437698 C1127.26688727 1803.62072116 1125.086649 1798.58738259 1122.90586662 1793.55427933 C1121.80727021 1791.01873764 1120.7093367 1788.48291051 1119.61192131 1785.94685745 C1117.04928027 1780.02691472 1114.47690215 1774.11150797 1111.88194084 1768.20564651 C1111.41231926 1767.13435501 1110.94269768 1766.06306351 1110.45884514 1764.95930862 C1109.58058613 1762.95746243 1108.69939469 1760.95689934 1107.81480217 1758.95784378 C1107.43090324 1758.08184525 1107.04700432 1757.20584671 1106.65147209 1756.30330276 C1106.14716667 1755.16006546 1106.14716667 1755.16006546 1105.63267326 1753.99373245 C1104.92100334 1752.13142776 1104.92100334 1752.13142776 1104.92100334 1750.13142776 C1098.65100334 1750.13142776 1092.38100334 1750.13142776 1085.92100334 1750.13142776 C1084.93100334 1753.10142776 1083.94100334 1756.07142776 1082.92100334 1759.13142776 C1081.98833832 1761.42009854 1081.0229601 1763.69575951 1080.02256584 1765.95564651 C1079.75188286 1766.57052429 1079.48119987 1767.18540207 1079.20231438 1767.81891251 C1078.62248112 1769.13489612 1078.04085736 1770.45009208 1077.4575634 1771.76454544 C1076.19522323 1774.60948067 1074.94199942 1777.45840601 1073.68800163 1780.30702591 C1073.03951532 1781.77984401 1072.39056668 1783.25245863 1071.74116325 1784.72487259 C1068.72912867 1791.55570106 1065.7580853 1798.40377884 1062.79600334 1805.25642776 C1061.72200218 1807.73829311 1060.64784579 1810.22009037 1059.57334709 1812.70174026 C1059.29113808 1813.35356781 1059.00892906 1814.00539536 1058.71816826 1814.67697525 C1054.6084023 1824.16618694 1050.48252418 1833.6484052 1046.35850334 1843.13142776 C1045.93413994 1844.10726822 1045.50977654 1845.08310867 1045.07255363 1846.08852005 C1042.89307409 1851.10026466 1040.71346887 1856.1119546 1038.53379631 1861.12361526 C1035.57102624 1867.93596158 1032.60882225 1874.74855397 1029.64710808 1881.56135941 C1027.5825812 1886.31030274 1025.51752917 1891.05901616 1023.45127678 1895.80720901 C1019.57075239 1904.72605517 1015.69553416 1913.64709889 1011.83820915 1922.57600784 C1010.03178647 1926.75664221 1008.22247224 1930.93602237 1006.4129467 1935.11531448 C1005.5576654 1937.09288236 1004.70377464 1939.07105233 1003.85142326 1941.0498848 C990.23657597 1972.65548872 990.23657597 1972.65548872 983.42100334 1979.63142776 C982.70629875 1980.36546829 982.70629875 1980.36546829 981.97715569 1981.11433792 C980.64251264 1982.4707193 979.28272053 1983.8022292 977.92100334 1985.13142776 C977.32545647 1985.74759964 976.72990959 1986.36377151 976.11631584 1986.99861526 C967.87225043 1994.91455867 956.3718846 1998.54505183 945.15147209 1998.40877151 C932.00800466 1997.28037225 920.46253733 1992.17077575 910.92100334 1983.13142776 C910.92100334 1982.47142776 910.92100334 1981.81142776 910.92100334 1981.13142776 C910.26100334 1981.13142776 909.60100334 1981.13142776 908.92100334 1981.13142776 C899.92043284 1969.45263873 893.2904814 1955.66957236 886.03379631 1942.8570137 C882.68016407 1936.93861258 879.29881699 1931.03604744 875.92100334 1925.13142776 C874.60317201 1922.82550847 873.28546428 1920.51951854 871.96787834 1918.21345901 C871.3031725 1917.05020592 870.63845889 1915.88695726 869.97373772 1914.72371292 C855.24912834 1888.95564651 855.24912834 1888.95564651 853.49326897 1885.87508011 C852.53235732 1884.19825945 851.56409267 1882.52559144 850.58311272 1880.86043167 C847.92100334 1876.33228153 847.92100334 1876.33228153 847.92100334 1874.13142776 C847.3966243 1874.2839535 846.87224525 1874.43647924 846.33197594 1874.59362698 C832.8003562 1878.51956232 819.22210284 1882.2033076 805.57725334 1885.71345901 C803.62379279 1886.21795729 801.67038404 1886.72265616 799.71702385 1887.22754288 C795.67395489 1888.27196332 791.63043388 1889.31460742 787.58653069 1890.355793 C782.40897998 1891.6889231 777.23238259 1893.02571256 772.05608177 1894.36368656 C768.04496659 1895.40023115 764.03348582 1896.43535466 760.0218792 1897.4699955 C758.11124008 1897.96285755 756.20068607 1898.45604963 754.29022026 1898.94958305 C751.6355993 1899.63502818 748.98052078 1900.31867088 746.32530022 1901.00178909 C745.54405281 1901.20383453 744.7628054 1901.40587997 743.95788383 1901.614048 C729.67152163 1905.28181021 715.55369213 1906.29838726 702.38194084 1898.65877151 C699.79428254 1896.9213438 697.36166495 1895.06992601 694.92100334 1893.13142776 C693.89362053 1892.34123245 692.86623772 1891.55103714 691.80772209 1890.73689651 C682.23003964 1883.21178284 676.70193098 1876.22614266 675.17100334 1863.94392776 C673.94335613 1853.42816022 677.92761282 1843.88155368 682.04600334 1834.44392776 C682.5980613 1833.15563277 683.14903916 1831.86687453 683.69907951 1830.57771683 C684.98474572 1827.57077976 686.27804727 1824.56725477 687.5757885 1821.5655098 C690.3455334 1815.1552535 693.09163915 1808.73490762 695.83897209 1802.31502151 C696.90053097 1799.83474239 697.96222159 1797.3545197 699.02403069 1794.87434769 C699.42240953 1793.94380994 699.42240953 1793.94380994 699.82883644 1792.99447346 C701.66356178 1788.70990002 703.50169774 1784.42680089 705.3414135 1780.14436722 C705.84634834 1778.9686264 706.35128319 1777.79288559 706.87151909 1776.58151627 C707.80967132 1774.39746899 708.74832519 1772.21363708 709.68765068 1770.03009415 C712.52055031 1763.43368445 715.31890621 1756.82339294 718.10256767 1750.20607376 C718.4710235 1749.33056807 718.83947932 1748.45506237 719.21910048 1747.5530262 C720.11988881 1745.41255815 721.02051951 1743.27202393 721.92100334 1741.13142776 C721.2766784 1741.13102758 720.63235345 1741.1306274 719.96850351 1741.13021509 C649.82980967 1741.08654681 579.69111869 1741.03918052 509.55244255 1740.97244644 C508.50497839 1740.97145088 507.45751423 1740.97045531 506.37830873 1740.96942957 C483.61488766 1740.94777177 460.85146729 1740.92544913 438.08804754 1740.90244148 C426.92510715 1740.89116282 415.76216661 1740.8800311 404.599226 1740.86897659 C403.48837062 1740.86787403 402.37751525 1740.86677146 401.23299759 1740.86563549 C365.21755264 1740.82995769 329.20210862 1740.80398528 293.18665233 1740.78303808 C256.18058639 1740.76146352 219.17454133 1740.73011314 182.16849455 1740.68643663 C176.94339277 1740.68027426 171.71829085 1740.67422381 166.49318886 1740.6682415 C164.95060427 1740.66647018 164.95060427 1740.66647018 163.37685635 1740.66466307 C146.81292398 1740.64593099 130.24900164 1740.63752487 113.68505997 1740.63296652 C97.03858451 1740.62816559 80.39214735 1740.61251878 63.74569245 1740.58576211 C53.85194358 1740.57019006 43.95827026 1740.56297278 34.06450981 1740.56765847 C27.45683388 1740.56996881 20.8492294 1740.56144775 14.24157597 1740.54410366 C10.47574184 1740.53452945 6.71006559 1740.5296798 2.94422491 1740.53803214 C-1.11372519 1740.54692249 -5.17126841 1740.5326737 -9.22919464 1740.51618862 C-10.39655751 1740.52246532 -11.56392038 1740.52874201 -12.76665789 1740.53520891 C-25.91562538 1740.43649165 -36.5668379 1736.43342085 -46.32899666 1727.50642776 C-55.96628478 1717.32289659 -58.3888975 1704.94992431 -58.33199632 1691.46920705 C-58.33504942 1690.30355721 -58.33810251 1689.13790737 -58.34124813 1687.93693481 C-58.34770145 1684.69946181 -58.34520985 1681.46213808 -58.33895639 1678.22466926 C-58.33434546 1674.69017797 -58.3413683 1671.15570627 -58.34689003 1667.62121892 C-58.3549972 1661.40205904 -58.35564946 1655.1829326 -58.35147814 1648.96376935 C-58.34526774 1639.65338519 -58.35055089 1630.34303176 -58.35807556 1621.03264984 C-58.37055514 1605.16571319 -58.373486 1589.29878744 -58.37124062 1573.43184662 C-58.36899323 1557.34832153 -58.37105456 1541.26480571 -58.37838554 1525.18128204 C-58.37884485 1524.16609683 -58.37930416 1523.15091162 -58.37977738 1522.10496322 C-58.38166062 1517.97038458 -58.38357199 1513.83580595 -58.38551976 1509.70122733 C-58.40581936 1466.54774009 -58.41193212 1423.39425803 -58.41310398 1380.24076656 C-58.41323348 1375.5943734 -58.41336935 1370.94798025 -58.4135108 1366.3015871 C-58.41354481 1365.14860826 -58.41357882 1363.99562942 -58.41361386 1362.80771183 C-58.4144304 1337.26983712 -58.41880904 1311.73196341 -58.42382249 1286.19408923 C-58.42587917 1275.682013 -58.42785922 1265.16993676 -58.42985499 1254.65786052 C-58.43007617 1253.4964049 -58.43029735 1252.33494928 -58.43052523 1251.13829803 C-58.4431753 1184.57148 -58.45142325 1118.00466262 -58.45050812 1051.43784332 C-58.45047656 1048.94611156 -58.45044509 1046.4543798 -58.4504137 1043.96264804 C-58.45026693 1032.71240039 -58.45009059 1021.46215274 -58.44990593 1010.21190509 C-58.44982368 1005.19501577 -58.44974339 1000.17812645 -58.44966331 995.16123713 C-58.44962252 992.65019235 -58.44958048 990.13914757 -58.44953719 987.62810278 C-58.4481765 908.215141 -58.46281382 828.80219705 -58.49061775 749.38924026 C-58.49761961 729.37975571 -58.50455845 709.37027114 -58.51114655 689.36078644 C-58.51155229 688.1287765 -58.51195804 686.89676657 -58.51237608 685.627423 C-58.52480289 647.66561696 -58.53233659 609.70381238 -58.53486252 571.74200439 C-58.53494242 570.55043831 -58.53502232 569.35887222 -58.53510464 568.13119807 C-58.53681106 541.97549471 -58.53733363 515.81979144 -58.53676389 489.66408804 C-58.53657092 480.30548541 -58.53646683 470.94688279 -58.53640643 461.58828016 C-58.5363906 459.26003651 -58.53637019 456.93179286 -58.53634519 454.60354921 C-58.53599232 417.48180464 -58.54739744 380.36007533 -58.56465282 343.23833513 C-58.5819404 305.85735024 -58.58634575 268.47638648 -58.57313017 231.09539927 C-58.57130552 225.9326588 -58.56961898 220.76991828 -58.56801414 215.60717773 C-58.56769397 214.59511823 -58.5673738 213.58305872 -58.56704392 212.54033075 C-58.5623336 196.50016364 -58.57106298 180.46003301 -58.58535652 164.41987276 C-58.59912333 148.65637851 -58.59866726 132.89293826 -58.58297225 117.12944521 C-58.57419305 107.8823142 -58.57639154 98.63534206 -58.59470582 89.38822412 C-58.60577355 83.2495342 -58.6023755 77.11096306 -58.58714025 70.97228232 C-58.57890615 67.49066785 -58.57686668 64.00936639 -58.59264163 60.52777085 C-58.60624503 56.78323796 -58.59523041 53.03954548 -58.57809198 49.29504514 C-58.58789122 48.22778078 -58.59769046 47.16051642 -58.60778664 46.06091072 C-58.48194341 32.87888623 -53.68117227 22.16910156 -44.95399666 12.44392776 C-32.5293412 0.54503723 -16.10307701 -0.0209221 0 0 Z M37.92100334 96.13142776 C37.92100334 606.97142776 37.92100334 1117.81142776 37.92100334 1644.13142776 C278.16100334 1644.13142776 518.40100334 1644.13142776 765.92100334 1644.13142776 C769.00065664 1637.97212117 771.92563585 1631.99523996 774.48740959 1625.64314651 C774.80343132 1624.86949249 775.11945305 1624.09583847 775.44505119 1623.29874039 C776.4619095 1620.80709227 777.4731714 1618.3132287 778.48350334 1615.81892776 C779.89869388 1612.33264947 781.3155723 1608.84706105 782.73350334 1605.36189651 C783.08566414 1604.49535446 783.43782494 1603.62881241 783.80065727 1602.73601151 C786.03451798 1597.25548542 788.32779887 1591.80428196 790.67100334 1586.36970901 C791.5106778 1584.40633449 792.34941701 1582.44256247 793.18806267 1580.47874832 C793.96518872 1578.67396139 794.75943075 1576.87657499 795.55405998 1575.07942581 C798.88208504 1567.26612931 799.39390988 1562.81569904 796.31944084 1554.84627151 C795.64970816 1553.25182156 794.97495483 1551.65947402 794.29600334 1550.06892776 C785.53715651 1528.80365796 779.64587144 1506.83516868 775.73350334 1484.19392776 C775.57857414 1483.31494827 775.42364494 1482.43596878 775.26402092 1481.53035355 C772.34528668 1463.70653174 771.50830158 1445.72774822 771.54600334 1427.69392776 C771.54681908 1426.2041391 771.54681908 1426.2041391 771.54765129 1424.68425369 C771.67089793 1375.34862234 783.44955661 1325.7384079 806.849226 1282.1304512 C807.61455996 1280.70299005 808.37108835 1279.27079347 809.12168694 1277.83552933 C826.85021327 1243.94773194 851.76592466 1212.01506391 880.92100334 1187.13142776 C882.28805412 1185.93066605 882.28805412 1185.93066605 883.68272209 1184.70564651 C943.46888195 1132.58635221 1017.02629781 1110.23114911 1094.92100334 1106.13142776 C1094.92100334 857.97142776 1094.92100334 609.81142776 1094.92100334 354.13142776 C1023.64100334 353.80142776 952.36100334 353.47142776 878.92100334 353.13142776 C865.81916809 350.10792732 855.18734663 346.94821833 846.92100334 336.13142776 C805.47478444 267.63901257 838.28489154 176.18683099 837.92100334 96.13142776 C573.92100334 96.13142776 309.92100334 96.13142776 37.92100334 96.13142776 Z M933.92100334 165.13142776 C933.92100334 195.82142776 933.92100334 226.51142776 933.92100334 258.13142776 C964.61100334 258.13142776 995.30100334 258.13142776 1026.92100334 258.13142776 C1022.05465765 252.42646716 1022.05465765 252.42646716 1016.94131279 247.02475357 C1016.21089272 246.29151367 1015.48047264 245.55827377 1014.72791862 244.80281448 C1013.94689781 244.0238179 1013.165877 243.24482132 1012.36118889 242.44221878 C1011.52311195 241.60238953 1010.68503502 240.76256027 1009.82156181 239.89728165 C1007.54280157 237.61489662 1005.26183509 235.33474727 1002.97966933 233.05576825 C1000.58701245 230.66565725 998.1968122 228.27309146 995.80621147 225.88092422 C991.79931392 221.87221357 987.79032578 217.86560275 983.7801342 213.86018753 C979.13953316 209.22504977 974.50257556 204.58629049 969.86745042 199.94567734 C965.88277165 195.95646945 961.89615874 191.96920232 957.90790397 187.98356956 C955.52762795 185.60485457 953.1480377 183.22546414 950.77019119 180.8443203 C948.12714626 178.1987527 945.48094641 175.55638305 942.83384514 172.91487503 C942.04270317 172.12170883 941.2515612 171.32854263 940.43644524 170.51134109 C939.72012428 169.79783997 939.00380333 169.08433884 938.26577568 168.34921646 C937.64029681 167.72411462 937.01481794 167.09901278 936.37038517 166.45496845 C935.12505895 165.01904064 935.12505895 165.01904064 933.92100334 165.13142776 Z M994.85020256 1226.07039261 C992.76367177 1227.21795814 990.65826224 1228.32528933 988.54990959 1229.43220901 C972.83073824 1237.79336258 958.73190093 1247.90555873 945.46397209 1259.75593948 C944.0120214 1261.05028919 942.54509701 1262.32778588 941.07725334 1263.60408401 C936.63617227 1267.5034067 932.54223338 1271.48068409 928.74131584 1276.00642776 C927.4435106 1277.52146221 926.09916354 1278.99713802 924.72569084 1280.44392776 C911.82350624 1294.05137648 901.82612473 1309.69671461 892.92100334 1326.13142776 C892.55136467 1326.80883011 892.181726 1327.48623245 891.80088615 1328.18416214 C865.40807455 1377.07775783 859.72280582 1436.24720396 874.90342522 1489.58308792 C894.11246637 1552.84075142 936.11619278 1603.4196744 994.23350334 1634.71736526 C1045.21823166 1661.41860194 1106.51112275 1665.94863987 1161.24033928 1648.99959183 C1196.98022734 1637.42481569 1227.71817036 1617.87358493 1254.92100334 1592.13142776 C1255.8504174 1591.25615433 1256.77983147 1590.38088089 1257.73740959 1589.47908401 C1264.88836827 1582.55191067 1271.00855651 1575.11151636 1276.92100334 1567.13142776 C1277.4177758 1566.46304886 1277.91454826 1565.79466995 1278.42637444 1565.10603714 C1285.29250559 1555.80002007 1291.48834696 1546.30391069 1296.89170647 1536.0757637 C1297.88938361 1534.19115725 1298.91218826 1532.32189258 1299.93662834 1530.45174026 C1326.50283794 1480.85019052 1330.6424925 1420.48241675 1314.97520256 1366.89656448 C1308.54753561 1345.6513372 1300.03717833 1325.75462019 1287.92100334 1307.13142776 C1287.49174553 1306.46772171 1287.06248772 1305.80401566 1286.62022209 1305.1201973 C1280.70167744 1296.04410054 1274.40271743 1287.98403025 1266.92100334 1280.13142776 C1265.64193042 1278.6803158 1264.37028407 1277.22260062 1263.10850334 1275.75642776 C1260.49259679 1272.75117698 1257.77453691 1269.91536295 1254.92100334 1267.13142776 C1254.36026115 1266.54877151 1253.79951897 1265.96611526 1253.22178459 1265.36580276 C1214.93870224 1225.91792074 1157.81855811 1203.17567147 1103.24912834 1201.92830276 C1065.93234378 1201.51661454 1027.89313376 1207.81602824 994.85020256 1226.07039261 Z M1326.28428459 1657.63533401 C1323.03602987 1660.89596304 1319.8513187 1664.14203036 1316.92100334 1667.69392776 C1314.2151597 1670.91760132 1311.22849122 1673.61882569 1308.02256584 1676.33845901 C1305.96106941 1678.097245 1303.97671806 1679.92097715 1301.98350334 1681.75642776 C1274.8206844 1705.8442106 1241.09163045 1725.71415602 1205.92100334 1735.13142776 C1208.31809734 1743.03918435 1211.61726749 1750.49149475 1214.98390007 1758.02058792 C1216.00616324 1760.30711177 1217.02323946 1762.5958806 1218.03892326 1764.88533401 C1219.39224134 1767.93569864 1220.74688185 1770.98546899 1222.10264397 1774.03474808 C1232.28684248 1796.95903009 1242.05257058 1820.07013598 1251.92100334 1843.13142776 C1254.41052646 1840.88110959 1255.80973208 1838.70268949 1257.27769279 1835.69514847 C1257.93901962 1834.35278877 1257.93901962 1834.35278877 1258.61370659 1832.9833107 C1259.08249733 1832.01769714 1259.55128807 1831.05208359 1260.03428459 1830.05720901 C1261.04526433 1828.00703543 1262.05633495 1825.95690665 1263.06748772 1823.90681839 C1264.6497588 1820.68029842 1266.22932504 1817.45248217 1267.80650139 1814.22346878 C1269.33380771 1811.10207688 1270.87111256 1807.98575743 1272.40928459 1804.86970901 C1272.87200264 1803.91421661 1273.33472069 1802.95872421 1273.81146049 1801.9742775 C1280.89875061 1787.64255413 1280.89875061 1787.64255413 1285.92100334 1785.13142776 C1285.92100334 1784.47142776 1285.92100334 1783.81142776 1285.92100334 1783.13142776 C1286.62225334 1782.88392776 1287.32350334 1782.63642776 1288.04600334 1782.38142776 C1290.98064612 1781.23725632 1290.98064612 1781.23725632 1293.42100334 1779.25642776 C1311.40166852 1767.17850621 1336.34286675 1774.15246882 1355.85850334 1777.63142776 C1359.55792712 1778.27675164 1363.25804974 1778.91788799 1366.95849419 1779.55733109 C1369.24297847 1779.95359563 1371.52673784 1780.35406793 1373.80965996 1780.75923538 C1374.83245552 1780.93942215 1375.85525108 1781.11960892 1376.90904045 1781.30525589 C1378.25656647 1781.54508194 1378.25656647 1781.54508194 1379.63131523 1781.78975296 C1382.02968761 1782.20522232 1382.02968761 1782.20522232 1384.92100334 1782.13142776 C1382.59545346 1774.37387393 1379.29720174 1767.16177398 1375.88624382 1759.83949661 C1374.08577348 1755.97124139 1372.30323365 1752.09476839 1370.52256584 1748.21736526 C1370.14785652 1747.4014592 1369.7731472 1746.58555313 1369.38708305 1745.74492264 C1365.0612093 1736.29627795 1360.89464402 1726.77847636 1356.73350334 1717.25642776 C1355.22473787 1713.80705623 1353.71554244 1710.35787294 1352.20615959 1706.90877151 C1351.84227638 1706.07712982 1351.47839317 1705.24548813 1351.1034832 1704.38864517 C1347.92454321 1697.12843347 1344.7212328 1689.87935864 1341.48652458 1682.6438179 C1340.70742279 1680.90042349 1339.93096908 1679.15584641 1339.15464592 1677.41121292 C1335.93113893 1670.21925934 1332.49927673 1663.15343524 1328.92100334 1656.13142776 C1327.67327153 1656.01866118 1327.67327153 1656.01866118 1326.28428459 1657.63533401 Z M870.92100334 1660.13142776 C870.44904533 1661.21109818 869.97708733 1662.29076859 869.49082756 1663.40315628 C861.33995768 1682.04222146 853.17618271 1700.6723656 844.75697136 1719.19203568 C840.1981671 1729.22622052 835.78346319 1739.31658972 831.42832756 1749.44066238 C826.12422042 1761.76332117 820.57971238 1773.96804041 814.92100334 1786.13142776 C817.62544379 1787.48364799 818.67028325 1786.8108906 821.54405022 1785.95979691 C822.50685905 1785.67943085 823.46966789 1785.39906479 824.46165276 1785.11020279 C825.51042595 1784.79880859 826.55919914 1784.4874144 827.63975334 1784.16658401 C829.87514837 1783.52432546 832.1108359 1782.88308426 834.34678459 1782.24275589 C837.86228751 1781.22841573 841.37530408 1780.20747127 844.88340569 1779.16780472 C864.2721694 1773.44351622 881.80374015 1769.10826182 900.92100334 1778.13142776 C904.30141024 1780.1586878 907.14406515 1782.33917558 909.92100334 1785.13142776 C910.41213615 1785.59057571 910.90326897 1786.04972366 911.40928459 1786.52278519 C918.15039686 1793.40046309 921.78912776 1802.25324516 925.92100334 1810.81892776 C927.4584424 1813.97074222 929.00230284 1817.11939521 930.54600334 1820.26814651 C930.91572258 1821.02554123 931.28544182 1821.78293594 931.66636467 1822.56328201 C934.91080723 1829.18375927 938.35709305 1835.67757013 941.92100334 1842.13142776 C942.58100334 1842.13142776 943.24100334 1842.13142776 943.92100334 1842.13142776 C944.7058007 1840.55397781 944.7058007 1840.55397781 945.50645256 1838.94466019 C947.49857529 1834.94194407 949.49358946 1830.94067439 951.48936272 1826.93977737 C952.34330922 1825.22693813 953.1965305 1823.51373707 954.04893303 1821.80012894 C958.54853413 1812.75571798 963.09369008 1803.74345845 967.82725334 1794.81892776 C973.58742041 1783.9541727 979.06608423 1772.95196308 984.54600334 1761.94392776 C985.56013576 1759.91062961 986.57445775 1757.87742601 987.58897209 1755.84431839 C990.03515855 1750.94110402 992.47904255 1746.03674791 994.92100334 1741.13142776 C992.66588636 1738.87631079 990.85561686 1738.11877449 987.92490959 1736.88142776 C986.38879021 1736.22400589 986.38879021 1736.22400589 984.82163811 1735.55330276 C983.72005363 1735.08408401 982.61846916 1734.61486526 981.48350334 1734.13142776 C963.78414598 1726.45417209 947.19663894 1717.47463274 930.92100334 1707.13142776 C929.85494865 1706.45466995 928.78889397 1705.77791214 927.69053459 1705.08064651 C912.32593395 1695.06566391 897.84075359 1683.60553588 884.28037834 1671.27595901 C882.0300419 1669.23053732 879.76484841 1667.20467533 877.48350334 1665.19392776 C876.8660424 1664.64865433 876.24858147 1664.10338089 875.61240959 1663.54158401 C873.76482828 1661.95020737 873.76482828 1661.95020737 870.92100334 1660.13142776 Z " fill="#000000" transform="translate(258.0789966583252,0.8685722351074219)"/>
<path d="M0 0 C1.23696362 -0.00327219 2.47392724 -0.00654439 3.74837461 -0.00991574 C5.12606022 -0.00850562 6.50374574 -0.00700361 7.88143116 -0.00541991 C9.34712231 -0.00737253 10.81281293 -0.00976125 12.27850273 -0.01254788 C16.3294929 -0.01896232 20.38046328 -0.01910835 24.43145756 -0.01827047 C28.82994364 -0.01843969 33.22842256 -0.02434264 37.62690508 -0.02951133 C46.36136207 -0.03884932 55.09581399 -0.0427614 63.83027535 -0.0450303 C74.28822534 -0.04798927 84.74616859 -0.05668489 95.20411505 -0.06544458 C120.4844591 -0.08630278 145.76480433 -0.09676102 171.04515498 -0.10557419 C183.00146679 -0.10977882 194.95777809 -0.11500106 206.91408947 -0.12025872 C247.83081706 -0.13815028 288.74754479 -0.15314683 329.66427571 -0.16057891 C332.2337376 -0.16105367 334.80319949 -0.16152955 337.37266139 -0.16200657 C338.64690203 -0.16224294 339.92114268 -0.16247932 341.23399668 -0.16272286 C347.69008864 -0.16392408 354.14618061 -0.16513952 360.60227257 -0.16636485 C362.52413026 -0.16672507 362.52413026 -0.16672507 364.48481336 -0.16709258 C406.030282 -0.17498638 447.5757221 -0.19841919 489.12117827 -0.23092079 C533.03093787 -0.26520939 576.94068076 -0.28492916 620.85045397 -0.28822315 C625.66971519 -0.2886407 630.4889764 -0.28912026 635.30823761 -0.28964633 C637.08823326 -0.28983111 637.08823326 -0.28983111 638.90418841 -0.29001964 C658.01134663 -0.2923529 677.11847175 -0.30801999 696.22561817 -0.32848817 C715.42796152 -0.34873214 734.63026505 -0.35423024 753.8326171 -0.34471754 C765.24326395 -0.33949698 776.65377834 -0.34540631 788.06440616 -0.36725221 C795.68687041 -0.38074374 803.30924332 -0.37969784 810.93170845 -0.36685025 C815.27465454 -0.3599427 819.61734708 -0.35932133 823.9602707 -0.37641034 C827.91621473 -0.39184964 831.87170216 -0.38865596 835.82763293 -0.37100006 C837.24502987 -0.36786671 838.66246206 -0.37134334 840.07981862 -0.38249181 C854.79042248 -0.490604 866.42107036 2.766663 877.63523155 12.37880117 C889.1368796 25.6964989 892.23343376 38.67268635 891.01023155 56.12880117 C888.97371076 69.27633984 883.36117713 79.97207622 872.4828878 87.99208242 C863.72364783 93.43117904 855.1681323 96.25142361 844.80182493 96.25645167 C843.56702135 96.25946764 842.33221778 96.2624836 841.05999592 96.26559097 C839.69514267 96.26389214 838.33028954 96.26210141 836.96543652 96.26022893 C835.50533635 96.26187922 834.04523662 96.26396579 832.58513764 96.26644903 C828.5590077 96.2720171 824.53289903 96.27134301 820.50676648 96.26967144 C816.13178399 96.26894083 811.75680752 96.27396215 807.38182759 96.27824646 C798.69841604 96.28583048 790.01501064 96.28801973 781.33159612 96.28857552 C770.93322799 96.28948875 760.53486556 96.29615506 750.13649987 96.30292234 C725.0037544 96.31898827 699.87100953 96.32488611 674.73825985 96.32967109 C662.8518978 96.33200625 650.96553624 96.3356088 639.07917457 96.33936647 C598.40080276 96.35220195 557.72243122 96.36292158 517.04405743 96.36636907 C514.49015632 96.3665907 511.9362552 96.36681249 509.38235409 96.36703442 C506.82224608 96.36725506 504.26213807 96.36747554 501.70203006 96.36769587 C496.56591298 96.36813842 491.4297959 96.36858554 486.29367882 96.36903554 C485.02021883 96.36914493 483.74675883 96.36925432 482.43470915 96.36936703 C441.13114167 96.37299867 399.82759174 96.38892277 358.52403098 96.41222591 C314.86779526 96.43681143 271.21156956 96.45054129 227.5553267 96.45173699 C222.76477911 96.45190844 217.97423152 96.45212387 213.18368393 96.45237142 C211.41429915 96.45245507 211.41429915 96.45245507 209.60916922 96.45254041 C190.61145319 96.45369192 171.61375514 96.46472227 152.61604518 96.47925847 C133.52824567 96.4936113 114.44046925 96.49686731 95.35266582 96.4888185 C84.00826417 96.48435665 72.66393695 96.48824504 61.31954506 96.504057 C53.74385926 96.51379034 46.16822575 96.51264451 38.59254045 96.50262077 C34.27474012 96.4972169 29.95708297 96.49655671 25.63929436 96.50912949 C21.70856362 96.5204798 17.77809239 96.51793165 13.84737058 96.50446242 C12.43683927 96.50203379 11.0262879 96.50459345 9.61577873 96.5128589 C-5.89998616 96.5977772 -19.56252657 93.00380022 -31.14601845 82.15614492 C-41.27084466 71.02312626 -44.89502884 57.95610992 -44.3061747 43.21473867 C-43.49815111 30.74395177 -38.75979818 20.10278508 -29.98976845 11.12880117 C-21.46433536 4.24620001 -10.98071149 0.00759525 0 0 Z " fill="#000000" transform="translate(400.9897684454918,639.8711988329887)"/>
<path d="M0 0 C1.23696362 -0.00327219 2.47392724 -0.00654439 3.74837461 -0.00991574 C5.12606022 -0.00850562 6.50374574 -0.00700361 7.88143116 -0.00541991 C9.34712231 -0.00737253 10.81281293 -0.00976125 12.27850273 -0.01254788 C16.3294929 -0.01896232 20.38046328 -0.01910835 24.43145756 -0.01827047 C28.82994364 -0.01843969 33.22842256 -0.02434264 37.62690508 -0.02951133 C46.36136207 -0.03884932 55.09581399 -0.0427614 63.83027535 -0.0450303 C74.28822534 -0.04798927 84.74616859 -0.05668489 95.20411505 -0.06544458 C120.4844591 -0.08630278 145.76480433 -0.09676102 171.04515498 -0.10557419 C183.00146679 -0.10977882 194.95777809 -0.11500106 206.91408947 -0.12025872 C247.83081706 -0.13815028 288.74754479 -0.15314683 329.66427571 -0.16057891 C332.2337376 -0.16105367 334.80319949 -0.16152955 337.37266139 -0.16200657 C338.64690203 -0.16224294 339.92114268 -0.16247932 341.23399668 -0.16272286 C347.69008864 -0.16392408 354.14618061 -0.16513952 360.60227257 -0.16636485 C362.52413026 -0.16672507 362.52413026 -0.16672507 364.48481336 -0.16709258 C406.030282 -0.17498638 447.5757221 -0.19841919 489.12117827 -0.23092079 C533.03093787 -0.26520939 576.94068076 -0.28492916 620.85045397 -0.28822315 C625.66971519 -0.2886407 630.4889764 -0.28912026 635.30823761 -0.28964633 C637.08823326 -0.28983111 637.08823326 -0.28983111 638.90418841 -0.29001964 C658.01134663 -0.2923529 677.11847175 -0.30801999 696.22561817 -0.32848817 C715.42796152 -0.34873214 734.63026505 -0.35423024 753.8326171 -0.34471754 C765.24326395 -0.33949698 776.65377834 -0.34540631 788.06440616 -0.36725221 C795.68687041 -0.38074374 803.30924332 -0.37969784 810.93170845 -0.36685025 C815.27465454 -0.3599427 819.61734708 -0.35932133 823.9602707 -0.37641034 C827.91621473 -0.39184964 831.87170216 -0.38865596 835.82763293 -0.37100006 C837.24502987 -0.36786671 838.66246206 -0.37134334 840.07981862 -0.38249181 C854.79042248 -0.490604 866.42107036 2.766663 877.63523155 12.37880117 C889.16846027 25.733066 892.16645658 38.6441094 891.01023155 56.12880117 C889.39579537 67.77189602 884.31681824 78.72075817 875.01023155 86.12880117 C863.16506032 95.07752542 849.30513781 96.73814042 834.89203411 96.62937242 C833.42515303 96.63325234 831.95827574 96.63888337 830.49140719 96.64608201 C826.48828545 96.66071962 822.48555931 96.6507376 818.48245052 96.63647002 C814.1168742 96.62536335 809.75135041 96.63759617 805.38577819 96.64677751 C797.74374598 96.65965511 790.10182986 96.65774002 782.45979744 96.64599782 C771.09585477 96.62858479 759.73200306 96.63412583 748.36805562 96.64416473 C728.07095789 96.66134409 707.77391422 96.65582404 687.47681761 96.64080755 C669.71629549 96.62775241 651.95579213 96.62256046 634.19526535 96.62512571 C632.42767306 96.62536633 632.42767306 96.62536633 630.62437182 96.62561181 C625.84083732 96.62627541 621.05730283 96.62697782 616.27376834 96.62773715 C571.40994805 96.6347597 526.54616076 96.61927441 481.68234887 96.5931137 C441.82328964 96.56999449 401.96426668 96.56461229 362.10520226 96.57484609 C351.89668234 96.5774481 341.68816242 96.58003311 331.47964245 96.58244401 C329.59445712 96.58289018 329.59445712 96.58289018 327.67118725 96.58334537 C294.36256215 96.59095948 261.05394003 96.58454889 227.74531627 96.57374799 C224.16152737 96.57260019 220.57773848 96.57145701 216.99394958 96.57032117 C214.61657247 96.56956592 212.23919536 96.56880028 209.86181825 96.56802416 C192.11035558 96.56236531 174.35890229 96.56369611 156.60743958 96.56825238 C136.42590775 96.57335878 116.24441106 96.56751333 96.062888 96.54735809 C84.76753554 96.53636772 73.47225216 96.53358234 62.17689759 96.54264662 C54.63293916 96.54786387 47.08903988 96.54217396 39.54509387 96.52759327 C35.24640207 96.51958511 30.94784994 96.5162742 26.64915887 96.52616584 C22.73469504 96.53507084 18.82049933 96.5300606 14.90605981 96.5141864 C13.50256562 96.51088566 12.0990482 96.5125422 10.6955695 96.51991488 C-5.5232392 96.59878538 -18.75978874 93.29769429 -30.80226845 82.00380117 C-39.95719616 72.39112706 -44.40879951 61.04147451 -44.30226845 47.87880117 C-44.2966288 47.14008779 -44.29098915 46.40137441 -44.2851786 45.64027578 C-43.99079281 32.21074583 -39.45649428 20.81568341 -29.98976845 11.12880117 C-21.46433536 4.24620001 -10.98071149 0.00759525 0 0 Z " fill="#000000" transform="translate(400.9897684454918,844.8711988329887)"/>
<path d="M0 0 C9.92025831 6.86020732 14.43698489 14.44487478 18.43359375 25.54296875 C19.01029564 27.11275986 19.01029564 27.11275986 19.59864807 28.71426392 C20.84603028 32.11865191 22.08012171 35.52765464 23.3125 38.9375 C24.14497968 41.22688033 24.97766314 43.51618656 25.81054688 45.80541992 C28.23689896 52.48892445 30.64601224 59.17856238 33.05134583 65.86965561 C34.25213432 69.20885442 35.45479006 72.54738069 36.65722656 75.88598633 C38.61408809 81.31996391 40.56994102 86.75430336 42.52490234 92.18896484 C45.05281205 99.21637871 47.58266381 106.24309197 50.11328125 113.26953125 C53.43105067 122.48213902 56.74738196 131.69526344 60.06295776 140.90866089 C62.5814536 147.90687324 65.10100645 154.90470435 67.62109375 161.90234375 C68.71317431 164.9349703 69.80523373 167.96760446 70.89727783 171.00024414 C71.63272272 173.0425722 72.36819638 175.0848899 73.10369873 177.12719727 C77.45487335 189.2099478 81.80096907 201.29450758 86.13883591 213.38204193 C88.32123731 219.46320264 90.50426591 225.5441382 92.6875 231.625 C92.93076019 232.30257607 93.17402039 232.98015213 93.4246521 233.6782608 C100.80386489 254.23096398 108.23867996 274.76267043 115.7182312 295.27911377 C124.34670154 318.95471782 132.84655092 342.67608661 141.27738953 366.42276001 C142.81402356 370.7492698 144.35462114 375.07306897 145.94970703 379.37841797 C146.40071777 380.60318848 146.85172852 381.82795898 147.31640625 383.08984375 C147.68709229 384.07847412 148.05777832 385.06710449 148.43969727 386.08569336 C152.14441803 398.19054461 150.41812763 410.83993254 145.0625 422.1875 C137.95516925 435.18256037 125.54827102 446.19224299 111.3125 450.9375 C96.46994577 451.97579794 85.37764515 449.10399873 73.3125 439.9375 C63.24375297 430.98964995 59.25796871 417.60079601 55.1590271 405.18667603 C53.78842879 401.03625617 52.38971205 396.89532211 50.9921875 392.75390625 C50.70008896 391.886483 50.40799042 391.01905975 50.10704041 390.12535095 C47.85367127 383.46244129 45.51281971 376.83348873 43.1328125 370.21484375 C42.78711716 369.25326355 42.44142181 368.29168335 42.08525085 367.30096436 C40.72171524 363.51414668 39.35548223 359.72835062 37.98098755 355.94549561 C37.029148 353.32568031 36.08266071 350.70398045 35.13671875 348.08203125 C34.84987213 347.29940414 34.56302551 346.51677704 34.26748657 345.71043396 C33.16961542 342.65909031 32.3125 340.20679362 32.3125 336.9375 C-3.9875 336.9375 -40.2875 336.9375 -77.6875 336.9375 C-78.3475 339.9075 -79.0075 342.8775 -79.6875 345.9375 C-80.29787299 347.93972088 -80.94542391 349.93120591 -81.6394043 351.90600586 C-82.01707443 352.98841049 -82.39474457 354.07081512 -82.78385925 355.1860199 C-83.18905289 356.32990677 -83.59424652 357.47379364 -84.01171875 358.65234375 C-84.43620804 359.86209366 -84.86069733 361.07184357 -85.29804993 362.31825256 C-86.19507473 364.87355254 -87.09556375 367.42759474 -87.9987793 369.98071289 C-89.13602314 373.19577062 -90.26612704 376.41327887 -91.39392471 379.63166046 C-95.35163446 390.92104501 -99.32019288 402.20696073 -103.62109375 413.37109375 C-103.88701828 414.06669907 -104.15294281 414.76230438 -104.42692566 415.47898865 C-109.98258274 429.65154692 -119.50474734 439.60821944 -133.1875 446.12890625 C-146.25299711 451.33695857 -161.20502015 450.37617285 -174.22265625 445.484375 C-184.74595511 440.78626187 -193.54437131 431.75676022 -197.6875 420.9375 C-202.22666947 407.05199636 -200.21805783 395.0830587 -195.3046875 381.6328125 C-194.85171797 380.36162034 -194.40005694 379.08996126 -193.94961548 377.81787109 C-193.01040457 375.17214887 -192.06353649 372.52936409 -191.11010742 369.88873291 C-189.74262546 366.0984903 -188.39890265 362.30014741 -187.06054688 358.49951172 C-184.63984972 351.62764318 -182.2021416 344.76190399 -179.75977325 337.89771652 C-178.55809443 334.51948471 -177.3580063 331.14068782 -176.15771484 327.76196289 C-173.99880849 321.68551173 -171.83862974 315.60951398 -169.67773247 309.53377056 C-167.53944628 303.52153744 -165.40246628 297.50884052 -163.265625 291.49609375 C-160.35606686 283.30979203 -157.44514444 275.12397633 -154.53341675 266.93844604 C-152.25874517 260.54378138 -149.98465521 254.14891014 -147.7109375 247.75390625 C-147.21412476 246.35658264 -147.21412476 246.35658264 -146.70727539 244.93103027 C-145.70067401 242.09985692 -144.69408463 239.26867931 -143.6875 236.4375 C-136.28921985 215.6286608 -136.28921985 215.6286608 -132.84144592 205.93618774 C-131.57122864 202.36529068 -130.30113827 198.79434849 -129.03109741 195.22338867 C-128.38368368 193.40306662 -127.73624295 191.58275417 -127.08877563 189.76245117 C-123.09964282 178.54660341 -119.11597848 167.32883264 -115.13928413 156.10856819 C-95.09529037 99.55450061 -95.09529037 99.55450061 -85.26538086 72.2565918 C-84.50370971 70.14112544 -83.74207174 68.02564714 -82.98046875 65.91015625 C-82.61392685 64.89223495 -82.24738495 63.87431366 -81.86973572 62.82554626 C-79.81241672 57.10173532 -77.78097995 51.3698015 -75.78004456 45.6260376 C-74.60960647 42.26837 -73.42863834 38.91445502 -72.24661255 35.56085205 C-71.71940131 34.05511941 -71.19754106 32.54749915 -70.68185425 31.03778076 C-65.69601255 16.44434654 -58.65523771 4.39756682 -44.5625 -2.9375 C-29.54689464 -10.16723591 -14.10476512 -8.13811691 0 0 Z M-20.6875 185.9375 C-23.03616551 192.9603686 -25.38322924 199.98377031 -27.72822571 207.00786495 C-28.81704661 210.26909982 -29.90642714 213.53014554 -30.99707031 216.79077148 C-32.2496957 220.53574565 -33.49991644 224.2815203 -34.75 228.02734375 C-35.14372803 229.20336655 -35.53745605 230.37938934 -35.94311523 231.59104919 C-36.30348877 232.67209427 -36.6638623 233.75313934 -37.03515625 234.86694336 C-37.35492432 235.82402695 -37.67469238 236.78111053 -38.00415039 237.76719666 C-38.73755471 239.71724891 -38.73755471 239.71724891 -38.6875 240.9375 C-26.4775 240.9375 -14.2675 240.9375 -1.6875 240.9375 C-3.54375 235.20375 -5.4 229.47 -7.3125 223.5625 C-7.88436035 221.79471191 -8.4562207 220.02692383 -9.04541016 218.20556641 C-12.53512946 207.43005292 -16.08831314 196.67693104 -19.6875 185.9375 C-20.0175 185.9375 -20.3475 185.9375 -20.6875 185.9375 Z " fill="#000000" transform="translate(558.6875,137.0625)"/>
<path d="M0 0 C1.22275833 -0.00611336 2.44551667 -0.01222672 3.70532829 -0.01852533 C7.07446987 -0.03136321 10.4427129 -0.02651021 13.81179663 -0.0139137 C17.48650777 -0.00461727 21.16114575 -0.0186166 24.83584225 -0.02955288 C31.26805082 -0.04549948 37.70012848 -0.04664979 44.13234901 -0.03795528 C53.6975088 -0.02506079 63.26255065 -0.03506248 72.82770338 -0.04945483 C89.91345353 -0.07437089 106.99914821 -0.07628243 124.08491123 -0.06818072 C139.03828563 -0.06110491 153.99163853 -0.06105343 168.94501305 -0.06804371 C170.95169704 -0.06895504 172.95838104 -0.06986581 174.96506504 -0.070776 C177.98904352 -0.07215914 181.013022 -0.07355024 184.03700047 -0.07496213 C212.14675458 -0.08794072 240.25650149 -0.09305993 268.36625671 -0.08142853 C269.4256139 -0.08099056 270.48497108 -0.08055259 271.57642999 -0.08010134 C280.17887577 -0.07649461 288.78132145 -0.07265979 297.38376712 -0.06881041 C330.93881827 -0.05396313 364.49378801 -0.06274263 398.04883003 -0.09076595 C435.75947528 -0.12219968 473.47007235 -0.13716205 511.18073094 -0.12696594 C515.2022763 -0.12592918 519.22382167 -0.12494195 523.24536705 -0.12398243 C524.73064634 -0.1236091 524.73064634 -0.1236091 526.24593128 -0.12322823 C541.18721492 -0.11978949 556.12845598 -0.12908926 571.06973076 -0.14475346 C588.0632121 -0.16252831 605.05658989 -0.16264521 622.05006681 -0.1394018 C631.55630301 -0.12690937 641.06230119 -0.12813345 650.56852337 -0.14928266 C656.9238098 -0.16202977 663.27891336 -0.15649538 669.63417997 -0.13629786 C673.25162245 -0.12530604 676.8685979 -0.12200456 680.48601793 -0.14097316 C715.01611174 -0.30914185 715.01611174 -0.30914185 728.08056831 11.27959538 C739.42098017 23.03238584 742.70568664 36.41786646 742.43994331 52.40068913 C742.01046554 63.86668533 737.84536284 74.85861353 729.97900581 83.31865788 C714.07421142 97.77127539 694.9369951 97.10083189 674.6975314 97.01382673 C671.06597358 97.00269176 667.43447779 97.0149621 663.80292481 97.02413422 C657.44965524 97.03699515 651.0965254 97.03511009 644.74325562 97.02335453 C635.29568666 97.00592169 625.84822692 97.01148983 616.4006522 97.02152144 C599.52528689 97.03868983 582.64998666 97.03318777 565.77462272 97.01816425 C551.0084317 97.00510338 536.24226323 96.99991827 521.47606659 97.00248241 C520.00584568 97.00272304 520.00584568 97.00272304 518.50592333 97.00296852 C514.52704229 97.00363212 510.54816127 97.00433454 506.56928025 97.00509386 C469.26119679 97.01211455 431.95315305 96.99663725 394.6450797 96.9704704 C361.50596904 96.94735071 328.36690202 96.94196953 295.22778511 96.9522028 C286.73977758 96.95480485 278.25177006 96.95738988 269.76376247 96.95980072 C268.71875547 96.96009817 267.67374847 96.96039562 266.59707458 96.96070208 C238.89550731 96.96831771 211.19394361 96.96190425 183.49237794 96.9511047 C180.51156749 96.94995691 177.53075704 96.94881373 174.54994659 96.94767788 C172.57260797 96.94692263 170.59526936 96.94615699 168.61793074 96.94538087 C153.85968236 96.93972428 139.10144529 96.94105128 124.34319687 96.94560909 C107.56342778 96.95071761 90.78370096 96.94486057 74.00394241 96.9247148 C64.61487692 96.91373206 55.22589451 96.91093197 45.8368265 96.92000333 C39.56354363 96.92522628 33.2903318 96.91951586 27.01706384 96.90494998 C23.44411736 96.89695324 19.87133868 96.89361133 16.29839317 96.90352254 C12.44430031 96.91409181 8.59047873 96.90136153 4.73639584 96.88647461 C3.63472679 96.89321226 2.53305775 96.89994991 1.3980048 96.90689173 C-13.40614679 96.79627145 -25.71540673 92.57366152 -36.58349419 82.38115788 C-45.73928309 72.76757953 -50.18851991 61.41938154 -50.08349419 48.25615788 C-50.07857964 47.51816959 -50.07366508 46.78018131 -50.06860161 46.01982975 C-49.79119833 32.92070488 -45.62497842 21.98669236 -36.70068169 12.35381413 C-26.48051597 2.56810889 -13.79300359 -0.11246186 0 0 Z " fill="#000000" transform="translate(406.77099418640137,1049.493842124939)"/>
<path d="M0 0 C0.91810673 -0.00235223 1.83621345 -0.00470446 2.7821416 -0.00712797 C5.88133296 -0.01382403 8.98048245 -0.01335956 12.07968044 -0.01294994 C14.31506029 -0.01624819 16.55043955 -0.01997367 18.78581804 -0.02409142 C24.94659936 -0.03412401 31.10737094 -0.03783024 37.26815927 -0.04048073 C43.22458183 -0.04397991 49.18099762 -0.05212685 55.13741558 -0.06002467 C71.09890726 -0.08087215 87.0604008 -0.09133946 103.02190292 -0.10015428 C110.57263816 -0.10436047 118.1233726 -0.10958251 125.67410717 -0.11483881 C151.52010963 -0.13272952 177.36611232 -0.14772551 203.21212006 -0.155159 C204.83485263 -0.15563375 206.45758519 -0.15610964 208.08031776 -0.15658666 C208.88504902 -0.15682303 209.68978028 -0.15705941 210.51889734 -0.15730295 C214.59607875 -0.15850415 218.67326015 -0.1597196 222.75044155 -0.16094494 C223.55957124 -0.16118509 224.36870093 -0.16142524 225.2023497 -0.16167267 C251.4352341 -0.16956528 277.66807328 -0.19299608 303.90093794 -0.22550088 C331.6343323 -0.25980224 359.3677002 -0.27951043 387.10111612 -0.28280324 C390.14593662 -0.28322078 393.1907571 -0.28370034 396.23557758 -0.28422642 C396.98530064 -0.28434961 397.7350237 -0.2844728 398.50746563 -0.28459973 C410.57061182 -0.2869314 422.63370548 -0.30258955 434.69683295 -0.32306826 C446.82391744 -0.34332881 458.95093887 -0.34880249 471.07803715 -0.33929763 C477.64741932 -0.3345422 484.21666475 -0.33669089 490.78602695 -0.35605907 C496.80103175 -0.37363983 502.81574101 -0.37273408 508.83074873 -0.35716178 C511.00578042 -0.354778 513.1808323 -0.35914899 515.35583306 -0.37099043 C528.66594935 -0.43896159 540.02950894 -0.32973706 551.05830288 8.13422108 C552.02767788 8.81484608 552.99705288 9.49547108 553.99580288 10.19672108 C564.13818827 18.84443914 568.17659342 32.62568379 569.24970913 45.41547108 C569.61597655 58.894112 565.56877808 71.52354994 557.18330288 82.13422108 C548.898482 90.78967868 537.01065311 95.67000721 525.07781654 96.22659817 C522.72876264 96.26482866 520.38163433 96.27062364 518.03227043 96.26564884 C517.12933895 96.26770148 516.22640746 96.26975411 515.29611441 96.27186894 C512.26056701 96.27753816 509.22506498 96.27608178 506.18951321 96.27466297 C503.99508075 96.27724665 501.80064877 96.28025982 499.60621744 96.28366637 C493.56783033 96.29173931 487.52945511 96.29352611 481.49106324 96.29426384 C474.98165354 96.29611389 468.47225002 96.30366099 461.96284389 96.31039906 C446.98267948 96.32496214 432.00251634 96.33050927 417.02234612 96.335091 C409.61797398 96.33742765 402.2136026 96.34103038 394.80923106 96.34478638 C369.45794214 96.3576215 344.10665365 96.36834058 318.75536156 96.37178898 C317.16419412 96.37201061 315.57302668 96.37223239 313.98185924 96.37245433 C312.38687166 96.37267497 310.79188408 96.37289545 309.19689649 96.37311578 C305.99713417 96.37355833 302.79737184 96.37400544 299.59760952 96.37445545 C298.80425555 96.37456484 298.01090158 96.37467423 297.19350658 96.37478694 C271.47299459 96.37841701 245.75251079 96.39433537 220.03200959 96.41764582 C192.83200364 96.44225201 165.63201381 96.45596219 138.43199641 96.4571569 C135.44502612 96.45732835 132.45805583 96.45754377 129.47108555 96.45779133 C128.73562184 96.4578471 128.00015814 96.45790287 127.24240765 96.45796032 C115.41595482 96.4591101 103.58953096 96.47012586 91.7630879 96.48467838 C79.87146264 96.49905786 67.97987445 96.50227218 56.08824288 96.49423841 C49.64823187 96.49033126 43.20831817 96.49126482 36.76831913 96.50529575 C30.86928992 96.51803046 24.97043122 96.51684073 19.07140226 96.50470504 C16.94081096 96.50274732 14.81020761 96.50582992 12.67963325 96.5145494 C-4.68024298 96.58108002 -20.97747098 95.95018576 -34.31669712 83.25922108 C-44.82162338 71.85387257 -47.82937509 58.59274432 -47.25810337 43.40765858 C-46.48332236 30.85009675 -41.77700096 20.1749971 -32.94169712 11.13422108 C-23.25839773 3.31687187 -12.27501981 -0.02123773 0 0 Z " fill="#000000" transform="translate(403.9416971206665,1249.8657789230347)"/>
<path d="M0 0 C11.74712455 8.04487916 18.93373125 17.73303886 22.29296875 31.5703125 C24.58107103 44.44715088 22.60742337 56.6053658 15.29296875 67.5703125 C7.21474588 77.2728475 -2.00035664 86.0264682 -10.90991211 94.95019531 C-12.64886848 96.69542643 -14.38763805 98.44084368 -16.12623596 100.18643188 C-21.31488019 105.39417866 -26.50772259 110.59772154 -31.70146188 115.80038559 C-33.66177936 117.76422104 -35.62178285 119.7283697 -37.58177073 121.6925341 C-46.23662465 130.36582702 -54.89282188 139.03777668 -63.55304623 147.70570755 C-65.66419864 149.81876938 -67.77534554 151.93183672 -69.88647461 154.04492188 C-70.41109142 154.57002243 -70.93570823 155.09512298 -71.47622252 155.63613567 C-79.98572377 164.15394819 -88.48666167 172.68025408 -96.98408549 181.21011344 C-105.72998713 189.98912427 -114.48343767 198.76055059 -123.2443133 207.52461886 C-128.15454265 212.43700797 -133.06146455 217.35260193 -137.95994377 222.27671051 C-142.56454788 226.90535361 -147.17936107 231.5236365 -151.80113792 236.13514328 C-153.49202772 237.82553809 -155.17951986 239.51933969 -156.86327744 241.21683884 C-159.16882158 243.54013818 -161.48649432 245.85064919 -163.80747986 248.1585083 C-164.46480116 248.82679885 -165.12212247 249.4950894 -165.7993626 250.18363118 C-175.6696119 259.92037649 -187.55054141 265.59659865 -201.45703125 266.1953125 C-207.37109677 266.1547711 -212.59829079 265.03001656 -218.14453125 263.0078125 C-218.77004883 262.78109863 -219.39556641 262.55438477 -220.04003906 262.32080078 C-229.33337864 258.53235497 -236.52827466 251.04936413 -243.51220703 244.0715332 C-244.34108429 243.25097946 -245.16996155 242.43042572 -246.0239563 241.58500671 C-248.73881471 238.89407372 -251.44611212 236.19570071 -254.15234375 233.49609375 C-255.57016581 232.08497669 -256.98798921 230.67386097 -258.4059695 229.26290292 C-262.85721126 224.83303629 -267.30245446 220.39720914 -271.74462891 215.95825195 C-276.30158767 211.40492712 -280.87151503 206.86490797 -285.44753659 202.33074886 C-289.399863 198.41329493 -293.34233482 194.48609734 -297.27761066 190.55151623 C-299.61760098 188.21231262 -301.96243389 185.87837093 -304.31515884 183.55196571 C-318.36290067 169.64897065 -330.40790905 157.50488968 -331.14453125 136.6953125 C-330.79051276 123.19835741 -325.54280535 111.6180985 -316.39453125 101.7578125 C-306.03852077 92.15955889 -293.08268713 87.78317912 -279.0625 88.25 C-259.78621672 90.09011086 -248.33303905 102.77111945 -235.32421875 115.85546875 C-234.37466198 116.80689731 -233.42487921 117.75810037 -232.47488403 118.70909119 C-230.01008733 121.17765326 -227.54831183 123.64920572 -225.08721924 126.12145996 C-222.56131675 128.65770737 -220.03247742 131.19102305 -217.50390625 133.72460938 C-212.56878606 138.67036099 -207.63686108 143.61928768 -202.70703125 148.5703125 C-198.61703668 146.94827372 -195.88708091 144.01495862 -192.85774231 140.94134521 C-192.27672671 140.35992177 -191.69571112 139.77849833 -191.09708899 139.179456 C-189.14954559 137.2281794 -187.20924844 135.2698527 -185.26879883 133.31152344 C-183.87441448 131.911664 -182.47956656 130.51226621 -181.08428955 129.11329651 C-178.07877115 126.09806085 -175.0763399 123.07979569 -172.07618141 120.05922699 C-167.32838854 115.27962794 -162.57245154 110.50818979 -157.81510925 105.73809814 C-145.99599116 93.88488461 -134.1861226 82.0224666 -122.38122559 70.15509033 C-113.21410371 60.93946943 -104.04379133 51.72708065 -94.86285895 42.52521539 C-90.13725831 37.78811493 -85.4186803 33.04416343 -80.70529807 28.29490709 C-77.76405919 25.33441276 -74.81652217 22.38025104 -71.86723328 19.42777824 C-70.505734 18.06227542 -69.14680776 16.69420124 -67.79073143 15.32331276 C-48.96962995 -3.69583112 -25.53625339 -15.09576749 0 0 Z " fill="#000000" transform="translate(1502.70703125,1299.4296875)"/>
<path d="M0 0 C10.31978025 7.82879881 15.00525981 19.35662302 17.16326904 31.77017212 C17.84105643 36.93523113 17.80749767 42.06021478 17.7578125 47.26171875 C17.7549826 48.40034866 17.75215271 49.53897858 17.74923706 50.71211243 C17.73814393 54.30818707 17.71305997 57.90400209 17.6875 61.5 C17.67745615 63.9550745 17.66833277 66.41015295 17.66015625 68.86523438 C17.63824032 74.84774312 17.60487281 80.830103 17.5625 86.8125 C18.18509201 86.80361755 18.80768402 86.79473511 19.44914246 86.7855835 C25.98772913 86.69640183 32.52614027 86.63647487 39.06518555 86.59277344 C41.49852529 86.57278178 43.93181775 86.54557926 46.36499023 86.51074219 C63.97774602 86.26506682 79.23336516 86.11706907 93.5625 97.8125 C104.63675296 109.0731882 107.9819355 121.78092174 107.92822266 137.15551758 C107.7017063 148.46367118 104.71729162 157.96910793 97.5625 166.8125 C97.08425781 167.42609375 96.60601563 168.0396875 96.11328125 168.671875 C88.6662056 177.15066138 77.46299355 181.23971796 66.5625 182.8125 C62.65972001 183.05525542 58.77626069 183.04736513 54.8671875 183.0078125 C53.79373077 183.0049826 52.72027405 183.00215271 51.61428833 182.99923706 C48.22190695 182.98813822 44.82980013 182.96305314 41.4375 182.9375 C39.12239968 182.92745688 36.80729517 182.91833338 34.4921875 182.91015625 C28.84886636 182.88823273 23.2057028 182.85485932 17.5625 182.8125 C17.57249275 183.69001167 17.57249275 183.69001167 17.58268738 184.58525085 C17.64962482 190.73459312 17.69454005 196.88383006 17.72729492 203.03344727 C17.74227948 205.32125053 17.76267412 207.60902557 17.78881836 209.89672852 C17.99768648 228.65800054 17.09183719 242.40925584 6.8125 258.5625 C-3.82116891 269.19616891 -15.96326785 272.98857984 -30.5625 273.0625 C-32.05523438 273.0934375 -32.05523438 273.0934375 -33.578125 273.125 C-46.52959047 273.19263167 -57.10727682 268.94812234 -66.6875 260.1875 C-81.47249816 244.5944149 -79.58858486 222.9188798 -79.5 203.0625 C-79.49497437 201.09375114 -79.49041335 199.12500104 -79.48632812 197.15625 C-79.47540809 192.37496882 -79.45820218 187.59374842 -79.4375 182.8125 C-80.01220032 182.81916183 -80.58690063 182.82582367 -81.17901611 182.83268738 C-87.21466419 182.89957395 -93.25020527 182.94451947 -99.28613281 182.97729492 C-101.53227014 182.99228852 -103.77837866 183.0126902 -106.02441406 183.03881836 C-109.27155715 183.07561931 -112.51830985 183.09232116 -115.765625 183.10546875 C-117.24763397 183.12869453 -117.24763397 183.12869453 -118.75958252 183.15238953 C-133.72742614 183.15592212 -145.29588133 178.45049754 -156.14453125 168.2578125 C-166.99150624 156.69016967 -169.90383622 141.27862746 -169.6484375 125.91796875 C-169.20573439 114.09888874 -164.80538467 103.19915516 -156.75 94.5 C-141.42141523 80.33267165 -122.62963121 81.40209794 -103.125 81.625 C-100.82357646 81.64007376 -98.52214338 81.6537574 -96.22070312 81.66601562 C-90.62609112 81.69880816 -85.03184097 81.74879388 -79.4375 81.8125 C-79.44797363 80.62398438 -79.45844727 79.43546875 -79.46923828 78.2109375 C-79.50594662 73.72301347 -79.52858176 69.23510214 -79.54736328 64.74707031 C-79.55730679 62.8193131 -79.57086635 60.8915705 -79.58837891 58.96386719 C-79.94623814 18.50472275 -79.94623814 18.50472275 -64.97265625 3.15625 C-61.63879526 0.07409808 -58.55441183 -2.27580785 -54.4375 -4.1875 C-53.66019531 -4.57679688 -52.88289062 -4.96609375 -52.08203125 -5.3671875 C-35.35310412 -12.36774863 -15.00278728 -9.44951677 0 0 Z " fill="#000000" transform="translate(850.4375,229.1875)"/>
<path d="M0 0 C1.44117162 -0.00373897 2.88234121 -0.00834148 4.32350761 -0.01373065 C8.27509899 -0.02594572 12.22660562 -0.02570194 16.17821157 -0.02334189 C20.44353814 -0.02293335 24.70883768 -0.03397657 28.97415161 -0.04345703 C37.32791516 -0.06006027 45.68165048 -0.06556629 54.03542914 -0.06668179 C60.82768858 -0.06763267 67.61993871 -0.07174496 74.41219521 -0.07808304 C93.67818987 -0.0956943 112.94416227 -0.10492219 132.21016505 -0.10342209 C133.76767197 -0.10330222 133.76767197 -0.10330222 135.35664368 -0.10317993 C136.39625261 -0.10309817 137.43586155 -0.10301641 138.50697378 -0.10293217 C155.35022837 -0.1021195 172.19339348 -0.12125263 189.03662219 -0.14945666 C206.339658 -0.1782015 223.64265019 -0.19199605 240.94571048 -0.19026911 C250.65659127 -0.18960572 260.36737828 -0.19507562 270.07823753 -0.21662521 C278.34740569 -0.23485814 286.61643757 -0.23916708 294.88561716 -0.22560637 C299.10182763 -0.21908712 303.31777681 -0.21892157 307.53396225 -0.23631287 C311.40000382 -0.2520953 315.26557805 -0.24912777 319.13160858 -0.2317446 C320.52393415 -0.228686 321.91629506 -0.23226382 323.30857893 -0.24346475 C337.87031138 -0.35277667 350.35792322 3.37765447 361.24067688 13.36898804 C371.11504254 23.83507598 375.4213855 36.77131516 375.22505188 51.04476929 C374.10796015 64.21049322 369.91774436 75.91693018 360.13911438 85.14242554 C347.8092423 95.1260307 334.49989744 96.41805078 319.25836182 96.40786743 C317.85574038 96.41045364 316.45311967 96.41346751 315.05049998 96.41687083 C311.20540362 96.42491418 307.36032596 96.42672891 303.51522219 96.4274683 C299.36438603 96.42932352 295.21355947 96.43687324 291.06272888 96.44360352 C281.99018001 96.45716869 272.91763556 96.4632088 263.84507823 96.46761417 C258.17623409 96.47037982 252.50739165 96.47461778 246.83854866 96.47911835 C231.13217622 96.49130894 215.42580513 96.50160847 199.71942806 96.50499344 C198.71474034 96.505213 197.71005262 96.50543257 196.67491982 96.50565879 C195.16435362 96.50598621 195.16435362 96.50598621 193.62327093 96.50632024 C191.58273502 96.5067637 189.54219911 96.50721026 187.50166321 96.50765991 C186.48949443 96.50788134 185.47732565 96.50810277 184.43448509 96.50833091 C168.04202311 96.51227703 151.64960563 96.52972632 135.25716083 96.55301943 C118.41290501 96.57676063 101.56867149 96.58919656 84.72439867 96.59036136 C75.27280379 96.59127659 65.8212669 96.59699063 56.36968803 96.61518097 C48.31981821 96.63061938 40.2700243 96.63568043 32.22014248 96.62744287 C28.11713733 96.6235495 24.01428488 96.62440131 19.91129875 96.63850021 C16.14637971 96.65131845 12.38172686 96.64997297 8.61680777 96.6379095 C6.62824446 96.6350539 4.63967621 96.64682794 2.65115017 96.65933156 C-13.31143139 96.57249707 -26.03127162 93.70323859 -37.72026062 82.67758179 C-48.06917192 71.96402764 -50.67458447 59.5331214 -50.5188446 45.01327515 C-50.04679923 31.0772369 -45.46378343 20.06295076 -35.23588562 10.45492554 C-24.42472291 1.57133447 -13.54332294 -0.03326969 0 0 Z " fill="#000000" transform="translate(412.0483856201172,1454.7325744628906)"/>
</svg>
