<?xml version="1.0" encoding="UTF-8"?>
<svg version="1.1" xmlns="http://www.w3.org/2000/svg" width="2000" height="2000">
<path d="M0 0 C5.88706536 0.01039462 11.77411495 0.00317286 17.66118383 -0.00173247 C27.9602853 -0.00792723 38.25933856 -0.00316699 48.55843353 0.00918215 C59.59760086 0.02236002 70.63674314 0.0288949 81.67591857 0.02747553 C82.37559939 0.02738946 83.0752802 0.02730338 83.79616347 0.0272147 C87.36442765 0.02674551 90.93269182 0.02616967 94.50095598 0.02555619 C120.26642333 0.02134397 146.03186842 0.03159042 171.79732894 0.04960841 C197.29919164 0.0673993 222.8010448 0.07893838 248.30291366 0.08216685 C249.49260988 0.0823217 249.49260988 0.0823217 250.70634036 0.08247968 C257.95078313 0.08341933 265.19522591 0.0842824 272.43966871 0.08505361 C290.44540678 0.08697135 308.45114464 0.08984904 326.45688247 0.0933792 C327.686549 0.09361913 327.686549 0.09361913 328.94105729 0.0938639 C368.78065854 0.10172108 408.62025351 0.12064072 448.4598503 0.14048022 C462.2783317 0.14735544 476.09681312 0.15418165 489.91529464 0.16080493 C491.20089836 0.1614212 491.20089836 0.1614212 492.51247387 0.16204992 C532.38469866 0.18109597 572.25692453 0.19226338 612.12915268 0.20140931 C614.71893482 0.2020035 617.30871696 0.20260108 619.8984991 0.20319935 C637.06168451 0.20715883 654.22486995 0.21098275 671.38805542 0.21471593 C705.53607274 0.22214468 739.68408985 0.23036969 773.83210686 0.23914207 C775.45818068 0.23955979 777.0842545 0.23997695 778.71032833 0.24039356 C851.87586219 0.2591434 925.04139146 0.28715431 998.20692062 0.31919116 C998.89175099 0.31949096 999.57658136 0.31979077 1000.28216417 0.32009966 C1034.5298697 0.33509983 1068.77757499 0.35062918 1103.02527999 0.36679858 C1104.56297474 3.44218808 1104.30504471 6.71005184 1104.41419601 10.09165209 C1104.44360275 10.8905939 1104.47300948 11.6895357 1104.50330734 12.51268786 C1104.59994529 15.1735494 1104.68974431 17.83459235 1104.77918624 20.49570483 C1104.84473793 22.36110673 1104.91057401 24.22649866 1104.97668075 26.09188098 C1105.11494882 30.02367325 1105.24986922 33.95556274 1105.38245773 37.88755053 C1105.55010219 42.85209005 1105.725658 47.81631004 1105.90361594 52.78048915 C1106.6245647 72.98078069 1107.28681319 93.15040828 1107.02527999 113.36679858 C1106.13111373 113.37226702 1106.13111373 113.37226702 1105.21888351 113.37784594 C1098.98875709 113.41980515 1092.75935818 113.48924429 1086.52967452 113.57431811 C1084.2078086 113.6024639 1081.885848 113.62371007 1079.56385421 113.63779467 C1076.217172 113.65931213 1072.87162051 113.70600982 1069.52527999 113.75742358 C1068.49475509 113.75865222 1067.46423019 113.75988085 1066.40247726 113.76114672 C1059.01471998 113.90973359 1053.89750576 115.29135773 1047.99402999 119.98007983 C1016.32376117 156.61988552 1016.85497753 221.17677888 1020.02527999 266.36679858 C1022.39424765 296.02244157 1026.36022349 333.19688674 1047.02527999 356.36679858 C1047.02527999 357.02679858 1047.02527999 357.68679858 1047.02527999 358.36679858 C1047.68527999 358.36679858 1048.34527999 358.36679858 1049.02527999 358.36679858 C1049.02527999 359.02679858 1049.02527999 359.68679858 1049.02527999 360.36679858 C1056.81847851 363.67300401 1063.36469346 364.68075714 1071.77137374 364.78086108 C1072.78248718 364.80022723 1073.79360061 364.81959338 1074.83535384 364.83954638 C1078.04441181 364.89901848 1081.25350627 364.94559774 1084.46277999 364.99179858 C1086.64703987 365.03000815 1088.83128516 365.0690616 1091.01551437 365.10898608 C1096.3519728 365.20469316 1101.68852009 365.28983414 1107.02527999 365.36679858 C1107.30691922 386.04075088 1106.54731466 406.67179144 1105.79847335 427.3284685 C1105.61987942 432.25745462 1105.44930314 437.18668275 1105.28086566 442.11602515 C1105.14938025 445.93787433 1105.01368834 449.75956514 1104.87670325 453.5812208 C1104.81198892 455.4012736 1104.748608 457.22137432 1104.68659782 459.04152125 C1104.60010048 461.56264028 1104.50792018 464.08348812 1104.41419601 466.60434741 C1104.3775106 467.72383021 1104.3775106 467.72383021 1104.34008407 468.86592883 C1104.22080103 471.9341161 1104.00262158 474.43477383 1103.02527999 477.36679858 C1102.03527999 477.69679858 1101.04527999 478.02679858 1100.02527999 478.36679858 C1100.64531905 478.74449389 1101.26535812 479.1221892 1101.90418624 479.51132983 C1115.13973258 487.73779022 1127.25962121 497.1753038 1139.02527999 507.36679858 C1140.46252638 508.55460551 1141.89997248 509.74217093 1143.33777999 510.92929858 C1144.22465499 511.73367358 1145.11152999 512.53804858 1146.02527999 513.36679858 C1146.02527999 514.02679858 1146.02527999 514.68679858 1146.02527999 515.36679858 C1146.68527999 515.36679858 1147.34527999 515.36679858 1148.02527999 515.36679858 C1149.40027999 516.73007983 1149.40027999 516.73007983 1151.02527999 518.67929858 C1153.80667185 521.97003997 1156.68453659 525.11665854 1159.65027999 528.24179858 C1174.00695296 544.01884254 1184.99313676 562.44622526 1194.17908859 581.60507983 C1194.90411734 583.11454534 1195.64479412 584.61647751 1196.38856124 586.11679858 C1222.49981763 640.55068813 1223.68944731 706.53692732 1204.34193038 763.11020678 C1201.63525592 770.70720129 1198.45485541 778.07122245 1195.02527999 785.36679858 C1194.57330245 786.33649584 1194.57330245 786.33649584 1194.11219405 787.32578295 C1183.94909575 808.94253173 1170.53614535 827.34193975 1155.02527999 845.36679858 C1153.94633468 846.65070483 1153.94633468 846.65070483 1152.84559249 847.96054858 C1152.22426437 848.69273608 1151.60293624 849.42492358 1150.96277999 850.17929858 C1150.43555343 850.80449389 1149.90832687 851.4296892 1149.36512374 852.07382983 C1148.02527999 853.36679858 1148.02527999 853.36679858 1146.02527999 853.36679858 C1146.02527999 854.02679858 1146.02527999 854.68679858 1146.02527999 855.36679858 C1144.76746749 856.67148608 1144.76746749 856.67148608 1142.90027999 858.24179858 C1140.26846548 860.46167691 1137.66710715 862.6913176 1135.11512374 865.00351733 C1125.78103708 873.39377176 1115.60730987 880.25184387 1105.07142257 887.04502124 C1103.37988566 888.13772865 1101.70084556 889.24975487 1100.02527999 890.36679858 C1198.36527999 890.69679858 1296.70527999 891.02679858 1398.02527999 891.36679858 C1401.02527999 968.36679858 1401.02527999 968.36679858 1401.02527999 1003.36679858 C1397.79746749 1003.40418139 1394.56965499 1003.4415642 1391.24402999 1003.48007983 C1388.09975739 1003.52636028 1384.95560076 1003.57757029 1381.8114128 1003.62924975 C1379.63505288 1003.66239639 1377.45860911 1003.69045992 1375.28211593 1003.71323413 C1372.14405896 1003.74696896 1369.00676324 1003.79929477 1365.86902999 1003.85507983 C1364.90412643 1003.86146975 1363.93922286 1003.86785967 1362.9450798 1003.87444323 C1354.08712165 1004.06495311 1347.45358096 1006.15114835 1340.89637374 1012.31211108 C1329.79523702 1024.50250338 1324.7498907 1042.65780167 1321.02527999 1058.36679858 C1320.84368331 1059.12911791 1320.66208663 1059.89143725 1320.47498702 1060.67685717 C1319.11535837 1066.53987124 1318.00439752 1072.42892454 1317.02527999 1078.36679858 C1316.87284835 1079.28847827 1316.72041671 1080.21015795 1316.56336593 1081.15976733 C1308.75429847 1131.15129202 1309.39367017 1199.64827491 1338.02527999 1243.36679858 C1342.44138299 1248.71214169 1347.24197179 1253.77529744 1354.45539474 1254.66730517 C1357.41626803 1254.80933059 1360.36573721 1254.86031946 1363.32996749 1254.87851733 C1364.94864227 1254.90544413 1364.94864227 1254.90544413 1366.60001754 1254.93291491 C1370.03339908 1254.98692725 1373.4666423 1255.02088527 1376.90027999 1255.05429858 C1379.23363253 1255.08747958 1381.56696684 1255.12196996 1383.90027999 1255.1578142 C1387.93074014 1255.21944642 1391.96116733 1255.27025521 1395.99186324 1255.31318682 C1397.40699801 1255.32830176 1397.40699801 1255.32830176 1398.85072135 1255.34372204 C1399.5683257 1255.3513373 1400.28593005 1255.35895256 1401.02527999 1255.36679858 C1401.25369746 1279.92533716 1400.6644922 1304.3920837 1399.63459396 1328.92789477 C1399.44839901 1333.40145974 1399.27046678 1337.87535413 1399.09168624 1342.34922045 C1398.7439665 1351.02207441 1398.38764951 1359.69454437 1398.02527999 1368.36679858 C1345.14010765 1368.38330152 1292.25493511 1368.39910964 1239.36976241 1368.414406 C1238.33485444 1368.41470539 1237.29994647 1368.41500479 1236.23367765 1368.41531325 C1125.32642901 1368.44737961 1014.41918029 1368.47504773 903.51192855 1368.493828 C901.04794106 1368.49424635 898.58395356 1368.4946647 896.11996607 1368.49508306 C844.39843316 1368.50385141 792.67690017 1368.51200153 740.95536706 1368.51943761 C714.97332091 1368.52317375 688.99127479 1368.52702867 663.00922868 1368.5309959 C659.08997354 1368.53159365 655.17071839 1368.53218801 651.25146324 1368.53278222 C590.91170386 1368.54196046 530.5719463 1368.55368366 470.23218917 1368.57279223 C468.93516492 1368.57320293 467.63814068 1368.57361362 466.30181266 1368.57403677 C445.39039343 1368.58067375 424.47897427 1368.58752463 403.56755511 1368.5944039 C343.32464725 1368.61421887 283.08174078 1368.6324481 222.83882999 1368.64021796 C221.59956242 1368.64037856 220.36029484 1368.64053917 219.08347371 1368.64070464 C191.87627899 1368.64420221 164.66908425 1368.64688665 137.46188937 1368.64880153 C126.51405404 1368.64958637 115.56621872 1368.65048824 104.6183834 1368.65143031 C103.42020256 1368.65153059 102.22202173 1368.65163087 100.98753238 1368.65173419 C62.40414915 1368.6550216 23.82077631 1368.66782827 -14.76260274 1368.6856452 C-53.64034526 1368.70355438 -92.51807771 1368.71209221 -131.39582446 1368.70767054 C-136.77291998 1368.70706133 -142.15001552 1368.70655917 -147.52711106 1368.70612162 C-148.58114032 1368.70603198 -149.63516957 1368.70594234 -150.7211391 1368.70584998 C-167.38592987 1368.70470969 -184.05069928 1368.71364687 -200.71548423 1368.72682817 C-217.11751178 1368.73959322 -233.51951173 1368.74159597 -249.9215419 1368.73229402 C-259.52736318 1368.72716716 -269.13309672 1368.73015875 -278.73890768 1368.74544958 C-285.13429263 1368.75480047 -291.52961542 1368.75308 -297.92499857 1368.7427018 C-301.54031647 1368.7371354 -305.15546486 1368.73593059 -308.77076907 1368.74850431 C-372.48222765 1368.95540729 -431.70887504 1350.88051749 -479.97472001 1308.36679858 C-480.47664872 1307.92803393 -480.97857743 1307.48926928 -481.4957161 1307.03720874 C-486.75465087 1302.42595149 -491.75317149 1297.75843086 -496.25206376 1292.39804858 C-498.15538339 1290.15377146 -500.15635189 1288.01978761 -502.16222001 1285.86679858 C-534.40370401 1249.95777735 -554.10874564 1202.17782581 -558.97472001 1154.36679858 C-559.08557938 1153.39097827 -559.19643876 1152.41515795 -559.31065751 1151.40976733 C-563.62055451 1106.97123471 -554.97270737 1059.86111194 -533.97472001 1020.36679858 C-533.53788895 1019.54373217 -533.1010579 1018.72066577 -532.65098954 1017.87265795 C-526.38909835 1006.22162801 -519.52696545 995.37065794 -511.28966141 985.01963061 C-510.12190174 983.5518005 -508.97451806 982.06781135 -507.83018876 980.58164233 C-497.07314993 966.75742339 -484.76194165 954.15755119 -470.97472001 943.36679858 C-470.41462235 942.91965502 -469.8545247 942.47251147 -469.27745438 942.01181811 C-444.80999057 922.53812355 -405.38671855 897.36679858 -372.97472001 897.36679858 C-373.13359193 896.49313143 -373.29246384 895.61946429 -373.45615006 894.71932238 C-373.92553743 891.68476102 -374.16410487 888.79152704 -374.27183915 885.72641772 C-374.31180512 884.6399042 -374.3517711 883.55339068 -374.39294816 882.43395251 C-374.43153443 881.26839327 -374.4701207 880.10283404 -374.50987626 878.90195483 C-374.5528534 877.6776224 -374.59583054 876.45328997 -374.64011002 875.19185656 C-374.73023962 872.59374331 -374.81837022 869.99556005 -374.90465165 867.39731616 C-375.03478609 863.50215036 -375.17319956 859.60734513 -375.31261063 855.7125017 C-375.83692245 840.59068322 -376.1001962 825.49736892 -375.97472001 810.36679858 C-375.39113724 810.36315295 -374.80755448 810.35950732 -374.20628739 810.35575122 C-368.10591365 810.31378501 -362.0062824 810.24434121 -355.90636063 810.15927905 C-353.63299885 810.13113698 -351.35954045 810.10988896 -349.08604813 810.09580249 C-345.80885471 810.07427976 -342.53281469 810.02757973 -339.25597001 809.97617358 C-337.74299332 809.97433062 -337.74299332 809.97433062 -336.19945145 809.97245043 C-328.88293017 809.82222867 -323.78898118 808.39620216 -317.94347001 803.75351733 C-286.22179515 767.05423924 -287.26946377 702.40257098 -290.47862626 656.76914233 C-292.50961568 630.39044644 -296.51673716 602.09446438 -308.97472001 578.36679858 C-309.64954423 577.0616228 -309.64954423 577.0616228 -310.33800126 575.73007983 C-314.53528103 568.16140013 -319.64744837 562.26438936 -327.97472001 559.36679858 C-330.41405929 559.04623423 -330.41405929 559.04623423 -332.94859696 559.04795092 C-333.9092154 559.02808123 -334.86983384 559.00821154 -335.85956193 558.98773974 C-336.88369691 558.97618853 -337.90783189 558.96463732 -338.96300126 558.95273608 C-340.02133668 558.93336993 -341.0796721 558.91400378 -342.17007829 558.89405078 C-345.54237749 558.8343861 -348.91471107 558.78792164 -352.28722001 558.74179858 C-354.57694824 558.70360677 -356.86666229 558.66455434 -359.15636063 558.62461108 C-364.76235431 558.52869532 -370.36843377 558.44360947 -375.97472001 558.36679858 C-376.2721417 537.91223259 -375.4780823 517.49116432 -374.74791337 497.05332202 C-374.56947887 492.05591838 -374.39885739 487.05828115 -374.23030568 482.06053561 C-374.09880607 478.18807413 -373.96311421 474.31576835 -373.82614327 470.44349688 C-373.76141407 468.59832418 -373.69803365 466.75310365 -373.63603783 464.90783709 C-373.54953718 462.350689 -373.45735387 459.79380812 -373.36363602 457.23691577 C-373.33917908 456.47967211 -373.31472214 455.72242846 -373.28952409 454.94223803 C-373.17103189 451.85050187 -372.95941284 449.32087706 -371.97472001 446.36679858 C-297.72472001 446.03679858 -223.47472001 445.70679858 -146.97472001 445.36679858 C-152.25472001 442.06679858 -157.53472001 438.76679858 -162.97472001 435.36679858 C-167.39921244 432.11104 -171.73030717 428.84055264 -175.97472001 425.36679858 C-176.79722245 424.69874194 -176.79722245 424.69874194 -177.6363411 424.0171892 C-190.93287137 413.14692116 -203.73708694 401.20325026 -213.97472001 387.36679858 C-214.70948563 386.41418139 -215.44425126 385.4615642 -216.20128251 384.48007983 C-248.06465721 342.86587307 -265.53136511 291.55116505 -265.28722001 239.17929858 C-265.28572953 238.37897204 -265.28423905 237.5786455 -265.28270341 236.75406665 C-265.23835266 223.42997758 -264.3778566 210.49383417 -261.97472001 197.36679858 C-261.84081864 196.57853686 -261.70691727 195.79027514 -261.56895829 194.9781267 C-258.02252276 174.32712516 -251.24441045 154.13814056 -241.97472001 135.36679858 C-241.62828446 134.66152026 -241.28184891 133.95624194 -240.92491532 133.22959155 C-225.57384051 102.33783578 -203.4807069 73.40942941 -175.97472001 52.36679858 C-175.42090653 51.94189135 -174.86709306 51.51698413 -174.29649735 51.07920092 C-142.30910047 26.67816443 -106.56708775 10.72086488 -66.97472001 3.36679858 C-66.16800703 3.2163205 -65.36129405 3.06584243 -64.53013522 2.91080441 C-43.23302944 -0.83493096 -21.53568734 -0.05036079 0 0 Z M-84.97472001 40.36679858 C-85.77506669 40.60882006 -86.57541337 40.85084155 -87.40001298 41.10019702 C-140.1640229 57.46978604 -183.39439158 93.73437777 -209.78673173 142.10410327 C-218.39012104 158.49050116 -224.54336494 175.55210497 -228.72472001 193.55429858 C-228.9235579 194.40814135 -229.12239579 195.26198413 -229.32725907 196.14170092 C-232.42363764 210.17631564 -233.38426212 223.92548716 -233.34972001 238.24179858 C-233.34917619 239.09474505 -233.34863236 239.94769152 -233.34807206 240.82648486 C-233.30579163 255.31429522 -232.23112813 269.20828541 -228.97472001 283.36679858 C-228.76573075 284.29653491 -228.55674149 285.22627124 -228.34141923 286.18418139 C-222.27348332 312.39221019 -211.09413365 337.7817662 -194.97472001 359.36679858 C-193.80489579 360.96394702 -193.80489579 360.96394702 -192.61143876 362.59336108 C-186.9849485 370.16956923 -180.83029973 377.15436696 -174.30870438 383.96982592 C-173.17113328 385.16111104 -172.04793777 386.36609622 -170.92784501 387.57382983 C-165.37971891 393.39462024 -159.05344007 398.22686453 -152.66612626 403.08115405 C-151.17943316 404.21119531 -149.70136437 405.35256396 -148.22472001 406.49570483 C-106.69781892 437.83079026 -57.23248018 446.57020593 -6.47332097 446.48984641 C-4.57691094 446.4905881 -2.68050103 446.49176886 -0.78409151 446.49334291 C4.39278823 446.49638554 9.56964806 446.493259 14.7465263 446.48906477 C20.39137362 446.48560889 26.03621908 446.48800547 31.6810668 446.48964226 C41.56263405 446.49170993 51.44419525 446.49008261 61.32576179 446.48600405 C71.9203458 446.48164339 82.5149275 446.47943269 93.10951232 446.47990626 C93.78038246 446.47993495 94.45125259 446.47996364 95.14245212 446.47999321 C98.56363387 446.4801496 101.98481561 446.48034154 105.40599735 446.48054604 C130.12548945 446.48195105 154.84497897 446.47853138 179.56447028 446.47252864 C204.03497136 446.46660059 228.50547133 446.46275243 252.97597312 446.46167582 C253.73671407 446.46164141 254.49745502 446.461607 255.28124872 446.46157154 C262.2297293 446.46125833 269.17820989 446.46097064 276.12669047 446.46071357 C293.39768798 446.46007428 310.66868547 446.45911502 327.93968295 446.45793837 C328.72605385 446.45788505 329.51242475 446.45783174 330.32262506 446.4577768 C368.54911267 446.45515704 406.77559955 446.4488502 445.00208663 446.44223803 C458.26291019 446.43994631 471.52373376 446.43767092 484.78455734 446.43546313 C485.60702612 446.43532618 486.42949491 446.43518923 487.27688699 446.43504813 C525.53142648 446.42870076 563.78596608 446.4249774 602.04050595 446.42192833 C604.52487408 446.42173027 607.00924221 446.42153108 609.49361034 446.42133166 C625.95803408 446.42001184 642.42245782 446.4187372 658.88688157 446.4174928 C691.64531155 446.41501647 724.40374152 446.4122748 757.16217147 446.40935075 C758.72211481 446.40921151 760.28205814 446.40907245 761.84200147 446.40893359 C839.88062546 446.40198477 917.91924878 446.39108326 1073.02527999 446.36679858 C1073.93494191 429.69046984 1074.15066411 413.06603455 1074.02527999 396.36679858 C1073.05665614 396.3663984 1072.0880323 396.36599821 1071.09005621 396.3655859 C1037.92344434 396.35186046 1004.75683277 396.3374703 971.5902214 396.32260913 C970.58794432 396.32216012 970.58794432 396.32216012 969.56541922 396.32170204 C897.95742119 396.2896041 826.34942697 396.25313089 754.741436 396.20781726 C753.15051551 396.20681163 751.55959502 396.20580601 749.96867453 396.20480039 C716.57355536 396.18367804 683.17843661 396.16194074 649.7833183 396.1394932 C633.00740969 396.12821743 616.231501 396.1170598 599.45559223 396.10601389 C596.92503724 396.10434699 594.39448224 396.10267671 591.86392725 396.1010063 C552.90499746 396.0753193 513.94606819 396.05216345 474.98713302 396.03635424 C474.14972053 396.03601438 473.31230805 396.03567452 472.44951943 396.03532435 C458.94827422 396.02986028 445.44702893 396.02460897 431.94578363 396.01938591 C393.04974994 396.00433544 354.15371981 395.98770713 315.25769233 395.96067542 C314.4575262 395.96012009 313.65736008 395.95956476 312.8329465 395.9589926 C295.26573964 395.94677243 277.69853349 395.93374343 260.13132781 395.91994901 C253.06246395 395.91441252 245.9936 395.90899242 238.92473602 395.90361231 C237.76426438 395.90272487 237.76426438 395.90272487 236.58034887 395.9018195 C211.66915172 395.88282706 186.75796204 395.87330237 161.8467584 395.86876263 C136.74473163 395.86414465 111.64272862 395.85020235 86.54071522 395.82337224 C83.06862141 395.81966345 79.5965275 395.81606113 76.12443351 395.81252307 C75.44382875 395.81182568 74.76322399 395.81112829 74.06199484 395.81040977 C62.64946983 395.79900803 51.23697689 395.79943131 39.82444656 395.80302929 C29.88733549 395.80534196 19.95027186 395.79680215 10.01317573 395.77947447 C4.35229243 395.76991297 -1.30848603 395.76503548 -6.96937364 395.77340295 C-12.12706339 395.78093344 -17.28454734 395.77452645 -22.44221231 395.75735791 C-24.2890636 395.75358956 -26.13593381 395.75474237 -27.98277605 395.76164257 C-43.59523443 395.81534667 -58.57539276 394.08004749 -73.59972001 389.61679858 C-74.47668534 389.35930834 -75.35365067 389.10181811 -76.25719071 388.83652514 C-96.70385196 382.63571734 -115.82669371 372.35858842 -131.97472001 358.36679858 C-132.54061845 357.87921069 -133.10651688 357.3916228 -133.68956376 356.88925952 C-145.33223077 346.75802716 -154.46096794 335.20217004 -162.97472001 322.36679858 C-163.50839188 321.58175952 -164.04206376 320.79672045 -164.59190751 319.98789233 C-172.77646863 307.26864194 -178.25354497 291.98452336 -181.97472001 277.36679858 C-182.26886796 276.21945239 -182.26886796 276.21945239 -182.56895829 275.04892749 C-192.89323663 232.79789468 -183.42984494 189.31575393 -161.33800126 152.51230639 C-156.86658023 145.4752634 -151.631493 138.90364795 -145.64659501 133.10117358 C-142.7417582 130.76556262 -142.7417582 130.76556262 -142.97472001 128.36679858 C-142.31472001 128.36679858 -141.65472001 128.36679858 -140.97472001 128.36679858 C-140.97472001 127.70679858 -140.97472001 127.04679858 -140.97472001 126.36679858 C-140.37143876 126.09738452 -139.76815751 125.82797045 -139.14659501 125.55039233 C-136.95048811 124.35359306 -135.8500988 123.29665792 -134.22472001 121.42929858 C-120.73089647 107.5902173 -101.02650307 97.71697548 -82.97472001 91.36679858 C-82.33566727 91.14008471 -81.69661454 90.91337084 -81.03819657 90.67978686 C-61.10692538 83.73013257 -41.2073227 82.21493117 -20.23906041 82.22813338 C-18.32809801 82.22568341 -16.41713612 82.22279878 -14.50617496 82.2195206 C-9.2515986 82.21176568 -3.99703572 82.21017945 1.25754566 82.20959318 C6.97271854 82.20786207 12.68788435 82.20037554 18.4030531 82.19361663 C28.42049256 82.18256346 38.43792951 82.17518934 48.45537376 82.17021769 C59.20167582 82.16487231 69.94797251 82.1574145 80.69427108 82.14728945 C81.37345085 82.14665082 82.05263062 82.14601219 82.75239159 82.1453542 C86.21563646 82.14208774 89.67888129 82.13878606 93.14212612 82.13547194 C118.19853911 82.11156645 143.25495393 82.09244819 168.31137275 82.0758726 C193.12341843 82.05944462 217.93546121 82.0409654 242.74750327 82.01973933 C243.51821881 82.01908093 244.28893435 82.01842254 245.08300491 82.01774419 C252.12235834 82.01172963 259.16171176 82.00568981 266.20106515 81.99961969 C283.69969954 81.9845307 301.19833419 81.96975849 318.69696902 81.95520133 C319.49379683 81.95453819 320.29062464 81.95387505 321.11159874 81.95319182 C359.86773606 81.92096578 398.62387595 81.89238953 437.38001632 81.86411303 C450.8283806 81.85429907 464.27674487 81.84446896 477.72510909 81.83457202 C478.55918393 81.83395822 479.39325877 81.83334442 480.2526086 81.83271202 C519.03051344 81.80415314 557.80841607 81.77300061 596.58631836 81.74117951 C599.10397378 81.73911357 601.62162919 81.73704875 604.13928461 81.73498415 C620.82399294 81.72130014 637.50870123 81.70757144 654.1934095 81.69381281 C687.39151314 81.66643722 720.58961699 81.63932422 753.78772099 81.61239163 C755.36868231 81.61110904 756.94964362 81.60982627 758.53060494 81.60854332 C829.69704097 81.55079309 900.86347923 81.49609752 972.02991866 81.44272631 C972.69625888 81.44222657 973.36259911 81.44172683 974.04913145 81.44121195 C1007.37451416 81.41622099 1040.699897 81.39140439 1074.02527999 81.36679858 C1074.16095573 65.00221669 1073.85586234 48.71115706 1073.02527999 32.36679858 C1039.13677117 32.35030231 1005.24826203 32.33448677 971.35975265 32.31919116 C970.36495983 32.31874207 970.36495983 32.31874207 969.35007018 32.31828391 C898.26080054 32.28620986 827.17153079 32.25854379 756.08225631 32.23976916 C754.50241928 32.23935081 752.92258224 32.23893245 751.34274521 32.2385141 C718.17848582 32.22974525 685.01422631 32.22159519 651.8499666 32.21415954 C635.18941966 32.21042348 618.52887274 32.20656857 601.86832585 32.20260125 C599.35521115 32.20200351 596.84209644 32.20140915 594.32898173 32.20081494 C555.64982415 32.19163955 516.97066941 32.17992175 478.29151534 32.16080493 C477.46045197 32.16039423 476.62938859 32.15998353 475.77314148 32.15956039 C462.37471327 32.15292363 448.97628516 32.14607266 435.57785706 32.13919326 C396.96644166 32.11937154 358.35502845 32.1011447 319.74360847 32.0933792 C318.94888216 32.09321859 318.15415585 32.09305799 317.33534693 32.09289252 C299.88533248 32.08939448 282.435318 32.08671026 264.98530331 32.08479563 C257.96302883 32.08401081 250.94075437 32.08310895 243.91847991 32.08216685 C243.14994295 32.08206657 242.381406 32.08196629 241.58958004 32.08186297 C216.86477713 32.07857864 192.13999046 32.06578247 167.41519409 32.04795195 C142.49005809 32.03002079 117.56493782 32.02151097 92.63979522 32.02592662 C89.18802511 32.02653578 85.73625499 32.02703796 82.28448486 32.02747553 C81.60789527 32.02756518 80.93130568 32.02765482 80.23421338 32.02774718 C68.91411269 32.02895395 57.59405351 32.01829737 46.27396035 32.00440595 C36.40181738 31.99312101 26.52971275 31.99283236 16.65756709 32.00130314 C11.04033973 32.00581358 5.42322331 32.00571597 -0.19399195 31.99214903 C-28.96749152 31.92680646 -57.17425799 31.92727119 -84.97472001 40.36679858 Z M-118.97472001 150.36679858 C-120.00532548 151.30072436 -120.00532548 151.30072436 -121.05675126 152.25351733 C-130.02264476 160.68888459 -136.49193263 171.43185391 -141.97472001 182.36679858 C-142.72882157 183.84019702 -142.72882157 183.84019702 -143.49815751 185.34336108 C-146.45746606 191.39717501 -148.79976914 197.48486644 -150.72472001 203.92929858 C-151.0226143 204.91857348 -151.0226143 204.91857348 -151.32652665 205.92783374 C-160.28298142 237.43460866 -155.43471319 272.24721791 -139.66222001 300.74179858 C-135.41427893 308.12717372 -130.37733644 314.79654979 -124.97472001 321.36679858 C-124.1413411 322.4128728 -124.1413411 322.4128728 -123.29112626 323.48007983 C-105.53750339 345.17895223 -74.84076769 361.24532685 -47.10309272 364.08554095 C-35.34895757 365.14230127 -23.755716 365.50938684 -11.96313287 365.48984641 C-10.16805428 365.4905874 -8.37297584 365.49176742 -6.57789779 365.49334291 C-1.65905782 365.49639673 3.25976132 365.49324951 8.17859974 365.48906477 C13.53503548 365.48561836 18.8914692 365.48800369 24.24790537 365.48964226 C33.63084305 365.49171285 43.01377439 365.49007759 52.39671134 365.48600405 C66.34875058 365.47996372 80.30078581 365.47966875 94.25282612 365.48054604 C117.72350148 365.48185938 141.1941738 365.47852795 164.66484832 365.47252864 C187.90303052 365.46660296 211.14121157 365.4627529 234.37939452 365.46167582 C235.46256826 365.4616242 235.46256826 365.4616242 236.56762429 365.46157154 C243.16319524 365.46125834 249.75876619 365.46097065 256.35433715 365.46071357 C272.74901355 365.46007423 289.14368993 365.45911495 305.53836631 365.45793837 C306.28488232 365.45788505 307.03139833 365.45783174 307.80053604 365.4577768 C344.1000605 365.4551563 380.3995842 365.44884915 416.69910812 365.44223803 C429.29332605 365.43994634 441.88754398 365.43767096 454.48176192 365.43546313 C455.26287363 365.43532618 456.04398534 365.43518923 456.8487671 365.43504813 C493.17166301 365.42870215 529.49455904 365.42497785 565.81745536 365.42192833 C568.17603339 365.42173027 570.53461142 365.42153108 572.89318945 365.42133166 C588.52382089 365.42001186 604.15445233 365.41873721 619.78508378 365.4174928 C650.88523691 365.4150164 681.98539001 365.41227472 713.08554309 365.40935075 C714.56655952 365.40921151 716.04757594 365.40907245 717.52859236 365.40893359 C800.74292427 365.40112902 883.95725534 365.38837931 1013.02527999 365.36679858 C1012.76434428 364.82173254 1012.50340858 364.27666649 1012.23456573 363.7150833 C1011.04238761 361.22141797 1009.85363356 358.72613487 1008.66492843 356.23081225 C1008.25439223 355.3734019 1007.84385604 354.51599154 1007.42087936 353.63259905 C1004.6263202 347.75797424 1002.1442393 341.9192518 1000.27527999 335.67929858 C999.99780929 334.77759936 999.72033859 333.87590014 999.43445968 332.9468767 C994.13986775 315.17610103 990.98648158 296.78784259 989.02527999 278.36679858 C988.88171066 277.05267993 988.88171066 277.05267993 988.73524093 275.71201342 C987.64192107 263.96568272 987.78142749 252.15311191 987.77527999 240.36679858 C987.77426788 238.62586932 987.77426788 238.62586932 987.77323531 236.84976977 C987.78956085 219.16540162 988.23541726 201.86264016 991.02527999 184.36679858 C991.19688644 183.26916186 991.36849288 182.17152514 991.54529952 181.0406267 C995.40633828 157.17740592 1002.19908287 134.96072382 1013.02527999 113.36679858 C926.72446684 113.30786268 840.42364768 113.24908327 711.84479903 113.19742602 C710.34386802 113.19686822 708.84293701 113.19631041 707.34200599 113.1957526 C675.83519613 113.18406118 644.32838602 113.17319439 612.82157555 113.16327987 C596.99402494 113.15829839 581.16647439 113.1531585 565.33892389 113.14786881 C562.95143792 113.14707182 560.56395195 113.14627934 558.17646598 113.14548706 C521.42432515 113.13325104 484.67218963 113.1176232 447.92005538 113.09214038 C447.13020198 113.09159278 446.34034857 113.09104519 445.52656021 113.090481 C432.79225791 113.08163181 420.05795581 113.07249726 407.32365374 113.06332482 C370.63282133 113.03690099 333.94199301 113.01259672 297.25115203 113.00223941 C296.4961968 113.00202526 295.74124156 113.00181112 294.9634089 113.0015905 C278.38795228 112.9969268 261.81249561 112.99334768 245.23703853 112.99079465 C238.56703369 112.9897482 231.89702888 112.98854571 225.22702407 112.98728961 C224.49703362 112.9871559 223.76704317 112.98702219 223.01493179 112.98688443 C199.51758201 112.98250298 176.02026258 112.96543345 152.52292503 112.94166974 C128.18194529 112.91711279 103.8410001 112.90674843 79.50000801 112.91279307 C65.47137629 112.91583469 51.44285451 112.90773047 37.41424264 112.88360841 C28.03762983 112.86858747 18.66108884 112.868159 9.28447103 112.87947132 C3.94531692 112.88549864 -1.39362957 112.88529966 -6.73276124 112.86726585 C-11.60086982 112.85094858 -16.46861088 112.85344352 -21.33671453 112.87023868 C-23.0764842 112.87306923 -24.81628178 112.8693563 -26.55601575 112.8578576 C-62.31231055 112.6367276 -93.10486867 125.99028331 -118.97472001 150.36679858 Z M-341.97472001 477.36679858 C-342.78124368 494.04424957 -343.11430376 510.67043493 -342.97472001 527.36679858 C-341.82410194 527.36648662 -340.67348388 527.36617466 -339.4879986 527.36585324 C-300.09001782 527.35518675 -260.69203693 527.3449657 -221.29405595 527.3350603 C-220.50033711 527.3348607 -219.70661827 527.33466111 -218.88884735 527.33445546 C-133.83033432 527.31307824 -48.77182126 527.29463274 36.28669357 527.2821123 C38.17637039 527.2818334 40.06604721 527.2815545 41.95572403 527.28127559 C81.62175217 527.27543004 121.28778037 527.26999663 160.95380863 527.26503922 C180.87978091 527.26254846 200.80575318 527.25997851 220.73172544 527.2573337 C223.73745702 527.2569352 226.74318861 527.25653896 229.74892019 527.25614282 C276.02530605 527.25002386 322.30169085 527.24220815 368.5780754 527.22946948 C369.57283169 527.22919568 370.56758798 527.22892188 371.59248841 527.22863979 C387.63059793 527.22421512 403.66870742 527.21964787 419.7068169 527.2150617 C465.9093849 527.20185202 512.11195209 527.1896991 558.31452178 527.18451899 C559.2649269 527.18441192 560.21533203 527.18430485 561.1945373 527.18419454 C582.05977797 527.18186284 602.92501865 527.18007321 623.79025941 527.17879661 C632.18612229 527.17827338 640.58198517 527.17767214 648.97784805 527.17704409 C649.89673045 527.17697724 650.81561286 527.17691038 651.76234019 527.1768415 C681.35375558 527.17464976 710.94516495 527.1661115 740.53657791 527.15423416 C770.35279959 527.1422957 800.16901544 527.13660255 829.98523957 527.1395506 C834.1086957 527.13995675 838.23215184 527.14029152 842.35560798 527.14058322 C843.163899 527.14064298 843.97219002 527.14070274 844.8049747 527.14076431 C857.58648347 527.14152462 870.36797986 527.13556538 883.14948525 527.12677885 C895.72827039 527.11827056 908.30703955 527.11693236 920.88582621 527.12313495 C927.6104515 527.12625555 934.33503054 527.12602491 941.05965402 527.11703221 C947.1848669 527.10890345 953.31000659 527.11009312 959.43521842 527.11851863 C961.63008999 527.11993973 963.82496703 527.11805268 966.01983158 527.11232809 C1015.20447276 526.99224448 1058.3060137 539.53313393 1094.02527999 574.36679858 C1102.24968558 582.56635702 1108.70696586 591.68134954 1115.02527999 601.36679858 C1115.61309249 602.25238452 1116.20090499 603.13797045 1116.80652999 604.05039233 C1137.08610915 636.03387754 1143.4413196 679.666066 1135.48279952 716.3765642 C1128.68084191 745.96544276 1113.7824618 779.36612337 1089.25574874 798.53086108 C1088.51969405 799.13672045 1087.78363937 799.74257983 1087.02527999 800.36679858 C1087.02527999 801.02679858 1087.02527999 801.68679858 1087.02527999 802.36679858 C1086.48000655 802.60527514 1085.93473312 802.8437517 1085.37293624 803.08945483 C1082.43691318 804.68692495 1080.05486271 806.69210601 1077.46277999 808.80429858 C1053.43668077 827.75111333 1021.6844167 840.32691936 990.88685226 840.57212084 C990.10554443 840.58202044 989.3242366 840.59192004 988.51925277 840.60211962 C985.96009379 840.63347801 983.40091631 840.65838953 980.84168624 840.68320483 C979.05806647 840.70379657 977.27445135 840.7247936 975.4908409 840.74617785 C970.81382138 840.80116932 966.1367595 840.85067897 961.4596672 840.89902514 C955.83859028 840.95827862 950.21759016 841.02437953 944.59657668 841.08932513 C936.07285833 841.18704589 927.54908897 841.27609923 919.02527999 841.36679858 C919.02527999 857.86679858 919.02527999 874.36679858 919.02527999 891.36679858 C930.83189999 891.45454408 930.83189999 891.45454408 942.63856124 891.51328295 C947.47802132 891.53098367 952.317306 891.55154501 957.15662765 891.59311694 C980.93921186 891.79172665 1004.77454835 891.64623676 1027.96277999 885.61679858 C1029.49321944 885.23273852 1029.49321944 885.23273852 1031.05457687 884.84091967 C1058.46344688 877.73158331 1083.89888874 865.03630245 1106.02527999 847.36679858 C1106.96887374 846.61527514 1107.91246749 845.8637517 1108.88465499 845.08945483 C1117.60120969 838.04638232 1125.8388599 830.98447634 1133.02527999 822.36679858 C1133.7742253 821.50570483 1134.52317062 820.64461108 1135.29481124 819.75742358 C1145.67387559 807.66213599 1154.63728418 794.49643084 1162.02527999 780.36679858 C1162.3833171 779.68343432 1162.74135421 779.00007006 1163.11024093 778.2959978 C1187.7358623 730.55048472 1192.58800114 674.59499678 1176.65418624 623.29648608 C1169.04263788 599.85015764 1158.10850925 576.25874147 1142.02527999 557.36679858 C1141.1381221 556.30857283 1140.25144389 555.24994483 1139.36512374 554.19101733 C1137.45225716 551.91252729 1135.52879892 549.64367713 1133.59559249 547.38242358 C1132.13996294 545.67460289 1130.69154896 543.96038835 1129.26746749 542.22617358 C1126.24184763 538.55574948 1122.97329071 535.41359555 1119.34559249 532.33554858 C1117.97841459 531.17551884 1116.61979239 530.00503391 1115.28187179 528.81137866 C1088.53578782 505.00312477 1055.89147755 489.05917221 1020.96277999 481.55429858 C1020.06720382 481.35932788 1019.17162765 481.16435717 1018.2489128 480.96347827 C1000.90703152 477.48282457 983.40122357 477.07480831 965.77760314 477.12070292 C963.48436783 477.11922035 961.19113295 477.1168597 958.89789932 477.11370993 C952.62386655 477.10761156 946.34989929 477.11388885 940.07587143 477.12226619 C933.94642646 477.12845371 927.8169926 477.12511697 921.68754648 477.12209906 C909.00985643 477.11618994 896.33218488 477.11968565 883.65449714 477.12838763 C870.8172643 477.13716017 857.98004102 477.14153091 845.14280509 477.14058322 C843.92419744 477.14049714 843.92419744 477.14049714 842.68097145 477.14040932 C838.53812966 477.14009655 834.39528788 477.13971266 830.2524461 477.13930365 C800.30659555 477.13649249 770.36075349 477.14333699 740.41490554 477.15533847 C710.76776461 477.16719178 681.12062732 477.17489033 651.47348403 477.17704409 C650.5520463 477.17711292 649.63060856 477.17718174 648.68124847 477.17725265 C640.26507559 477.17787907 631.8489027 477.17845445 623.43272981 477.1789686 C602.5130221 477.18024723 581.59331448 477.18216578 560.67360687 477.18451899 C559.24480419 477.18467894 559.24480419 477.18467894 557.78713682 477.18484213 C511.47540323 477.19008253 465.16367203 477.20269656 418.85194015 477.21591967 C402.78494391 477.22050308 386.71794766 477.22505385 370.65095138 477.22946948 C369.65444626 477.22974338 368.65794115 477.23001727 367.63123891 477.23029947 C321.28796066 477.24299258 274.944682 477.25044041 228.60140247 477.25653907 C225.59198289 477.25693519 222.58256331 477.25733358 219.57314373 477.25773243 C199.62921084 477.26037204 179.68527794 477.26292133 159.74134502 477.26541014 C120.05940595 477.27036288 80.37746696 477.27584623 40.69552801 477.28169424 C38.80586039 477.28197272 36.91619278 477.28225083 35.02652516 477.28252856 C-50.01913848 477.29503136 -135.06480036 477.3137062 -220.1104622 477.3350603 C-220.90663239 477.33526017 -221.70280259 477.33546004 -222.52309915 477.33566597 C-262.3403062 477.34566645 -302.15751316 477.35601941 -341.97472001 477.36679858 Z M-282.97472001 558.36679858 C-282.71910294 558.89359713 -282.46348588 559.42039569 -282.20012284 559.96315783 C-281.02080118 562.40120357 -279.84930528 564.84293512 -278.67784501 567.28476733 C-278.27581864 568.1129497 -277.87379227 568.94113207 -277.45958329 569.79441088 C-273.34924556 578.3897047 -270.44239653 587.17933723 -267.97472001 596.36679858 C-267.75332352 597.18922045 -267.53192704 598.01164233 -267.30382157 598.85898608 C-259.98786178 626.79069748 -257.74299207 655.58768564 -257.72472001 684.36679858 C-257.72370789 685.81178225 -257.72370789 685.81178225 -257.72267533 687.28595751 C-257.76690656 727.32100799 -262.03195522 769.2375619 -280.50597001 805.36679858 C-282.12129116 808.1094707 -282.12129116 808.1094707 -281.97472001 810.36679858 C36.80527999 810.36679858 355.58527999 810.36679858 684.02527999 810.36679858 C684.02527999 764.82679858 684.02527999 719.28679858 684.02527999 672.36679858 C761.57527999 672.36679858 839.12527999 672.36679858 919.02527999 672.36679858 C919.02527999 717.90679858 919.02527999 763.44679858 919.02527999 810.36679858 C996.84257125 813.29033003 996.84257125 813.29033003 1063.02527999 780.36679858 C1063.92762374 779.5959392 1064.82996749 778.82507983 1065.75965499 778.03086108 C1087.87901466 758.66114557 1104.51734596 728.96042019 1107.02527999 699.36679858 C1107.79197212 683.99073243 1108.24984704 668.28931868 1104.02527999 653.36679858 C1103.837238 652.67827807 1103.64919601 651.98975756 1103.45545577 651.2803728 C1098.48505087 633.47469797 1090.02670393 617.41541377 1078.02527999 603.36679858 C1077.21188155 602.40257983 1076.39848312 601.43836108 1075.56043624 600.44492358 C1059.33415741 581.88595695 1038.93308514 569.99342186 1015.52527999 563.05429858 C1014.72009933 562.81163256 1013.91491866 562.56896655 1013.08533859 562.31894702 C998.01954294 558.1013594 982.6997048 558.07862168 967.19121932 558.12070292 C965.00326622 558.11922125 962.81531358 558.11686153 960.62736224 558.11370993 C954.62700019 558.10759736 948.62670637 558.11390084 942.62634943 558.12226619 C936.76869489 558.12844347 930.91105037 558.12511934 925.05339447 558.12209906 C912.93441185 558.11618386 900.81544855 558.11969303 888.69646835 558.12838763 C876.4219503 558.13715493 864.14744225 558.14153152 851.87292098 558.14058322 C850.70846525 558.14049714 850.70846525 558.14049714 849.52048515 558.14040932 C845.56185923 558.14009656 841.60323332 558.13971266 837.6446074 558.13930365 C809.0178628 558.13649124 780.39112709 558.14334134 751.76438522 558.15533847 C723.42016683 558.16718877 695.07595225 558.17488972 666.73173141 558.17704409 C665.85103163 558.17711292 664.97033186 558.17718174 664.06294421 558.17725265 C656.01894942 558.17787906 647.97495464 558.17845444 639.93095985 558.1789686 C619.93569187 558.18024729 599.94042397 558.18216587 579.94515609 558.18451899 C578.57943977 558.18467894 578.57943977 558.18467894 577.18613322 558.18484213 C532.91115988 558.19008347 488.63618905 558.20269789 444.36121749 558.21591967 C428.9994011 558.22050305 413.63758471 558.2250538 398.27576827 558.22946948 C397.32300943 558.22974338 396.37025058 558.23001727 395.38862026 558.23029947 C351.08601118 558.24299082 306.78340168 558.25043984 262.48079127 558.25653907 C259.60415271 558.25693519 256.72751415 558.25733358 253.85087559 558.25773243 C234.78702482 558.26037202 215.72317403 558.26292131 196.65932323 558.26541014 C158.72793827 558.27036297 120.79655339 558.27584633 82.86516855 558.28169424 C81.05883237 558.28197272 79.2524962 558.28225083 77.44616003 558.28252856 C-3.85689497 558.29503256 -85.15994814 558.31370777 -166.46300126 558.3350603 C-167.60478483 558.3353601 -167.60478483 558.3353601 -168.76963473 558.33566597 C-206.83799659 558.34566661 -244.90635836 558.35601958 -282.97472001 558.36679858 Z M709.02527999 696.36679858 C709.02527999 830.34679858 709.02527999 964.32679858 709.02527999 1102.36679858 C714.31537556 1098.39922691 719.11348641 1094.58217285 723.83777999 1090.05429858 C728.80928481 1085.35932084 733.90670176 1080.94994856 739.24793624 1076.67539233 C742.44970928 1074.01400293 745.48761424 1071.21216193 748.52527999 1068.36679858 C753.28614654 1063.90803167 758.18996076 1059.72881822 763.27918624 1055.64414233 C766.28847051 1053.14853389 769.16466654 1050.52914715 772.02527999 1047.86679858 C776.59926164 1043.61024024 781.33066874 1039.63209901 786.20106124 1035.71445483 C791.31794693 1031.46099937 796.1629654 1026.906656 801.02527999 1022.36679858 C804.88629065 1024.5118045 807.93666935 1026.97004528 811.15027999 1029.99179858 C814.80916007 1033.37675181 818.51042446 1036.62536461 822.40027999 1039.74179858 C827.19588489 1043.60834042 831.69406666 1047.71531841 836.18665694 1051.92270678 C840.39939122 1055.84572582 844.78932452 1059.48583577 849.27918624 1063.08945483 C852.82206298 1066.02757309 856.17969771 1069.14911036 859.54725265 1072.28330249 C862.75844872 1075.25409924 866.0516484 1078.06648179 869.46277999 1080.80429858 C874.30660637 1084.69478141 878.85748093 1088.8295052 883.34730148 1093.11850756 C887.09150825 1096.65341455 890.74748801 1099.31123288 895.02527999 1102.36679858 C895.02527999 968.38679858 895.02527999 834.40679858 895.02527999 696.36679858 C833.64527999 696.36679858 772.26527999 696.36679858 709.02527999 696.36679858 Z M-342.97472001 841.36679858 C-342.97472001 852.16360704 -342.91800262 862.89803571 -342.53722001 873.67929858 C-342.4979036 874.9522478 -342.4585872 876.22519702 -342.41807938 877.53672045 C-342.37618485 878.75552905 -342.33429032 879.97433764 -342.29112626 881.23007983 C-342.25446854 882.31587329 -342.21781083 883.40166674 -342.18004227 884.52036303 C-342.04063901 887.59076487 -342.04063901 887.59076487 -340.97472001 891.36679858 C-2.72472001 891.36679858 335.52527999 891.36679858 684.02527999 891.36679858 C684.02527999 874.86679858 684.02527999 858.36679858 684.02527999 841.36679858 C345.11527999 841.36679858 6.20527999 841.36679858 -342.97472001 841.36679858 Z M-459.97472001 976.36679858 C-461.13487626 977.34132983 -461.13487626 977.34132983 -462.31847001 978.33554858 C-466.32180137 981.7229828 -469.83288225 985.29809827 -473.21690751 989.30429858 C-474.35823053 990.64345093 -475.52911729 991.95815568 -476.73253251 993.24179858 C-512.86565112 1031.94505534 -529.43804782 1086.31412766 -528.07970048 1138.47129077 C-526.08606073 1193.45865695 -500.54359989 1245.47948434 -460.56505204 1282.93320483 C-455.61877336 1287.39199334 -450.33055098 1291.41696793 -444.97472001 1295.36679858 C-443.91382157 1296.14925952 -442.85292313 1296.93172045 -441.75987626 1297.73789233 C-418.46414839 1314.35301591 -392.18021944 1325.94439282 -364.28722001 1332.17929858 C-363.42258134 1332.37426928 -362.55794266 1332.56923999 -361.66710282 1332.77011889 C-343.95290054 1336.48322525 -326.30000335 1336.65861239 -308.27144506 1336.61647348 C-304.65037317 1336.61027916 -301.02931453 1336.61587965 -297.40824217 1336.61988723 C-291.05205241 1336.62533028 -284.69589863 1336.62340166 -278.3397107 1336.61656494 C-268.82452813 1336.60637067 -259.30937102 1336.60782904 -249.79418494 1336.6114981 C-233.57480797 1336.61741828 -217.35544543 1336.6138981 -201.13607026 1336.60520953 C-184.70522014 1336.5964465 -168.27437747 1336.59206515 -151.84352494 1336.59301394 C-150.80488917 1336.59307133 -149.7662534 1336.59312871 -148.69614382 1336.59318783 C-143.39993133 1336.59350059 -138.10371885 1336.59388449 -132.80750637 1336.59429351 C-94.49437412 1336.59710693 -56.18124851 1336.59025227 -17.86811829 1336.57825869 C20.07020347 1336.56641084 58.0085224 1336.55870793 95.946846 1336.55655306 C97.71465287 1336.55644983 97.71465287 1336.55644983 99.51817302 1336.55634451 C110.28241766 1336.5557181 121.0466623 1336.55514272 131.81090695 1336.55462856 C158.56873489 1336.55334982 185.32656276 1336.55143121 212.08439063 1336.54907817 C213.91206041 1336.54891821 213.91206041 1336.54891821 215.7766528 1336.54875503 C275.03645017 1336.54351292 334.29624567 1336.53089818 393.55604171 1336.51767749 C414.11862308 1336.51309413 434.68120445 1336.50854339 455.24378585 1336.50412768 C456.51909196 1336.50385378 457.79439806 1336.50357988 459.10834981 1336.50329769 C518.40237777 1336.49060778 577.69640605 1336.48315778 636.99043502 1336.47705809 C640.84020013 1336.47666196 644.68996524 1336.47626358 648.53973036 1336.47586473 C674.05248386 1336.47322515 699.56523738 1336.47067586 725.0779909 1336.46818701 C775.84134399 1336.46323411 826.60469702 1336.45775074 877.36805001 1336.45190292 C879.78549271 1336.45162444 882.2029354 1336.45134633 884.62037809 1336.45106859 C993.43780075 1336.43856362 1102.25522202 1336.4198881 1211.07264327 1336.39853686 C1212.09149317 1336.39833699 1213.11034308 1336.39813712 1214.16006722 1336.39793119 C1265.11513822 1336.38793042 1316.07020915 1336.37758236 1367.02527999 1336.36679858 C1367.63290363 1328.98533462 1368.16989018 1321.62720056 1368.34168624 1314.22226733 C1368.36246734 1313.44160403 1368.38324844 1312.66094073 1368.40465926 1311.85662097 C1368.46876485 1309.42258104 1368.52837478 1306.98845726 1368.58777999 1304.55429858 C1368.63109833 1302.87916055 1368.67471619 1301.20403023 1368.71863937 1299.52890795 C1368.82429768 1295.47495197 1368.92593164 1291.42091391 1369.02527999 1287.36679858 C1368.41910126 1287.36663453 1367.81292252 1287.36647047 1367.18837474 1287.36630145 C1315.70464767 1287.35235564 1264.22092079 1287.33772929 1212.73719405 1287.32260913 C1211.71775326 1287.32230979 1210.69831247 1287.32201045 1209.64797954 1287.32170204 C1100.41125618 1287.2896084 991.17453533 1287.2531385 881.93781661 1287.20781726 C879.51130034 1287.20681163 877.08478408 1287.20580601 874.65826781 1287.20480039 C823.72474772 1287.18367871 772.79122792 1287.16194148 721.85770841 1287.1394932 C696.27201096 1287.1282173 670.68631347 1287.11705968 645.10061592 1287.10601389 C641.24111659 1287.10434699 637.38161725 1287.10267672 633.52211792 1287.1010063 C574.09320067 1287.07531484 514.66428377 1287.05215964 455.235363 1287.03635424 C453.95764558 1287.03601438 452.67992816 1287.03567452 451.36349203 1287.03532435 C430.76298196 1287.02986018 410.16247183 1287.02460892 389.5619617 1287.01938591 C330.22413901 1287.0043383 270.88631866 1286.98771561 211.54850005 1286.96067542 C210.32818795 1286.96012009 209.10787584 1286.95956476 207.85058457 1286.9589926 C181.06135615 1286.94677333 154.27212819 1286.93374443 127.48290053 1286.91994901 C116.70370991 1286.9144124 105.92451922 1286.90899234 95.14532851 1286.90361231 C93.37572871 1286.90272487 93.37572871 1286.90272487 91.57037941 1286.9018195 C53.5633365 1286.88281712 15.55629849 1286.87330044 -22.45074867 1286.86876263 C-60.73888667 1286.86414781 -99.02700908 1286.85022282 -137.3151383 1286.82337224 C-142.60732674 1286.81966329 -147.89951525 1286.816061 -153.1917038 1286.81252307 C-154.22911477 1286.81182568 -155.26652574 1286.81112829 -156.33537341 1286.81040977 C-172.75585937 1286.79964757 -189.17632976 1286.79893676 -205.59681823 1286.80243057 C-221.74730583 1286.80566001 -237.89775938 1286.79822095 -254.04823674 1286.77947447 C-263.51401243 1286.76880785 -272.97970466 1286.76628893 -282.44548193 1286.77593311 C-288.73922513 1286.78152508 -295.03289908 1286.77618958 -301.32662887 1286.76212857 C-304.8898593 1286.75446957 -308.45292122 1286.75128809 -312.01614872 1286.76164257 C-360.32278834 1286.86986717 -402.49472624 1273.30280005 -437.42784501 1238.94101733 C-441.29075437 1235.00982421 -444.67099106 1230.76975726 -447.97472001 1226.36679858 C-449.17161454 1224.81798999 -449.17161454 1224.81798999 -450.39268876 1223.23789233 C-476.39949953 1188.86433348 -484.32762301 1146.47630218 -478.97472001 1104.36679858 C-474.34180307 1071.87112768 -458.46388132 1042.91565859 -435.97472001 1019.36679858 C-435.2051497 1018.51086108 -434.43557938 1017.65492358 -433.64268876 1016.77304858 C-410.87710327 992.43380511 -378.25996668 979.56125803 -345.97472001 974.36679858 C-344.92555786 974.19686882 -343.87639571 974.02693907 -342.79544077 973.85185993 C-338.99708799 973.36963832 -335.37314147 973.23946446 -331.54582459 973.23618805 C-330.82647884 973.23421554 -330.10713309 973.23224303 -329.36598898 973.23021074 C-326.95624665 973.22481421 -324.54656213 973.22649123 -322.13681508 973.22813338 C-320.38400313 973.22568525 -318.63119175 973.22280117 -316.87838117 973.2195206 C-312.04426699 973.2117432 -307.21016743 973.21017842 -302.37604776 973.20959318 C-297.12361634 973.20786578 -291.87119268 973.20038134 -286.61876578 973.19361663 C-277.40758975 973.18255118 -268.19641647 973.17518455 -258.98523522 973.17021769 C-245.28848163 973.16281547 -231.59173762 973.14973319 -217.89498967 973.13547194 C-194.85638898 973.11164544 -171.81778736 973.09244076 -148.77918053 973.0758726 C-125.96224675 973.05944978 -103.14531615 973.04097276 -80.32838631 973.01973933 C-79.26563546 973.01875174 -79.26563546 973.01875174 -78.1814149 973.01774419 C-71.71039183 973.01172971 -65.23936879 973.0056899 -58.76834578 972.99961969 C-42.68181791 972.98452987 -26.59528977 972.96975778 -10.50876141 972.95520133 C-9.77620128 972.95453819 -9.04364114 972.95387505 -8.28888222 972.95319182 C27.3494465 972.92095858 62.98777803 972.892386 98.62611007 972.86411303 C110.99403002 972.85429915 123.36194995 972.84446909 135.72986984 972.83457202 C136.49692525 972.83395822 137.26398066 972.83334442 138.05428018 972.83271202 C173.71010876 972.80415805 209.36593492 972.77300428 245.02176071 972.74117951 C247.33645079 972.73911356 249.65114087 972.73704874 251.96583095 972.73498415 C267.30535177 972.72130026 282.64487255 972.70757154 297.9843933 972.69381281 C328.50645611 972.66643656 359.02851915 972.63932364 389.55058236 972.61239163 C391.00413567 972.61110905 392.45768897 972.60982628 393.91124228 972.60854332 C478.71611853 972.53369367 563.52099903 972.46405177 684.02527999 972.36679858 C684.02527999 955.86679858 684.02527999 939.36679858 684.02527999 922.36679858 C592.06584902 922.33393558 500.10641734 922.30233608 397.48408126 922.2821123 C396.05546473 922.2818334 394.62684819 922.2815545 393.19823166 922.28127559 C363.20743235 922.2754295 333.21663299 922.26999615 303.22583352 922.26503922 C288.15918368 922.26254854 273.09253385 922.2599786 258.02588403 922.2573337 C255.7532177 922.2569352 253.48055136 922.25653896 251.20788502 922.25614282 C216.23567938 922.25002698 181.26347512 922.24221717 146.2912712 922.22946948 C145.16442588 922.22905878 145.16442588 922.22905878 144.01481601 922.22863979 C131.90371085 922.22421536 119.79260574 922.21964802 107.68150065 922.2150617 C72.77346664 922.20184465 37.86543371 922.18969433 2.95739745 922.18451899 C1.87930205 922.18435839 1.87930205 922.18435839 0.77942693 922.18419454 C-15.00315787 922.18186234 -30.78574268 922.18007294 -46.56832761 922.17879661 C-52.91990452 922.17827341 -59.27148142 922.17767217 -65.62305833 922.17704409 C-66.31818577 922.17697724 -67.0133132 922.17691038 -67.72950511 922.1768415 C-90.08057 922.17465312 -112.43162689 922.16612636 -134.78268855 922.15423416 C-157.94962432 922.14193796 -181.11655158 922.13677807 -204.28349141 922.13979582 C-217.62609933 922.14131338 -230.9686783 922.13729368 -244.31128098 922.12520349 C-253.24082546 922.11766729 -262.17035112 922.11749673 -271.09989694 922.12313495 C-276.17709714 922.12613523 -281.25424283 922.12610487 -286.33143703 922.11703221 C-351.98223705 922.00694959 -409.22623738 932.16650726 -459.97472001 976.36679858 Z M919.02527999 922.36679858 C919.02527999 938.86679858 919.02527999 955.36679858 919.02527999 972.36679858 C1067.52527999 972.36679858 1216.02527999 972.36679858 1369.02527999 972.36679858 C1368.38790293 947.34881987 1368.38790293 947.34881987 1367.02527999 922.36679858 C1219.18527999 922.36679858 1071.34527999 922.36679858 919.02527999 922.36679858 Z M-404.97472001 1033.36679858 C-405.85901688 1034.10543139 -406.74331376 1034.8440642 -407.65440751 1035.60507983 C-415.17700921 1042.11543342 -421.10131535 1049.40057157 -426.97472001 1057.36679858 C-427.53804032 1058.1015642 -428.10136063 1058.83632983 -428.68175126 1059.59336108 C-442.14847883 1078.21676946 -448.55345261 1101.71821488 -449.97472001 1124.36679858 C-450.03401688 1125.24851733 -450.09331376 1126.13023608 -450.15440751 1127.03867358 C-450.23105008 1129.50826758 -450.13730964 1131.90027928 -449.97472001 1134.36679858 C-449.91308671 1135.34157153 -449.91308671 1135.34157153 -449.85020829 1136.33603686 C-447.83711666 1165.60626057 -436.86582176 1194.30789682 -415.97472001 1215.36679858 C-415.17034501 1216.21242358 -414.36597001 1217.05804858 -413.53722001 1217.92929858 C-403.17481092 1227.7862243 -392.76335258 1235.88216709 -379.97472001 1242.36679858 C-379.12393876 1242.79863452 -378.27315751 1243.23047045 -377.39659501 1243.67539233 C-355.73659868 1254.08386362 -333.90043086 1255.82718974 -310.24405915 1255.74131093 C-306.74872017 1255.73202309 -303.25341218 1255.74041924 -299.75807212 1255.74643156 C-293.62199488 1255.7545978 -287.48600151 1255.75170143 -281.34992856 1255.74144813 C-272.16426318 1255.72615936 -262.97865718 1255.72834366 -253.79298366 1255.73384785 C-238.13545152 1255.74272899 -222.47795299 1255.73744684 -206.82042504 1255.724415 C-190.95838537 1255.71127119 -175.09636307 1255.70469835 -159.23431779 1255.70612162 C-158.23169722 1255.7062077 -157.22907665 1255.70629378 -156.19607364 1255.70638246 C-151.08352418 1255.7068516 -145.97097473 1255.70742744 -140.85842528 1255.70804097 C-103.87241272 1255.71226129 -66.88641562 1255.70197851 -29.9004078 1255.68398875 C6.72413903 1255.66621739 43.34867924 1255.65466268 79.97323035 1255.65143031 C81.11092707 1255.65132707 82.2486238 1255.65122384 83.42079617 1255.65111747 C93.81200474 1255.65017787 104.2032133 1255.64931479 114.59442188 1255.64854355 C140.42503496 1255.64662544 166.25564788 1255.64374752 192.08626079 1255.64021796 C193.26248978 1255.64005801 194.43871878 1255.63989805 195.65059107 1255.63973325 C252.85809078 1255.63186995 310.06558612 1255.61294779 367.27308273 1255.59311694 C387.12370932 1255.58624192 406.97433593 1255.57941581 426.82496261 1255.57279223 C428.0561116 1255.57238138 429.28726059 1255.57197054 430.55571712 1255.57154724 C487.79595555 1255.55251262 545.03619473 1255.54133746 602.27643549 1255.53218785 C605.9928229 1255.53159365 609.70921031 1255.53099608 613.42559772 1255.53039781 C638.05443024 1255.52643844 662.68326278 1255.5226145 687.31209534 1255.51888123 C736.31675234 1255.51145185 785.3214092 1255.50322681 834.32606598 1255.49445509 C836.65976007 1255.49403737 838.99345416 1255.49362021 841.32714825 1255.4932036 C946.37569758 1255.47444597 1051.4242437 1255.44643264 1156.47278976 1255.414406 C1157.4563587 1255.41410619 1158.43992765 1255.41380639 1159.45330172 1255.4134975 C1208.64396132 1255.39849632 1257.83462076 1255.38297422 1307.02527999 1255.36679858 C1306.76704452 1254.79988803 1306.50880904 1254.23297747 1306.24274825 1253.64888781 C1305.0581921 1251.04435402 1303.87765066 1248.43801888 1302.69715499 1245.83164233 C1302.29093917 1244.94005419 1301.88472335 1244.04846606 1301.46619796 1243.1298601 C1272.50060739 1179.07360226 1274.14730437 1088.91608379 1298.02527999 1023.67929858 C1300.18596249 1017.98432104 1302.83207415 1012.65372747 1305.92371749 1007.40586108 C1307.18371516 1005.4597897 1307.18371516 1005.4597897 1307.02527999 1003.36679858 C1178.98527999 1003.36679858 1050.94527999 1003.36679858 919.02527999 1003.36679858 C918.69527999 1053.19679858 918.36527999 1103.02679858 918.02527999 1154.36679858 C910.4433832 1147.8680299 902.99555432 1141.45629135 895.66199874 1134.72226733 C893.0526859 1132.39128119 890.3771518 1130.18352671 887.65027999 1127.99179858 C882.21141395 1123.60335731 877.11799095 1118.90233446 872.00965499 1114.14023608 C868.42130117 1110.79542557 864.74828105 1107.5607764 861.02527999 1104.36679858 C860.29752364 1103.7415227 860.29752364 1103.7415227 859.55506515 1103.10361499 C854.17781181 1098.48421879 848.79468607 1093.87172946 843.39637374 1089.27695483 C837.97048122 1084.65223562 832.58801367 1080.00444232 827.33777999 1075.17929858 C822.8973521 1071.10455298 818.30709643 1067.26946501 813.61902999 1063.48398608 C810.00693768 1060.53556133 806.50594573 1057.46848066 803.02527999 1054.36679858 C798.32850698 1055.81395927 795.34758006 1058.5774255 791.90027999 1061.92929858 C787.86639375 1065.75734512 783.80680267 1069.44903658 779.46277999 1072.92929858 C775.51033894 1076.1015771 771.73389687 1079.41517921 768.02527999 1082.86679858 C764.31666312 1086.31841794 760.54022104 1089.63202006 756.58777999 1092.80429858 C752.40290446 1096.17026321 748.44215568 1099.69857686 744.52527999 1103.36679858 C739.74557342 1107.84271918 734.82362211 1112.04465906 729.71668624 1116.14804858 C725.8769492 1119.31346315 722.22883989 1122.67352949 718.56434249 1126.03867358 C715.10432174 1129.21124645 711.57855769 1132.2994392 708.02527999 1135.36679858 C707.51593917 1135.80781909 707.00659835 1136.24883959 706.48182296 1136.70322436 C704.70662561 1138.23922869 702.92876477 1139.77210229 701.15027999 1141.30429858 C700.59751388 1141.78237963 700.04474776 1142.26046069 699.47523116 1142.75302905 C694.42010148 1147.0955831 689.240639 1151.19451137 684.02527999 1155.36679858 C684.02527999 1105.20679858 684.02527999 1055.04679858 684.02527999 1003.36679858 C652.12569051 1003.3555224 652.12569051 1003.3555224 620.22610091 1003.34458178 C618.56104377 1003.34402079 618.56104377 1003.34402079 616.86234912 1003.34344847 C543.35144921 1003.31871812 469.84054976 1003.29637271 396.32964706 1003.2821123 C394.89578243 1003.2818334 393.4619178 1003.2815545 392.02805317 1003.28127559 C361.9286497 1003.2754298 331.82924617 1003.26999641 301.72984254 1003.26503922 C286.60916532 1003.2625485 271.4884881 1003.25997855 256.3678109 1003.2573337 C254.0869613 1003.2569352 251.8061117 1003.25653896 249.5252621 1003.25614282 C214.41727549 1003.25002527 179.30929027 1003.24221221 144.20130538 1003.22946948 C143.4468652 1003.22919568 142.69242501 1003.22892188 141.915123 1003.22863979 C129.75187116 1003.22421523 117.58861938 1003.21964794 105.4253676 1003.2150617 C70.37717588 1003.2018487 35.32898524 1003.18969695 0.28079128 1003.18451899 C-0.44046154 1003.18441192 -1.16171436 1003.18430485 -1.90482332 1003.18419454 C-17.74084619 1003.18186262 -33.57686906 1003.18007309 -49.41289205 1003.17879661 C-55.78547904 1003.17827339 -62.15806602 1003.17767215 -68.53065301 1003.17704409 C-69.22809017 1003.17697724 -69.92552734 1003.17691038 -70.64409896 1003.1768415 C-93.08850694 1003.17465127 -115.53290696 1003.16611819 -137.97731174 1003.15423416 C-161.23037987 1003.14195196 -184.48343818 1003.13677447 -207.73651043 1003.13979582 C-221.13613479 1003.14131595 -234.53573038 1003.13727063 -247.93534954 1003.12520349 C-256.89396495 1003.11768763 -265.85256157 1003.11748259 -274.81117829 1003.12313495 C-279.91072388 1003.12614576 -285.01021513 1003.12606074 -290.10975483 1003.11703221 C-332.11271728 1003.0472404 -371.44642239 1004.51564593 -404.97472001 1033.36679858 Z " fill="#FAFAFA" transform="translate(570.9747200086713,315.6332014212385)"/>
<path d="M0 0 C0.72039674 -0.00320648 1.44079347 -0.00641296 2.18302041 -0.0097166 C4.59765092 -0.01801981 7.01203359 -0.01209123 9.42666817 -0.00622082 C11.17506197 -0.00924135 12.92345446 -0.01313034 14.6718446 -0.01781338 C19.47713362 -0.02811473 24.2823482 -0.02590612 29.08764338 -0.02163279 C34.26975167 -0.01916944 39.45184186 -0.02817486 44.63394356 -0.03567028 C54.7865852 -0.04843023 64.93920041 -0.05020935 75.09184872 -0.04787002 C83.34297566 -0.04608814 91.59409458 -0.04783371 99.84522057 -0.05209446 C101.01885101 -0.05268965 102.19248145 -0.05328484 103.40167645 -0.05389806 C105.7857894 -0.05510979 108.16990235 -0.05632393 110.55401529 -0.05754044 C132.92057084 -0.06842099 155.28711131 -0.06625106 177.6536677 -0.06015559 C198.12092349 -0.05498605 218.58813169 -0.06624196 239.05537806 -0.08525381 C260.06480171 -0.10461987 281.07420282 -0.11289037 302.08363545 -0.10913056 C313.8813643 -0.10721664 325.67905264 -0.1097247 337.47677422 -0.1238451 C347.52032234 -0.13574418 357.56380503 -0.13718035 367.60735403 -0.12505493 C372.73235372 -0.11915589 377.85723362 -0.11809515 382.98222542 -0.13005733 C387.67392043 -0.14088097 392.36539513 -0.13785477 397.05707969 -0.12379565 C398.75420495 -0.121139 400.45134729 -0.12354552 402.14845584 -0.13153151 C420.43296535 -0.21159874 420.43296535 -0.21159874 426.50213814 4.76228809 C429.6457999 9.39387517 430.99210491 13.6177139 430.66229439 19.25447559 C428.99126676 25.15222015 426.46562747 27.779724 421.66229439 31.25447559 C418.69801863 32.73661347 416.04279236 32.3827279 412.73310661 32.38590336 C411.64587298 32.38898231 411.64587298 32.38898231 410.53667504 32.39212346 C408.08298702 32.39782396 405.6293546 32.39633247 403.17566109 32.39491749 C401.40867111 32.39749938 399.64168173 32.40051205 397.87469316 32.40392089 C392.99951746 32.41201486 388.12435646 32.41378179 383.24917483 32.41451836 C377.99887173 32.41636477 372.74857633 32.42391002 367.49827766 32.43065357 C356.00869128 32.4442546 344.51910837 32.45026441 333.02951527 32.45466423 C325.85970612 32.45742376 318.68989833 32.46166059 311.5200901 32.4661684 C291.68170824 32.47836356 271.84332747 32.48866227 252.00494194 32.4920435 C250.09915352 32.49237284 250.09915352 32.49237284 248.15486433 32.49270885 C246.88124059 32.49292712 245.60761686 32.4931454 244.29539847 32.49337029 C241.71440935 32.49381377 239.13342023 32.49426033 236.55243111 32.49470997 C235.27216224 32.4949314 233.99189336 32.49515283 232.67282847 32.49538097 C211.92267613 32.49932991 191.17255889 32.51678577 170.42242011 32.54006949 C149.13515282 32.56376375 127.84790315 32.57624447 106.56062245 32.57741141 C94.60192724 32.57832928 82.64327775 32.58410954 70.68459511 32.60223103 C60.50219186 32.61760607 50.31984846 32.62276787 40.13743582 32.61449292 C34.9397996 32.61057715 29.74228398 32.6115611 24.54466248 32.62555027 C19.78877064 32.63823376 15.03309073 32.63714075 10.27719942 32.62495956 C8.55441621 32.62299289 6.83161828 32.62612546 5.10885581 32.63480392 C2.77059383 32.64583948 0.43308728 32.63844906 -1.90515327 32.62641239 C-3.85490983 32.62730802 -3.85490983 32.62730802 -5.84405541 32.62822175 C-10.74000649 32.10445927 -14.02438065 30.49483806 -17.58770561 27.12947559 C-20.26775189 22.72654243 -21.85448245 18.26362406 -20.96270561 13.07088184 C-19.42682279 8.45450678 -17.19696297 5.30598141 -13.33770561 2.25447559 C-8.78152182 0.37623384 -4.90661389 0.00331899 0 0 Z " fill="#FAFAFA" transform="translate(657.3377056121826,1428.745524406433)"/>
<path d="M0 0 C0.72597626 -0.00205263 1.45195253 -0.00410527 2.19992808 -0.0062201 C4.65151958 -0.01190954 7.10305524 -0.01043047 9.55465221 -0.00901413 C11.32250524 -0.01159665 13.09035768 -0.01460949 14.85820931 -0.01801753 C19.73112567 -0.02610403 24.6040273 -0.02787802 29.47694957 -0.028615 C34.72655343 -0.03046268 39.97614959 -0.03800854 45.22574902 -0.04475021 C56.71114409 -0.05834549 68.19653568 -0.06436004 79.68193746 -0.06876087 C86.84957437 -0.07152112 94.01720993 -0.07575806 101.18484592 -0.08026505 C121.01897917 -0.09245898 140.85311132 -0.10275824 160.68724823 -0.10614014 C162.59223397 -0.10646949 162.59223397 -0.10646949 164.53570427 -0.10680549 C166.44531771 -0.10713291 166.44531771 -0.10713291 168.39350921 -0.10746694 C170.97336185 -0.10791041 173.55321449 -0.10835697 176.13306713 -0.10880661 C177.4127705 -0.10902804 178.69247387 -0.10924947 180.01095613 -0.10947761 C200.75457837 -0.11342704 221.49816551 -0.13088495 242.24177418 -0.15416613 C263.52455308 -0.17786022 284.80731436 -0.19034109 306.09010667 -0.19150805 C318.04543353 -0.19242588 330.00071465 -0.19820521 341.95602894 -0.21632767 C352.13474817 -0.23170241 362.31340753 -0.23686465 372.49213616 -0.22858956 C377.68775409 -0.22467381 382.88325136 -0.22565767 388.07885456 -0.23964691 C392.8328561 -0.25233037 397.58664563 -0.25123742 402.34064665 -0.2390562 C404.06272702 -0.23708954 405.78482212 -0.24022206 407.50688175 -0.24890056 C409.84418202 -0.25993616 412.18072654 -0.25254569 414.51800537 -0.24050903 C415.817301 -0.24110612 417.11659664 -0.24170321 418.45526487 -0.24231839 C423.76339887 0.32572597 426.93647809 2.16508751 430.7602644 5.81892776 C434.12239285 10.91015085 434.24126857 14.74146524 433.5102644 20.69392776 C431.26692369 25.62927732 428.76204207 28.53727286 423.9477644 31.13142776 C418.21776264 32.18231172 412.55567936 32.08465162 406.74633312 32.03136063 C404.97486004 32.04069694 403.20340089 32.05309117 401.43196827 32.06827343 C396.57198826 32.10104471 391.7129318 32.09031894 386.85291016 32.07240725 C381.60874558 32.0606752 376.36478035 32.08923653 371.12067699 32.11276627 C360.85092409 32.15247031 350.58148185 32.15496812 340.31167012 32.14496811 C328.35422175 32.13472834 316.3969417 32.16140174 304.43953276 32.18965732 C283.10640229 32.23881843 261.77337737 32.254601 240.44019604 32.25154495 C219.73503582 32.24860992 199.03007149 32.26879363 178.32496166 32.31502151 C176.41191942 32.31928773 176.41191942 32.31928773 174.46022987 32.32364012 C172.55050884 32.32790473 172.55050884 32.32790473 170.6022076 32.33225548 C147.03590717 32.38477314 123.46961793 32.417497 99.90327052 32.43984512 C92.75169464 32.44695647 85.60013381 32.45758601 78.44856673 32.47080691 C67.10546587 32.49176942 55.76244843 32.50329114 44.41932803 32.49469407 C39.23570364 32.49095944 34.0521981 32.49194101 28.86858845 32.50587654 C24.1246011 32.51845231 19.38083022 32.51710679 14.63684464 32.50456761 C12.91960705 32.50244209 11.20235425 32.50538449 9.48513632 32.51387395 C7.15203125 32.5246275 4.81968541 32.51687679 2.48660469 32.50450706 C0.54229637 32.50508069 0.54229637 32.50508069 -1.44129092 32.5056659 C-6.73242789 31.95729272 -10.54202831 30.23891311 -14.8647356 27.06892776 C-17.91540721 22.97231161 -18.86630535 19.21352132 -19.0522356 14.13142776 C-18.34281994 9.48797981 -16.58011143 6.28081912 -13.0522356 3.19392776 C-8.52222091 0.07954267 -5.39686149 0.0051795 0 0 Z " fill="#FAFAFA" transform="translate(655.0522356033325,538.8685722351074)"/>
<path d="M0 0 C1.21648566 -0.00384115 2.43297132 -0.00768229 3.68632019 -0.01163983 C5.03814441 -0.0108596 6.38996858 -0.00998082 7.74179268 -0.00901413 C9.17640008 -0.01159786 10.61100677 -0.01461104 12.04561245 -0.01801753 C15.99274268 -0.02608964 19.93985472 -0.02787722 23.88699222 -0.028615 C28.14202344 -0.03046515 32.39704523 -0.03801221 36.652071 -0.04475021 C45.95772405 -0.0583348 55.26337279 -0.06435824 64.5690341 -0.06876087 C70.37767027 -0.07152266 76.18630476 -0.07575985 81.9949398 -0.08026505 C98.07264985 -0.09245707 114.15035855 -0.10275704 130.22807312 -0.10614014 C131.77169141 -0.10646949 131.77169141 -0.10646949 133.34649391 -0.10680549 C134.37805065 -0.10702377 135.4096074 -0.10724204 136.47242343 -0.10746694 C138.56279302 -0.1079104 140.6531626 -0.10835697 142.74353218 -0.10880661 C143.78043025 -0.10902804 144.81732832 -0.10924947 145.88564755 -0.10947761 C162.69432866 -0.11342726 179.50296646 -0.13088665 196.31163083 -0.15416613 C213.56255747 -0.17786564 230.81346237 -0.19034132 248.06440556 -0.19150805 C257.75276875 -0.19242552 267.44107548 -0.19819589 277.12942314 -0.21632767 C285.37758801 -0.23170965 293.62567898 -0.23686033 301.87385546 -0.22858956 C306.08318614 -0.22467652 310.29236791 -0.22564452 314.50168037 -0.23964691 C318.35450255 -0.25234644 322.20706331 -0.2512233 326.05988492 -0.2390562 C327.45421261 -0.23709235 328.84855856 -0.24020932 330.24286054 -0.24890056 C332.13779842 -0.25996534 334.03282228 -0.25073034 335.92776489 -0.24050903 C336.98045968 -0.24110612 338.03315447 -0.24170321 339.11774909 -0.24231839 C343.9048103 0.35968736 347.91659885 2.29704683 350.90222359 6.13142776 C354.19679326 10.64969474 354.66080931 14.65938817 354.08972359 20.13142776 C352.07265849 25.65181645 349.08899628 28.69844923 343.8014186 31.22472346 C340.7384726 32.24887489 338.30486734 32.38435764 335.07760334 32.38869667 C333.25696347 32.39837001 333.25696347 32.39837001 331.39954299 32.40823877 C330.05596894 32.40529661 328.7123953 32.40216118 327.3688221 32.3988533 C325.93890019 32.40259007 324.50898033 32.4071917 323.07906371 32.41258395 C319.14943584 32.42482609 315.21989302 32.42455206 311.29025042 32.4221952 C307.05223185 32.42178734 302.81424066 32.43282324 298.57623482 32.44231033 C290.27300319 32.45892798 281.96979996 32.46442023 273.6665531 32.46553509 C266.91759435 32.4664852 260.16864497 32.47059367 253.41968918 32.47693634 C234.28762811 32.49455087 215.15558949 32.50377488 196.02352025 32.50227539 C194.47618226 32.50215552 194.47618226 32.50215552 192.89758492 32.50203323 C191.86476758 32.50195147 190.83195025 32.50186971 189.76783542 32.50178547 C173.02844889 32.50097252 156.28915234 32.52011195 139.54979184 32.54830997 C122.3643599 32.57703111 105.17897186 32.59085068 87.99351531 32.58912241 C78.34421255 32.58845824 68.69500411 32.59396234 59.04572296 32.61547852 C50.83019045 32.63368018 42.614795 32.63804601 34.39925107 32.62445967 C30.20785274 32.61792486 26.01671746 32.61783116 21.82534409 32.63516617 C17.98656984 32.65087952 14.14826758 32.64805137 10.30950496 32.6305979 C8.92257434 32.62752414 7.53560865 32.63117466 6.14871939 32.64231806 C-1.63458494 32.70070174 -7.30687263 32.44570212 -13.91027641 28.13142776 C-17.98355571 23.64037623 -19.15949672 19.08156253 -18.91027641 13.13142776 C-17.24430146 7.25151618 -14.78442354 4.51348904 -9.91027641 1.13142776 C-6.60793969 -0.00063479 -3.47253195 0.0041131 0 0 Z " fill="#F9F9F9" transform="translate(759.9102764129639,983.8685722351074)"/>
</svg>
