<?xml version="1.0" encoding="UTF-8"?>
<svg version="1.1" xmlns="http://www.w3.org/2000/svg" width="2000" height="2000">
<path d="M0 0 C1.42542609 -0.00299913 2.85085138 -0.00640337 4.27627563 -0.01017761 C8.1149535 -0.01894032 11.95360903 -0.0213523 15.79229593 -0.0219934 C18.19602467 -0.02270776 20.59974784 -0.02484922 23.00347519 -0.02749062 C31.40401313 -0.03671501 39.80453529 -0.04082873 48.20507812 -0.04003906 C56.01396518 -0.03943749 63.82278334 -0.05001237 71.63165295 -0.06578273 C78.35892691 -0.07888086 85.08617839 -0.08422208 91.813465 -0.08358365 C95.82158204 -0.08332955 99.82963761 -0.08613304 103.83774185 -0.0967617 C107.60531523 -0.10648234 111.37276878 -0.10649487 115.14034653 -0.09924507 C117.16982355 -0.09771095 119.19930067 -0.10601614 121.22875977 -0.11468506 C130.71098558 -0.08221569 139.15230678 0.17669372 146.76513672 6.36401367 C151.44042454 11.18738753 153.29625569 17.2624716 153.74169922 23.83276367 C153.63662249 30.1023416 151.73935434 35.25595734 148.30419922 40.45776367 C142.20020876 46.29046567 135.62661323 48.26708899 127.31660461 48.27656555 C126.04830811 48.28057373 124.7800116 48.28458191 123.47328186 48.28871155 C122.06967161 48.28823645 120.66606138 48.28770034 119.26245117 48.28710938 C117.78207292 48.29014218 116.3016956 48.29366397 114.82131958 48.29763794 C111.63201608 48.30552321 108.44272375 48.3106707 105.25341225 48.3139286 C100.19504531 48.31985455 95.13674819 48.33641391 90.07841492 48.35527039 C88.3433619 48.36160812 86.60830884 48.36793374 84.87325573 48.37424755 C83.56962521 48.37899627 83.56962521 48.37899627 82.23965871 48.38384092 C70.46748377 48.42581053 58.6953404 48.45883567 46.9230957 48.47119141 C38.97883245 48.47961498 31.03474148 48.50226867 23.09056443 48.54054707 C18.89424874 48.56017494 14.69818979 48.57275726 10.50182533 48.56771278 C6.54128228 48.56301031 2.58122288 48.57717103 -1.37922287 48.60472488 C-2.81853331 48.61154565 -4.25789479 48.61186395 -5.69720268 48.60452461 C-19.0284257 48.54351092 -33.06826478 50.41660767 -44.94580078 56.89526367 C-45.60064453 57.2381543 -46.25548828 57.58104492 -46.93017578 57.93432617 C-52.67006671 61.03635796 -57.69293934 64.73916441 -62.50830078 69.14526367 C-63.53117187 70.03084961 -63.53117187 70.03084961 -64.57470703 70.93432617 C-78.57089786 83.80753496 -86.47368469 103.00205211 -87.67783815 121.79057103 C-87.96114225 129.43175739 -87.9071363 137.0764189 -87.88303089 144.72151279 C-87.88585932 147.33042162 -87.8900025 149.93932929 -87.89533612 152.54823419 C-87.9048182 158.22360289 -87.90323464 163.89888366 -87.89430789 169.57425202 C-87.88100174 178.07046085 -87.88511629 186.56660177 -87.89253975 195.06281462 C-87.90468834 209.54532313 -87.90264468 224.02779843 -87.89283371 238.51030731 C-87.882947 253.18313348 -87.87960097 267.85593952 -87.88421059 282.52876854 C-87.88449762 283.45612215 -87.88478466 284.38347577 -87.8850804 285.33893101 C-87.88627187 289.11600386 -87.88751101 292.89307669 -87.88881031 296.67014951 C-87.90090599 331.83727007 -87.89837659 367.00437531 -87.88662148 402.17149544 C-87.87530975 436.06243105 -87.86933351 469.95335983 -87.87080956 503.84429741 C-87.87089496 505.97253676 -87.87097984 508.10077611 -87.87106419 510.22901546 C-87.87141203 518.78146218 -87.87179712 527.33390889 -87.87222977 535.8863556 C-87.87342441 559.79405894 -87.87360627 583.70176224 -87.87302685 607.6094656 C-87.87300082 608.6981727 -87.8729748 609.7868798 -87.87294798 610.90857803 C-87.87204929 645.60049901 -87.866751 680.29241787 -87.85831928 714.98433781 C-87.85804609 716.10957326 -87.85777291 717.23480872 -87.85749144 718.39414222 C-87.85303773 736.6673836 -87.84832298 754.94062491 -87.84359255 773.21386622 C-87.82484688 845.6907573 -87.81842866 918.16763796 -87.82397461 990.64453125 C-87.8243216 995.22468355 -87.82466721 999.80483584 -87.8250129 1004.38498814 C-87.82514131 1006.08362807 -87.82514131 1006.08362807 -87.8252723 1007.81658396 C-87.82621843 1020.357767 -87.82713015 1032.89895005 -87.82800007 1045.44013309 C-87.82807899 1046.56477587 -87.82815791 1047.68941865 -87.82823922 1048.84814151 C-87.83246115 1109.55540226 -87.82715733 1170.26266184 -87.81848878 1230.96992201 C-87.81818549 1233.10997118 -87.81788259 1235.25002036 -87.81758008 1237.39006954 C-87.81743049 1238.44795813 -87.8172809 1239.50584671 -87.81712677 1240.59579253 C-87.81682535 1242.73005861 -87.81652436 1244.8643247 -87.81622381 1246.99859078 C-87.81547495 1252.31565515 -87.81471896 1257.63271952 -87.81394764 1262.94978389 C-87.81059868 1286.2610706 -87.80853041 1309.57235644 -87.80988336 1332.88364339 C-87.8099439 1333.93423549 -87.81000444 1334.98482759 -87.81006681 1336.06725581 C-87.81037879 1341.35690192 -87.81071221 1346.64654802 -87.81105313 1351.93619412 C-87.81350333 1390.15725525 -87.80945066 1428.37830624 -87.79384313 1466.59936459 C-87.79233318 1470.363963 -87.79085314 1474.12856143 -87.78939629 1477.89315987 C-87.78903555 1478.81706154 -87.78867481 1479.74096321 -87.78830313 1480.6928619 C-87.78276479 1495.32713297 -87.78390287 1509.96139556 -87.78780112 1524.59566684 C-87.79148891 1538.98239675 -87.78802729 1553.36911023 -87.77693691 1567.7558365 C-87.77064401 1576.19177361 -87.76979259 1584.62766869 -87.77699651 1593.06360531 C-87.78173129 1599.3250084 -87.77605189 1605.58636135 -87.76630471 1611.84775774 C-87.76399502 1614.36611206 -87.76503849 1616.88447224 -87.76982726 1619.40282307 C-87.81491709 1645.04724176 -85.67275018 1667.69575219 -68.50830078 1688.14526367 C-67.42548828 1689.63026367 -67.42548828 1689.63026367 -66.32080078 1691.14526367 C-53.38575894 1706.30614063 -32.74622677 1713.32517243 -13.50830078 1715.14526367 C-10.66037795 1715.27366348 -7.81855827 1715.28103928 -4.96807963 1715.27291417 C-4.14054262 1715.27456495 -3.31300561 1715.27621573 -2.46039173 1715.27791653 C0.3121205 1715.28222984 3.0845793 1715.27944387 5.85709286 1715.27669144 C7.87367765 1715.27834162 9.89026213 1715.28042814 11.90684608 1715.28291154 C17.4687919 1715.28848091 23.03072232 1715.28780527 28.59267004 1715.28613395 C34.63606969 1715.28540346 40.67946498 1715.29042437 46.72286278 1715.29470897 C57.32175584 1715.30141065 67.9206442 1715.3043867 78.51953888 1715.3048439 C89.89278633 1715.30534632 101.26603022 1715.30799358 112.6392765 1715.3132515 C113.35752807 1715.31358163 114.07577963 1715.31391176 114.81579639 1715.3142519 C117.74112394 1715.3156019 120.6664515 1715.31696457 123.59177904 1715.31834401 C158.22462654 1715.33464607 192.85747336 1715.34103257 227.49032405 1715.34579188 C244.73584994 1715.34817516 261.98137543 1715.35187865 279.22690103 1715.35582897 C334.54602617 1715.36849345 389.86515129 1715.37927731 445.18427786 1715.38266943 C447.82821123 1715.38283167 450.4721446 1715.38299723 453.11607797 1715.38316382 C458.41851889 1715.38349761 463.72095981 1715.38382809 469.02340072 1715.38415837 C475.23125705 1715.38454527 481.43911337 1715.38493488 487.64696969 1715.38532944 C489.4237078 1715.38544186 491.20044591 1715.38555327 492.97718402 1715.38566369 C550.03846875 1715.38921304 607.09974089 1715.40429109 664.16102081 1715.42760143 C705.163263 1715.44434465 746.16550281 1715.45981877 787.16774845 1715.4643364 C788.01110311 1715.46442988 788.85445777 1715.46452337 789.72336863 1715.46461969 C808.2378155 1715.46663881 826.75226234 1715.46779479 845.26670931 1715.46814827 C851.89172385 1715.46828444 858.51673839 1715.46849344 865.14175293 1715.46874152 C866.7898829 1715.46880308 868.43801287 1715.4688614 870.08614284 1715.46891647 C896.34025085 1715.46983601 922.59434571 1715.47980082 948.84844939 1715.49437396 C975.29584869 1715.50899564 1001.74323185 1715.51402825 1028.19063447 1715.50595442 C1031.84759375 1715.50483908 1035.50455305 1715.50382841 1039.16151237 1715.5028801 C1039.8783571 1715.50269013 1040.59520183 1715.50250016 1041.33376912 1715.50230444 C1052.67118294 1715.49957385 1064.00856688 1715.50690293 1075.3459742 1715.51845346 C1086.502069 1715.52960904 1097.65812214 1715.52976069 1108.8142212 1715.51908328 C1114.77865883 1715.51368356 1120.74299284 1715.51300608 1126.70742195 1715.525592 C1132.13926555 1715.5369584 1137.57092153 1715.53437631 1143.00275873 1715.52092493 C1144.94996392 1715.51850021 1146.8971837 1715.52104194 1148.8443728 1715.5293214 C1174.88162359 1715.63270553 1198.54914166 1710.70212148 1217.80810547 1691.88354492 C1223.59973696 1685.97388892 1227.84731207 1679.88763087 1231.67919922 1672.58276367 C1232.00049805 1671.98890869 1232.32179688 1671.39505371 1232.65283203 1670.78320312 C1238.73946296 1658.58948465 1240.08684194 1645.39663093 1239.99049377 1631.97610474 C1239.99423162 1630.41436804 1239.99973007 1628.85263476 1240.00681061 1627.29090965 C1240.02111246 1623.04784318 1240.01098359 1618.80514964 1239.99652755 1614.56209707 C1239.98532872 1609.96771507 1239.99743462 1605.37338502 1240.00671387 1600.77900696 C1240.01975571 1592.83276107 1240.01867482 1584.88662055 1240.00811958 1576.94037247 C1239.9931288 1565.44080291 1240.00313227 1553.94135605 1240.01963877 1542.44179343 C1240.04605114 1523.76644945 1240.05696039 1505.09113313 1240.0559082 1486.41577148 C1240.05582072 1484.74208552 1240.05582072 1484.74208552 1240.05573147 1483.03458773 C1240.0554656 1478.51325773 1240.05514831 1473.99192774 1240.05476821 1469.47059775 C1240.05380102 1457.01124123 1240.05513148 1444.55188554 1240.05786133 1432.0925293 C1240.05810122 1430.97628957 1240.05834111 1429.86004985 1240.05858827 1428.70998468 C1240.06299578 1410.09359197 1240.07922972 1391.47722493 1240.10308212 1372.86084735 C1240.11714118 1361.38979723 1240.12004316 1349.91884473 1240.10845923 1338.44779126 C1240.10113301 1330.59252787 1240.10420097 1322.73731367 1240.11541767 1314.882055 C1240.12148545 1310.35216001 1240.1225933 1305.82240274 1240.11054039 1301.29251671 C1240.09956491 1297.14266541 1240.10242991 1292.99305797 1240.11608385 1288.84321676 C1240.11857123 1287.34554537 1240.11602365 1285.84785494 1240.10780997 1284.35020401 C1240.05338605 1273.73767806 1240.20355357 1263.64144705 1247.87841797 1255.54760742 C1253.93283434 1250.28480965 1260.78014434 1249.77848685 1268.45263672 1249.87182617 C1274.54758457 1250.4202148 1278.63589532 1252.95043928 1282.80419922 1257.33276367 C1289.2133936 1265.81514495 1288.92096152 1275.10727055 1288.86592102 1285.36306763 C1288.86866438 1286.90694765 1288.87271883 1288.45082581 1288.87796468 1289.99469936 C1288.88852061 1294.22107007 1288.88044252 1298.44722834 1288.86921418 1302.67358971 C1288.86035397 1307.23818742 1288.86882112 1311.80275788 1288.87507629 1316.36735535 C1288.88455708 1325.30474671 1288.87796994 1334.24205724 1288.86581335 1343.1794426 C1288.8521741 1353.59629253 1288.85383304 1364.01312332 1288.85594668 1374.42997991 C1288.85913577 1393.02584626 1288.84747536 1411.62167431 1288.82788086 1430.2175293 C1288.80889357 1448.24195524 1288.80178914 1466.26633625 1288.80737305 1484.29077148 C1288.81343968 1503.93139181 1288.81323631 1523.57199238 1288.80188721 1543.21261108 C1288.80067998 1545.30984044 1288.79947399 1547.4070698 1288.79826927 1549.50429916 C1288.79736396 1551.05196283 1288.79736396 1551.05196283 1288.79644037 1552.63089243 C1288.79257018 1559.88257361 1288.79295142 1567.1342474 1288.79485512 1574.38592911 C1288.79698394 1583.23464732 1288.79170162 1592.0833263 1288.77724157 1600.93203349 C1288.77002901 1605.44221516 1288.76589348 1609.95233988 1288.77048492 1614.46252632 C1288.77459477 1618.60054268 1288.76930202 1622.73844204 1288.75685885 1626.87644075 C1288.75395786 1628.36431298 1288.7543238 1629.85219642 1288.75850192 1631.34006561 C1288.79158608 1644.31096365 1287.71461413 1657.02156179 1284.30419922 1669.58276367 C1284.08916748 1670.37787354 1283.87413574 1671.1729834 1283.65258789 1671.9921875 C1274.58423979 1704.09126093 1252.33696927 1730.84932001 1223.50097656 1747.27954102 C1204.44806779 1757.73512161 1183.53645642 1763.33469213 1161.77187264 1763.27291417 C1160.51964793 1763.27539034 1160.51964793 1763.27539034 1159.24212574 1763.27791653 C1156.45082919 1763.28222296 1153.65958589 1763.27944606 1150.86828804 1763.27669144 C1148.83579414 1763.27834195 1146.80330056 1763.28042862 1144.7708075 1763.28291154 C1139.16933789 1763.28847671 1133.56788356 1763.28780604 1127.96641206 1763.28613395 C1121.87839998 1763.28540305 1115.79039221 1763.29042534 1109.70238197 1763.29470897 C1099.02665092 1763.30140873 1088.35092453 1763.30438659 1077.67519188 1763.3048439 C1066.22012236 1763.30534642 1054.76505638 1763.30799468 1043.30998802 1763.3132515 C1042.22463488 1763.3137467 1042.22463488 1763.3137467 1041.11735542 1763.3142519 C1038.17034283 1763.31560191 1035.22333024 1763.31696458 1032.27631766 1763.31834401 C997.39166812 1763.33464364 962.50701926 1763.34103228 927.62236656 1763.34579188 C910.25040723 1763.34817544 892.87844828 1763.35187898 875.50648924 1763.35582897 C819.77755201 1763.36849331 764.04861479 1763.37927712 708.31967613 1763.38266943 C705.65630873 1763.38283167 702.99294134 1763.38299723 700.32957394 1763.38316382 C694.98818708 1763.38349761 689.64680022 1763.38382809 684.30541337 1763.38415837 C678.0520046 1763.38454527 671.79859584 1763.38493488 665.54518708 1763.38532944 C663.75541373 1763.38544186 661.96564038 1763.38555327 660.17586703 1763.38566369 C602.69864566 1763.38921287 545.22143678 1763.40429031 487.74422018 1763.42760143 C446.44161159 1763.44434581 405.13900537 1763.45981925 363.83639336 1763.4643364 C362.98676949 1763.46442988 362.13714561 1763.46452337 361.26177557 1763.46461969 C342.60922932 1763.46663886 323.95668311 1763.4677948 305.30413676 1763.46814827 C298.62961293 1763.46828444 291.9550891 1763.46849343 285.28056528 1763.46874152 C283.62013126 1763.46880308 281.95969724 1763.4688614 280.29926322 1763.46891647 C253.85460523 1763.46983582 227.40996031 1763.47979836 200.96530662 1763.49437396 C174.32403634 1763.50899915 147.68278206 1763.51402608 121.04150847 1763.50595442 C117.35681268 1763.5048391 113.67211687 1763.50382842 109.98742104 1763.5028801 C109.26514717 1763.50269013 108.5428733 1763.50250016 107.79871234 1763.50230444 C96.38069798 1763.49957506 84.96271332 1763.50689901 73.54470541 1763.51845346 C62.30617148 1763.5296158 51.06767891 1763.52975425 39.82914074 1763.51908328 C33.82194255 1763.51368781 27.8148472 1763.51299241 21.8076575 1763.525592 C16.33468521 1763.53697518 10.86189894 1763.53435808 5.38893293 1763.52092493 C3.42908426 1763.51850424 1.46922106 1763.52102745 -0.49061155 1763.5293214 C-25.68336568 1763.62886363 -48.32233383 1759.26903762 -70.50830078 1747.14526367 C-71.56791016 1746.58967773 -72.62751953 1746.0340918 -73.71923828 1745.46166992 C-81.86853383 1741.00201606 -88.68615279 1735.38430383 -95.50830078 1729.14526367 C-96.46994141 1728.26741211 -97.43158203 1727.38956055 -98.42236328 1726.48510742 C-119.93172964 1705.91488241 -134.46459875 1675.59568113 -135.60073812 1645.71406838 C-135.63697345 1642.91851855 -135.64203633 1640.12455317 -135.63595128 1637.32877213 C-135.63760206 1636.25471342 -135.63925284 1635.18065472 -135.64095364 1634.07404878 C-135.64528062 1630.46125378 -135.64247666 1626.84849951 -135.63972855 1623.23570347 C-135.64137808 1620.61369183 -135.64346431 1617.99168044 -135.64594865 1615.36966947 C-135.65065963 1609.64380438 -135.65164758 1603.91794793 -135.6502203 1598.19208122 C-135.6480993 1589.62010128 -135.65171234 1581.04813029 -135.65643508 1572.47615173 C-135.66430979 1557.86715191 -135.66739719 1543.25815453 -135.66788101 1528.64915276 C-135.66838324 1513.84115861 -135.67102852 1499.0331672 -135.6762886 1484.22517395 C-135.67661874 1483.29039339 -135.67694887 1482.35561283 -135.67728901 1481.39250559 C-135.67863899 1477.58536372 -135.68000166 1473.77822185 -135.68138111 1469.97107999 C-135.69768796 1424.88594967 -135.70407023 1379.80081987 -135.70882898 1334.7156871 C-135.71121172 1312.26825258 -135.71491509 1289.82081835 -135.71886608 1267.37338405 C-135.7315308 1195.37918936 -135.74231478 1123.38499469 -135.74570654 1051.39079891 C-135.74586878 1047.94950918 -135.74603434 1044.50821946 -135.74620092 1041.06692974 C-135.74653472 1034.16530384 -135.74686521 1027.26367793 -135.74719548 1020.36205202 C-135.74758238 1012.28182763 -135.74797199 1004.20160324 -135.74836655 996.12137885 C-135.74847897 993.80874817 -135.74859038 991.49611748 -135.7487008 989.1834868 C-135.75225052 914.90383889 -135.76732998 840.62420065 -135.79063854 766.34455643 C-135.8073793 712.9735753 -135.82285484 659.60259599 -135.8273735 606.23161221 C-135.82746699 605.1341011 -135.82756048 604.03659 -135.8276568 602.90582098 C-135.82967581 578.81308366 -135.83083188 554.72034637 -135.83118538 530.62760898 C-135.83132155 522.00677753 -135.83153055 513.38594609 -135.83177863 504.76511465 C-135.83184019 502.62044409 -135.83189851 500.47577354 -135.83195358 498.33110298 C-135.83287351 464.15246398 -135.8428431 429.97383507 -135.85741107 395.7951994 C-135.87202531 361.37027375 -135.87706997 326.94536049 -135.86899153 292.52043229 C-135.86787616 287.76294253 -135.86686549 283.00545275 -135.86591721 278.24796295 C-135.86572724 277.31536867 -135.86553727 276.38277438 -135.86534155 275.42191967 C-135.86260838 260.65788475 -135.86994832 245.89387274 -135.88149057 231.1298428 C-135.89263185 216.61048501 -135.89306212 202.09115959 -135.88212039 187.57180129 C-135.87602719 179.06109952 -135.87811008 170.55049547 -135.89237236 162.03980292 C-135.90103006 156.3824155 -135.89873867 150.72509975 -135.88767365 145.06771671 C-135.88171028 141.86395715 -135.88194968 138.66042496 -135.89235851 135.45667132 C-135.94243106 118.95861369 -135.40968546 103.0310892 -129.94580078 87.27026367 C-129.57225464 86.1775415 -129.57225464 86.1775415 -129.19116211 85.06274414 C-122.56638585 66.62021551 -111.85763428 51.33980636 -98.50830078 37.14526367 C-97.97076172 36.54327148 -97.43322266 35.9412793 -96.87939453 35.32104492 C-72.24188097 8.83108673 -34.73423736 -0.01200216 0 0 Z " fill="#FFFFFF" transform="translate(276.50830078125,215.854736328125)"/>
<path d="M0 0 C5.46625809 4.27028484 10.64011131 8.80746432 15.6875 13.5625 C16.35136719 14.16191406 17.01523438 14.76132812 17.69921875 15.37890625 C38.09802076 34.53640185 51.77852204 63.9886449 52.96875 91.89453125 C53.76956751 123.93557334 42.31856747 149.20114131 20.6875 172.5625 C16.84674164 176.53664351 12.94128791 180.44427098 9.02915955 184.3478241 C7.87193878 185.50619944 6.7149357 186.66479229 5.55812937 187.82358152 C2.40370312 190.98215474 -0.75380062 194.13763523 -3.91185534 197.29258001 C-7.32677024 200.7052221 -10.73879366 204.12075314 -14.15119934 207.53590393 C-20.82613799 214.21527889 -27.50376471 220.89196013 -34.18237335 227.5676653 C-39.61108378 232.99411366 -45.03881289 238.42154176 -50.46584892 243.84966469 C-51.23942088 244.62338988 -52.01299283 245.39711506 -52.81000636 246.19428647 C-54.38166894 247.76626878 -55.95332927 249.33825333 -57.52498739 250.91024009 C-72.24647383 265.63457496 -86.97101836 280.35584862 -101.69661772 295.07607005 C-114.32495463 307.69993773 -126.95066496 320.3264274 -139.57446289 332.95483398 C-154.2465625 347.63228754 -168.92028606 362.30811442 -183.59659761 376.98135644 C-185.16205611 378.5464964 -186.72751253 380.11163845 -188.29296684 381.67678261 C-189.06313713 382.44679862 -189.83330742 383.21681463 -190.6268162 384.01016447 C-196.04776309 389.4302488 -201.46755052 394.85149085 -206.8868885 400.27318382 C-213.49185947 406.88096201 -220.0986146 413.48695009 -226.7076493 420.09066387 C-230.07797656 423.45836687 -233.44750642 426.82685735 -236.81486511 430.19752884 C-239.89989285 433.28554566 -242.98723679 436.37122724 -246.07641035 439.45509652 C-247.19087347 440.56844662 -248.30450332 441.68263164 -249.41719259 442.79775455 C-254.674453 448.06562673 -259.93723148 453.27524382 -265.62760442 458.08049375 C-268.74188005 460.81975903 -271.49109261 463.90564559 -274.28515625 466.96484375 C-281.57584089 474.83969553 -289.07698759 482.48076123 -296.67651367 490.05688477 C-298.77707104 492.15200092 -300.87211874 494.2525231 -302.96679688 496.35351562 C-304.33040811 497.71646713 -305.69432893 499.07910897 -307.05859375 500.44140625 C-307.67020859 501.05504532 -308.28182343 501.66868439 -308.91197205 502.30091858 C-311.81048475 505.1839886 -314.74700525 507.96237822 -317.86193085 510.61093903 C-323.18871821 515.25496413 -328.14389307 520.26177716 -333.12927246 525.26574707 C-334.20683284 526.34358791 -335.28461564 527.42120642 -336.36259985 528.49862337 C-339.30713704 531.44286656 -342.24856149 534.39020209 -345.18947291 537.33806634 C-348.36831863 540.52331036 -351.55009054 543.70562901 -354.73152161 546.88829041 C-360.23923778 552.39888808 -365.74517592 557.91125705 -371.24995422 563.42478943 C-379.21706489 571.4044763 -387.18743256 579.38090368 -395.15868467 587.35645324 C-408.10347823 600.3083084 -421.04640233 613.26202987 -433.98779297 626.21728516 C-434.76172093 626.99204093 -435.53564889 627.7667967 -436.33302921 628.56502992 C-441.82623596 634.06413685 -447.31937576 639.56331065 -452.8125 645.0625 C-459.08735616 651.34428441 -465.36224261 657.62603857 -471.63720703 663.90771484 C-472.41018786 664.6815238 -473.1831687 665.45533276 -473.97957319 666.25259048 C-486.87378709 679.16049612 -499.76996898 692.06643381 -512.66755342 704.97097158 C-520.6176256 712.9255208 -528.56591587 720.8818426 -536.51190627 728.84046924 C-541.95659456 734.29359158 -547.40305662 739.74493801 -552.85091007 745.19489825 C-555.99241091 748.33774218 -559.13307922 751.48140659 -562.27153969 754.62728691 C-565.14750651 757.51002719 -568.02579811 760.39042532 -570.90591127 763.26902288 C-571.94437348 764.30775538 -572.98199277 765.34733145 -574.01865548 766.38785988 C-579.08380942 771.47101537 -584.18290759 776.43298863 -589.63037705 781.10582066 C-591.79358156 782.97910544 -593.82478036 784.96054134 -595.84072876 786.99066162 C-596.64239975 787.79529343 -597.44407074 788.59992523 -598.27003479 789.42893982 C-599.12016647 790.28737991 -599.97029816 791.14582001 -600.84619141 792.03027344 C-602.25542614 793.4466806 -603.6646629 794.86308574 -605.07397628 796.27941465 C-606.57308974 797.78687621 -608.07097083 799.29555304 -609.56856155 800.80452728 C-612.70083214 803.96004452 -615.83813821 807.11052325 -618.97640991 810.2600708 C-627.89425019 819.21119927 -636.80776994 828.16659993 -645.7109375 837.13232422 C-650.64011549 842.09605158 -655.57465658 847.05438127 -660.51520097 852.00679612 C-663.63392291 855.1335956 -666.74597394 858.26683778 -669.85322976 861.40502977 C-672.24193454 863.81353827 -674.6405023 866.21214758 -677.03759766 868.61230469 C-677.8917778 869.47884171 -678.74595795 870.34537872 -679.62602234 871.23817444 C-680.42205368 872.03152695 -681.21808502 872.82487946 -682.03823853 873.64227295 C-682.72287989 874.33097851 -683.40752125 875.01968407 -684.11290932 875.72925949 C-688.65576128 879.51548222 -692.60877285 880.93662483 -698.48495483 880.95018005 C-700.3100634 880.965037 -700.3100634 880.965037 -702.17204285 880.98019409 C-703.50711161 880.97595662 -704.8421794 880.97139882 -706.17724609 880.96655273 C-707.59370969 880.97225967 -709.01016869 880.97922518 -710.42662048 880.98735046 C-714.26352339 881.00526313 -718.10019736 881.0041169 -721.9371295 880.99840808 C-725.14525193 880.99531294 -728.35333059 881.00141242 -731.56144679 881.00744683 C-739.1331241 881.02148473 -746.70468858 881.0199374 -754.27636719 881.00854492 C-762.0756142 880.99706901 -769.87451714 881.01113201 -777.67371881 881.0379414 C-784.38051562 881.06012859 -791.08720466 881.06672886 -797.79403555 881.06086498 C-801.79498829 881.05750084 -805.79572058 881.05987394 -809.7966423 881.07711601 C-813.56100055 881.09263103 -817.32485101 881.08857976 -821.08918953 881.06981087 C-823.12010116 881.0643927 -825.15103583 881.07860505 -827.18190002 881.09350586 C-835.3372795 881.02789516 -840.81455772 880.19443375 -847.30078125 874.95703125 C-854.31642776 866.57550666 -854.75369774 857.90531759 -854.70068359 847.29101562 C-854.70594055 845.98742599 -854.71119751 844.68383636 -854.71661377 843.34074402 C-854.73020589 839.78904661 -854.72502261 836.23761276 -854.71547651 832.68591118 C-854.70783758 828.95454109 -854.71493721 825.22319234 -854.71963501 821.49182129 C-854.72508031 815.22774234 -854.71793327 808.96376979 -854.70361328 802.69970703 C-854.68728907 795.47588209 -854.69257845 788.25231124 -854.7090925 781.02849245 C-854.72274244 774.80654377 -854.72460994 768.58467121 -854.71677649 762.36271238 C-854.71211919 758.65524352 -854.71142122 754.94789377 -854.72138596 751.24043274 C-854.73172673 747.10479892 -854.71736119 742.9695975 -854.70068359 738.83398438 C-854.70979263 737.01020515 -854.70979263 737.01020515 -854.71908569 735.14958191 C-854.65202934 726.15049921 -853.87107614 718.46085681 -847.37329102 711.7565918 C-846.1742363 710.50173477 -846.1742363 710.50173477 -844.95095825 709.2215271 C-844.08026703 708.34404816 -843.20957581 707.46656921 -842.3125 706.5625 C-841.4028952 705.62886627 -840.49329041 704.69523254 -839.55612183 703.73330688 C-836.50817288 700.61692147 -833.42544836 697.5360647 -830.33984375 694.45703125 C-829.20587379 693.32238539 -828.0720521 692.18759131 -826.93836975 691.05265808 C-824.57926459 688.6920906 -822.2183913 686.33331035 -819.85620117 683.97583008 C-816.8483815 680.97371997 -813.8450931 677.96712313 -810.84311581 674.95917225 C-808.50875915 672.62118135 -806.17200051 670.2856028 -803.8345356 667.95071983 C-802.72676047 666.84360538 -801.61970984 665.73576545 -800.51344109 664.62714577 C-795.21929942 659.32421626 -789.9072791 654.11163467 -784.2117157 649.23487854 C-780.54665381 646.00756167 -777.13077576 642.522941 -773.68359375 639.06640625 C-772.89026138 638.27403061 -772.09692902 637.48165497 -771.27955627 636.66526794 C-769.61360919 634.99999717 -767.94890744 633.33347971 -766.28540039 631.66577148 C-763.75713866 629.13215378 -761.22358339 626.60391833 -758.68945312 624.07617188 C-757.0621793 622.44823717 -755.43521575 620.81999225 -753.80859375 619.19140625 C-752.68643715 618.072286 -752.68643715 618.072286 -751.54161072 616.93055725 C-748.20019827 613.57440179 -744.94477234 610.19242684 -741.85351562 606.60351562 C-737.83596402 601.94622901 -733.51309653 597.61945562 -729.16015625 593.27734375 C-728.30119247 592.41742325 -727.4422287 591.55750275 -726.55723572 590.67152405 C-724.75072985 588.86434139 -722.94297538 587.05840608 -721.1340332 585.25366211 C-718.3831319 582.50811607 -715.63760779 579.75727454 -712.89257812 577.00585938 C-711.12792468 575.2418668 -709.36296103 573.4781845 -707.59765625 571.71484375 C-706.38010399 570.49425514 -706.38010399 570.49425514 -705.13795471 569.24900818 C-704.36032272 568.47452835 -703.58269073 567.70004852 -702.78149414 566.90209961 C-702.10977676 566.23117783 -701.43805939 565.56025604 -700.74598694 564.8690033 C-698.84634149 563.0684847 -696.9256172 561.37816532 -694.93388844 559.68515015 C-688.99905934 554.49901247 -683.4960822 548.87401916 -677.9367981 543.29359436 C-676.68997165 542.04577068 -675.4429208 540.79817119 -674.19566619 539.55077547 C-670.78348363 536.13695366 -667.3744183 532.72003393 -663.96585321 529.30260074 C-660.28406467 525.61235966 -656.59933867 521.92505378 -652.91493225 518.23742676 C-646.53638763 511.85259292 -640.15956863 505.46603991 -633.78381729 499.07841682 C-624.56443383 489.84204656 -615.34133044 480.60939782 -606.11712383 471.37784462 C-591.14911725 456.39790083 -576.18261743 441.4164528 -561.21777344 426.43334961 C-560.32264702 425.53713307 -559.42752061 424.64091654 -558.50526915 423.71754193 C-545.78333418 410.9799741 -533.06288367 398.24092481 -520.34301685 385.50129174 C-519.44607129 384.60295287 -518.54912573 383.704614 -517.625 382.77905273 C-516.72914693 381.88180613 -515.83329385 380.98455953 -514.91029371 380.06012363 C-499.99521903 365.12204804 -485.07631294 350.1878058 -470.15423381 335.25672716 C-460.94651202 326.0431412 -451.74207385 316.82629847 -442.5417773 307.60529786 C-436.24661193 301.29646764 -429.94788574 294.99120768 -423.64629002 288.68880046 C-420.00604249 285.04784612 -416.36749252 281.40523434 -412.73324394 277.75829124 C-409.41188357 274.42538956 -406.08602672 271.09704714 -402.75640737 267.77239686 C-401.54759422 266.56373602 -400.34050226 265.35335104 -399.13523842 264.14115084 C-397.5070548 262.50407622 -395.87293942 260.87317204 -394.23707771 259.24377537 C-393.32780718 258.33320332 -392.41853665 257.42263127 -391.48171246 256.48446614 C-389.3125 254.5625 -389.3125 254.5625 -387.3125 254.5625 C-387.08981445 254.00216505 -386.86712891 253.4418301 -386.63769531 252.8645153 C-384.90007114 249.84606406 -382.72612668 248.03820916 -380.109375 245.73025513 C-373.86869081 240.10651126 -367.89067497 234.24495964 -361.953125 228.30319214 C-361.47600885 227.82577891 -360.99889271 227.34836569 -360.5073185 226.8564854 C-357.40562772 223.75169275 -354.30794869 220.6429194 -351.21115494 217.53324342 C-348.37730592 214.688788 -345.54041732 211.84736686 -342.70385742 209.00561523 C-337.80094667 204.09304894 -332.8997237 199.17880419 -327.99951172 194.26354599 C-320.24437081 186.48488946 -312.48392046 178.7115416 -304.72265625 170.93899536 C-302.05978794 168.27212692 -299.396954 165.60522416 -296.73413086 162.93831062 C-296.06891198 162.27207252 -295.4036931 161.60583441 -294.71831608 160.91940727 C-287.16809588 153.35747452 -279.61896403 145.79445568 -272.0703125 138.23095703 C-271.3812702 137.5405623 -270.6922279 136.85016756 -269.98230553 136.13885178 C-258.80840576 124.94275538 -247.63835502 113.74282491 -236.46925926 102.54193638 C-224.97190092 91.01213364 -213.4687388 79.48814252 -201.96064758 67.96905243 C-194.87837594 60.87958164 -187.80085155 53.7854385 -180.72948551 46.6850896 C-175.8816293 41.81816355 -171.02825987 36.95678038 -166.1706152 32.09962426 C-163.37424293 29.3031893 -160.58031836 26.50442398 -157.7930603 23.69890213 C-113.30600391 -21.06704286 -55.41696738 -40.67690444 0 0 Z M-103.52978516 37.63183594 C-104.12740976 38.14763592 -104.72503437 38.6634359 -105.34076881 39.19486618 C-113.93257889 46.73026769 -121.91000979 54.91346929 -129.9609375 63.015625 C-131.71168682 64.7701137 -133.46288507 66.52415453 -135.21450806 68.277771 C-139.77920759 72.85003423 -144.33786393 77.42827505 -148.89520264 82.00787354 C-153.56445525 86.69774276 -158.23951624 91.38181441 -162.9140625 96.06640625 C-172.05250416 105.22616934 -181.18475867 114.39207456 -190.3125 123.5625 C-188.87052042 126.86277875 -187.08430823 129.03805514 -184.54135132 131.57415771 C-183.75608566 132.3621727 -182.97082001 133.15018768 -182.16175842 133.96208191 C-181.29933029 134.81731949 -180.43690216 135.67255707 -179.54833984 136.55371094 C-178.64096573 137.46137711 -177.73359161 138.36904327 -176.79872131 139.30421448 C-174.31370797 141.78980138 -171.82257876 144.26917578 -169.33030653 146.74748135 C-166.72554986 149.33973116 -164.12646002 151.93765004 -161.52676392 154.53497314 C-156.60446785 159.45105432 -151.67709597 164.36201523 -146.74788058 169.2711575 C-141.13577399 174.8609054 -135.52934885 180.45633688 -129.92339396 186.05225325 C-118.39273972 197.56200528 -106.85497086 209.06459796 -95.3125 220.5625 C-90.07529124 216.17703751 -85.16027743 211.57403744 -80.31689453 206.75976562 C-79.55004333 206.00109192 -78.78319214 205.24241821 -77.99310303 204.46075439 C-75.47413863 201.96645762 -72.95919447 199.46816858 -70.4453125 196.96875 C-69.58036037 196.10912155 -68.71540825 195.2494931 -67.82424545 194.36381531 C-63.24596843 189.8121899 -58.67132401 185.25694518 -54.09912109 180.69921875 C-50.3352355 176.94865722 -46.56422911 173.20548897 -42.78662109 169.46875 C-38.20260219 164.93430499 -33.63122057 160.3874692 -29.06838608 155.83171082 C-27.33848665 154.10848069 -25.60437049 152.38947186 -23.86578751 150.67500305 C-8.34537629 135.35765437 5.66751384 120.01632023 5.9375 97 C5.88690431 77.66364626 -2.75516518 62.34477803 -16.0625 48.75390625 C-30.33543322 34.83917869 -48.21217996 24.14873631 -68.5 23.3125 C-81.69859173 23.53620494 -93.68133358 29.10268676 -103.52978516 37.63183594 Z M-227.08120662 160.08280963 C-227.80072432 160.80308677 -228.52024203 161.52336392 -229.2615633 162.26546764 C-230.09151005 163.0914323 -230.9214568 163.91739695 -231.77655345 164.76839083 C-232.69336286 165.69102593 -233.61017228 166.61366103 -234.55476379 167.56425476 C-235.5342018 168.54282148 -236.51407882 169.52094895 -237.4943592 170.49867183 C-240.19828267 173.19810218 -242.89589516 175.90376492 -245.59256756 178.61043632 C-248.49770929 181.52418268 -251.40859507 184.43218024 -254.31880188 187.34086609 C-259.36506585 192.38607914 -264.40764216 197.43495407 -269.44776344 202.48630333 C-276.74045201 209.79522645 -284.03863835 217.0986393 -291.33819076 224.40070663 C-303.18713737 236.25403566 -315.03160745 248.11182749 -326.87329102 259.97241211 C-338.3667318 271.48417896 -349.86224657 282.99386811 -361.3605957 294.50073242 C-362.42192443 295.56284932 -362.42192443 295.56284932 -363.50469414 296.64642312 C-367.05487159 300.19921102 -370.60509051 303.75195749 -374.1553303 307.30468309 C-398.64428797 331.81087249 -423.12881466 356.32148247 -447.60882568 380.83660889 C-448.13147282 381.36000435 -448.65411995 381.88339982 -449.19260488 382.42265575 C-451.61084395 384.84436602 -454.0290541 387.26610515 -456.44721633 389.68789214 C-463.30429618 396.55506725 -463.30429618 396.55506725 -466.30608654 399.55593586 C-468.0706521 401.32063393 -469.82839522 403.09164142 -471.58203125 404.8671875 C-472.76298028 406.05733191 -473.94397057 407.24743537 -475.125 408.4375 C-475.70314453 409.02402344 -476.28128906 409.61054687 -476.87695312 410.21484375 C-479.7710036 413.12488345 -482.69973471 415.92591596 -485.83010864 418.58110046 C-491.37038685 423.4087569 -496.51480487 428.63302876 -501.69873047 433.83520508 C-502.83816288 434.9749179 -503.97781761 436.11440849 -505.11767387 437.2536974 C-508.23323453 440.36896387 -511.3456815 443.48732476 -514.45761776 446.60621119 C-517.82051582 449.97550453 -521.18633714 453.34187538 -524.55181885 456.70858765 C-530.37874847 462.53839943 -536.20390002 468.36998292 -542.02789307 474.20272827 C-550.45654168 482.64394992 -558.88844456 491.08191495 -567.32123256 499.51900113 C-581.01474017 513.21957112 -594.70637849 526.92200746 -608.39648438 540.62597656 C-609.21527156 541.44559156 -610.03405874 542.26520655 -610.87765765 543.10965836 C-616.68932157 548.9272225 -622.50091856 554.74485347 -628.3125 560.5625 C-634.95112572 567.20805393 -641.5897817 573.85357761 -648.22851562 580.49902344 C-649.04630139 581.31763733 -649.86408716 582.13625122 -650.70665431 582.9796716 C-664.34667719 596.63338468 -677.98866687 610.285131 -691.6320591 623.93547726 C-700.04277267 632.35066878 -708.45170413 640.76763361 -716.85833788 649.18690085 C-722.61839897 654.95539392 -728.38023206 660.72211296 -734.14345694 666.48744512 C-737.46723139 669.81256311 -740.79017241 673.13850314 -744.11090851 676.46665573 C-747.15341534 679.51593188 -750.19824285 682.56287091 -753.24489427 685.60800588 C-754.34392124 686.70730332 -755.44210406 687.80744552 -756.53933311 688.90853751 C-764.022239 696.4165535 -771.59814082 703.54623875 -780.04620361 709.95829773 C-792.24170173 719.39517379 -805.69818714 730.27756791 -808.55096436 746.16145325 C-810.10827568 758.81745866 -809.35076751 771.57850119 -808.50976562 784.26171875 C-808.17656274 789.83709382 -808.03508031 795.4174485 -807.875 801 C-807.5363 811.866786 -806.99383244 822.71216502 -806.3125 833.5625 C-792.95640593 837.5574654 -779.55579854 840.02256856 -765.6875 841.4375 C-764.64208668 841.54432728 -763.59667336 841.65115456 -762.51958084 841.76121902 C-735.33999224 844.18924191 -713.39846065 838.5206445 -692.48095703 821.30908203 C-674.0318638 805.84132813 -657.24285574 788.50119804 -640.75 771 C-640.0461766 770.25406177 -639.34235319 769.50812353 -638.61720181 768.73958111 C-622.47571137 751.61262308 -606.61439055 734.23777182 -591.22585106 716.42968559 C-590.74786345 715.88037075 -590.26987585 715.33105592 -589.77740377 714.76509517 C-588.51222741 713.31069664 -587.2527082 711.8513821 -585.99372005 710.3916235 C-583.91070307 708.19370158 -581.86321637 706.26701222 -579.5730353 704.30627543 C-575.71738739 700.95403559 -572.06527251 697.45357193 -568.46271515 693.83296967 C-567.81936429 693.19047305 -567.17601343 692.54797644 -566.51316708 691.88601023 C-564.37037243 689.74485238 -562.23115715 687.60015501 -560.09191895 685.45544434 C-558.53588159 683.89912679 -556.97962235 682.34303105 -555.42316103 680.78713751 C-551.15604207 676.52031359 -546.89204117 672.25038559 -542.62854028 667.97994685 C-538.49931494 663.84499597 -534.36772107 659.71241399 -530.23616712 655.57979001 C-521.78630578 647.1275973 -513.33870255 638.67315122 -504.89231873 630.21748352 C-493.35601505 618.6685607 -481.8164176 607.12293322 -470.27594501 595.57817644 C-464.89589102 590.19611641 -459.5159978 584.81389568 -454.13614655 579.431633 C-453.59763141 578.89287685 -453.05911628 578.3541207 -452.5042825 577.79903861 C-439.69393729 564.98288536 -426.88516702 552.16515843 -414.07666016 539.34716797 C-413.51641362 538.78650779 -412.95616709 538.22584761 -412.37894339 537.64819773 C-403.85673462 529.11969275 -395.33460802 520.59110566 -386.8125 512.0625 C-377.72449322 502.96756411 -368.63645622 493.87265841 -359.54833984 484.77783203 C-358.98839748 484.21747508 -358.42845512 483.65711813 -357.8515448 483.07978066 C-345.0647527 470.2835381 -332.27750956 457.4877467 -319.48885345 444.693367 C-318.95120206 444.15547461 -318.41355066 443.61758222 -317.8596068 443.06339006 C-312.49168759 437.69308536 -307.12368959 432.32285942 -301.755574 426.95275102 C-290.22871295 415.42157599 -278.703232 403.88902638 -267.18054806 392.35367723 C-258.7815722 383.94551155 -250.38087805 375.53906601 -241.97839415 367.13440597 C-237.42730994 362.58197612 -232.87706332 358.02871698 -228.3290081 353.47326088 C-224.165136 349.30263864 -219.99896216 345.13433012 -215.83095354 340.96784192 C-214.32412363 339.46074068 -212.81814351 337.95278921 -211.31310421 336.44389981 C-209.26514624 334.39094662 -207.2141032 332.34112426 -205.16228485 330.29203033 C-204.58074951 329.70758213 -203.99921417 329.12313393 -203.40005654 328.52097517 C-199.77731573 324.91119998 -196.02435038 321.50250186 -192.14549544 318.16922954 C-189.20992635 315.59602862 -186.46318542 312.84465702 -183.71289062 310.07641602 C-183.10700104 309.47067245 -182.50111145 308.86492889 -181.87686157 308.24082947 C-179.90510693 306.26838664 -177.93690297 304.29244234 -175.96875 302.31640625 C-174.59034813 300.9361363 -173.21172309 299.5560892 -171.83288574 298.17625427 C-168.22714527 294.5667193 -164.62441967 290.95419001 -161.02233887 287.34100342 C-157.33704066 283.64542473 -153.64886419 279.95272095 -149.9609375 276.25976562 C-142.74199074 269.03013572 -135.52622951 261.79733544 -128.3125 254.5625 C-132.98623587 248.9517978 -137.96852182 243.75831675 -143.13183594 238.59790039 C-143.99756729 237.72881042 -144.86329865 236.85972046 -145.75526428 235.96429443 C-148.11046906 233.60126345 -150.46789075 231.24049341 -152.82668972 228.88105321 C-154.30104845 227.40598078 -155.77469171 225.93019741 -157.24808502 224.45416069 C-162.38959785 219.30342723 -167.53365581 214.1552518 -172.68017578 209.00952148 C-177.47796324 204.21233729 -182.27011687 199.40957503 -187.05972648 194.60422713 C-191.17773198 190.4731726 -195.29955658 186.34595551 -199.42441201 182.22174066 C-201.88594014 179.76046785 -204.34588005 177.29765669 -206.80199432 174.8309803 C-209.53269118 172.08885778 -212.27129949 169.3547246 -215.01074219 166.62133789 C-215.82634109 165.80011948 -216.64194 164.97890106 -217.48225403 164.13279724 C-218.22519211 163.39405365 -218.96813019 162.65531006 -219.73358154 161.8941803 C-220.38026165 161.24695542 -221.02694176 160.59973055 -221.69321823 159.9328928 C-224.03326934 157.95251529 -224.77368011 158.09935193 -227.08120662 160.08280963 Z " fill="#FFFFFF" transform="translate(1804.3125,921.4375)"/>
<path d="M0 0 C0.92167969 0.81339844 1.84335937 1.62679687 2.79296875 2.46484375 C5.9065717 5.26585248 8.96749889 8.11177647 12 11 C12.59893066 11.57024902 13.19786133 12.14049805 13.81494141 12.72802734 C22.69646975 21.24741854 30.83255584 29.98690841 38 40 C38.53447754 40.74427246 39.06895508 41.48854492 39.61962891 42.25537109 C58.11585415 68.31463797 81 106.69415681 81 140 C81.6359204 139.99723462 82.2718408 139.99446924 82.92703152 139.99162006 C98.42720823 139.92525866 113.92733527 139.87567015 129.42761898 139.84456348 C136.92355908 139.82911925 144.41940413 139.80807672 151.9152832 139.77368164 C158.45155086 139.74370416 164.98774965 139.72440725 171.52408415 139.71773452 C174.98245591 139.71383632 178.44063072 139.70472664 181.89893913 139.68280983 C185.76721662 139.65849555 189.63530448 139.65803535 193.50366211 139.65942383 C194.64014694 139.648638 195.77663177 139.63785217 196.94755554 139.6267395 C206.00628788 139.66184588 213.69510537 140.90255792 220.49609375 147.26171875 C226.81466985 154.565008 227.15048778 162.97465853 227.13371277 172.20956421 C227.1371111 173.58698616 227.1371111 173.58698616 227.14057809 174.99223483 C227.14690014 178.06433476 227.14608988 181.13639038 227.14526367 184.20849609 C227.14825626 186.41312212 227.15165902 188.61774762 227.15544128 190.82237244 C227.16427483 196.80790339 227.16661911 202.79342005 227.16725707 208.77895689 C227.16820691 213.77650053 227.17188603 218.77404084 227.17542917 223.7715832 C227.18310615 234.88892854 227.186098 246.00626825 227.18542381 257.12361591 C227.18536388 258.1234856 227.18536388 258.1234856 227.18530273 259.14355469 C227.18524141 260.14464993 227.18524141 260.14464993 227.18517885 261.16596933 C227.1847724 271.98193034 227.19434275 282.79785654 227.2084411 293.61380748 C227.2228146 304.72883954 227.22952773 315.84385724 227.22884732 326.95889914 C227.22859237 333.19543811 227.2314424 339.43193766 227.24202538 345.66846848 C227.25170693 351.53386179 227.25178509 357.39917801 227.24450874 363.26457405 C227.24346301 365.41559652 227.24582509 367.56662379 227.2518692 369.71763802 C227.25959359 372.65733872 227.25494126 375.59677347 227.24723816 378.53646851 C227.25238172 379.38453642 227.25752529 380.23260434 227.26282471 381.10637128 C227.21248301 389.81987135 225.73635421 397.18297795 219.39453125 403.6328125 C212.29065626 410.1250956 205.50657965 410.2914017 196.21134377 410.25726891 C195.00976053 410.26077498 193.80817729 410.26428105 192.57018244 410.26789337 C189.22808403 410.2756063 185.88620517 410.27435031 182.54411587 410.26933783 C178.91074808 410.26607306 175.27740368 410.27435218 171.64404333 410.28115618 C165.27377661 410.29146915 158.9035403 410.29429773 152.53326607 410.29224396 C143.06045572 410.28919737 133.58767908 410.29751032 124.11487527 410.30799321 C106.2134271 410.32734964 88.31199037 410.33296203 70.41053297 410.33410732 C56.58875395 410.33502584 42.76697943 410.33913955 28.94520187 410.34550858 C24.96895675 410.34730361 20.99271163 410.34908324 17.0164665 410.35085833 C15.53378053 410.35152148 15.53378053 410.35152148 14.02114131 410.35219802 C-13.78745655 410.36450876 -41.59605285 410.3723989 -69.40465355 410.37151146 C-70.45340363 410.3714803 -71.50215371 410.37144914 -72.5826841 410.37141704 C-77.89838888 410.37125082 -83.21409365 410.37105274 -88.52979843 410.37084763 C-89.58554904 410.37080774 -90.64129964 410.37076785 -91.72904269 410.37072675 C-93.86402767 410.37064587 -95.99901265 410.37056228 -98.13399764 410.37047596 C-131.3588805 410.36925016 -164.58372256 410.38426809 -197.80859375 410.41162109 C-235.12138324 410.44232677 -272.43414591 410.45955453 -309.74694884 410.45769465 C-313.72382267 410.45754538 -317.70069651 410.45744797 -321.67757034 410.45738602 C-322.65680565 410.45736271 -323.63604095 410.4573394 -324.64495005 410.45731538 C-340.41860454 410.45725378 -356.19222367 410.47003754 -371.96586764 410.48725055 C-387.81174442 410.50418505 -403.65756933 410.50619798 -419.50345014 410.4930319 C-428.92222494 410.48562837 -438.34084242 410.48934249 -447.75960063 410.50891658 C-454.04789091 410.52088297 -460.33606679 410.5183629 -466.62435173 410.50397559 C-470.20935538 410.49618423 -473.79405378 410.49474168 -477.37903635 410.51089029 C-481.23939516 410.52812739 -485.0992923 410.51449054 -488.95966148 410.49777794 C-490.63178607 410.51268248 -490.63178607 410.51268248 -492.33769095 410.52788812 C-500.34295678 410.45423601 -505.61279907 408.84832805 -511.75 403.6875 C-518.29698319 395.8674923 -519.15040109 388.60166025 -519.14044189 378.72123718 C-519.14341302 377.79549434 -519.14638414 376.8697515 -519.1494453 375.91595584 C-519.1581066 372.81855445 -519.15963836 369.72119183 -519.16113281 366.6237793 C-519.16576274 364.40107135 -519.17078764 362.17836419 -519.17617798 359.95565796 C-519.18928566 353.92047777 -519.19574356 347.88530869 -519.20018864 341.85011649 C-519.20312152 338.07869871 -519.2072267 334.30728395 -519.21169281 330.53586769 C-519.22379721 320.08462911 -519.23418118 309.63339231 -519.2375679 299.18214703 C-519.23778747 298.51397406 -519.23800703 297.84580109 -519.23823325 297.15738045 C-519.23845153 296.48765499 -519.23866981 295.81792953 -519.2388947 295.12790936 C-519.23933816 293.77090116 -519.23978472 292.41389296 -519.24023438 291.05688477 C-519.2404558 290.38376902 -519.24067723 289.71065327 -519.24090537 289.01714007 C-519.24485308 278.11130733 -519.26230865 267.20554142 -519.2855939 256.2997345 C-519.30933216 245.090907 -519.32151307 233.88211185 -519.32293582 222.67325526 C-519.32398362 216.38468208 -519.32988644 210.09620324 -519.34775543 203.80765343 C-519.36423798 197.89216429 -519.36639062 191.97684044 -519.35761642 186.06133652 C-519.3568462 183.8929926 -519.3611868 181.72463979 -519.37107468 179.55631828 C-519.38380347 176.59058735 -519.37791212 173.62544102 -519.36749268 170.65971375 C-519.37554908 169.80677677 -519.38360548 168.9538398 -519.39190602 168.07505625 C-519.32397156 159.77685578 -517.43314262 152.6612828 -511.67578125 146.50390625 C-506.02400819 141.43180222 -500.11521032 139.89427786 -492.65324402 139.84178162 C-491.59460144 139.8319928 -490.53595886 139.82220398 -489.44523621 139.81211853 C-488.29437027 139.80636307 -487.14350433 139.8006076 -485.95776367 139.79467773 C-484.73783722 139.78477814 -483.51791077 139.77487854 -482.26101685 139.76467896 C-478.92464776 139.73854141 -475.58830195 139.71665876 -472.25189376 139.69667697 C-468.76184156 139.67476586 -465.27183218 139.64740231 -461.78181458 139.62062073 C-455.17692665 139.570763 -448.57201487 139.52579859 -441.96708041 139.48259836 C-434.4459185 139.43316674 -426.92479956 139.37827063 -419.40367925 139.32291877 C-403.93582591 139.209205 -388.46793301 139.10234299 -373 139 C-372.78789949 138.00653454 -372.78789949 138.00653454 -372.57151413 136.99299908 C-371.92357289 133.96508244 -371.27187724 130.93798551 -370.62011719 127.91088867 C-370.39774384 126.86898125 -370.17537048 125.82707382 -369.94625854 124.75359344 C-368.43711484 117.7612911 -366.72991965 111.02968538 -364.25 104.3125 C-363.91057373 103.37156494 -363.57114746 102.43062988 -363.22143555 101.46118164 C-352.22486448 71.56527422 -335.88241028 45.90155393 -315 22 C-314.2059375 21.0821875 -313.411875 20.164375 -312.59375 19.21875 C-308.03298233 14.03321964 -303.29211948 9.42380972 -298 5 C-297.07832031 4.19046875 -296.15664063 3.3809375 -295.20703125 2.546875 C-281.64771715 -9.30889932 -266.83637072 -19.42926606 -251 -28 C-249.95465088 -28.56581787 -249.95465088 -28.56581787 -248.88818359 -29.14306641 C-170.2092659 -70.82211649 -66.72094831 -59.4848646 0 0 Z M-267 39 C-267.66773438 39.53109375 -268.33546875 40.0621875 -269.0234375 40.609375 C-270.38491522 41.69600041 -271.69999355 42.84053479 -273 44 C-273 44.66 -273 45.32 -273 46 C-273.66 46 -274.32 46 -275 46 C-275 46.66 -275 47.32 -275 48 C-275.66 48 -276.32 48 -277 48 C-279.54696283 50.46013455 -281.72252018 53.29153142 -284 56 C-284.74636719 56.83660156 -285.49273438 57.67320312 -286.26171875 58.53515625 C-310.33177749 86.0936293 -324.91077073 122.23870679 -328 158.5625 C-328.75809294 167.25734494 -329.59305446 175.1025581 -336.1875 181.4375 C-343.8679215 187.01492951 -351.99206226 187.44422299 -361.22094727 187.43237305 C-363.03650446 187.44778373 -363.03650446 187.44778373 -364.88873959 187.46350574 C-368.78134687 187.49323964 -372.67370139 187.50291183 -376.56640625 187.51171875 C-378.97978591 187.52719466 -381.39315746 187.54399328 -383.80651855 187.56213379 C-392.72508963 187.61993555 -401.64381153 187.65218593 -410.5625 187.6875 C-430.506875 187.790625 -450.45125 187.89375 -471 188 C-471 245.75 -471 303.5 -471 363 C-256.5 363 -42 363 179 363 C179 305.25 179 247.5 179 188 C139.3451644 187.82957859 139.3451644 187.82957859 99.69018555 187.70214844 C91.99572754 187.65673828 91.99572754 187.65673828 88.38606262 187.63043213 C85.88157758 187.61588128 83.37704006 187.60904904 80.87251282 187.60845947 C77.06399339 187.60602986 73.25636252 187.57859707 69.44799805 187.54589844 C68.34463702 187.55092251 67.241276 187.55594658 66.10447979 187.56112289 C58.35109749 187.45740041 50.23192501 186.46003239 44.02686596 181.38676071 C37.33034065 174.48237161 36.53913313 164.87495431 35.625 155.75 C32.82989306 131.30599871 25.53601426 109.64547175 14 88 C13.68450195 87.39704102 13.36900391 86.79408203 13.04394531 86.17285156 C6.35706004 73.47123426 -2.29297299 62.6821581 -12.02734375 52.18359375 C-13.42110356 50.64079823 -14.75647862 49.0442961 -16.046875 47.4140625 C-18.98351584 43.78437442 -22.41976204 40.98080695 -26 38 C-26.50934082 37.56768066 -27.01868164 37.13536133 -27.54345703 36.68994141 C-97.72313617 -22.67402679 -197.52392738 -18.7864477 -267 39 Z " fill="#FFFFFF" transform="translate(999,76)"/>
<path d="M0 0 C4.91268082 3.16594986 7.86532866 7.29541079 9.58984375 12.92578125 C10.84875714 19.29228612 10.62885802 25.61325069 7.74609375 31.484375 C3.68534479 37.33476052 -1.64919283 42.33426922 -7 47 C-7.66 47 -8.32 47 -9 47 C-9 47.66 -9 48.32 -9 49 C-10.50390625 50.48046875 -10.50390625 50.48046875 -12.5625 52.1875 C-16.10996174 55.18677493 -19.36522872 58.33995132 -22.5546875 61.71484375 C-24 63 -24 63 -26 63 C-26.33 63.99 -26.66 64.98 -27 66 C-28.53125 67.5078125 -28.53125 67.5078125 -30.5 69.125 C-33.65106235 71.79214921 -36.60589411 74.55564922 -39.5 77.5 C-42.86114482 80.9071879 -46.33701203 84.07458174 -49.96875 87.1875 C-52.23638572 89.2109288 -54.3657695 91.33653347 -56.5 93.5 C-59.86114482 96.9071879 -63.33701203 100.07458174 -66.96875 103.1875 C-69.23638572 105.2109288 -71.3657695 107.33653347 -73.5 109.5 C-76.86114482 112.9071879 -80.33701203 116.07458174 -83.96875 119.1875 C-87.03700326 121.92532599 -89.88270348 124.8742037 -92.76953125 127.80078125 C-95.45738534 130.45097714 -98.27572584 132.90857916 -101.14453125 135.359375 C-102.97748849 136.98009509 -104.67657041 138.67738411 -106.375 140.4375 C-109 143 -109 143 -111 143 C-111 143.66 -111 144.32 -111 145 C-112.485 145.99 -112.485 145.99 -114 147 C-114.4501449 149.03127296 -114.4501449 149.03127296 -114.3707943 151.41923523 C-114.37716734 152.35408375 -114.38354039 153.28893227 -114.39010656 154.25210953 C-114.38184838 155.28612774 -114.37359021 156.32014595 -114.36508179 157.38549805 C-114.36820078 158.47862682 -114.37131978 159.5717556 -114.3745333 160.69800949 C-114.38151528 164.38604835 -114.3671055 168.07370449 -114.35302734 171.76171875 C-114.35385756 174.39600195 -114.35607193 177.03028503 -114.35957336 179.66456604 C-114.36532886 185.35091238 -114.3606729 191.03717361 -114.34955978 196.72351074 C-114.33392291 204.95595711 -114.33946108 213.1882885 -114.35117622 221.42073655 C-114.37008882 234.79074577 -114.37928794 248.16073937 -114.37890625 261.53076172 C-114.37888881 262.33148299 -114.37887137 263.13220425 -114.3788534 263.9571898 C-114.3784016 272.88204616 -114.37508245 281.80689691 -114.36798096 290.73175049 C-114.36734857 291.53297142 -114.36671619 292.33419235 -114.36606465 293.1596927 C-114.36543208 293.96003594 -114.36479952 294.76037918 -114.36414778 295.58497524 C-114.36287804 297.19874 -114.36161263 298.81250476 -114.36035156 300.42626953 C-114.35972337 301.22359186 -114.35909518 302.02091419 -114.35844795 302.84239781 C-114.34848335 316.15183301 -114.35784585 329.46117523 -114.38253558 342.77059078 C-114.39695398 350.97791468 -114.39492215 359.18491096 -114.37157358 367.39221591 C-114.35679367 373.02277242 -114.36001243 378.65313749 -114.3772025 384.28368646 C-114.38651556 387.5296368 -114.38500652 390.77494686 -114.36697197 394.02087593 C-114.34859509 397.54726482 -114.36105163 401.07228165 -114.38095093 404.59863281 C-114.36823131 405.61480525 -114.35551169 406.63097769 -114.34240663 407.67794323 C-114.44044066 415.76283891 -116.623559 422.623559 -122.4375 428.4375 C-127.74379669 431.67304676 -131.54126909 433.37484455 -137.83794975 433.38031673 C-138.50431853 433.38497665 -139.17068731 433.38963657 -139.85724908 433.3944377 C-142.08821101 433.4063803 -144.3185631 433.39699554 -146.54953003 433.38768005 C-148.16593233 433.39185331 -149.7823317 433.39733078 -151.39872563 433.40399987 C-155.83919988 433.4184744 -160.27948884 433.41420348 -164.71997333 433.40683305 C-169.50944949 433.40210863 -174.29888515 433.41460483 -179.08834839 433.42485046 C-188.47097087 433.44205828 -197.85352645 433.44287433 -207.23616062 433.43763756 C-214.86181465 433.43359817 -222.48744888 433.43503667 -230.11310196 433.44038582 C-231.74033028 433.44150845 -231.74033028 433.44150845 -233.40043191 433.44265376 C-235.60416086 433.44418522 -237.80788981 433.44572357 -240.01161875 433.44726873 C-260.6842585 433.46100105 -281.35686042 433.45555103 -302.02949931 433.44408352 C-320.94480738 433.43415126 -339.86001764 433.4470904 -358.77531062 433.47101771 C-378.19368248 433.49539648 -397.61200876 433.50501953 -417.03039563 433.49836498 C-427.9338758 433.49486993 -438.83728074 433.49712366 -449.74074936 433.51461601 C-459.02308527 433.52932273 -468.30529297 433.5299935 -477.58762632 433.5125451 C-482.32381262 433.50401996 -487.05976974 433.50192246 -491.79594421 433.51719666 C-496.13243149 433.53100874 -500.4684925 433.52632555 -504.8049549 433.50695742 C-506.37287396 433.50318638 -507.94082687 433.50615115 -509.50871585 433.51656907 C-518.66940806 433.57310468 -525.54133993 433.31116179 -532.98828125 427.4296875 C-540.57495887 418.52261466 -540.43691161 408.13089758 -540.38095093 396.92527771 C-540.38441226 395.40925624 -540.38918001 393.89323729 -540.39513266 392.37722355 C-540.40760687 388.23274575 -540.40148869 384.08847633 -540.39217401 379.94399798 C-540.38536919 375.46609975 -540.3958718 370.98823664 -540.40411377 366.51034546 C-540.41743769 357.74689524 -540.41457943 348.9835222 -540.40587585 340.22006898 C-540.39909487 333.09699881 -540.39818437 325.97395024 -540.4014473 318.85087776 C-540.401907 317.83627359 -540.40236669 316.82166942 -540.40284032 315.77631967 C-540.40379952 313.71504759 -540.40477216 311.65377551 -540.4057581 309.59250344 C-540.41430795 290.27466505 -540.40448398 270.95686941 -540.388357 251.63903803 C-540.37495216 235.06898899 -540.37728407 218.49900299 -540.39111328 201.92895508 C-540.40717274 182.67768871 -540.41348615 163.42645978 -540.40427649 144.17518765 C-540.40332086 142.12189393 -540.40237775 140.0686002 -540.4014473 138.01530647 C-540.40098447 137.00509429 -540.40052164 135.99488211 -540.40004479 134.95405744 C-540.39745615 127.840303 -540.40182314 120.72657234 -540.40888596 113.61282158 C-540.41730511 104.94253981 -540.41501196 96.2723395 -540.39904372 87.60206705 C-540.39116695 83.17968008 -540.38805934 78.75742888 -540.39799118 74.33504295 C-540.40695072 70.28430032 -540.40198457 66.23381892 -540.38605852 62.18309987 C-540.38271608 60.72026306 -540.38439272 59.25740404 -540.39168589 57.79458158 C-540.43740287 47.86049654 -539.94171018 38.65494141 -533.6148423 30.55711645 C-526.77066695 23.95760018 -518.50396299 23.27733154 -509.46212769 23.37181091 C-507.62017954 23.36116933 -507.62017954 23.36116933 -505.74102032 23.35031277 C-502.35807976 23.33582821 -498.97655428 23.34356061 -495.59371924 23.3610357 C-491.93586514 23.37446517 -488.27811388 23.35895288 -484.62026978 23.34721375 C-477.46532746 23.32887525 -470.31065901 23.33732348 -463.15572535 23.35530197 C-457.33984186 23.36934954 -451.52403252 23.37321615 -445.7081337 23.3698597 C-444.87919001 23.36938225 -444.05024632 23.36890481 -443.19618312 23.3684129 C-441.5120243 23.36738654 -439.82786549 23.36633118 -438.14370669 23.36524714 C-423.26615994 23.35668803 -408.38874512 23.37333058 -393.51123047 23.40307617 C-379.08343975 23.43192209 -364.655839 23.43899117 -350.22802734 23.42358398 C-334.5039527 23.40681546 -318.77996816 23.40279344 -303.05589116 23.42029434 C-301.37867237 23.42213868 -299.70145358 23.4239734 -298.02423477 23.42579842 C-297.19907727 23.42671051 -296.37391976 23.4276226 -295.52375748 23.42856232 C-289.71547773 23.43416287 -283.90724205 23.43086514 -278.09896469 23.42425346 C-271.01988221 23.41651483 -263.94098656 23.42329219 -256.86194168 23.4484285 C-253.25176282 23.46091015 -249.64187466 23.46708643 -246.03168488 23.45588684 C-242.11557935 23.44396773 -238.19997362 23.4631301 -234.28390503 23.4853363 C-233.14674447 23.47709554 -232.00958391 23.46885477 -230.83796394 23.46036428 C-222.7064888 23.54553275 -217.40998923 25.12045354 -211.1875 30.375 C-206.24709793 36.30348249 -204.65525606 42.18116191 -204.78515625 49.81640625 C-205.31502095 55.20175841 -206.87459239 59.63126102 -210.3125 63.8125 C-215.55777402 68.08190909 -219.70987772 71.12623557 -226.58583355 71.12304783 C-227.53262037 71.1250387 -228.4794072 71.12702957 -229.45488453 71.12908077 C-230.49640517 71.12616811 -231.53792582 71.12325544 -232.61100769 71.12025452 C-233.71345825 71.12111053 -234.81590881 71.12196655 -235.95176697 71.12284851 C-239.6764383 71.12451041 -243.40106517 71.11896918 -247.12573242 71.11352539 C-249.82942132 71.1126637 -252.53310937 71.11330781 -255.23679829 71.11389065 C-261.75909367 71.11442294 -268.28137532 71.10979947 -274.80366718 71.10338932 C-282.34587877 71.09619823 -289.88808207 71.09539506 -297.43029785 71.09460449 C-317.34936742 71.08935101 -337.26843391 71.07538994 -357.1875 71.0625 C-423.9196875 71.0315625 -423.9196875 71.0315625 -492 71 C-492 174.95 -492 278.9 -492 386 C-383.1 386 -274.2 386 -162 386 C-162.33 322.31 -162.66 258.62 -163 193 C-166.96 196.96 -170.92 200.92 -175 205 C-179.125 208.625 -179.125 208.625 -181.0078125 210.2265625 C-184.34046851 213.19327981 -187.42001651 216.41292191 -190.5546875 219.5859375 C-193.29123479 222.28751294 -196.14979366 224.79078735 -199.0703125 227.2890625 C-201.84245001 229.7469496 -204.40550689 232.39623604 -207.00390625 235.03515625 C-208.92107177 236.92230744 -210.89575322 238.68685375 -212.9375 240.4375 C-215.92801716 243.00665271 -218.73116684 245.69317256 -221.5 248.5 C-224.86114482 251.9071879 -228.33701203 255.07458174 -231.96875 258.1875 C-234.23638572 260.2109288 -236.3657695 262.33653347 -238.5 264.5 C-241.86322641 267.90929801 -245.33996902 271.07945966 -248.9765625 274.19140625 C-251.20903348 276.1868388 -253.28555213 278.29306666 -255.375 280.4375 C-269.12091818 294.30212213 -269.12091818 294.30212213 -278.96484375 295.30078125 C-291.00192786 295.34823362 -296.50063641 291.05140823 -305 283 C-306.09310358 281.99397247 -307.18823802 280.99014812 -308.28515625 279.98828125 C-313.43212931 275.28311163 -318.51471191 270.55026914 -323.3984375 265.5703125 C-325.18269706 263.82086777 -327.04396124 262.19284418 -328.9375 260.5625 C-331.74576347 258.14382221 -334.39970593 255.64100317 -337 253 C-339.55990134 250.40017817 -342.1677954 247.93731602 -344.9375 245.5625 C-347.92801716 242.99334729 -350.73116684 240.30682744 -353.5 237.5 C-356.2485599 234.71378859 -359.02859791 232.04691608 -362 229.5 C-365.79358733 226.24835372 -369.27392647 222.74286906 -372.78125 219.1875 C-374.79430632 217.20279658 -376.85446403 215.33903084 -379 213.5 C-381.97140209 210.95308392 -384.7514401 208.28621141 -387.5 205.5 C-390.22829407 202.73439592 -392.98516834 200.08712969 -395.9375 197.5625 C-400.07490168 194.01969497 -403.85737469 190.16595583 -407.671875 186.28125 C-409.51529997 184.47494097 -411.31631638 182.91381402 -413.375 181.375 C-417.85104588 177.32524421 -419.69368267 173.67871378 -420.3828125 167.65234375 C-420.6536843 159.21017277 -419.95883039 153.31950474 -414.19921875 147.03515625 C-408.86706069 141.97219452 -403.96581853 140.04483884 -396.625 139.625 C-385.76102413 140.02736948 -379.19001303 147.07507473 -371.81835938 154.2421875 C-369.30559685 156.67128124 -366.75053069 159.05369518 -364.19555664 161.43823242 C-362.16184692 163.33644392 -360.13301289 165.23973677 -358.10546875 167.14453125 C-354.07270718 170.93224488 -350.0366718 174.71645446 -346 178.5 C-344.66665143 179.74998375 -343.33331811 180.99998376 -342 182.25 C-341.01 183.178125 -341.01 183.178125 -340 184.125 C-318 204.75 -318 204.75 -315.99804688 206.62695312 C-314.67138653 207.87061615 -313.34456491 209.11410716 -312.01757812 210.35742188 C-308.58077152 213.5779496 -305.14724264 216.80187127 -301.71875 220.03125 C-300.65914062 221.02801758 -300.65914062 221.02801758 -299.578125 222.04492188 C-298.24373094 223.30030576 -296.9103122 224.55672761 -295.578125 225.81445312 C-291.14322505 229.98381809 -286.60438083 234.01881395 -282 238 C-273.17132528 230.6085514 -264.66367257 222.79128188 -256.6015625 214.5703125 C-254.81730294 212.82086777 -252.95603876 211.19284418 -251.0625 209.5625 C-248.25423653 207.14382221 -245.60029407 204.64100317 -243 202 C-240.44009866 199.40017817 -237.8322046 196.93731602 -235.0625 194.5625 C-232.07198284 191.99334729 -229.26883316 189.30682744 -226.5 186.5 C-223.13885518 183.0928121 -219.66298797 179.92541826 -216.03125 176.8125 C-212.96025683 174.07222917 -210.11213124 171.12053098 -207.22265625 168.19140625 C-204.5729856 165.57898932 -201.78827197 163.16697379 -198.96484375 160.74609375 C-196.89179676 158.90384325 -194.94564198 156.97598338 -193 155 C-190.44009866 152.40017817 -187.8322046 149.93731602 -185.0625 147.5625 C-182.07198284 144.99334729 -179.26883316 142.30682744 -176.5 139.5 C-173.11758601 136.0711721 -169.61929558 132.87951482 -165.96484375 129.74609375 C-163.89179676 127.90384325 -161.94564198 125.97598338 -160 124 C-157.44009866 121.40017817 -154.8322046 118.93731602 -152.0625 116.5625 C-149.07198284 113.99334729 -146.26883316 111.30682744 -143.5 108.5 C-140.13885518 105.0928121 -136.66298797 101.92541826 -133.03125 98.8125 C-129.96025683 96.07222917 -127.11213124 93.12053098 -124.22265625 90.19140625 C-121.5729856 87.57898932 -118.78827197 85.16697379 -115.96484375 82.74609375 C-113.89179676 80.90384325 -111.94564198 78.97598338 -110 77 C-107.44009866 74.40017817 -104.8322046 71.93731602 -102.0625 69.5625 C-98.25455671 66.29109667 -94.75435936 62.77163109 -91.23046875 59.19921875 C-88.54261466 56.54902286 -85.72427416 54.09142084 -82.85546875 51.640625 C-81.02251151 50.01990491 -79.32342959 48.32261589 -77.625 46.5625 C-75 44 -75 44 -73 44 C-73 43.34 -73 42.68 -73 42 C-71.55102539 40.5546875 -71.55102539 40.5546875 -69.53515625 38.875 C-65.03695884 35.04910637 -60.72925149 31.05483127 -56.4375 27 C-55.36338867 25.99066406 -55.36338867 25.99066406 -54.26757812 24.9609375 C-50.28198807 21.20382076 -46.37188068 17.38629678 -42.51196289 13.50048828 C-40.10104282 11.1078652 -37.54787916 8.90635813 -34.96875 6.69921875 C-33.69697572 5.60155642 -32.44501549 4.48031055 -31.21875 3.33203125 C-21.71950205 -5.4115947 -11.1941345 -6.30624731 0 0 Z " fill="#FFFFFF" transform="translate(896,621)"/>
<path d="M0 0 C5.5701306 3.69170449 9.09492901 8.96486755 11.00390625 15.328125 C11.91124815 22.69887773 11.29222145 29.14850097 7.00390625 35.328125 C1.38486692 41.63301766 -4.80765371 47.33370813 -11.24609375 52.79296875 C-13.04799954 54.37365842 -14.70691964 56.04144461 -16.37109375 57.765625 C-18.99609375 60.328125 -18.99609375 60.328125 -20.99609375 60.328125 C-20.99609375 60.988125 -20.99609375 61.648125 -20.99609375 62.328125 C-22.39453125 63.703125 -22.39453125 63.703125 -24.37109375 65.328125 C-27.74404523 68.18857855 -30.89282852 71.17682161 -33.99609375 74.328125 C-37.53841574 77.91371199 -41.17165036 81.27704162 -45 84.55078125 C-48.06276102 87.27789723 -50.89832868 90.22217137 -53.77734375 93.140625 C-56.40380497 95.73009381 -59.16585833 98.11649464 -61.96484375 100.515625 C-64.23247947 102.5390538 -66.36186325 104.66465847 -68.49609375 106.828125 C-71.85723857 110.2353129 -75.33310578 113.40270674 -78.96484375 116.515625 C-82.03446697 119.25467341 -84.88137983 122.2049614 -87.76953125 125.1328125 C-90.43416009 127.76004304 -93.2298934 130.1920399 -96.07421875 132.62109375 C-98.70844884 134.96084689 -101.13176292 137.48330982 -103.55078125 140.04296875 C-104.99609375 141.328125 -104.99609375 141.328125 -106.99609375 141.328125 C-106.99609375 141.988125 -106.99609375 142.648125 -106.99609375 143.328125 C-107.9709844 143.97245578 -108.94587505 144.61678656 -109.95030785 145.28064251 C-112.04646878 146.97935454 -112.88799982 147.90244933 -113.55845571 150.54271567 C-113.75863801 153.40542918 -113.77426886 156.21828721 -113.72866821 159.08784485 C-113.73505605 160.18494803 -113.74144389 161.28205121 -113.7480253 162.41239995 C-113.76227595 166.09620691 -113.73373736 169.77844941 -113.70556641 173.4621582 C-113.70718774 176.10017059 -113.71120548 178.73807546 -113.7183075 181.37606812 C-113.72903636 187.06083637 -113.71829638 192.74523732 -113.69340897 198.42995644 C-113.65777109 206.65776232 -113.65902274 214.88524817 -113.6700068 223.11310901 C-113.68721347 236.47381033 -113.68061521 249.83438153 -113.65625 263.19506836 C-113.65479836 263.99461774 -113.65334673 264.79416712 -113.6518511 265.61794528 C-113.64593811 268.85738365 -113.63998504 272.09682194 -113.63397501 275.33626013 C-113.61768176 284.2475251 -113.60611109 293.15879366 -113.59667969 302.07006836 C-113.59582873 302.86773333 -113.59497777 303.66539829 -113.59410103 304.48723493 C-113.58047709 317.7944705 -113.58276194 331.10166769 -113.59472883 344.40890378 C-113.60120634 352.61412198 -113.5923661 360.81906229 -113.56364428 369.02423432 C-113.54472956 374.64863103 -113.53963837 380.2729285 -113.54533722 385.89735381 C-113.54807573 389.14099023 -113.5419657 392.38419659 -113.52264595 395.62778664 C-113.50256763 399.1479491 -113.50704581 402.66726919 -113.51748657 406.18745422 C-113.49970687 407.71738187 -113.49970687 407.71738187 -113.48156798 409.27821714 C-113.54011234 416.45611469 -115.03005654 421.73357038 -119.63671875 427.31640625 C-120.1678125 427.75339844 -120.69890625 428.19039062 -121.24609375 428.640625 C-121.766875 429.09050781 -122.28765625 429.54039062 -122.82421875 430.00390625 C-131.06253375 435.02690766 -139.22453 434.75313733 -148.55834961 434.70907593 C-150.15172871 434.71253492 -151.74510541 434.7173011 -153.33847713 434.72325766 C-157.70603034 434.73576418 -162.07338652 434.72959886 -166.44094038 434.72029901 C-171.15539341 434.71350744 -175.86981272 434.72399028 -180.58425903 434.73223877 C-189.8155473 434.74557713 -199.04676239 434.74269789 -208.27805352 434.73400085 C-215.78066117 434.72722513 -223.28324832 434.7263071 -230.78585815 434.7295723 C-231.85375389 434.730032 -232.92164963 434.73049169 -234.02190584 434.73096532 C-236.19132972 434.7319245 -238.3607536 434.73289714 -240.53017747 434.7338831 C-260.87186516 434.74243729 -281.21351228 434.73260238 -301.55519331 434.716482 C-319.00849554 434.7030788 -336.46173791 434.70540688 -353.91503906 434.71923828 C-374.18404533 434.73529356 -394.45301604 434.74161332 -414.72202778 434.73240149 C-416.88346163 434.73144584 -419.04489548 434.73050273 -421.20632935 434.7295723 C-422.26979031 434.72910947 -423.33325127 434.72864664 -424.42893833 434.72816979 C-431.92235062 434.72557975 -439.41574037 434.72995122 -446.90914917 434.73701096 C-456.04137076 434.74542556 -465.17351499 434.74314662 -474.30572772 434.72716872 C-478.96493077 434.71928551 -483.62400485 434.71619532 -488.28320694 434.72611618 C-492.54923826 434.73506247 -496.81502119 434.7301313 -501.08103001 434.71418352 C-502.62331622 434.71083545 -504.16562346 434.71253041 -505.70789611 434.71981089 C-516.85248183 434.76838008 -524.85816564 434.03602457 -533.30078125 426.15625 C-538.69522193 420.33920337 -539.11897315 413.47991662 -539.12752151 405.88340282 C-539.13136266 404.59860065 -539.1352038 403.31379847 -539.13916135 401.99006289 C-539.1383812 400.57151546 -539.13750243 399.15296809 -539.13653564 397.73442078 C-539.13912069 396.22185418 -539.14213424 394.70928826 -539.14553905 393.19672328 C-539.15359568 389.04327387 -539.15539787 384.88984176 -539.15613651 380.73638546 C-539.15798935 376.25569962 -539.16553777 371.77502271 -539.17227173 367.29434204 C-539.18584523 357.49895213 -539.191878 347.70356631 -539.19628239 337.90816855 C-539.199046 331.7916154 -539.20328353 325.67506382 -539.20778656 319.55851173 C-539.21997705 302.62203286 -539.23027738 285.68555524 -539.23366165 268.74907207 C-539.23388122 267.66543353 -539.23410078 266.58179498 -539.234327 265.46531891 C-539.23454528 264.37910073 -539.23476356 263.29288255 -539.23498845 262.17374867 C-539.23543192 259.97268466 -539.23587848 257.77162065 -539.23632812 255.57055664 C-539.23654955 254.47875482 -539.23677098 253.386953 -539.23699912 252.26206628 C-539.24094814 234.56639263 -539.2584063 216.87076013 -539.28168765 199.17510238 C-539.30539971 181.00539794 -539.31786341 162.83571415 -539.31902957 144.66599399 C-539.31994632 134.46504239 -539.32569871 124.26414445 -539.34384918 114.06320763 C-539.35924806 105.3782003 -539.36437181 96.69326322 -539.35611108 88.00824483 C-539.35220408 83.57777726 -539.35313671 79.14745114 -539.36716843 74.71700096 C-539.37990391 70.65870925 -539.37871298 66.60066535 -539.36657771 62.54237399 C-539.36462013 61.07672086 -539.36770202 59.6110502 -539.37642208 58.14542171 C-539.43504855 47.62294116 -538.90196842 39.19797527 -531.984375 30.93359375 C-524.8504519 25.17319612 -518.51737016 24.75244442 -509.65403748 24.82691956 C-508.42299178 24.82138516 -507.19194608 24.81585076 -505.92359596 24.81014866 C-502.52298871 24.79892273 -499.1232802 24.80554455 -495.7227422 24.81988537 C-492.04920856 24.8310198 -488.37573889 24.81904447 -484.70220947 24.81004333 C-477.51260298 24.79612604 -470.32317238 24.80365564 -463.1335743 24.81871892 C-454.7584625 24.83559683 -446.3833943 24.83236654 -438.00827075 24.82862484 C-423.06415345 24.82274912 -408.12012047 24.836907 -393.17602539 24.86157227 C-378.67924846 24.88549649 -364.18258415 24.89257448 -349.68579102 24.88208008 C-333.89326646 24.87066814 -318.10079397 24.86874389 -302.30827004 24.88317817 C-300.62401681 24.88470399 -298.93976357 24.88622435 -297.25551033 24.88773918 C-296.42685803 24.888497 -295.59820572 24.88925481 -294.74444274 24.89003559 C-288.90817223 24.89477594 -283.07192499 24.89292877 -277.23565483 24.88867378 C-270.12285651 24.88374474 -263.01016462 24.88974218 -255.89739066 24.90956808 C-252.26916434 24.9194325 -248.6411 24.92455442 -245.01286507 24.91667557 C-241.07886271 24.90830755 -237.14514437 24.92321287 -233.21116638 24.94044495 C-232.06583779 24.9344349 -230.9205092 24.92842486 -229.74047369 24.92223269 C-222.20758994 24.98235254 -217.05636544 25.61561145 -211.24609375 30.765625 C-210.50359375 31.61125 -209.76109375 32.456875 -208.99609375 33.328125 C-208.16078125 34.25625 -208.16078125 34.25625 -207.30859375 35.203125 C-203.90365729 40.71587927 -203.19176141 47.00689775 -203.99609375 53.328125 C-205.62567167 60.06302614 -208.47001544 64.46451968 -213.703125 68.953125 C-220.10783946 72.79377149 -226.76517456 72.60993788 -234.01219177 72.56863403 C-235.10991913 72.57034607 -236.20764648 72.57205811 -237.33863831 72.57382202 C-241.02326987 72.57712865 -244.70771907 72.56609131 -248.39233398 72.55517578 C-251.07648903 72.55456305 -253.76063326 72.55474142 -256.44478703 72.5559063 C-262.90470719 72.55696821 -269.36457161 72.54774722 -275.82447747 72.53490364 C-283.29904676 72.52048838 -290.77358269 72.5189133 -298.24816895 72.51733398 C-317.9766527 72.50683868 -337.70512406 72.47891639 -357.43359375 72.453125 C-423.54703125 72.39125 -423.54703125 72.39125 -490.99609375 72.328125 C-490.99609375 176.278125 -490.99609375 280.228125 -490.99609375 387.328125 C-382.09609375 387.328125 -273.19609375 387.328125 -160.99609375 387.328125 C-161.32609375 323.638125 -161.65609375 259.948125 -161.99609375 194.328125 C-164.96609375 197.298125 -167.93609375 200.268125 -170.99609375 203.328125 C-174.99609375 206.828125 -174.99609375 206.828125 -176.96484375 208.515625 C-179.23247947 210.5390538 -181.36186325 212.66465847 -183.49609375 214.828125 C-186.85723857 218.2353129 -190.33310578 221.40270674 -193.96484375 224.515625 C-197.03583692 227.25589583 -199.88396251 230.20759402 -202.7734375 233.13671875 C-205.42310815 235.74913568 -208.20782178 238.16115121 -211.03125 240.58203125 C-213.10429699 242.42428175 -215.05045177 244.35214162 -216.99609375 246.328125 C-219.55599509 248.92794683 -222.16388915 251.39080898 -224.93359375 253.765625 C-227.92411091 256.33477771 -230.72726059 259.02129756 -233.49609375 261.828125 C-236.85723857 265.2353129 -240.33310578 268.40270674 -243.96484375 271.515625 C-246.23247947 273.5390538 -248.36186325 275.66465847 -250.49609375 277.828125 C-254.49658461 281.87689765 -258.65533294 285.65000246 -262.99609375 289.328125 C-263.82109375 290.070625 -264.64609375 290.813125 -265.49609375 291.578125 C-271.7308092 295.94242581 -278.44368759 297.44781312 -285.99609375 296.328125 C-291.74129437 294.77262981 -295.76865244 292.28893103 -299.99609375 288.078125 C-301.12493191 286.99602271 -302.25384147 285.91399491 -303.3828125 284.83203125 C-303.96981934 284.2611377 -304.55682617 283.69024414 -305.16162109 283.10205078 C-307.68015449 280.66664173 -310.24119099 278.27821092 -312.80249023 275.88793945 C-314.83693945 273.98916971 -316.86637389 272.08517503 -318.89453125 270.1796875 C-322.24466332 267.03307556 -325.59774915 263.88963693 -328.9519043 260.74731445 C-335.85724212 254.27754802 -342.75150698 247.79612878 -349.64038086 241.30883789 C-354.41977492 236.8090108 -359.20582882 232.31637569 -363.99609375 227.828125 C-365.97550181 225.97241458 -367.95480217 224.11658934 -369.93408203 222.26074219 C-371.35649307 220.92758972 -372.77937338 219.59493783 -374.20263672 218.26269531 C-381.60181682 211.33546291 -388.9842011 204.41778612 -396.09765625 197.1953125 C-397.98175233 195.34223035 -399.92802237 193.61081864 -401.93359375 191.890625 C-418.36876264 177.66661337 -418.36876264 177.66661337 -419.296875 168.2890625 C-419.57104697 161.47393074 -419.31159478 155.80965278 -414.99609375 150.328125 C-410.3847158 145.4760697 -406.03604003 141.87097493 -399.234375 140.95703125 C-390.01916191 140.74787421 -383.73063153 142.70317924 -376.98828125 149.0859375 C-374.38606865 151.64731186 -371.87160232 154.28818772 -369.35644531 156.93457031 C-367.57552952 158.75895426 -365.68708046 160.42638337 -363.74609375 162.078125 C-360.30949053 165.00349799 -357.16114561 168.1448692 -353.99609375 171.359375 C-351.43951594 173.87600628 -348.73715105 176.19230661 -346.015625 178.52734375 C-343.13076711 181.09972187 -340.44603578 183.8534384 -337.7578125 186.62890625 C-335.90300069 188.51901636 -335.90300069 188.51901636 -332.99609375 190.328125 C-332.99609375 190.988125 -332.99609375 191.648125 -332.99609375 192.328125 C-332.43019531 192.5653125 -331.86429688 192.8025 -331.28125 193.046875 C-328.49494629 194.60911024 -326.64276861 196.52549943 -324.43359375 198.828125 C-321.99989525 201.35621653 -319.92599974 203.37485434 -316.99609375 205.328125 C-316.99609375 205.988125 -316.99609375 206.648125 -316.99609375 207.328125 C-316.42375 207.57175781 -315.85140625 207.81539062 -315.26171875 208.06640625 C-312.59175837 209.55329798 -310.85780368 211.30896408 -308.74609375 213.515625 C-305.91713455 216.41392144 -303.0758852 219.1979831 -299.99609375 221.828125 C-296.22692705 225.05027546 -292.79042974 228.53216633 -289.3671875 232.1171875 C-286.42870534 234.85718899 -283.30119003 237.04460393 -279.99609375 239.328125 C-279.15046875 238.47089844 -278.30484375 237.61367187 -277.43359375 236.73046875 C-272.05981612 231.30590527 -266.71205151 225.94418999 -260.88671875 221 C-257.85232888 218.31669656 -255.05842438 215.39815879 -252.21484375 212.515625 C-249.58838253 209.92615619 -246.82632917 207.53975536 -244.02734375 205.140625 C-240.95635058 202.40035417 -238.10822499 199.44865598 -235.21875 196.51953125 C-232.56907935 193.90711432 -229.78436572 191.49509879 -226.9609375 189.07421875 C-224.88789051 187.23196825 -222.94173573 185.30410838 -220.99609375 183.328125 C-218.43619241 180.72830317 -215.82829835 178.26544102 -213.05859375 175.890625 C-209.24925179 172.61802007 -205.74788266 169.09712063 -202.22265625 165.5234375 C-199.54976201 162.88805757 -196.74241072 160.45046011 -193.89453125 158.0078125 C-192.01638622 156.34607924 -190.25303859 154.61686975 -188.49609375 152.828125 C-186.14576274 150.43535009 -183.73186975 148.19621388 -181.18359375 146.015625 C-177.9727562 143.25194471 -174.9734221 140.34192904 -171.99609375 137.328125 C-168.43249392 133.72093373 -164.77684519 130.33334611 -160.92578125 127.0390625 C-158.15364374 124.5811754 -155.59058686 121.93188896 -152.9921875 119.29296875 C-151.07502198 117.40581756 -149.10034053 115.64127125 -147.05859375 113.890625 C-144.06807659 111.32147229 -141.26492691 108.63495244 -138.49609375 105.828125 C-135.13494893 102.4209371 -131.65908172 99.25354326 -128.02734375 96.140625 C-125.03669775 93.47204857 -122.25490077 90.61027992 -119.46484375 87.734375 C-117.44204116 85.7627826 -115.38947865 83.90449564 -113.2578125 82.0546875 C-108.83384626 78.21556362 -104.56438164 74.2269173 -100.30859375 70.203125 C-99.57576172 69.51347656 -98.84292969 68.82382813 -98.08789062 68.11328125 C-95.03688949 65.23560119 -92.00776633 62.36026239 -89.1015625 59.3359375 C-86.99609375 57.328125 -86.99609375 57.328125 -84.99609375 57.328125 C-84.99609375 56.668125 -84.99609375 56.008125 -84.99609375 55.328125 C-83.52734375 53.8828125 -83.52734375 53.8828125 -81.49609375 52.203125 C-78.52932014 49.68554598 -75.72035126 47.10643524 -72.99609375 44.328125 C-69.78272997 41.06445415 -66.43112891 38.04753872 -62.953125 35.0703125 C-60.30898866 32.71645061 -57.87197898 30.18516635 -55.44140625 27.61328125 C-53.99609375 26.328125 -53.99609375 26.328125 -51.99609375 26.328125 C-51.66609375 25.338125 -51.33609375 24.348125 -50.99609375 23.328125 C-49.46484375 21.8203125 -49.46484375 21.8203125 -47.49609375 20.203125 C-44.37273382 17.56327452 -41.46937874 14.82506807 -38.62109375 11.890625 C-27.70595658 0.88122931 -15.61403106 -7.93270988 0 0 Z " fill="#FFFFFF" transform="translate(894.99609375,1200.671875)"/>
<path d="M0 0 C1.86664307 -0.00639748 1.86664307 -0.00639748 3.77099609 -0.01292419 C5.14263919 -0.01257469 6.51428227 -0.01211317 7.88592529 -0.0115509 C9.33689459 -0.01454474 10.7878631 -0.01794778 12.23883057 -0.02172852 C16.17757111 -0.03055747 20.11628992 -0.03290638 24.05503941 -0.0335443 C26.52278683 -0.0342563 28.99052878 -0.03639364 31.45827484 -0.03904152 C40.08845875 -0.04829665 48.71862722 -0.05237686 57.34881592 -0.05158997 C65.35623119 -0.05099158 73.36357856 -0.0614957 81.37097669 -0.07733363 C88.26980312 -0.09048575 95.16860762 -0.09577055 102.06744647 -0.09513456 C106.1765117 -0.09488148 110.2855168 -0.09762498 114.3945694 -0.10831261 C118.27207084 -0.11812153 122.14945632 -0.11798696 126.02696228 -0.11079597 C127.4356529 -0.10976526 128.84435123 -0.11202063 130.25302887 -0.11815643 C163.19152563 -0.25210984 194.40438034 8.59187495 219.81854248 30.13371277 C220.58158691 30.77131531 220.58158691 30.77131531 221.36004639 31.42179871 C247.91535338 53.79390837 261.78086579 86.0135838 264.81854248 120.13371277 C265.30020091 128.65684431 265.2254428 137.19138654 265.19949341 145.72485352 C265.20295793 148.23705758 265.20772778 150.74926012 265.21367514 153.26145953 C265.22352278 158.68254983 265.22424311 164.10351711 265.21653366 169.52460861 C265.20510122 177.5857698 265.21103081 185.64685629 265.22015858 193.70801711 C265.23588995 208.1085257 265.23461371 222.50899417 265.22592185 236.90950651 C265.21835776 249.50396248 265.21641322 262.09840378 265.21998978 274.69286156 C265.22033351 275.94882319 265.22033351 275.94882319 265.22068419 277.23015778 C265.22161827 280.62941774 265.22257348 284.02867769 265.22356348 287.42793763 C265.23272456 319.26289433 265.22444341 351.09782554 265.20827279 382.93277831 C265.1940207 411.20590615 265.19532592 439.47899347 265.20965576 467.75212097 C265.22571873 499.55065125 265.23209166 531.34915909 265.22281897 563.14769286 C265.22185686 566.53651821 265.22091834 569.92534357 265.21998978 573.31416893 C265.21963393 574.56570799 265.21963393 574.56570799 265.21927089 575.84253068 C265.21585978 588.43697621 265.21984651 601.03140549 265.22742844 613.62584877 C265.23600134 627.9373779 265.23387127 642.24886082 265.2175862 656.56038419 C265.2087746 664.56817346 265.20820643 672.57586264 265.21952473 680.58364933 C265.22704002 686.55976419 265.21889543 692.53574904 265.204601 698.51185604 C265.2012444 700.93126022 265.20296692 703.35067778 265.21022837 705.77007339 C265.21933239 709.05477687 265.21001232 712.33893375 265.1960659 715.62360859 C265.2030894 716.56591016 265.2101129 717.50821173 265.21734923 718.47906789 C265.14441032 727.05666611 263.36823485 734.33261574 257.43182373 740.69621277 C251.88618328 745.63760668 245.52577697 746.44270558 238.41229248 746.34855652 C231.65318345 745.78869056 226.55502728 742.97784495 221.81854248 738.13371277 C216.86307644 730.47094739 216.67089653 722.83163744 216.69105053 713.94755077 C216.6894067 712.91918965 216.68776287 711.89082852 216.68606922 710.83130494 C216.6817412 707.36903958 216.68453344 703.90681605 216.6872406 700.44454956 C216.68553882 697.94360805 216.6833893 695.44266681 216.68082935 692.94172603 C216.67622775 687.49548703 216.67468308 682.04926031 216.6757946 676.60301971 C216.67740473 668.50374437 216.67324179 660.40447932 216.66771412 652.30520606 C216.65906136 639.5128464 216.65370062 626.72048811 216.65051261 613.92812602 C216.64536892 593.61209881 216.62990061 573.29608916 216.61093613 552.98007061 C216.60691464 548.65549832 216.60299371 544.33092594 216.59906977 540.00635356 C216.59789579 538.71320193 216.59789579 538.71320193 216.59669809 537.39392602 C216.59511251 535.64693227 216.59352768 533.89993851 216.5919436 532.15294476 C216.59035232 530.39946464 216.58875807 528.64598452 216.58716087 526.89250441 C216.56832861 506.21143386 216.55124405 485.53036213 216.5355835 464.84928894 C216.53489458 463.9443448 216.53420566 463.03940067 216.53349586 462.10703398 C216.51124466 432.77685906 216.49939829 403.44668923 216.49191694 374.11650723 C216.48414711 343.95370849 216.46306832 313.79094447 216.42637433 283.62816651 C216.42120092 279.36532948 216.41619352 275.10249227 216.41129494 270.83965492 C216.41032798 270.00072462 216.40936102 269.16179432 216.40836476 268.2974419 C216.39324071 254.81296008 216.39232565 241.32851312 216.39695207 227.84402515 C216.40134286 214.28096068 216.3913864 200.71796749 216.366865 187.15492394 C216.3527584 179.10443992 216.34969807 171.05413082 216.36270753 163.00364401 C216.37121069 156.98084344 216.35876583 150.95827266 216.33841858 144.93549273 C216.33343712 142.50739537 216.3351275 140.07927269 216.34435125 137.65118774 C216.40096264 121.46996907 216.01781145 105.271556 208.06854248 90.69621277 C207.55529419 89.71503479 207.55529419 89.71503479 207.03167725 88.71403503 C203.93258843 82.97537503 200.21528366 77.95304461 195.81854248 73.13371277 C195.30162842 72.52527527 194.78471436 71.91683777 194.25213623 71.28996277 C182.07373378 57.86014553 162.87808561 50.18566475 145.13197899 48.85787964 C141.1952894 48.74991301 137.2646274 48.73052167 133.3270874 48.74894714 C131.83225086 48.74482962 130.33741754 48.73936184 128.84259033 48.73266602 C125.6544861 48.72104717 122.46655446 48.71841797 119.27843285 48.72302246 C114.22980979 48.7298963 109.18140954 48.71385778 104.13282776 48.69462585 C92.51377064 48.65376834 80.89472107 48.64223178 69.27560425 48.63109589 C58.60300967 48.62056776 47.93052397 48.60373126 37.25799638 48.5630002 C32.24602411 48.54471977 27.23431178 48.5407235 22.22231424 48.54793549 C19.10142985 48.5494631 15.98067438 48.53863854 12.85982513 48.52455711 C11.4203598 48.520574 9.98086958 48.5216459 8.54141426 48.52832985 C-1.79945893 48.57263766 -10.81296231 48.21131735 -18.67755127 40.87590027 C-23.81711769 34.92201294 -25.51720178 28.00176987 -25.40020752 20.25090027 C-24.79698288 14.41254755 -22.3213263 9.27358155 -18.18145752 5.13371277 C-12.30173499 0.98001857 -7.07370283 0.01098178 0 0 Z " fill="#FFFFFF" transform="translate(1300.1814575195313,215.8662872314453)"/>
<path d="M0 0 C1.12535156 0.3403125 2.25070312 0.680625 3.41015625 1.03125 C17.35901859 5.60363455 29.01139175 12.29577453 40 22 C41.00546875 22.7734375 41.00546875 22.7734375 42.03125 23.5625 C60.86038358 38.37886741 72.37071771 64.39376436 75.3359375 87.6328125 C75.62992257 90.42169788 75.83714707 93.20048059 76 96 C76.05414062 96.88945312 76.10828125 97.77890625 76.1640625 98.6953125 C76.99417677 125.78722381 66.21146473 151.49938929 47.9921875 171.32421875 C29.88589984 190.40645992 4.91524242 203.25825103 -21.65625 204.3359375 C-49.91378057 204.77203269 -74.19133799 197.60044561 -96 179 C-96.74894531 178.39671875 -97.49789062 177.7934375 -98.26953125 177.171875 C-117.59021463 161.06566608 -129.18040464 136.0264285 -131.80078125 111.27246094 C-134.23649668 83.48858929 -126.76938229 55.81723983 -108.6875 34.25 C-82.42947279 4.04285245 -39.50620125 -12.74062147 0 0 Z M-71.125 63.0625 C-82.5895068 76.45304394 -84.92854792 91.50947313 -84.1953125 108.49609375 C-83.14207058 121.9986551 -75.58363855 133.80997517 -66 143 C-53.4810153 153.51002601 -38.22745053 158.27313746 -22 157 C-6.75391782 154.80618648 6.47358727 147.81397945 16.51171875 136.05859375 C26.6994144 122.33467316 29.82341139 107.85578714 28 91 C27.11760123 86.41903618 25.80711991 82.29414631 24 78 C23.66097656 77.13375 23.32195312 76.2675 22.97265625 75.375 C17.74357544 63.46534975 7.38424303 53.56144837 -4.53125 48.5 C-29.00605702 39.45049152 -52.93030236 44.2029961 -71.125 63.0625 Z " fill="#FFFFFF" transform="translate(881,152)"/>
<path d="M0 0 C1.13172589 -0.00698988 1.13172589 -0.00698988 2.28631493 -0.01412097 C4.80496594 -0.02603598 7.32307401 -0.01668926 9.84172916 -0.00736332 C11.66950926 -0.01153776 13.49728677 -0.01701589 15.32505947 -0.02368313 C20.34055807 -0.03814182 25.35589239 -0.03389166 30.3714 -0.02651632 C35.78322241 -0.02178804 41.19500912 -0.03429146 46.60682011 -0.04453373 C57.20604391 -0.06173347 67.80520846 -0.06255933 78.4044426 -0.05732083 C87.01878861 -0.05328024 95.6331171 -0.05472136 104.24746227 -0.06006908 C105.47326488 -0.06081751 106.69906748 -0.06156593 107.96201562 -0.06233703 C110.45218277 -0.0638685 112.94234992 -0.06540684 115.43251706 -0.066952 C138.78676383 -0.08068119 162.1409771 -0.0752363 185.49522311 -0.06376678 C206.86377325 -0.05383301 228.23222884 -0.06677686 249.60076665 -0.09070098 C271.54026315 -0.11507936 293.47971931 -0.124703 315.41922909 -0.11804825 C327.73731826 -0.11455336 340.05534083 -0.11680601 352.37341976 -0.13429928 C362.85900933 -0.14900543 373.34448539 -0.14967737 383.83007269 -0.13222837 C389.18004333 -0.12370316 394.52981107 -0.12160607 399.87977123 -0.13687992 C404.77812555 -0.15069138 409.67610247 -0.14600937 414.57443476 -0.12664068 C416.34554078 -0.12286951 418.11667677 -0.12583473 419.88775616 -0.13625234 C436.87835063 -0.22907822 436.87835063 -0.22907822 444.122262 4.38031673 C445.050387 4.95781673 445.978512 5.53531673 446.934762 6.13031673 C451.58468726 10.91309701 453.68982823 16.46875365 454.15741825 23.08344173 C454.05500865 29.77420244 452.39863241 35.1536418 448.122262 40.38031673 C442.52899821 45.79315266 438.36870382 47.68281011 430.63463116 47.63479233 C429.49328478 47.63960204 429.49328478 47.63960204 428.32888091 47.64450893 C425.76445902 47.65284847 423.20026828 47.64687088 420.63584232 47.64101315 C418.78462932 47.64403203 416.93341757 47.64792018 415.08220804 47.65260571 C409.98350112 47.66292843 404.88486418 47.66069305 399.78615141 47.65642512 C394.29184197 47.65396561 388.79754971 47.66296239 383.3032465 47.67046261 C372.53471009 47.68323339 361.76619859 47.68500033 350.99765588 47.68266235 C342.24732212 47.68088164 333.49699595 47.6826235 324.74666309 47.68688679 C323.50280019 47.68748198 322.25893729 47.68807717 320.97738158 47.68869039 C318.4507291 47.6899021 315.92407662 47.69111624 313.39742415 47.69233277 C296.42415508 47.70012392 279.45088872 47.70403635 262.47761822 47.70001602 C261.48163489 47.69978146 261.48163489 47.69978146 260.4655307 47.69954216 C257.10005114 47.69873635 253.7345716 47.69789058 250.36909206 47.69702885 C249.7006787 47.69685777 249.03226533 47.69668668 248.34359701 47.69651041 C246.9919021 47.69616375 245.64020719 47.69581522 244.28851227 47.69546482 C223.25521435 47.69010738 202.22195835 47.69803774 181.18866825 47.71649837 C157.5657454 47.73720754 133.94284264 47.74791204 110.3199085 47.74392289 C97.80904087 47.74200777 85.29821144 47.74452851 72.78735065 47.75863743 C62.13654055 47.77052681 51.48579214 47.77198365 40.83498122 47.75984726 C35.39835462 47.75394131 29.96184102 47.75290637 24.52522182 47.76484966 C19.55105801 47.77565024 14.57710231 47.77267491 9.60294847 47.75858798 C7.80081989 47.75592491 5.99867531 47.75835769 4.19656236 47.76632384 C1.75131349 47.776385 -0.69320566 47.76804672 -3.13842487 47.75504684 C-3.8418705 47.76235619 -4.54531614 47.76966554 -5.2700783 47.77719638 C-10.66047236 47.71759282 -14.68313676 46.3592093 -18.705863 42.73187923 C-23.67652926 36.6960702 -25.93725579 31.28427913 -25.877738 23.38031673 C-24.98177337 16.05845521 -22.98042024 10.54028569 -18.08476925 5.00141048 C-12.58919634 0.96483923 -6.66923656 -0.06539458 0 0 Z " fill="#FFFFFF" transform="translate(895.8777379989624,1006.619683265686)"/>
<path d="M0 0 C0.74258053 -0.00175304 1.48516105 -0.00350607 2.25024402 -0.00531223 C4.74630679 -0.00997571 7.2423114 -0.00750583 9.73837662 -0.00507832 C11.5429407 -0.00694612 13.34750439 -0.00924669 15.15206742 -0.01194364 C20.11728909 -0.01807194 25.08249394 -0.01792683 30.04771852 -0.01674926 C35.40027534 -0.01654552 40.75282672 -0.02206155 46.10538101 -0.02680683 C56.5947097 -0.03511972 67.08403276 -0.03786197 77.57336447 -0.03841921 C86.09862741 -0.03889409 94.62388849 -0.04094745 103.14915085 -0.04411983 C127.31185752 -0.05292835 151.47455975 -0.05753893 175.63726804 -0.05678936 C176.94038057 -0.0567494 178.24349311 -0.05670945 179.5860939 -0.05666828 C181.54314536 -0.05660696 181.54314536 -0.05660696 183.5397332 -0.0565444 C204.68535093 -0.05613793 225.83095085 -0.06570716 246.97656342 -0.07980665 C268.68091462 -0.09416465 290.38525713 -0.10107714 312.0896132 -0.10021287 C324.27806109 -0.09988069 336.46649031 -0.102637 348.65493393 -0.11339092 C359.0326024 -0.12248838 369.41024375 -0.1246774 379.78791448 -0.1178815 C385.08312994 -0.11461241 390.37829334 -0.11457365 395.67350388 -0.12323475 C400.52191528 -0.1310835 405.37023319 -0.12968492 410.21864226 -0.12095062 C411.97167002 -0.11941204 413.72470469 -0.12124523 415.47772428 -0.12681069 C437.69613863 -0.19267165 437.69613863 -0.19267165 444.56949234 5.12863445 C444.56949234 5.78863445 444.56949234 6.44863445 444.56949234 7.12863445 C445.22949234 7.12863445 445.88949234 7.12863445 446.56949234 7.12863445 C450.89058778 14.76629024 453.74906417 21.42747673 451.88199234 30.25363445 C450.71352378 34.26671956 448.77759408 37.59567166 446.56949234 41.12863445 C445.90949234 41.12863445 445.24949234 41.12863445 444.56949234 41.12863445 C444.56949234 41.78863445 444.56949234 42.44863445 444.56949234 43.12863445 C439.23341891 46.24135987 434.84028037 47.71589931 428.59525681 47.63199902 C427.44788615 47.64071966 427.44788615 47.64071966 426.2773363 47.64961648 C423.72307017 47.66417425 421.1697714 47.65035151 418.61551285 47.63656902 C416.7622696 47.64117961 414.90903001 47.64753359 413.05579805 47.655478 C407.9699114 47.67217266 402.88432507 47.66392424 397.79843736 47.65153313 C392.31096378 47.64248558 386.82354195 47.65645092 381.33607864 47.66745281 C370.58877956 47.68524572 359.84159218 47.68139458 349.09428871 47.66980225 C340.36027031 47.66077126 331.62628323 47.65954249 322.89226151 47.66389751 C321.64951801 47.66451045 320.40677452 47.66512338 319.12637213 47.66575488 C316.60181724 47.66703378 314.07726236 47.66833063 311.55270749 47.66964525 C288.55114095 47.68072806 265.5496239 47.66923185 242.54806948 47.64827486 C221.554364 47.62929269 200.56075557 47.63099122 179.56705093 47.65011883 C155.97556862 47.6715415 132.38412763 47.67995465 108.79263449 47.66766977 C106.27733072 47.66639557 103.76202695 47.66513808 101.24672318 47.66389751 C100.00912326 47.66328041 98.77152335 47.66266331 97.49642041 47.66202751 C88.77219371 47.65857281 80.04800143 47.66440555 71.32378006 47.67381573 C60.69286331 47.68503038 50.06206472 47.68200681 39.43116152 47.66069275 C34.00638489 47.65017525 28.58180531 47.64607259 23.15703011 47.65928936 C18.19149114 47.67120436 13.22633197 47.66466521 8.26082748 47.64337915 C6.46417012 47.63890934 4.66748071 47.64118785 2.87084395 47.6508823 C0.42801625 47.66305285 -2.01351204 47.65056533 -4.45627213 47.63199902 C-5.15332034 47.64136368 -5.85036855 47.65072834 -6.56853944 47.66037679 C-11.93345898 47.57891807 -15.97829574 45.97440736 -20.43050766 43.12863445 C-25.56671255 37.74877658 -27.34013334 31.31931629 -27.60238266 24.0231657 C-27.20099436 17.26342177 -24.79520431 11.31908452 -20.43050766 6.12863445 C-13.85044535 1.0277038 -8.24023557 -0.02465272 0 0 Z " fill="#FFFFFF" transform="translate(897.4305076599121,881.8713655471802)"/>
<path d="M0 0 C1.03970814 -0.00384115 2.07941627 -0.00768229 3.15063071 -0.01163983 C4.29661994 -0.01077335 5.44260917 -0.00990687 6.62332535 -0.00901413 C7.83784827 -0.01198525 9.05237118 -0.01495637 10.30369782 -0.01801753 C13.68109008 -0.02520591 17.05843147 -0.02787748 20.43582773 -0.028615 C24.0760305 -0.03046439 27.71622222 -0.03801118 31.35641861 -0.04475021 C39.31926541 -0.05833909 47.28210718 -0.06435918 55.24496365 -0.06876087 C60.21622131 -0.07152249 65.18747702 -0.07575971 70.15873337 -0.08026505 C83.92024361 -0.09245869 97.68175229 -0.10275765 111.44326782 -0.10614014 C112.32424968 -0.1063597 113.20523153 -0.10657927 114.11290981 -0.10680549 C115.43756279 -0.10713291 115.43756279 -0.10713291 116.78897643 -0.10746694 C118.57850631 -0.1079104 120.36803619 -0.10835697 122.15756607 -0.10880661 C123.48907186 -0.10913875 123.48907186 -0.10913875 124.84747675 -0.10947761 C139.23060185 -0.11342553 153.61367627 -0.13087894 167.9967818 -0.15416613 C182.76052461 -0.17787681 197.524242 -0.19034187 212.28800416 -0.19150805 C220.57857538 -0.192425 228.86908059 -0.19818222 237.15963364 -0.21632767 C244.21946702 -0.23172487 251.27921401 -0.2368514 258.33906099 -0.22858956 C261.9409381 -0.22468162 265.5426412 -0.22561952 269.14449692 -0.23964691 C273.05027535 -0.25471876 276.95580863 -0.24652348 280.8616066 -0.23606491 C281.99867294 -0.24412132 283.13573928 -0.25217772 284.30726218 -0.26047826 C291.75184371 -0.21376194 296.82132961 0.47320146 302.68393326 5.38142776 C308.54119609 12.3468214 310.2821115 18.00162736 309.99643326 27.13142776 C308.94746501 33.65722064 306.04264015 38.8694655 300.99643326 43.13142776 C293.77078785 47.16490042 286.90268074 47.70358294 278.77573013 47.63263321 C277.58184425 47.63816761 276.38795837 47.643702 275.15789413 47.64940411 C271.87032093 47.66060211 268.58335702 47.65403491 265.29581451 47.63966739 C261.7401871 47.62850706 258.18462475 47.64051684 254.62900162 47.64950943 C247.6739476 47.66340964 240.71907572 47.65590962 233.76403046 47.64083385 C225.65707166 47.62393325 217.55015773 47.62718912 209.44318676 47.63092793 C194.97391973 47.63680062 180.50473983 47.6226582 166.03549576 47.5979805 C152.00942087 47.57406148 137.98346238 47.56697701 123.95737076 47.57747269 C108.66764162 47.58889352 93.37796626 47.59079757 78.08823776 47.57637459 C76.45648067 47.57484882 74.82472357 47.57332847 73.19296646 47.57181358 C72.39020326 47.57105577 71.58744006 47.57029795 70.7603507 47.56951718 C65.11532254 47.56478335 59.47031847 47.56661938 53.82529068 47.57087898 C46.94172748 47.57581624 40.05827413 47.56977422 33.17473602 47.54998469 C29.66561324 47.54014335 26.15665736 47.53497318 22.64752579 47.5428772 C18.83721818 47.5488447 15.02739996 47.53629566 11.21713638 47.51910782 C9.56682545 47.52812289 9.56682545 47.52812289 7.8831749 47.53732008 C0.06784875 47.47333598 -7.55604061 46.82949169 -13.87856674 41.88142776 C-19.14758051 35.06270406 -21.31494265 29.84995328 -21.00356674 21.13142776 C-19.69973879 13.69319616 -17.09133684 7.46300927 -10.94106674 2.81892776 C-7.07652775 0.59887345 -4.37865108 0.00606227 0 0 Z " fill="#FFFFFF" transform="translate(891.0035667419434,757.8685722351074)"/>
<path d="M0 0 C1.06018651 -0.00573832 1.06018651 -0.00573832 2.14179093 -0.01159257 C4.49223339 -0.02184897 6.8424282 -0.01794457 9.19288635 -0.01396179 C10.88535283 -0.01831232 12.57781733 -0.02349661 14.27027893 -0.02944946 C18.85498838 -0.04281336 23.43961526 -0.04342109 28.02434039 -0.04088616 C31.85632044 -0.03981477 35.6882839 -0.04470407 39.52026039 -0.04949158 C48.56235282 -0.06057755 57.6044037 -0.06102917 66.64649963 -0.05497742 C75.9651962 -0.04893633 85.28374182 -0.06125416 94.60241264 -0.08254749 C102.61281337 -0.10017631 110.62316611 -0.10616286 118.63358551 -0.10290974 C123.41360681 -0.10109894 128.19352041 -0.10371294 132.97352409 -0.11762428 C137.46911052 -0.13021901 141.96446195 -0.12824298 146.46004486 -0.11521339 C148.10633741 -0.11285173 149.75264658 -0.11556759 151.39892006 -0.12383652 C161.54172501 -0.17109399 170.04436968 0.07949479 178.64430237 6.26069641 C178.64430237 6.92069641 178.64430237 7.58069641 178.64430237 8.26069641 C179.30430237 8.26069641 179.96430237 8.26069641 180.64430237 8.26069641 C185.10900002 15.74986666 186.4903412 21.4324651 185.64430237 30.26069641 C183.83542487 36.89708773 179.20144122 41.43175531 173.64430237 45.26069641 C169.44018131 47.34090201 165.92651755 47.51621274 161.2633667 47.52812195 C160.52969968 47.53265306 159.79603265 47.53718417 159.0401333 47.54185259 C156.58675481 47.55449212 154.13359844 47.55287653 151.68019104 47.55122375 C149.91905431 47.55720931 148.15792021 47.56401492 146.39678955 47.57157898 C141.61569519 47.58924403 136.83467242 47.59393459 132.05354857 47.59521055 C129.06524585 47.5966325 126.07696131 47.60090293 123.0886631 47.60620499 C112.65985077 47.62470738 102.23108955 47.63287539 91.80226135 47.63130188 C82.08708261 47.63010063 72.37212609 47.65119928 62.65700358 47.68278921 C54.31118863 47.70895782 45.96544623 47.71966892 37.61959058 47.71839106 C32.63717513 47.71788157 27.65495715 47.72355745 22.67258263 47.74474716 C17.98491671 47.7641392 13.29763642 47.7642474 8.60995674 47.7497139 C6.89270844 47.74762586 5.17543595 47.75232643 3.45822906 47.76443481 C-6.0860419 47.82735683 -13.51264973 47.87544151 -21.34397888 41.69038391 C-26.47633222 35.66478914 -28.75819118 29.07579642 -28.35569763 21.13569641 C-27.1648697 13.13834671 -22.93512975 8.22186106 -16.61351013 3.48725891 C-11.29573066 0.59836141 -5.96610177 0.00972869 0 0 Z " fill="#FFFFFF" transform="translate(896.3556976318359,1337.7393035888672)"/>
</svg>
