<?xml version="1.0" encoding="UTF-8"?>
<svg version="1.1" xmlns="http://www.w3.org/2000/svg" width="2000" height="2000">
<path d="M0 0 C1.27385562 -0.00327219 2.54771124 -0.00654439 3.86016855 -0.00991574 C5.2639901 -0.00850587 6.66781156 -0.00700388 8.07163292 -0.00541991 C9.57671654 -0.00737414 11.08179965 -0.00976348 12.58688197 -0.01254788 C16.73333581 -0.01894222 20.87977027 -0.01910995 25.02622811 -0.01827047 C29.53357628 -0.01844009 34.04091753 -0.02434753 38.54826224 -0.02951133 C47.49310601 -0.03883715 56.43794484 -0.04275936 65.38279287 -0.0450303 C76.09549639 -0.04799249 86.80819335 -0.05669011 97.52089342 -0.06544458 C123.41770063 -0.08629114 149.31450898 -0.09675978 175.21132262 -0.10557419 C187.46496994 -0.10978108 199.71861677 -0.11500307 211.97226368 -0.12025872 C253.92477599 -0.13815062 295.87728844 -0.15314554 337.829804 -0.16057891 C340.46379369 -0.16105366 343.09778337 -0.16152955 345.73177305 -0.16200657 C347.03798838 -0.16224294 348.34420372 -0.16247932 349.69000133 -0.16272286 C356.30786363 -0.16392405 362.92572593 -0.1651395 369.54358822 -0.16636485 C370.85692105 -0.166605 372.17025389 -0.16684515 373.52338469 -0.16709258 C416.08745879 -0.17498232 458.65150186 -0.19840659 501.21556427 -0.23092079 C546.22448343 -0.26523975 591.23338629 -0.28493205 636.24231875 -0.28822315 C641.18614668 -0.28864068 646.12997461 -0.28912024 651.07380253 -0.28964633 C652.2910976 -0.28976952 653.50839267 -0.28989271 654.76257547 -0.29001964 C674.33138281 -0.29234928 693.90015771 -0.30799631 713.4689535 -0.32848817 C733.15168975 -0.34877179 752.83438715 -0.35421151 772.51713192 -0.34471754 C784.20098145 -0.33951219 795.88470135 -0.34533434 807.56853216 -0.36725221 C815.38703932 -0.38080659 823.2054577 -0.37964251 831.02396584 -0.36685025 C835.46980581 -0.35998433 839.91539879 -0.3591775 844.36121624 -0.37641034 C900.14127467 -0.57892252 947.7643757 15.22692919 988.50281674 54.12880117 C989.48508236 55.03178945 989.48508236 55.03178945 990.48719174 55.95301992 C1013.14304723 77.36819761 1028.27219537 108.06430107 1036.31531674 137.75380117 C1036.49804135 138.41944082 1036.68076596 139.08508046 1036.86902767 139.77089101 C1037.48766009 142.2116875 1037.99600765 144.66199203 1038.50281674 147.12880117 C1038.87434337 148.90104983 1038.87434337 148.90104983 1039.25337559 150.7091015 C1042.06360837 165.37450141 1041.93439997 180.05104099 1041.89499074 194.92553777 C1041.88811804 198.77362698 1041.89872163 202.62167763 1041.90693051 206.46975881 C1041.92018397 213.98236538 1041.91742775 221.49488141 1041.90869258 229.00749134 C1041.90188261 235.12052721 1041.90101354 241.23353793 1041.90426403 247.34657651 C1041.90472373 248.22079262 1041.90518343 249.09500873 1041.90565706 249.99571623 C1041.90661636 251.77237847 1041.907589 253.54904069 1041.90857483 255.32570291 C1041.91710429 271.93754934 1041.9073334 288.54934589 1041.89117374 305.16118414 C1041.87777515 319.37396621 1041.88009963 333.58667472 1041.89393002 347.79945546 C1041.9100333 364.35541189 1041.91627808 380.91132473 1041.90709323 397.4672879 C1041.90613771 399.23726194 1041.9051946 401.007236 1041.90426403 402.77721006 C1041.90356979 404.08306214 1041.90356979 404.08306214 1041.90286153 405.41529508 C1041.90028566 411.51108633 1041.90461217 417.60684962 1041.91170269 423.70263654 C1041.920171 431.14563216 1041.91772684 438.58853303 1041.90186046 446.03151798 C1041.89404834 449.81940407 1041.89076324 453.60713299 1041.90080792 457.39501745 C1041.94872482 477.09383468 1041.25292445 496.12355019 1035.81531674 515.19130117 C1035.43294857 516.55315542 1035.43294857 516.55315542 1035.0428558 517.94252187 C1025.35291747 551.17715803 1005.50137582 584.15007468 978.50281674 606.12880117 C977.49605892 606.96153554 976.48930111 607.79426992 975.45203549 608.65223867 C966.92579489 615.59863155 957.99128404 621.57970002 948.50281674 627.12880117 C947.89889096 627.48571035 947.29496517 627.84261953 946.67273861 628.21034414 C932.88305145 636.26694237 917.8936719 641.98179409 902.44031674 645.94130117 C901.73560238 646.12394521 901.03088803 646.30658925 900.30481869 646.49476796 C884.89731956 650.17617571 869.58615996 651.56975382 853.7916351 651.27552968 C852.02332227 651.2549987 850.25498938 651.23614091 848.48664242 651.2187975 C844.72562154 651.18016007 840.96482499 651.13340708 837.20397145 651.08101255 C831.2471695 651.00161037 825.29050833 650.96270681 819.33327633 650.93274099 C818.32163684 650.92748814 817.30999734 650.92223529 816.2677021 650.91682327 C814.20201245 650.90618448 812.13632231 650.89564218 810.07063168 650.88519448 C796.2346601 650.81372749 782.40022185 650.71625435 768.56556088 650.50843984 C759.18323045 650.36781106 749.80276372 650.29128147 740.41934836 650.28818631 C735.46913222 650.28400126 730.52397905 650.24757425 725.57500416 650.13216001 C706.51115709 648.71771317 706.51115709 648.71771317 688.82279164 653.87376577 C684.85188159 657.9887329 682.86155641 662.48382288 681.25470883 667.90955812 C680.06817236 671.41167343 678.11090272 674.07676915 675.98328549 677.08973867 C675.27849056 678.14749501 674.57369564 679.20525136 673.8475433 680.29506093 C673.13565853 681.35394521 672.42377377 682.41282949 671.69031674 683.50380117 C671.30951962 684.07186483 670.9287225 684.63992849 670.53638607 685.2252062 C659.55335474 701.60850273 648.31204022 717.65713322 636.07215267 733.13026601 C634.2142664 735.49626742 632.39632673 737.89049432 630.58167416 740.28968984 C625.74661543 746.6720458 620.6157873 752.74389621 615.37391049 758.79286367 C612.86280861 761.69557491 610.42031148 764.64737003 608.00281674 767.62880117 C600.613054 776.70535757 593.21267626 785.78087132 584.73328549 793.87098867 C582.85195882 795.77537888 581.12141742 797.7142045 579.38074642 799.74427968 C575.50258484 804.19012788 571.4016965 808.37437434 567.22547299 812.53895742 C566.45529339 813.31009374 565.68511379 814.08123006 564.89159542 814.87573415 C563.273403 816.4946027 561.65396462 818.11222667 560.03333431 819.72865468 C557.57214442 822.18448835 555.11633865 824.64561481 552.66101986 827.10731679 C551.07865807 828.6890177 549.49598606 830.27040834 547.91297299 831.85145742 C547.1887666 832.57768804 546.46456021 833.30391866 545.71840817 834.05215627 C541.69474373 838.05763813 537.58067507 841.89682249 533.27338558 845.59634572 C530.50814707 847.98970356 527.8572626 850.50225056 525.19031674 853.00380117 C520.39286046 857.46706824 515.47119301 861.69854545 510.35828549 865.80067617 C507.73092307 867.94282117 505.16906664 870.13990862 502.614389 872.36708242 C494.87505641 879.1043167 486.83188322 885.37000648 478.6287933 891.53065664 C476.56887458 893.079144 474.51559029 894.63603253 472.46375424 896.19520742 C450.12429138 913.12721103 426.84391247 928.79636929 403.02185971 943.56337148 C401.22082003 944.68260645 399.42336012 945.80761013 397.62830502 946.93641835 C394.59295147 948.84446675 391.54889394 950.73792928 388.50281674 952.62880117 C387.57138851 953.2167748 386.63996029 953.80474843 385.68030697 954.41053945 C372.39623478 962.58954139 359.88802023 966.132538 344.50281674 962.50380117 C337.9300647 960.83047509 332.69643273 958.61466989 327.50281674 954.12880117 C326.46060971 953.24901601 326.46060971 953.24901601 325.39734799 952.35145742 C317.60929067 945.20631665 312.22503242 935.74586597 311.3319183 925.08973867 C311.27131859 923.01544049 311.27847507 920.95356895 311.31531674 918.87880117 C311.31596127 918.20462148 311.3166058 917.53044179 311.31726986 916.83583242 C311.35205866 912.68436965 311.62102371 908.59104861 311.99891049 904.45692617 C317.26012016 844.17401429 300.78343842 781.01521263 266.50281674 731.12880117 C266.10062924 730.5426 265.69844174 729.95639882 265.28406674 729.35243398 C257.75521877 718.45325016 249.55141682 708.262599 240.62391049 698.46864492 C238.69495339 696.34075302 236.81245321 694.18159258 234.94031674 692.00380117 C228.94614686 685.15919987 222.52055232 679.17860003 215.42469174 673.48426992 C211.49703891 670.31799364 207.6585859 667.04904094 203.81531674 663.78114492 C203.30711612 663.38108865 202.7989155 662.98103238 202.27531487 662.5688532 C200.50281674 661.12880117 200.50281674 661.12880117 198.42533356 659.15270787 C189.73099934 651.65109281 181.84048167 652.02568105 170.94983822 652.19227773 C169.08894227 652.19121849 167.22804547 652.18657732 165.3671661 652.17865163 C161.37489345 652.16921172 157.38379547 652.18474674 153.39166981 652.22002584 C147.05312393 652.27572892 140.71534861 652.27411144 134.37661129 652.26521474 C124.32481516 652.25772119 114.27353576 652.28739651 104.22185481 652.33343369 C86.28966681 652.41530584 68.35747649 652.45278595 50.42510426 652.44882542 C44.15150176 652.44913503 37.87850043 652.47189215 31.60503232 652.51183659 C-27.74510162 652.8549301 -78.56950677 638.58991457 -121.68468326 596.25380117 C-162.5240689 555.13788129 -173.86698258 501.91039878 -173.7586326 446.02535397 C-173.75402412 442.49289895 -173.76113253 438.96046194 -173.76659244 435.42801076 C-173.77540039 428.5419477 -173.77360333 421.65592868 -173.76776716 414.76986402 C-173.76321635 409.16419992 -173.76265238 403.55854801 -173.76481479 397.95288259 C-173.76512126 397.14945864 -173.76542773 396.34603469 -173.76574348 395.51826456 C-173.76638305 393.88519066 -173.76703148 392.25211677 -173.76768866 390.61904287 C-173.77336676 375.37148872 -173.7668739 360.12395876 -173.75608793 344.87640858 C-173.74715473 331.84545573 -173.74870748 318.81453853 -173.75792545 305.78358632 C-173.76867292 290.58374317 -173.77281767 275.38392113 -173.76670092 260.1840747 C-173.76606395 258.55762305 -173.7654352 256.9311714 -173.76481479 255.30471975 C-173.76450624 254.50485653 -173.76419769 253.70499332 -173.76387979 252.88089183 C-173.76216622 247.2939216 -173.76503876 241.70696497 -173.7697739 236.11999685 C-173.77543282 229.29424105 -173.77376259 222.46853114 -173.76321241 215.64278048 C-173.75802212 212.17248904 -173.75578251 208.70227357 -173.76251072 205.23198301 C-173.81853872 167.06772086 -170.11921152 131.15132536 -151.49718326 97.12880117 C-151.03054264 96.19809804 -150.56390201 95.26739492 -150.08312076 94.30848867 C-143.56554306 81.54013469 -134.77418549 69.95901182 -124.87218326 59.64442617 C-122.47091709 57.17045916 -122.47091709 57.17045916 -120.39171451 54.49208242 C-117.48889244 50.87103633 -114.05538255 48.09125933 -110.49718326 45.12880117 C-109.73317203 44.48032216 -109.73317203 44.48032216 -108.95372623 43.81874257 C-81.43819688 20.54375714 -49.04780676 6.42536129 -13.49718326 1.12880117 C-11.88893526 0.87385056 -11.88893526 0.87385056 -10.2481974 0.61374943 C-6.77775832 0.16507519 -3.49543971 0.00236081 0 0 Z M-29.37218326 98.69130117 C-30.24020572 99.12329824 -31.10822819 99.55529531 -32.00255436 100.0003832 C-55.00719459 111.86288343 -71.18151854 131.82353031 -79.49718326 156.12880117 C-82.74344697 166.37681012 -83.64567101 175.71188783 -83.63762516 186.41739064 C-83.64059628 187.65489361 -83.6435674 188.89239658 -83.64662856 190.16739964 C-83.65378723 193.59064946 -83.65648619 197.01384907 -83.65722603 200.43710274 C-83.65908266 204.13394754 -83.66663308 207.83078159 -83.67336124 211.52762014 C-83.68692083 219.60639889 -83.69296568 227.68517266 -83.6973719 235.7639609 C-83.70013856 240.81301921 -83.7043767 245.86207561 -83.70887607 250.91113263 C-83.72106604 264.90354874 -83.73136563 278.89596334 -83.73475116 292.88838464 C-83.73497073 293.78327074 -83.7351903 294.67815685 -83.73541652 295.60016071 C-83.73563479 296.49713177 -83.73585307 297.39410283 -83.73607796 298.31825483 C-83.73652142 300.13571884 -83.73696799 301.95318286 -83.73741764 303.77064687 C-83.73763907 304.6721629 -83.7378605 305.57367894 -83.73808864 306.50251364 C-83.74203414 321.10051706 -83.75948183 335.69847049 -83.78277716 350.29645462 C-83.80652712 365.30105047 -83.81895469 380.30562127 -83.82011908 395.31023622 C-83.82103384 403.72784408 -83.82673569 412.1453868 -83.8449387 420.56297666 C-83.860389 427.73267196 -83.86543123 434.902282 -83.85720059 442.0719908 C-83.85331135 445.72539384 -83.85413842 449.37862543 -83.86825794 453.03200704 C-83.88347197 457.00518601 -83.87507927 460.97812771 -83.86467594 464.95132619 C-83.87273234 466.08861986 -83.88078875 467.22591352 -83.88908929 468.39767063 C-83.74333442 492.34074127 -73.88153951 515.46277345 -57.17687076 532.48426992 C-55.85042545 533.79331289 -55.85042545 533.79331289 -54.49718326 535.12880117 C-53.75726139 535.86743398 -53.01733951 536.60606679 -52.25499576 537.36708242 C-40.93553833 548.04386004 -26.98952426 554.80549665 -12.12218326 558.87880117 C-10.99078922 559.19530629 -10.99078922 559.19530629 -9.83653873 559.51820546 C3.16108325 562.88003998 16.8076739 562.27497222 30.13172299 562.27064687 C32.08296686 562.27368466 34.03421003 562.27720781 35.98545223 562.28117543 C40.16335015 562.28901538 44.34123971 562.29419059 48.51914364 562.2974661 C55.13555357 562.30341738 61.75191089 562.31999461 68.36829525 562.33880788 C70.6407409 562.34514374 72.91318658 562.35146938 75.18563229 562.35778505 C76.89166339 562.36253376 76.89166339 562.36253376 78.63215977 562.36737841 C94.01709628 562.40933706 109.40200642 562.44244203 124.78699642 562.4547289 C135.19199377 562.4631235 145.59685859 562.48565852 156.00178963 562.52408457 C161.49674311 562.54378313 166.9914988 562.55627004 172.48648983 562.55125028 C177.65445756 562.54658567 182.82205 562.56050796 187.98994213 562.58826238 C189.87762237 562.59514129 191.76534169 562.59533659 193.65302044 562.58806211 C207.39760136 562.54047411 219.43994069 563.65979383 231.19031674 571.56630117 C231.84475765 571.99096669 232.49919857 572.41563222 233.17347103 572.8531664 C245.44972133 580.9220701 257.29747136 589.62934419 268.50281674 599.12880117 C269.49023861 599.94348867 270.47766049 600.75817617 271.49500424 601.59755117 C277.88857157 606.89344259 284.05729828 612.40286373 290.12781674 618.06630117 C290.81512875 618.70519277 291.50244076 619.34408437 292.21058041 620.00233632 C292.85615902 620.60996816 293.50173764 621.2176 294.16687924 621.84364492 C294.73873959 622.38110341 295.31059994 622.91856191 295.89978939 623.47230703 C297.50281674 625.12880117 297.50281674 625.12880117 299.08631283 627.33412343 C299.55375912 627.92636708 300.02120541 628.51861074 300.50281674 629.12880117 C301.16281674 629.12880117 301.82281674 629.12880117 302.50281674 629.12880117 C302.7722308 629.72950429 303.04164486 630.33020742 303.31922299 630.94911367 C304.51084718 633.14358991 305.60348756 634.34212196 307.44031674 636.00380117 C312.55412874 640.96938673 316.748161 646.67614203 321.08533627 652.30995351 C322.39851076 653.99496039 323.73701732 655.65367116 325.09266049 657.30458242 C350.79981101 688.79742327 370.32091371 725.77965386 383.50281674 764.12880117 C383.81944271 765.03904042 384.13606869 765.94927968 384.46228939 766.88710195 C392.22838632 789.43108775 396.92733145 812.5896548 400.50281674 836.12880117 C404.18414805 834.80936979 407.00105036 833.20546168 410.09266049 830.82020742 C411.38236752 829.83153676 411.38236752 829.83153676 412.69812924 828.82289296 C414.05551205 827.76775502 414.05551205 827.76775502 415.44031674 826.69130117 C416.84603939 825.60812612 416.84603939 825.60812612 418.28016049 824.50306875 C421.02571769 822.38426606 423.76482885 820.25737095 426.50281674 818.12880117 C427.84775944 817.08959709 429.19279773 816.05051671 430.53797299 815.01161367 C437.80743718 809.37256219 444.87891987 803.52523877 451.85975033 797.53358632 C453.52152111 796.11280934 455.19265652 794.70377363 456.86609799 793.29676992 C465.34585371 786.14035355 473.45669509 778.64080117 481.50916439 771.00917226 C483.44878165 769.17976593 485.40045275 767.36446558 487.35828549 765.55458242 C503.31472109 750.81536914 503.31472109 750.81536914 518.00672299 734.83973867 C519.55399279 733.07027607 521.18756982 731.44905669 522.87781674 729.81630117 C526.60113744 726.15917283 529.79102387 722.1378367 533.05750424 718.07411367 C535.56448119 715.054528 538.19520575 712.17797395 540.87781674 709.31630117 C546.27937458 703.51462793 551.15585461 697.38413503 555.98133236 691.10048085 C557.62738165 688.96737847 559.29012834 686.84806346 560.95594174 684.73036367 C567.63680459 676.22381591 574.13124803 667.63194838 580.33924252 658.77479726 C581.86565554 656.61552815 583.42962051 654.4839821 584.98841244 652.34803945 C597.48558138 635.12159451 608.56304573 616.93608054 619.53016049 598.71473867 C620.85368284 596.51900625 622.17790815 594.32369741 623.50281674 592.12880117 C623.85370358 591.54650747 624.20459042 590.96421376 624.56611019 590.3642748 C625.62583883 588.60896235 626.69062913 586.85681586 627.75672299 585.10536367 C628.38006527 584.07749746 629.00340756 583.04963125 629.645639 581.99061757 C636.44588923 571.51177792 645.25077219 565.85080212 657.50281674 563.12880117 C664.04319783 562.27283006 670.65973925 562.45649574 677.24183041 562.50111562 C679.1933449 562.49592653 681.14485454 562.4885186 683.09635311 562.47908193 C687.27325891 562.46360381 691.44976299 562.46362775 695.62667805 562.47608548 C702.24911333 562.49576359 708.87119739 562.4803448 715.49361569 562.46063405 C725.98201259 562.43355128 736.47026462 562.42997928 746.95868957 562.43640709 C765.70878807 562.44735345 784.45884183 562.42250904 803.20889604 562.38265944 C809.77354903 562.36968941 816.33806888 562.36826927 822.90272802 562.37679237 C827.00956041 562.38045302 831.11635972 562.37607615 835.22318798 562.36995107 C837.10675009 562.36887837 838.99031804 562.37115234 840.87387043 562.37729627 C850.2229082 562.40629158 859.46283041 562.19473822 868.76912838 561.24273854 C869.9087908 561.12720599 869.9087908 561.12720599 871.0714767 561.00933945 C889.53692168 558.90904235 906.63275264 550.30421458 920.50281674 538.12880117 C921.32523861 537.49716054 922.14766049 536.86551992 922.99500424 536.21473867 C939.36933313 522.59496977 949.47397257 499.79590574 952.50281674 479.12880117 C952.58935893 477.30429505 952.63176888 475.47726093 952.6342445 473.65070516 C952.63808565 472.58147361 952.64192679 471.51224205 952.64588434 470.41060954 C952.64458461 468.66520436 952.64458461 468.66520436 952.64325863 466.88453847 C952.64622975 465.63972282 952.64920088 464.39490717 952.65226203 463.11236984 C952.65942857 459.66405764 952.66212028 456.21579529 952.6628595 452.76747924 C952.66471424 449.04539512 952.67226379 445.3233217 952.67899472 441.60124379 C952.69256273 433.46455642 952.69860065 425.32787399 952.70300537 417.19117719 C952.70577095 412.10644471 952.71000893 407.02171413 952.71450955 401.93698293 C952.72670127 387.84767191 952.73700009 373.7583624 952.74038464 359.66904622 C952.74071399 358.31701155 952.74071399 358.31701155 952.74104999 356.93766305 C952.74126827 356.03419399 952.74148655 355.13072494 952.74171144 354.19987804 C952.7421549 352.3692196 952.74260146 350.53856116 952.74305111 348.70790273 C952.74327254 347.79983996 952.74349397 346.8917772 952.74372211 345.95619738 C952.74766696 331.25466611 952.76511186 316.55318451 952.78841063 301.85167241 C952.81216029 286.74314709 952.82458817 271.63464665 952.82575256 256.52610236 C952.8266674 248.04923498 952.83237135 239.57243228 952.85057217 231.09558278 C952.86602215 223.87462649 952.87106494 216.65375485 952.86283407 209.43278515 C952.85894453 205.75306106 952.85977331 202.07350719 952.87389141 198.39380437 C952.88910366 194.39205954 952.88071358 190.39069324 952.87030941 186.388933 C952.88239402 184.67029648 952.88239402 184.67029648 952.89472276 182.91694003 C952.75064358 159.08332901 943.02273405 137.84886002 927.50281674 120.12880117 C926.85055111 119.38114492 926.19828549 118.63348867 925.52625424 117.86317617 C908.53626637 99.66416294 884.52290916 90.65206092 860.00921971 89.76262742 C851.64925527 89.55406329 843.2860031 89.58715094 834.92416672 89.61493095 C830.49287248 89.62517113 826.06163308 89.61200152 821.63034683 89.60195762 C813.88045084 89.58757297 806.1306665 89.58791066 798.3807655 89.59814626 C786.85607616 89.61332574 775.33148036 89.60551561 763.80679157 89.59331303 C743.21934691 89.57228486 722.631952 89.57406175 702.04450265 89.58562868 C684.02780457 89.59570124 666.01112471 89.59831289 647.9944244 89.59353811 C646.19997587 89.59307979 646.19997587 89.59307979 644.36927585 89.59261223 C639.51279057 89.59136682 634.65630531 89.59009321 629.79982005 89.58877317 C584.26646223 89.57654432 538.73313604 89.58761967 493.1997831 89.60916076 C452.76920185 89.62814238 412.33867099 89.62644384 371.90809017 89.60731679 C326.45662529 89.58588619 281.00518834 89.57741168 235.5537191 89.58976585 C230.70621577 89.59104867 225.85871242 89.59230003 221.01120907 89.59353811 C219.2209143 89.59401257 219.2209143 89.59401257 217.39445195 89.59449662 C199.39155423 89.59904152 181.38867674 89.59373471 163.38578182 89.58361989 C142.91034675 89.57217307 122.43496908 89.57506307 101.95954114 89.59674287 C90.50807826 89.6084688 79.05673979 89.60928257 67.60528019 89.59415817 C59.94722847 89.58516154 52.28927608 89.59081963 44.63123902 89.60817725 C40.27400224 89.61765289 35.91701183 89.62102907 31.55978316 89.60655332 C0.20148266 89.23594515 0.20148266 89.23594515 -29.37218326 98.69130117 Z " fill="#FFFFFF" transform="translate(930.4971832633018,18.87119883298874)"/>
<path d="M0 0 C1.48258924 -0.00134949 2.96517814 -0.00313498 4.44776639 -0.00531223 C8.50376629 -0.01001229 12.55974355 -0.00855035 16.61574451 -0.00603446 C21.03540637 -0.00439438 25.45506352 -0.00854803 29.87472385 -0.01194364 C37.61505026 -0.01708776 45.35537041 -0.01851655 53.09569836 -0.01748753 C64.60629193 -0.01596101 76.1168786 -0.02012788 87.62747083 -0.02536215 C109.38335576 -0.03502904 131.13923833 -0.03784615 152.89512516 -0.03841921 C169.69765847 -0.0388789 186.50019087 -0.04093803 203.30272388 -0.04411983 C208.14083367 -0.04501739 212.97894347 -0.04590721 217.81705326 -0.04679471 C219.01985276 -0.04701576 220.22265225 -0.04723681 221.46190022 -0.04746456 C255.29097833 -0.05361809 289.12005613 -0.05756519 322.94913483 -0.05712128 C324.22436351 -0.0571057 325.4995922 -0.05709012 326.81346418 -0.05707407 C333.27672276 -0.05699096 339.73998134 -0.05689192 346.20323993 -0.05678936 C348.12864819 -0.05675944 348.12864819 -0.05675944 350.09295358 -0.05672892 C352.68871656 -0.05668848 355.28447953 -0.05664669 357.88024251 -0.05660353 C398.26267645 -0.05599083 438.64510199 -0.06349669 479.02753353 -0.07717609 C524.40679243 -0.09254185 569.7860458 -0.10114202 615.16530746 -0.10021287 C620.00561774 -0.10013824 624.84592801 -0.10008954 629.68623829 -0.10005856 C630.87802734 -0.1000469 632.06981639 -0.10003525 633.29772026 -0.10002324 C652.46342873 -0.09999249 671.6291299 -0.10637401 690.79483621 -0.11499082 C710.06228738 -0.12347411 729.32972789 -0.12445195 748.5971799 -0.1178815 C760.0374674 -0.11419039 771.47772247 -0.11600512 782.91800652 -0.12582384 C790.56884775 -0.13183434 798.21966555 -0.13051648 805.87050571 -0.12335334 C810.22370219 -0.11948089 814.57683603 -0.11866993 818.93002803 -0.12681069 C860.73848328 -0.19991043 860.73848328 -0.19991043 880.46283627 4.31613445 C881.41658138 4.53116619 882.3703265 4.74619793 883.35297298 4.96774578 C914.43891 12.27162705 941.12793228 27.09188751 964.96283627 48.12863445 C966.08069557 49.02525415 967.19917947 49.92109572 968.31830502 50.81613445 C969.19100033 51.57925945 970.06369564 52.34238445 970.96283627 53.12863445 C970.96283627 53.78863445 970.96283627 54.44863445 970.96283627 55.12863445 C971.95283627 55.45863445 972.94283627 55.78863445 973.96283627 56.12863445 C976.54361726 58.56214262 978.71350417 61.3908525 980.96283627 64.12863445 C981.79299252 65.12250164 982.62314877 66.11636883 983.47846127 67.1403532 C1010.17477548 99.67557836 1025.13447211 140.78979752 1025.10327816 182.86964703 C1025.10773484 184.76287527 1025.10773484 184.76287527 1025.11228156 186.69435054 C1025.12029801 190.17743648 1025.12213813 193.66050175 1025.12287903 197.14359581 C1025.12473909 200.90872532 1025.13229136 204.67384433 1025.13901424 208.4389677 C1025.1525621 216.66485473 1025.15861734 224.89073686 1025.1630249 233.11663318 C1025.16579453 238.26258525 1025.17003329 243.40853546 1025.17452908 248.55448627 C1025.18671937 262.82833742 1025.19701769 277.10218708 1025.20040417 291.37604332 C1025.20062373 292.28861996 1025.2008433 293.20119661 1025.20106952 294.14142709 C1025.2012878 295.05608291 1025.20150607 295.97073873 1025.20173097 296.91311139 C1025.20217442 298.76628379 1025.20262098 300.61945619 1025.20307064 302.47262859 C1025.20329207 303.39184944 1025.2035135 304.3110703 1025.20374164 305.25814632 C1025.20768272 320.12544508 1025.22511672 334.99269463 1025.24843016 349.85997441 C1025.27222413 365.15847539 1025.28460974 380.45695176 1025.28577209 395.75547153 C1025.28668458 404.33091782 1025.29232836 412.90630005 1025.3105917 421.48172855 C1025.32610201 428.78985187 1025.33104964 436.09789132 1025.3228536 443.406028 C1025.31898472 447.12524362 1025.31968857 450.84429096 1025.33391094 454.56348515 C1025.40728848 474.92294723 1024.72387168 495.00626687 1019.27533627 514.75363445 C1019.02114925 515.69545574 1018.76696224 516.63727703 1018.50507259 517.60763836 C1005.11620605 565.40040171 972.78396698 604.64223346 929.96283627 629.12863445 C912.35782033 638.81436202 892.76060649 645.70917329 872.96283627 649.12863445 C871.97066916 649.30703806 870.97850204 649.48544167 869.95626926 649.66925144 C859.81882994 651.31668662 849.90868482 651.38201291 839.66351986 651.32052898 C837.75976891 651.31672225 835.85601574 651.31391787 833.95226192 651.31202984 C829.88020898 651.30662118 825.80822262 651.29568485 821.73619366 651.28076839 C815.28800217 651.25868535 808.83992121 651.25840041 802.39169979 651.26263714 C800.17630483 651.26383019 797.96090986 651.2649992 795.74551487 651.26614475 C794.63685039 651.266725 793.52818591 651.26730525 792.38592553 651.26790309 C777.39453835 651.27391184 762.40335146 651.26146439 747.41205502 651.20773602 C737.26922919 651.17155919 727.12680611 651.16387958 716.98393977 651.18823421 C711.62791991 651.19988973 706.27280322 651.1969679 700.91688824 651.1587286 C695.88157934 651.12288207 690.84763942 651.12444874 685.81230259 651.15395832 C683.9725443 651.15815954 682.13269402 651.14885889 680.29309177 651.12453175 C668.34251198 650.97614965 661.32439172 652.13013019 651.96283627 660.12863445 C650.70989473 661.05888203 649.45237722 661.98309196 648.18549252 662.89425945 C647.12736275 663.71631375 646.07389246 664.54440321 645.02533627 665.37863445 C644.45033382 665.83262615 643.87533138 666.28661785 643.28290462 666.75436687 C637.88701761 671.07652613 632.82975468 675.73503112 627.80268002 680.4762907 C625.61035556 682.52386746 623.40319902 684.47580849 621.08783627 686.37863445 C618.02940914 688.9584813 615.47650282 691.84125792 612.89252377 694.8903532 C610.75407332 697.37078257 608.51648623 699.7406999 606.27533627 702.12863445 C591.29856234 718.58263191 579.35460525 737.53509353 568.96283627 757.12863445 C568.60447689 757.80007488 568.24611752 758.47151531 567.87689877 759.16330242 C547.28606547 798.03237072 537.7086725 841.00809058 537.83783627 884.81613445 C537.83425945 886.15272392 537.83035393 887.48931254 537.82611752 888.82590008 C537.83273155 895.49615076 538.04131407 902.04747825 538.72699642 908.68210125 C540.25450941 924.52807196 538.30622799 937.85505265 528.33783627 950.75363445 C522.18741775 957.56981992 512.66893535 963.33319352 503.43939877 964.42795086 C500.66977074 964.56653305 497.92318343 964.58721346 495.15033627 964.56613445 C494.22930111 964.58611492 493.30826595 964.60609539 492.35932064 964.62668133 C479.67405996 964.61780431 470.15487769 958.81935657 459.65033627 952.25363445 C458.41285166 951.48941249 457.17497082 950.72583181 455.93671322 949.96286297 C452.84400549 948.05296046 449.75977697 946.12985486 446.67865658 944.20132732 C445.08656177 943.2059849 443.49161323 942.21521111 441.89643002 941.22482586 C428.44614362 932.86927484 415.37880501 924.0247635 402.44965267 914.88547039 C400.31690176 913.37876751 398.1786495 911.88053003 396.03705502 910.38644695 C382.93438938 901.1983776 370.38884842 891.20608761 357.96283627 881.12863445 C357.10947689 880.43769695 356.25611752 879.74675945 355.37689877 879.03488445 C345.26284151 870.80453413 335.28081901 862.45364238 325.69330502 853.61300945 C323.51532699 851.63132988 321.31667967 849.68627205 319.09564877 847.75363445 C306.85455672 837.0668531 295.33496157 825.60229426 283.83783627 814.12863445 C283.25134304 813.54472942 282.66484982 812.96082439 282.06058407 812.35922527 C276.34638727 806.66493229 270.67318542 800.98795644 265.43500423 794.84591961 C263.07194184 792.08940537 260.57143166 789.46360283 258.08783627 786.81613445 C253.54935103 781.94277896 249.26934829 776.92559468 245.09955502 771.73019695 C243.00401133 769.17876716 240.82320472 766.74536672 238.58783627 764.31613445 C233.58790883 758.81535073 229.04417245 752.99254454 224.50336361 747.11496258 C222.88107174 745.02320875 221.24550078 742.94237656 219.60736752 740.86300945 C211.44427127 730.47901207 203.60043672 719.90414641 195.96283627 709.12863445 C195.385014 708.31604168 194.80719173 707.50344891 194.2118597 706.66623211 C186.67983049 696.05927563 179.35500838 685.35099171 172.38519955 674.36593914 C170.80341034 671.87786563 169.20931941 669.39787385 167.61518002 666.91769695 C166.50142023 665.17581533 165.38812942 663.43363375 164.27533627 661.69113445 C163.48038754 660.4554472 163.48038754 660.4554472 162.66937923 659.19479656 C161.94258968 658.05022991 161.94258968 658.05022991 161.20111752 656.8825407 C160.76839535 656.20521893 160.33567318 655.52789715 159.88983822 654.83005047 C158.96283627 653.12863445 158.96283627 653.12863445 158.96283627 651.12863445 C157.57497339 651.13416521 157.57497339 651.13416521 156.15907288 651.1398077 C133.53484661 651.22902737 110.91064345 651.29453588 88.28627777 651.33588314 C77.34482244 651.35641528 66.40348405 651.38435466 55.46210384 651.43039227 C45.91377247 651.47054887 36.36552588 651.49613497 26.81711239 651.50498843 C21.7720138 651.51015494 16.72715756 651.52209728 11.68213749 651.55155468 C-13.99955757 651.6956443 -39.26901287 651.79622757 -63.78716373 643.00363445 C-65.45863468 642.42222698 -65.45863468 642.42222698 -67.16387272 641.82907391 C-89.37492504 633.89734887 -109.28331209 622.70566034 -127.03716373 607.12863445 C-127.90856998 606.36679852 -128.77997623 605.60496258 -129.67778873 604.8200407 C-132.15859387 602.61776907 -134.60498688 600.38438397 -137.03716373 598.12863445 C-137.62884342 597.59109539 -138.22052311 597.05355633 -138.83013248 596.4997282 C-170.51202913 566.4734176 -189.98959 519.5327909 -191.32018185 476.27067089 C-191.4559814 469.01770016 -191.45953828 461.76511628 -191.44399679 454.51123381 C-191.43919741 450.72374705 -191.45183376 446.93630776 -191.4620142 443.14883709 C-191.47907761 435.75782328 -191.4800683 428.36689495 -191.47480129 420.97586659 C-191.47073459 414.9587441 -191.47223256 408.94164658 -191.47754955 402.92452526 C-191.47829797 402.06312519 -191.4790464 401.20172512 -191.4798175 400.31422202 C-191.48134922 398.56341952 -191.48288757 396.81261701 -191.48443247 395.06181452 C-191.49811266 378.69874887 -191.49275168 362.33573123 -191.48124725 345.97266671 C-191.47132155 331.05963355 -191.4842521 316.14672458 -191.50818145 301.23371056 C-191.53266589 285.85683343 -191.54215736 270.48001391 -191.53552872 255.1031177 C-191.53205691 246.49588676 -191.53413222 237.88875116 -191.55177975 229.28153515 C-191.56661943 221.95399411 -191.56698584 214.62661555 -191.54970884 207.2990773 C-191.54129156 203.57329232 -191.53881625 199.84779607 -191.55436039 196.1220274 C-191.72651161 151.60853794 -181.79648813 107.31651372 -153.03716373 72.12863445 C-152.21860905 71.10769695 -151.40005436 70.08675945 -150.55669498 69.03488445 C-119.98261074 31.49781757 -76.32542959 6.79166085 -28.03716373 1.12863445 C-18.68494562 0.20384914 -9.39177416 -0.0149314 0 0 Z M-46.03716373 98.12863445 C-47.06841373 98.58238445 -48.09966373 99.03613445 -49.16216373 99.50363445 C-56.29485872 102.85163414 -62.0914429 106.99323332 -68.03716373 112.12863445 C-68.70103092 112.64812664 -69.36489811 113.16761883 -70.04888248 113.7028532 C-89.74387875 129.56271835 -99.25729182 153.68208955 -102.03716373 178.12863445 C-102.28342408 182.39536419 -102.30850125 186.64431098 -102.29113102 190.91733074 C-102.294251 192.12406271 -102.29737098 193.33079469 -102.30058551 194.5740943 C-102.30711938 197.87895051 -102.30485391 201.18365634 -102.29861307 204.48850846 C-102.2940486 208.07002999 -102.30109195 211.65153268 -102.30657291 215.23305035 C-102.31542631 222.23162806 -102.31356308 229.23016266 -102.30774763 236.228742 C-102.3032151 241.92098776 -102.30262509 247.61322151 -102.30479527 253.30546856 C-102.30510173 254.11826115 -102.3054082 254.93105373 -102.30572395 255.7684764 C-102.30636346 257.42008969 -102.30701188 259.07170297 -102.30766913 260.72331625 C-102.31336055 276.17943692 -102.30683323 291.63553379 -102.2960684 307.09165055 C-102.28713397 320.32908808 -102.28868635 333.56649052 -102.29790592 346.80392742 C-102.3086296 362.20797696 -102.31281134 377.61200569 -102.30668139 393.01605844 C-102.30604435 394.66130574 -102.30541561 396.30655304 -102.30479527 397.95180035 C-102.30448671 398.76111308 -102.30417816 399.57042581 -102.30386026 400.40426317 C-102.30213961 406.08402392 -102.30503479 411.76377139 -102.30975437 417.44353008 C-102.31538657 424.37333296 -102.31379788 431.30309059 -102.30319288 438.23288834 C-102.29796747 441.7627598 -102.29582543 445.29255604 -102.30249119 448.8224268 C-102.3079923 452.66167123 -102.30105728 456.50070687 -102.29113102 460.33993816 C-102.29559246 461.43743845 -102.30005391 462.53493875 -102.30465055 463.66569662 C-102.18295533 488.09209176 -94.86379416 512.04867339 -78.03716373 530.12863445 C-77.59388737 530.61815594 -77.150611 531.10767742 -76.69390202 531.61203289 C-61.32290107 548.48642794 -40.68305279 558.95250376 -18.03716373 562.12863445 C-15.17043649 562.22274162 -12.32823122 562.27055339 -9.4619379 562.26666546 C-8.1867546 562.27089738 -8.1867546 562.27089738 -6.88581002 562.27521479 C-4.0441621 562.2835313 -1.20255328 562.28489652 1.6391058 562.2863493 C3.67960882 562.29101975 5.7201108 562.2961637 7.76061153 562.30174541 C12.1525338 562.31301289 16.54444934 562.32145365 20.93638134 562.32786465 C27.88800474 562.33856246 34.83957979 562.35881273 41.79117489 562.38098431 C61.55833371 562.44284659 81.32548964 562.49688708 101.09271908 562.53000164 C112.01182921 562.5483737 122.93085823 562.57734208 133.84990871 562.61800635 C139.62379948 562.63903261 145.39758822 562.65452743 151.17151928 562.65681362 C156.60690614 562.65896834 162.0420806 562.67492168 167.47740269 562.70120335 C169.46547618 562.7083664 171.4535755 562.71051194 173.44165897 562.70710087 C185.72000525 562.6894086 197.73655402 562.68996283 208.77533627 568.87863445 C209.60678158 569.3272282 210.43822689 569.77582195 211.29486752 570.23800945 C219.13789614 575.79588039 223.37837573 582.73277126 227.96283627 591.06613445 C229.27839631 593.40021918 230.59658862 595.73253862 231.91986752 598.0622282 C232.2539613 598.65212536 232.58805508 599.24202251 232.93227291 599.84979534 C242.15462786 616.0678881 252.41923848 631.74223333 262.96283627 647.12863445 C263.43221615 647.81409344 263.90159603 648.49955242 264.38519955 649.20578289 C272.8371078 661.48841215 281.84988846 673.33171974 290.96283627 685.12863445 C291.4879681 685.81119305 292.01309994 686.49375164 292.55414486 687.19699383 C301.6914379 699.060415 311.36814196 710.42025774 321.51361752 721.43332195 C323.48136213 723.59878253 325.41345445 725.78494121 327.33393002 727.9919157 C336.44979228 738.43521194 346.11668178 748.37586416 355.90033627 758.19113445 C356.68054134 758.97593182 357.46074642 759.76072918 358.26459408 760.56930828 C362.44781682 764.74137219 366.70913303 768.75124985 371.20795345 772.58200359 C372.98627514 774.14929184 374.63406997 775.7942972 376.27533627 777.50363445 C379.95346053 781.24848206 383.99726497 784.4637159 388.08393002 787.7497282 C390.90689223 790.08240662 393.59320238 792.5111065 396.27533627 795.00363445 C401.40762546 799.72097261 406.78216992 804.01260571 412.29096127 808.2731657 C415.42230497 810.69535215 418.50433743 813.17336728 421.57953548 815.66623211 C428.19821632 821.02535585 434.96056773 826.09242641 441.93939877 830.97238445 C443.92061671 832.38534609 445.85690258 833.86403548 447.73627377 835.40988445 C449.7579045 837.33231851 449.7579045 837.33231851 451.96283627 837.12863445 C452.07764339 836.39676922 452.19245052 835.66490398 452.31073666 834.91086102 C455.81219481 812.89974057 460.38023489 791.41049861 467.0778265 770.11984539 C467.82727416 767.58681567 468.42357117 765.10814365 468.93158627 762.51925945 C470.07930739 757.03514852 472.26951509 752.01593217 474.46283627 746.87863445 C474.90788509 745.82869305 475.35293392 744.77875164 475.81146908 743.69699383 C485.76779983 720.41644031 497.21573384 697.79206453 511.96283627 677.12863445 C512.36534603 676.56450848 512.7678558 676.0003825 513.18256283 675.4191618 C522.5480563 662.34837132 532.23162615 649.71532921 543.26752377 638.0075407 C545.35651815 635.77625249 547.36637269 633.52419813 549.33783627 631.19113445 C557.13246485 622.18996631 565.84371104 613.77361538 574.96283627 606.12863445 C575.85486752 605.34746258 576.74689877 604.5662907 577.66596127 603.76144695 C624.78244722 562.71420325 624.78244722 562.71420325 651.86518002 562.87707806 C652.71433766 562.87410792 653.56349531 562.87113778 654.43838501 562.86807764 C657.25910587 562.86049234 660.0796151 562.8669092 662.90033627 562.87326336 C664.93316952 562.87051077 666.96600169 562.86682925 668.99883175 562.86229229 C673.36615103 562.85420003 677.73341917 562.85200693 682.1007452 562.85423946 C689.0203939 562.85708242 695.9399413 562.84268242 702.85956478 562.82525921 C722.53313325 562.77833067 742.20669475 562.75430711 761.88031673 562.74777508 C772.75409159 562.74401247 783.6277516 562.72588597 794.50147724 562.69268072 C801.36528996 562.67257315 808.22880429 562.67004437 815.0926342 562.68096089 C819.38407576 562.68358707 823.6753473 562.66947123 827.96674442 562.65087986 C829.93982539 562.64560346 831.91293858 562.64697552 833.88600636 562.65591526 C863.46823864 562.77901585 887.90810606 553.50688483 909.52533627 533.00363445 C921.0995534 521.16785309 928.4801242 506.40123342 932.77533627 490.50363445 C932.98255306 489.74026775 933.18976986 488.97690105 933.40326595 488.19040203 C935.91871865 478.25054618 936.11122251 468.19111935 936.09654903 457.98663616 C936.09881459 456.81316903 936.10108015 455.63970189 936.10341436 454.43067515 C936.10861456 451.20468435 936.10940528 447.97872899 936.10821998 444.75273538 C936.10801458 441.26108773 936.11354801 437.76944818 936.11827755 434.27780437 C936.12655486 427.44827078 936.12933107 420.61874582 936.12988993 413.78920762 C936.13036652 408.23231107 936.13242842 402.67541735 936.13559055 397.11852169 C936.14438954 381.33241798 936.14901117 365.54632104 936.14826008 349.76021485 C936.14822012 348.91064586 936.14818017 348.06107687 936.148139 347.18576336 C936.14809812 346.3351461 936.14805724 345.48452884 936.14801512 344.6081353 C936.14760897 330.83367306 936.15717259 317.05923821 936.17127737 303.28478388 C936.18567586 289.11060607 936.19254563 274.93644157 936.19168359 260.76225626 C936.19135279 252.81691018 936.19404805 244.87159278 936.20486164 236.92625332 C936.21401254 230.15969377 936.21610455 223.39317592 936.20935222 216.62661283 C936.20610986 213.18144781 936.20594647 209.73636259 936.21470547 206.29120541 C936.2805261 174.57843078 933.43317551 148.56029638 912.96283627 123.12863445 C912.17908627 122.07675945 911.39533627 121.02488445 910.58783627 119.94113445 C903.47894673 112.3244671 894.92365226 106.36564586 885.96283627 101.12863445 C885.1984222 100.67746258 884.43400814 100.2262907 883.64643002 99.76144695 C878.4203909 96.91409569 873.01819824 95.07622802 867.33783627 93.37863445 C866.63320248 93.1677116 865.92856869 92.95678875 865.20258236 92.7394743 C855.65739736 90.02278494 846.31467454 89.98384465 836.44885826 89.99720669 C834.96205618 89.99555551 833.47525453 89.99346853 831.9884536 89.99098659 C827.89748164 89.9854301 823.80653066 89.98609048 819.71555614 89.98776418 C815.26674787 89.98849593 810.81794548 89.9834708 806.36913973 89.97918916 C797.5431046 89.97161175 788.71707551 89.96941623 779.89103746 89.9688601 C769.3201624 89.96794621 758.74929294 89.96127795 748.17842028 89.95451328 C722.62967119 89.93845395 697.0809227 89.93255021 671.53216947 89.92776453 C659.44669099 89.92542866 647.36121299 89.92182603 635.27573488 89.91806915 C593.90794936 89.90523411 552.5401641 89.89451456 511.17237663 89.89106655 C508.57560918 89.89084492 505.97884172 89.89062313 503.38207427 89.8904012 C500.77903072 89.89018056 498.17598718 89.88996008 495.57294363 89.88973975 C490.35077568 89.8892972 485.12860773 89.88885008 479.90643978 89.88840008 C478.61164596 89.88829069 477.31685213 89.8881813 475.98282213 89.88806859 C433.99305287 89.88443744 392.00330086 89.86851496 350.0135382 89.84520971 C305.62183753 89.82061637 261.23014673 89.80689396 216.83843905 89.80569863 C211.96584292 89.80552718 207.0932468 89.80531175 202.22065067 89.8050642 C201.02087625 89.80500843 199.82110183 89.80495266 198.58497061 89.80489521 C179.273871 89.80374437 159.96278909 89.7927197 140.65169546 89.77817715 C121.24369161 89.76381427 101.83571048 89.760574 82.42770278 89.76861712 C70.89750245 89.77307424 59.36737542 89.76920942 47.83718472 89.75337862 C40.13261615 89.74362891 32.42809893 89.74480681 24.72353083 89.75481485 C20.33543529 89.76020686 15.9474805 89.76091698 11.55939662 89.74830613 C7.56022464 89.7369091 3.561307 89.73955476 -0.43785647 89.7529732 C-1.86867358 89.7553906 -3.29951067 89.75288252 -4.73030572 89.74457672 C-19.42948158 89.66491977 -32.52856226 92.1848498 -46.03716373 98.12863445 Z " fill="#FFFFFF" transform="translate(237.03716373443604,1016.8713655471802)"/>
<path d="M0 0 C2.07339154 -0.0043576 4.14678147 -0.0095442 6.22016907 -0.01548767 C11.80738299 -0.02877954 17.39452886 -0.02946712 22.9817555 -0.02692437 C27.6702102 -0.02584747 32.35865153 -0.03075652 37.04710335 -0.03552979 C48.12418603 -0.04659213 59.20123479 -0.04708156 70.27832031 -0.04101562 C81.64694208 -0.03498498 93.0154398 -0.04727136 104.38404042 -0.06858569 C114.19526498 -0.08629337 124.00645039 -0.09218851 133.81769031 -0.08894795 C139.65495395 -0.08714872 145.49212919 -0.08963307 151.32937813 -0.10366249 C156.82810358 -0.11638563 162.32663819 -0.11416224 167.82536125 -0.1012516 C169.82334843 -0.09891702 171.82134966 -0.10150573 173.81932068 -0.10987473 C235.82922991 -0.35052687 296.00720896 23.34803756 341.23217773 65.7902832 C343.45201441 67.85434187 345.70916489 69.82595242 348.02905273 71.7746582 C391.2341246 109.45660748 415.80582874 171.43421097 420.90405273 227.2746582 C421.05846142 230.20324815 421.11277722 233.1275325 421.14233398 236.05981445 C421.15709274 237.27519897 421.15709274 237.27519897 421.17214966 238.51513672 C421.7093486 294.24004138 404.34289656 341.68288834 365.34155273 382.0871582 C336.4985984 409.82076814 299.19425638 426.50732237 259.90405273 432.2746582 C258.25494982 432.52953145 258.25494982 432.52953145 256.5725317 432.78955364 C250.59238328 433.52586335 244.59876205 433.42272114 238.58216858 433.42182922 C237.23189627 433.42513342 235.88162494 433.42886015 234.53135484 433.4329707 C230.8351741 433.44293649 227.13900959 433.44669874 223.44281733 433.44936001 C219.44993383 433.45327951 215.45706299 433.46285695 211.46418762 433.47157288 C201.82549248 433.49129579 192.18679635 433.50140032 182.54808608 433.51030067 C177.9982019 433.5146923 173.44831887 433.520057 168.89843559 433.52528954 C153.75307107 433.54230118 138.60770724 433.55679082 123.46233463 433.56403828 C119.53576214 433.56594789 115.60918966 433.56786826 111.68261719 433.56982422 C110.21888553 433.57054983 110.21888553 433.57054983 108.72558355 433.5712901 C92.95168718 433.57957342 77.17786707 433.60488182 61.40400393 433.6374049 C45.17326033 433.67059424 28.9425553 433.6884979 12.71177763 433.69168252 C3.61361584 433.69383717 -5.48443491 433.7024308 -14.5825634 433.72814369 C-22.33859566 433.75001398 -30.09448992 433.75782207 -37.85054951 433.74817691 C-41.79700447 433.74367827 -45.74317573 433.74525372 -49.68959045 433.76493835 C-95.3360286 433.97970285 -138.58727807 424.03906423 -175.09594727 395.2746582 C-175.93512695 394.63786133 -176.77430664 394.00106445 -177.63891602 393.3449707 C-213.48574007 365.28172587 -238.4055306 323.3567326 -245.09594727 278.2746582 C-245.27295166 277.13706055 -245.44995605 275.99946289 -245.63232422 274.82739258 C-246.97600712 265.62887233 -247.45836582 256.63677882 -247.40844727 247.3371582 C-247.40662445 246.62432678 -247.40480164 245.91149536 -247.40292358 245.17706299 C-247.34685933 232.04268765 -246.37495446 219.22675175 -244.09594727 206.2746582 C-243.93497559 205.3460498 -243.77400391 204.41744141 -243.6081543 203.46069336 C-235.29458027 157.29280532 -213.76070605 116.39954727 -183.09594727 81.2746582 C-182.65573242 80.7698291 -182.21551758 80.265 -181.76196289 79.74487305 C-177.22888442 74.57655376 -172.65227129 69.60554855 -167.37719727 65.1887207 C-165.62097084 63.71517456 -163.89782106 62.202142 -162.18969727 60.6730957 C-147.27755178 47.38524491 -130.84371904 36.3945714 -113.09594727 27.2746582 C-111.93651611 26.66460938 -111.93651611 26.66460938 -110.75366211 26.04223633 C-87.71795276 14.00564396 -62.75318249 6.23351067 -37.09594727 2.2746582 C-35.99308915 2.10325727 -34.89023104 1.93185633 -33.75395298 1.75526142 C-22.4763266 0.16969756 -11.37512128 -0.01597043 0 0 Z M-31.09594727 92.2746582 C-31.82347198 92.419538 -32.5509967 92.5644178 -33.30056763 92.7136879 C-59.58136031 98.04235506 -84.35986802 111.00159652 -103.92407227 129.25512695 C-105.82799331 131.02549958 -107.77485878 132.68851588 -109.78344727 134.3371582 C-125.97715455 148.24425404 -138.41977321 168.78440698 -146.32299805 188.3605957 C-147.02090102 190.08882038 -147.74257281 191.80740024 -148.46704102 193.5246582 C-154.56665533 209.03021983 -157.77593216 226.63387251 -158.09594727 243.2746582 C-158.13461914 244.1099707 -158.17329102 244.9452832 -158.21313477 245.8059082 C-159.01348534 273.19568345 -147.99155233 297.39458213 -129.51000977 317.02075195 C-107.64502146 338.06498244 -80.72804935 344.44886023 -51.11274719 344.40837097 C-49.25303631 344.41176931 -49.25303631 344.41176931 -47.35575551 344.41523629 C-43.95378198 344.42042885 -40.55186178 344.42122857 -37.14988816 344.42004192 C-33.46534425 344.41983623 -29.78080797 344.42537255 -26.0962677 344.43009949 C-18.89235213 344.43837032 -11.68844475 344.4411527 -4.48452482 344.44171187 C1.37694915 344.4421887 7.23842044 344.44425178 13.09989357 344.44741249 C29.7545157 344.45620914 46.40913142 344.46083339 63.06375589 344.46008202 C63.95972328 344.46004206 64.85569068 344.4600021 65.77880859 344.45996094 C66.67588238 344.45992006 67.57295616 344.45987918 68.497214 344.45983706 C83.02745649 344.45943081 97.55767305 344.46899746 112.08790805 344.4830993 C127.04299248 344.49749781 141.99806429 344.50436759 156.95315582 344.50350553 C165.3350149 344.50317477 173.71684677 344.50586853 182.09869957 344.51668358 C189.23591712 344.52583443 196.37309513 344.52792646 203.51031604 344.52117416 C207.14396712 344.51793199 210.77754255 344.51776776 214.41118622 344.5265274 C247.29012447 344.60057832 277.63672032 342.66886029 302.90405273 319.2746582 C304.16088867 318.15510742 304.16088867 318.15510742 305.44311523 317.01293945 C321.66297847 301.82251026 332.91117558 279.08733644 334.02832031 256.79492188 C335.29859116 212.48488576 320.82984874 171.47933093 290.43139648 138.9440918 C261.26723845 108.33846549 221.4033768 90.11154275 179.04543924 89.04218185 C167.70566848 88.82483023 156.36304562 88.85016968 145.02170753 88.87168169 C139.68426706 88.87937538 134.34684064 88.87220614 129.00939941 88.86752319 C120.05286845 88.86209351 111.09641215 88.86918347 102.13989258 88.88354492 C91.84356752 88.89986597 81.54742081 88.89457548 71.25110006 88.87806571 C62.34761089 88.86437077 53.44417482 88.86256999 44.5406785 88.87038171 C39.25071708 88.87501456 33.96083896 88.87580612 28.67088318 88.86577225 C-1.36459156 88.54227812 -1.36459156 88.54227812 -31.09594727 92.2746582 Z " fill="#FFFFFF" transform="translate(277.095947265625,542.725341796875)"/>
<path d="M0 0 C1.86929897 -0.00299834 3.73859733 -0.0064024 5.6078949 -0.01017761 C10.65176601 -0.01895507 15.69562012 -0.02135313 20.73949814 -0.0219934 C23.90214969 -0.02270768 27.06479702 -0.02484916 30.22744751 -0.02749062 C41.29372427 -0.03672472 52.35998904 -0.0408281 63.42626953 -0.04003906 C73.68773756 -0.03943942 83.94915283 -0.04997401 94.21060753 -0.06578273 C103.06378103 -0.07892827 111.91693745 -0.08422001 120.77012062 -0.08358365 C126.0383757 -0.08333064 131.30658387 -0.08607167 136.5748291 -0.0967617 C141.53914812 -0.10656114 146.50337653 -0.10644225 151.46769905 -0.09924507 C153.271405 -0.09821362 155.07511696 -0.10047431 156.87881279 -0.10660553 C174.02481311 -0.16103055 191.11344855 0.95057878 207.953125 4.33276367 C209.03513184 4.54779541 210.11713867 4.76282715 211.23193359 4.984375 C255.64881098 14.13966418 297.2988923 34.50384588 330.44140625 65.63354492 C332.62867086 67.66887219 334.84880303 69.60647419 337.140625 71.52026367 C374.24590816 103.95869678 397.56117618 153.85405568 407.390625 201.33276367 C407.54184814 202.05488037 407.69307129 202.77699707 407.84887695 203.52099609 C410.68434273 218.14341784 411.55307963 232.90512534 411.515625 247.77026367 C411.51480927 249.00484818 411.51480927 249.00484818 411.51397705 250.26437378 C411.47187856 264.20890992 410.41610273 277.54638373 407.140625 291.14526367 C406.82714111 292.47799316 406.82714111 292.47799316 406.50732422 293.83764648 C399.06469209 324.55592592 383.88029951 352.26339961 362.140625 375.14526367 C360.96728777 376.51457586 359.80008534 377.88918155 358.640625 379.27026367 C339.83879103 400.72698624 312.25714153 415.93515918 285.515625 424.95776367 C284.7304248 425.22347168 283.94522461 425.48917969 283.13623047 425.76293945 C281.49969475 426.29054398 279.85363953 426.78931631 278.2003746 427.26189518 C276.15373214 427.85277342 274.1187175 428.48545211 272.09753799 429.15829372 C257.06845021 433.51590085 241.45640952 432.72332373 225.95533013 432.68282139 C221.58024031 432.67576915 217.20522238 432.69187271 212.83015442 432.70481873 C204.27952589 432.72636532 195.72903093 432.72635571 187.17838421 432.71819318 C180.22148191 432.71187038 173.2646183 432.71305103 166.30771637 432.71946526 C165.31417747 432.72036691 164.32063857 432.72126857 163.29699244 432.72219754 C161.27802186 432.72404892 159.2590513 432.72591149 157.24008074 432.7277851 C138.34341137 432.74433159 119.44681683 432.73567184 100.55015197 432.71879952 C83.30296164 432.70411143 66.05594566 432.71872405 48.80877778 432.74756969 C31.05449439 432.77703988 13.30029126 432.78791342 -4.45401549 432.77838749 C-6.46641142 432.77736505 -8.47880736 432.77637043 -10.49120331 432.77540398 C-11.48107737 432.77492759 -12.47095143 432.7744512 -13.49082167 432.77396037 C-20.42822076 432.77180596 -27.36554303 432.78154839 -34.30292511 432.796175 C-42.77364852 432.81378688 -51.24415002 432.81345525 -59.71486506 432.79082335 C-64.02748808 432.77975993 -68.33972143 432.77633645 -72.65232658 432.79512405 C-90.2667284 432.86630623 -106.90087151 432.56077498 -123.859375 427.14526367 C-124.958438 426.82161614 -126.05750099 426.49796862 -127.18986893 426.16451359 C-129.55061302 425.45843882 -131.85746189 424.67704614 -134.171875 423.83276367 C-134.98325928 423.54280518 -135.79464355 423.25284668 -136.63061523 422.95410156 C-144.70996298 419.97999694 -152.2799337 416.20387803 -159.859375 412.14526367 C-160.79523438 411.67733398 -161.73109375 411.2094043 -162.6953125 410.72729492 C-176.2896205 403.76684593 -188.46772594 394.30828486 -199.33300781 383.64086914 C-200.86646355 382.13831798 -202.41976952 380.65873962 -203.9765625 379.18041992 C-229.4875625 354.669535 -247.04926269 320.73670058 -253.859375 286.14526367 C-254.00745605 285.42773926 -254.15553711 284.71021484 -254.30810547 283.97094727 C-259.24960734 259.10386303 -258.26049944 232.01358349 -253.859375 207.14526367 C-253.69840332 206.21810547 -253.53743164 205.29094727 -253.37158203 204.33569336 C-242.66118533 144.84720753 -208.5312932 87.40053192 -159.53759766 51.38354492 C-157.90363548 50.17792139 -156.29317 48.94566961 -154.68359375 47.70776367 C-138.33927329 35.35789608 -119.76318468 25.89938364 -100.859375 18.14526367 C-99.70888672 17.67032471 -99.70888672 17.67032471 -98.53515625 17.18579102 C-67.17153437 4.43932754 -33.64846998 -0.01086201 0 0 Z M-127.859375 141.14526367 C-138.73495219 153.38740554 -147.01348851 167.33988248 -153.859375 182.14526367 C-154.31957031 183.11463867 -154.77976562 184.08401367 -155.25390625 185.08276367 C-161.25822883 198.5019481 -165.34115775 213.5348873 -166.859375 228.14526367 C-167.02373047 229.59352539 -167.02373047 229.59352539 -167.19140625 231.07104492 C-170.15358012 260.89026184 -164.28129418 287.76561413 -145.26171875 311.27416992 C-129.41714813 330.21036408 -106.60081325 341.8292452 -82.16245043 344.43255502 C-74.80945218 345.08284984 -67.52760993 345.28917921 -60.14828491 345.27897644 C-58.92566629 345.281242 -57.70304767 345.28350755 -56.44338 345.28584176 C-53.08475321 345.29103894 -49.72618038 345.29183322 -46.36755347 345.29064739 C-42.73139048 345.29044187 -39.09523523 345.29597646 -35.45907593 345.30070496 C-28.34793499 345.30897976 -21.23680235 345.31175836 -14.12565701 345.31231733 C-8.33948329 345.31279403 -2.55331229 345.31485644 3.23286057 345.31801796 C19.67204075 345.32681612 36.11121444 345.33143868 52.55039699 345.33068749 C53.43498181 345.33064753 54.31956662 345.33060757 55.23095703 345.33056641 C56.11663386 345.33052553 57.00231068 345.33048464 57.9148262 345.33044253 C72.25760315 345.33003636 86.60035382 345.33960061 100.94312318 345.35370477 C115.70381384 345.36810426 130.46449171 345.37497299 145.22518957 345.374111 C153.49863444 345.37378024 161.77205176 345.37647363 170.04549026 345.38728905 C177.09123771 345.39644123 184.1369451 345.3985309 191.18269594 345.39177962 C194.7697593 345.38853796 198.35674604 345.3883713 201.94380188 345.39713287 C237.54379652 345.47848669 268.86929235 341.84697594 295.578125 316.14526367 C314.01351201 296.74750735 322.87566908 271.36212068 322.32421875 244.84838867 C320.88330105 201.4955605 301.87707443 162.32019842 271.140625 132.14526367 C267.31737318 128.58792757 263.28509592 125.32074562 259.140625 122.14526367 C258.36976563 121.54713867 257.59890625 120.94901367 256.8046875 120.33276367 C227.18548136 98.49744447 192.43455749 89.95205117 156.20654297 90.03173828 C154.40213523 90.03202074 152.59772738 90.03186128 150.7933197 90.03129578 C145.92009017 90.03101008 141.04688549 90.03686999 136.17366171 90.04386973 C131.07143373 90.05014118 125.96920512 90.05071006 120.86697388 90.05189514 C111.21645035 90.0549973 101.56593822 90.06319562 91.9154197 90.07324463 C80.9238628 90.08444045 69.93230535 90.08992495 58.94074416 90.09494007 C36.34069814 90.1053792 13.74066221 90.12295698 -8.859375 90.14526367 C-8.859375 89.48526367 -8.859375 88.82526367 -8.859375 88.14526367 C-54.11507553 86.31880042 -97.66159545 108.30770642 -127.859375 141.14526367 Z " fill="#FFFFFF" transform="translate(1537.859375,1548.854736328125)"/>
<path d="M0 0 C4.12536914 3.88295963 7.88855035 7.86922474 11.45507812 12.26342773 C12.34280824 13.31575638 13.23085928 14.36781435 14.11914062 15.41967773 C26.01670225 29.69675168 35.76293959 45.35185946 43.45507812 62.26342773 C43.78991211 62.9949707 44.12474609 63.72651367 44.46972656 64.48022461 C68.65392841 117.93525854 68.97419137 177.36114333 48.68310547 232.10083008 C40.89964367 252.14595218 30.06700519 270.6407629 16.45507812 287.26342773 C16.04354492 287.77647461 15.63201172 288.28952148 15.20800781 288.81811523 C2.74123915 304.34605017 -11.31519443 317.73188164 -27.54492188 329.26342773 C-28.17221191 329.71411621 -28.79950195 330.16480469 -29.44580078 330.62915039 C-45.84070273 342.3186327 -63.54370588 350.72308883 -82.54492188 357.26342773 C-83.33914551 357.5417041 -84.13336914 357.81998047 -84.95166016 358.10668945 C-120.76307782 370.45108701 -161.57355776 372.79795841 -198.54492188 364.26342773 C-199.38909668 364.07619141 -200.23327148 363.88895508 -201.10302734 363.69604492 C-231.95796179 356.71888927 -260.75761437 342.85228603 -285.54492188 323.26342773 C-286.99898437 322.11680664 -286.99898437 322.11680664 -288.48242188 320.94702148 C-293.82508612 316.65692017 -298.8160032 312.21813033 -303.54492188 307.26342773 C-304.75148438 306.05686523 -304.75148438 306.05686523 -305.98242188 304.82592773 C-306.82804687 303.98030273 -307.67367188 303.13467773 -308.54492188 302.26342773 C-309.10566406 301.73749023 -309.66640625 301.21155273 -310.24414062 300.66967773 C-316.74725949 294.44356799 -322.19774642 287.48211459 -327.54492188 280.26342773 C-327.96 279.70333008 -328.37507813 279.14323242 -328.80273438 278.56616211 C-361.76000667 233.32964804 -374.67979428 174.10160401 -366.04003906 119.04614258 C-358.6416819 77.88239891 -341.43889649 40.5842051 -313.54492188 9.26342773 C-313.08730469 8.74409668 -312.6296875 8.22476562 -312.15820312 7.68969727 C-297.05027582 -9.41251876 -279.25305108 -23.29640823 -259.54492188 -34.73657227 C-258.89652344 -35.11765137 -258.248125 -35.49873047 -257.58007812 -35.89135742 C-178.67184848 -81.73235123 -75.69302354 -67.34580076 0 0 Z M-247.05273438 69.05639648 C-249.28909912 71.74382463 -251.43557407 74.4754913 -253.54492188 77.26342773 C-254.14820313 78.03944336 -254.75148438 78.81545898 -255.37304688 79.61499023 C-273.99875705 104.70096925 -281.88361076 138.11091837 -278.04882812 168.95092773 C-277.41744421 173.10464404 -276.54277977 177.18360325 -275.54492188 181.26342773 C-275.37863281 181.95597656 -275.21234375 182.64852539 -275.04101562 183.36206055 C-269.13353503 207.19983872 -256.81322718 226.98343096 -239.54492188 244.26342773 C-238.69671875 245.13483398 -237.84851562 246.00624023 -236.97460938 246.90405273 C-214.32086188 268.93430259 -181.68613371 279.69797683 -150.54101562 279.56640625 C-120.87107642 278.87854548 -93.15765045 268.40553183 -70.54492188 249.26342773 C-69.70960938 248.5634668 -68.87429688 247.86350586 -68.01367188 247.14233398 C-61.76277706 241.73067968 -56.55455523 235.83036284 -51.54492188 229.26342773 C-50.9390625 228.48483398 -50.33320312 227.70624023 -49.70898438 226.90405273 C-38.21422718 211.40433489 -30.77208168 192.18526397 -27.54492188 173.26342773 C-27.36058594 172.23088867 -27.17625 171.19834961 -26.98632812 170.13452148 C-23.18518109 136.79879836 -31.24216943 102.67232413 -52.16210938 76.10327148 C-71.25845497 53.34418419 -93.63489809 37.80707996 -122.54492188 30.26342773 C-123.72441406 29.94374023 -124.90390625 29.62405273 -126.11914062 29.29467773 C-170.15044561 19.18759816 -217.2157121 35.82669099 -247.05273438 69.05639648 Z " fill="#FFFFFF" transform="translate(1767.544921875,1129.736572265625)"/>
<path d="M0 0 C10.10997596 9.03238902 19.23419226 18.61822236 27.30712891 29.515625 C28.54073664 31.17492426 29.799341 32.81236479 31.0625 34.44921875 C64.48494783 78.5724225 76.77117596 136.60159175 69.5546875 190.8359375 C64.21582415 227.55649606 50.0007387 261.69052481 27.58203125 291.23046875 C26.92847656 292.09671875 26.27492188 292.96296875 25.6015625 293.85546875 C-8.47705092 337.70094251 -57.16401954 364.52830307 -111.41796875 374.23046875 C-112.12131348 374.36324219 -112.8246582 374.49601562 -113.54931641 374.6328125 C-155.97618063 382.44453407 -202.02105549 372.70685953 -240.41796875 354.23046875 C-241.13339844 353.8864502 -241.84882813 353.54243164 -242.5859375 353.18798828 C-262.74255458 343.34373882 -280.1588615 329.56499431 -296.41796875 314.23046875 C-297.15144531 313.53953125 -297.88492188 312.84859375 -298.640625 312.13671875 C-337.9613087 273.98862005 -359.49852402 217.71112259 -360.44921875 163.546875 C-360.55939485 119.20788029 -347.86839071 74.77466438 -322.41796875 38.23046875 C-321.96486328 37.57820313 -321.51175781 36.9259375 -321.04492188 36.25390625 C-314.08892236 26.36856264 -306.33855256 17.43379791 -297.91601562 8.77539062 C-296.6779181 7.49855211 -295.45931256 6.20284449 -294.24609375 4.90234375 C-288.77996139 -0.84410309 -282.53949121 -5.62339429 -276.22949219 -10.39794922 C-275.07222259 -11.27416763 -273.91880742 -12.15551581 -272.77050781 -13.04345703 C-199.56503047 -69.50536683 -93.85253231 -67.69405894 0 0 Z M-228.41796875 65.23046875 C-229.05089844 65.74222656 -229.68382812 66.25398438 -230.3359375 66.78125 C-253.21579696 85.51950135 -268.47110308 117.07149907 -271.41796875 146.23046875 C-273.77993448 182.08893319 -265.18019652 214.18639807 -242.41796875 242.23046875 C-241.81082031 242.97941406 -241.20367187 243.72835937 -240.578125 244.5 C-220.67543453 268.1034175 -191.51244947 281.79514681 -161.41796875 286.23046875 C-160.5259375 286.37355469 -159.63390625 286.51664063 -158.71484375 286.6640625 C-137.08926845 289.41826313 -114.08514609 285.30931035 -94.41796875 276.23046875 C-93.24878906 275.70582031 -92.07960938 275.18117188 -90.875 274.640625 C-61.21655581 260.65079284 -38.35723331 235.05968958 -26.984375 204.4453125 C-16.3609331 174.60418357 -15.94181858 140.12629137 -29.30859375 110.96484375 C-31.22058219 106.98422982 -33.28890604 103.09837655 -35.41796875 99.23046875 C-36.14113281 97.87888672 -36.14113281 97.87888672 -36.87890625 96.5 C-53.74193515 66.62417134 -82.6011891 47.08156816 -115.12524414 37.85424805 C-154.78923907 27.65372626 -197.6289376 38.83182961 -228.41796875 65.23046875 Z " fill="#FFFFFF" transform="translate(508.41796875,117.76953125)"/>
<path d="M0 0 C0.90438493 -0.00350607 1.80876985 -0.00701215 2.74056038 -0.01062447 C5.77506814 -0.01993818 8.80938398 -0.01501517 11.84389973 -0.01015663 C14.03990899 -0.0138929 16.23591692 -0.01849433 18.43192273 -0.02388728 C24.46999398 -0.03613558 30.50800989 -0.03585464 36.54609072 -0.03349853 C43.05683252 -0.03309082 49.56755648 -0.04412511 56.07828999 -0.05361366 C68.83566566 -0.07066966 81.59302556 -0.07574963 94.35041144 -0.07683842 C104.7196151 -0.0777576 115.08881277 -0.08187478 125.45801449 -0.08823967 C128.44309864 -0.09003477 131.4281828 -0.0918144 134.41326696 -0.09358943 C135.52643225 -0.09425257 135.52643225 -0.09425257 136.66208573 -0.09492911 C157.53639368 -0.10723752 178.41069955 -0.11513024 199.28501129 -0.11424255 C200.07201108 -0.1142114 200.85901086 -0.11418024 201.66985912 -0.11414814 C205.65866856 -0.11398192 209.64747798 -0.11378384 213.63628741 -0.11357872 C214.82456656 -0.11351889 214.82456656 -0.11351889 216.03685134 -0.11345784 C217.63884516 -0.11337697 219.24083899 -0.11329337 220.84283281 -0.11320706 C245.76364738 -0.11198173 270.6844075 -0.12699146 295.60520649 -0.15435219 C323.60654084 -0.18508242 351.60783943 -0.2022841 379.60919172 -0.20042574 C382.59584765 -0.20027648 385.58250357 -0.20017907 388.56915951 -0.20011711 C389.30454414 -0.2000938 390.03992876 -0.20007049 390.79759777 -0.20004648 C402.62513051 -0.19998497 414.45261595 -0.21274962 426.28013463 -0.22998164 C438.17051131 -0.24694674 450.06081889 -0.24890512 461.95120098 -0.235763 C468.3911211 -0.22922751 474.83087 -0.2291374 481.27077389 -0.2464695 C487.16852528 -0.26217917 493.0659694 -0.25935769 498.96371321 -0.24190123 C501.0949295 -0.23882674 503.22616861 -0.24248058 505.357358 -0.25362138 C521.43092045 -0.33206702 534.44677191 0.90364789 546.84812641 12.25726891 C556.51126822 22.97604806 560.42465791 34.86318578 559.69968891 49.19086266 C558.10108308 62.5658648 551.45140091 73.43715172 541.02000141 81.70648766 C528.71003316 90.31829317 514.611341 89.83123364 500.28268147 89.76520348 C498.09799044 89.7698173 495.91330253 89.77617345 493.72862107 89.78411245 C487.74964227 89.80076235 481.77091988 89.79257902 475.79194033 89.78016758 C469.33446551 89.77110175 462.87703419 89.7850944 456.41956806 89.79608727 C444.50918355 89.81360894 432.59887996 89.81139986 420.68849073 89.80044139 C409.68488607 89.79036729 398.68131123 89.7877579 387.6777029 89.79253197 C386.94696057 89.79283751 386.21621823 89.79314305 385.46333219 89.79345785 C382.49679903 89.79470326 379.53026588 89.79597687 376.56373276 89.7972969 C348.75347869 89.80952423 320.94327643 89.79845259 293.13303036 89.77690931 C268.4394832 89.75792585 243.74601856 89.75962807 219.05247211 89.77875328 C191.2906043 89.80018319 163.52878222 89.80865897 135.76690727 89.79630423 C132.80618291 89.79502141 129.84545854 89.79377004 126.88473415 89.79253197 C126.15576113 89.79221566 125.42678811 89.79189935 124.67572499 89.79157345 C113.67986472 89.78702846 102.68403756 89.79233548 91.68818188 89.80245018 C79.18296786 89.81389613 66.67785451 89.81062449 54.17265182 89.7893272 C47.79345425 89.7788207 41.41442408 89.77468845 35.03522778 89.78792381 C29.1932163 89.79986127 23.35152707 89.79326233 17.50954474 89.7720136 C15.39870067 89.76755338 13.28782926 89.76980072 11.17700284 89.77951676 C-4.69292762 89.84694974 -19.0869451 88.47313489 -31.37452984 77.22211266 C-41.67556599 66.30493976 -44.77003118 54.56796368 -44.46437359 39.97211266 C-43.87704268 27.61613877 -37.09787327 17.43440435 -28.35890484 9.04633141 C-20.00261669 2.27256154 -10.5031336 -0.05181176 0 0 Z " fill="#FFFFFF" transform="translate(273.151873588562,1374.7427310943604)"/>
<path d="M0 0 C1.35356525 -0.00352835 1.35356525 -0.00352835 2.73447526 -0.00712797 C5.77413625 -0.0138128 8.81375444 -0.0133599 11.85342216 -0.01294994 C14.04841708 -0.01624888 16.24341139 -0.01997451 18.43840492 -0.02409142 C24.48291117 -0.03411599 30.52740749 -0.03782895 36.57192087 -0.04048073 C43.08608262 -0.04438237 49.6002365 -0.05396075 56.11439323 -0.0626936 C71.10760626 -0.08180846 86.10082048 -0.09171418 101.09404274 -0.10015428 C108.50349838 -0.10436142 115.91295322 -0.10958331 123.32240818 -0.11483881 C148.68689127 -0.1327281 174.05137459 -0.14772422 199.41586304 -0.155159 C201.00807921 -0.15563375 202.60029538 -0.15610964 204.19251155 -0.15658666 C204.98210435 -0.15682303 205.77169716 -0.15705941 206.58521702 -0.15730295 C210.58566 -0.15850414 214.58610297 -0.15971959 218.58654594 -0.16094494 C219.77739351 -0.16130516 219.77739351 -0.16130516 220.99229859 -0.16167267 C246.73348226 -0.16956593 272.47461986 -0.19299878 298.21578341 -0.22550088 C325.43227123 -0.25980305 352.64873209 -0.27951047 379.86524189 -0.28280324 C382.85331529 -0.28322078 385.84138867 -0.28370034 388.82946205 -0.28422642 C389.5652071 -0.28434961 390.30095215 -0.2844728 391.05899251 -0.28459973 C402.89613475 -0.28693119 414.73322344 -0.30258809 426.5703466 -0.32306826 C438.46990724 -0.34332975 450.36940361 -0.34880203 462.26897831 -0.33929763 C468.71483977 -0.33474617 475.16052746 -0.33668867 481.6063652 -0.35605907 C487.50845616 -0.37364242 493.41024594 -0.37273198 499.31233989 -0.35716178 C501.44629223 -0.35477841 503.58026516 -0.3591469 505.71418597 -0.37099043 C521.52410949 -0.4532949 534.15255044 0.93222162 546.25158501 12.13422108 C554.42956349 20.69434809 558.99506781 31.51586126 559.40392876 43.32172108 C559.08936389 56.68147618 554.91932334 67.21124049 545.84142876 76.94672108 C536.55325712 85.76815042 524.30878431 89.61898433 511.66690922 89.51453781 C510.7694926 89.51919773 509.87207598 89.52385765 508.94746491 89.52865878 C505.95462658 89.54056436 502.96224596 89.53123044 499.96940422 89.52190113 C497.79626608 89.52607598 495.62313012 89.53155433 493.4499982 89.53822094 C487.48901675 89.55267437 481.52817358 89.54843106 475.56718457 89.54105413 C469.1341822 89.53632452 462.70120984 89.54883052 456.26821709 89.55907154 C444.39732311 89.5758679 432.526471 89.57770397 420.65556793 89.57276655 C409.68668616 89.56820665 398.71782076 89.56881194 387.74893951 89.5746069 C386.27671014 89.57536377 384.80448077 89.57611975 383.3322514 89.57687484 C381.11363422 89.57802006 378.89501705 89.57916994 376.67639988 89.58033408 C356.05322215 89.59103701 335.43004986 89.59576652 314.80687046 89.58786392 C313.64110142 89.58741816 313.64110142 89.58741816 312.4517815 89.5869634 C306.14084065 89.58451455 299.82989987 89.58190292 293.51895909 89.57927926 C268.90645236 89.56917844 244.29401386 89.57752994 219.68151665 89.60077381 C192.01708273 89.62685775 164.35268988 89.63969123 136.68824321 89.63258606 C133.73728391 89.63187002 130.78632461 89.63119563 127.8353653 89.63054562 C126.74549709 89.6302909 126.74549709 89.6302909 125.63361135 89.63003104 C114.67523139 89.62772999 103.71688962 89.63569584 92.75851822 89.64883709 C80.29242458 89.66375991 67.8264267 89.66420226 55.36033472 89.64676618 C49.00128317 89.63824883 42.64240222 89.63612486 36.28335953 89.65141773 C30.45845198 89.66525251 24.63386138 89.66051674 18.80897222 89.6411785 C16.70542076 89.63741451 14.60184399 89.64035187 12.49831506 89.65079015 C-3.33989322 89.72377468 -17.08813254 88.61822469 -29.90857124 78.13422108 C-40.12710915 67.58882758 -44.36624819 56.22506722 -44.34240913 41.71820545 C-44.01945075 29.3573419 -38.4733054 19.89042665 -30.03357124 11.20453358 C-21.09607002 2.80760702 -11.97358461 -0.0211773 0 0 Z " fill="#FFFFFF" transform="translate(518.9085712432861,1204.8657789230347)"/>
<path d="M0 0 C0.78397587 -0.00175304 1.56795173 -0.00350607 2.37568444 -0.00531223 C4.99452709 -0.00995265 7.61331375 -0.0075118 10.23215866 -0.00507832 C12.13204422 -0.00694727 14.03192939 -0.00924832 15.93181396 -0.01194364 C21.14670171 -0.01805754 26.36157342 -0.01792852 31.57646394 -0.01674926 C37.20305646 -0.01654515 42.82964385 -0.02206499 48.45623398 -0.02680683 C59.47755971 -0.03511168 70.49888009 -0.0378616 81.52020869 -0.03841921 C90.47920326 -0.03889444 99.43819608 -0.04094956 108.39719009 -0.04411983 C129.66667435 -0.05149314 150.93615713 -0.05764471 172.2056427 -0.05712128 C172.88561053 -0.0571057 173.56557836 -0.05709012 174.26615128 -0.05707407 C177.71237833 -0.05699096 181.15860539 -0.05689192 184.60483244 -0.05678936 C185.63145059 -0.05675944 185.63145059 -0.05675944 186.6788085 -0.05672892 C188.06285621 -0.05668848 189.44690393 -0.05664669 190.83095164 -0.05660353 C212.36172776 -0.05599085 233.89248812 -0.06349649 255.42325974 -0.07717609 C279.62272157 -0.09254498 303.82216975 -0.10112917 328.02163768 -0.10021287 C340.83108915 -0.0998809 353.64052285 -0.10262807 366.44997025 -0.11339092 C377.35595207 -0.12249574 388.26190808 -0.12467131 399.16789207 -0.1178815 C404.73083435 -0.11461623 410.29372709 -0.11455991 415.85666466 -0.12323475 C420.95306841 -0.13110025 426.04938335 -0.12966773 431.14578494 -0.12095062 C432.98558604 -0.11941575 434.82539376 -0.12123127 436.66518703 -0.12681069 C453.22060946 -0.17367627 469.43872373 0.33967682 482.26359177 12.3825407 C492.63030796 23.79614203 495.85856918 35.09542114 495.29093552 50.23800945 C494.52442103 61.31510466 489.65081729 70.35471937 481.84952927 78.12863445 C470.53738875 87.89991862 458.11042139 90.29929309 443.60724545 90.25726891 C442.434616 90.25989846 442.434616 90.25989846 441.23829708 90.26258114 C438.63303766 90.26721284 436.02783475 90.26478299 433.42257309 90.26234722 C431.53007408 90.26421662 429.63757545 90.26651783 427.74507743 90.26921254 C422.55525215 90.27532097 417.36544301 90.27519808 412.17561495 90.27401817 C406.57426177 90.27381392 400.97291374 90.27933518 395.37156296 90.28407574 C384.40184338 90.2923774 373.43212917 90.29513035 362.46240672 90.29568812 C353.54538877 90.29616347 344.6283726 90.29821917 335.71135521 90.30138874 C314.53876593 90.30876134 293.36617793 90.31491372 272.1935873 90.31439018 C271.51685121 90.3143746 270.84011511 90.31435903 270.14287187 90.31434297 C266.71306874 90.31425987 263.28326561 90.31416083 259.85346248 90.31405827 C259.1723186 90.31403832 258.49117472 90.31401838 257.78939012 90.31399783 C256.41195225 90.31395739 255.03451438 90.31391559 253.65707651 90.31387244 C232.22683588 90.31325969 210.79661107 90.32076693 189.36637497 90.334445 C165.27714257 90.34981395 141.18792328 90.35839808 117.09868461 90.35748178 C104.34849282 90.35714982 91.59831888 90.35989625 78.84813118 90.37065983 C67.99341048 90.37976464 57.13871572 90.38194019 46.28399285 90.3751504 C40.747372 90.37188524 35.21080092 90.37182848 29.6741848 90.38050365 C24.6018763 90.38836951 19.52965704 90.38693629 14.45735071 90.37821952 C12.62632776 90.37668474 10.79529816 90.37849985 8.96428307 90.3840796 C-9.2816574 90.43598121 -24.3867696 89.12703905 -38.25203323 76.1637907 C-47.61546182 66.46720642 -50.55186389 55.06118636 -50.42781448 41.8981657 C-49.47154245 28.90094716 -43.54147798 18.77970437 -34.29109573 9.91769695 C-24.34894592 1.60838196 -12.57938559 -0.03615241 0 0 Z " fill="#FFFFFF" transform="translate(1291.1504707336426,392.8713655471802)"/>
<path d="M0 0 C0.79624422 -0.00235223 1.59248845 -0.00470446 2.41286129 -0.00712797 C5.09752007 -0.01381775 7.78213045 -0.01335975 10.46679688 -0.01294994 C12.40447851 -0.01624859 14.34215945 -0.01997416 16.27983952 -0.02409142 C21.61777705 -0.0341196 26.95570334 -0.03782954 32.29364896 -0.04048073 C38.04574134 -0.04438139 43.7978248 -0.05395993 49.5499115 -0.0626936 C63.44831138 -0.08246533 77.346712 -0.09252538 91.24512243 -0.10142139 C97.78858837 -0.10580335 104.3320535 -0.11117042 110.8755188 -0.11641026 C132.62522734 -0.13342367 154.37493493 -0.14794279 176.12464905 -0.155159 C177.53130124 -0.15563375 178.93795343 -0.15610964 180.34460562 -0.15658666 C181.04217487 -0.15682303 181.73974411 -0.15705941 182.45845181 -0.15730295 C185.99264626 -0.15850414 189.52684071 -0.15971959 193.06103516 -0.16094494 C193.76240541 -0.16118509 194.46377567 -0.16142524 195.18639956 -0.16167267 C217.92016725 -0.16956341 240.65388273 -0.19299015 263.38762763 -0.22550088 C287.42663549 -0.2598154 311.46561148 -0.27951055 335.50464439 -0.28280324 C348.60705197 -0.28496889 361.70938282 -0.29372564 374.81176758 -0.31926441 C385.97038887 -0.34096405 397.1289148 -0.34902542 408.2875548 -0.33929763 C413.98014282 -0.33475077 419.67253407 -0.33666185 425.36509514 -0.35605907 C430.58016757 -0.37367564 435.79489946 -0.37270499 441.00997543 -0.35716178 C442.89296819 -0.35478344 444.77598443 -0.35912095 446.65894127 -0.37099043 C462.39886077 -0.46403436 474.70311438 1.75439701 486.87304688 12.50922108 C495.64799449 22.46997243 500.64240708 32.98865898 500.39257812 46.52484608 C499.40863403 58.9262547 495.0029967 69.94270655 485.87304688 78.57172108 C477.09060745 85.76823447 467.33780012 89.45488709 455.97071552 89.39148998 C455.16763302 89.39499606 454.36455051 89.39850213 453.53713217 89.40211445 C450.84722058 89.41141526 448.15752611 89.40650853 445.46760559 89.40164661 C443.51908415 89.40538354 441.57056421 89.40998523 439.62204665 89.41537726 C434.26806787 89.4276175 428.91415153 89.42734557 423.56016195 89.42498851 C417.78562224 89.4245806 412.01110263 89.43561705 406.23657227 89.44510365 C394.92300331 89.46172048 383.60945519 89.46721351 372.29587505 89.4683284 C363.09944008 89.4692786 353.903012 89.47338746 344.70657921 89.47972965 C322.8769688 89.49447778 301.04736375 89.50677917 279.21774769 89.50573254 C278.51971952 89.50570138 277.82169135 89.50567022 277.10251081 89.50563812 C273.56469434 89.50547191 270.02687786 89.50527383 266.48906139 89.5050687 C265.43514682 89.50500887 265.43514682 89.50500887 264.35994104 89.50494782 C262.93909259 89.50486695 261.51824413 89.50478335 260.09739568 89.50469704 C237.99613786 89.5034718 215.89494143 89.51848015 193.79370117 89.54584217 C168.95662873 89.57657864 144.11959693 89.59374837 119.28250426 89.59191573 C106.13431522 89.59125171 92.98619541 89.59674919 79.83802223 89.61827183 C68.64287068 89.63647999 57.44781972 89.64083392 46.25265978 89.62725298 C40.54182762 89.62072144 34.83118849 89.6206131 29.12037468 89.63795948 C23.88876228 89.65368671 18.65749602 89.65082984 13.42589208 89.63339122 C11.5369351 89.63032058 9.64795232 89.63395608 7.75902579 89.64511137 C-7.58503861 89.72969995 -20.02293525 87.92952776 -31.81445312 77.13422108 C-40.26503646 67.76046477 -45.26956673 56.34115117 -45.02539062 43.59515858 C-44.16651483 33.57494093 -41.66171642 25.31725443 -35.81445312 17.13422108 C-35.23695313 16.24734608 -34.65945313 15.36047108 -34.06445312 14.44672108 C-24.82786628 4.95356238 -13.10172409 -0.0262071 0 0 Z " fill="#FFFFFF" transform="translate(988.814453125,205.86577892303467)"/>
<path d="M0 0 C1.59907611 -0.00299565 3.1981515 -0.00639911 4.79722595 -0.01017761 C9.12380299 -0.0189803 13.45036022 -0.02135415 17.77694535 -0.0219934 C20.48470339 -0.022706 23.19245645 -0.02484429 25.90021324 -0.02749062 C35.35991102 -0.03673157 44.81959474 -0.04082705 54.27929688 -0.04003906 C63.07589513 -0.03943855 71.87243202 -0.0499884 80.66901475 -0.06578273 C88.23956425 -0.0788879 95.81009377 -0.08422171 103.38065451 -0.08358365 C107.89413501 -0.08332955 112.40756092 -0.08613222 116.92103004 -0.0967617 C121.16871939 -0.10649297 125.4163025 -0.10648763 129.66399574 -0.09924507 C131.21550147 -0.09820547 132.76701399 -0.10052466 134.31850815 -0.10660553 C150.49740531 -0.16586776 164.74653415 1.02740961 176.88354492 12.64916992 C186.82180057 23.30444737 190.6379637 34.11919179 190.48901367 48.63354492 C189.51700852 60.94104678 183.98052103 71.17187097 175.12182617 79.58276367 C162.3005025 90.07055399 147.28599168 90.29646758 131.51513672 90.29052734 C129.9259127 90.29352304 128.3366894 90.29692651 126.74746704 90.30070496 C122.44774863 90.30950723 118.14805014 90.31188147 113.84832358 90.31252074 C111.15731651 90.31323337 108.46631444 90.3153717 105.77530861 90.31801796 C96.37396551 90.32725877 86.97263655 90.33135442 77.57128906 90.33056641 C68.82922222 90.3299659 60.08721713 90.34051569 51.34516591 90.35631007 C43.82132513 90.36941563 36.29750447 90.37474904 28.77365237 90.374111 C24.28811742 90.3738569 19.80263739 90.37665895 15.31711388 90.38728905 C11.09568915 90.39702097 6.87437131 90.39701453 2.65294266 90.38977242 C1.11111226 90.38873289 -0.43072497 90.39105152 -1.97254372 90.39713287 C-19.71038805 90.46251788 -34.4810757 88.27623569 -47.54223633 75.41870117 C-55.60740661 66.56520597 -59.18429585 55.20646071 -58.93286133 43.29760742 C-58.01448207 29.62120279 -51.75800219 18.41620663 -41.78833008 9.14526367 C-29.8695737 -0.51984871 -14.53938015 -0.00544195 0 0 Z " fill="#FFFFFF" transform="translate(1002.788330078125,392.854736328125)"/>
<path d="M0 0 C1.71671789 -0.00515237 3.43343047 -0.01244349 5.15013123 -0.02168274 C9.76580744 -0.04003324 14.3808983 -0.02736446 18.99654937 -0.00759244 C23.8515718 0.00892385 28.70656092 -0.00003637 33.56159973 -0.00511169 C41.70750159 -0.00961696 49.85317265 0.00614277 57.99902344 0.03417969 C67.39058577 0.06625675 76.78173284 0.06619814 86.17332476 0.04896492 C95.24654118 0.0330556 104.31960666 0.03985959 113.39281654 0.05690193 C117.2374306 0.06373934 121.08192246 0.06277433 124.92653465 0.05535698 C129.45845676 0.04764815 133.9899108 0.05996893 138.52175331 0.08720589 C140.17603289 0.09404164 141.83035659 0.09423991 143.4846344 0.08699036 C158.97337528 0.02697713 170.87309322 2.98740068 182.55395508 13.66235352 C192.53639204 23.9619894 194.81921094 36.06145716 194.60864258 49.81079102 C194.15020447 61.59333451 187.85621765 71.95008438 179.45239258 79.99829102 C171.48944012 86.12815129 161.93983671 89.87255962 151.93295288 89.89852905 C151.2094208 89.90306017 150.48588872 89.90759128 149.74043143 89.9122597 C147.32713264 89.9248731 144.91406043 89.92328531 142.50073242 89.92163086 C140.76564241 89.92761819 139.03055506 89.93442421 137.29547119 89.94198608 C132.58854502 89.95963659 127.88169161 89.96434118 123.17473555 89.96561766 C120.23011618 89.96704083 117.28551521 89.97131368 114.34090042 89.97661209 C104.05660075 89.9951122 93.77235287 90.0032831 83.48803711 90.00170898 C73.9211732 90.00050895 64.3545354 90.02158416 54.78772867 90.05319631 C46.55987664 90.07940925 38.3320982 90.09007411 30.10420477 90.08879817 C25.19656971 90.08828983 20.28913546 90.09390148 15.38154221 90.11515427 C10.76033196 90.13462025 6.13951226 90.13460433 1.51828766 90.120121 C-0.16986796 90.11804184 -1.85804856 90.12268008 -3.54616165 90.13484192 C-18.08142794 90.23270554 -30.5177502 88.0288898 -41.56713867 77.88891602 C-50.11098939 68.8973526 -54.42354581 57.58702157 -54.98120117 45.31860352 C-54.66882376 34.91827324 -51.62468891 26.0873321 -45.66870117 17.63110352 C-45.07057617 16.74422852 -44.47245117 15.85735352 -43.85620117 14.94360352 C-31.56863494 1.95389065 -16.9914617 -0.13147714 0 0 Z " fill="#FFFFFF" transform="translate(1591.668701171875,205.368896484375)"/>
<path d="M0 0 C1.24971085 -0.00671722 2.49942169 -0.01343445 3.78700256 -0.02035522 C7.20058277 -0.03605598 10.61391957 -0.04270788 14.02751899 -0.0439868 C16.1659223 -0.04541319 18.30430048 -0.04969207 20.44269753 -0.05498123 C27.91949698 -0.07346234 35.39622534 -0.08165461 42.87304688 -0.08007812 C49.81506738 -0.07887853 56.75677608 -0.09994982 63.69871777 -0.13156545 C69.68032802 -0.15782525 75.66183708 -0.16844132 81.64350444 -0.16716731 C85.20640947 -0.16666034 88.76903737 -0.17219439 92.33188438 -0.19352341 C96.31391635 -0.21671253 100.29526223 -0.20732606 104.27734375 -0.1953125 C105.43879913 -0.20655151 106.60025452 -0.21779053 107.79690552 -0.22937012 C119.88110607 -0.13723028 130.31539951 3.23706809 139.4621582 11.29052734 C148.74998703 20.85152761 153.2368037 32.14957453 153.5324707 45.45458984 C152.98638456 58.91400719 147.44561571 69.85168691 137.7121582 78.97802734 C127.33229878 87.65432205 116.31521445 89.59158666 103.17797852 89.58105469 C101.96713593 89.58777191 100.75629333 89.59448914 99.50875854 89.60140991 C96.20680166 89.61709008 92.90509643 89.62376128 89.60311985 89.62504148 C87.53389234 89.62646925 85.46469071 89.63075066 83.39546967 89.63603592 C76.15856774 89.654506 68.92173917 89.66271049 61.68481445 89.66113281 C54.96827958 89.65993279 48.25206676 89.68101524 41.5356133 89.71262014 C35.74506363 89.7388846 29.95461849 89.74949585 24.16400981 89.74822199 C20.71625207 89.74771526 17.26878079 89.7532364 13.82108307 89.77457809 C9.9684264 89.79429087 6.11658736 89.78837801 2.26391602 89.77636719 C0.58019394 89.79322571 0.58019394 89.79322571 -1.13754272 89.8104248 C-13.55525351 89.71262167 -25.49772887 85.73674673 -34.76049805 77.25537109 C-43.35742364 68.14423686 -48.32950314 56.84293154 -48.5378418 44.29052734 C-47.90036732 30.49628802 -42.28061076 18.72066989 -32.1550293 9.34912109 C-22.2312577 1.54340821 -12.26441789 -0.00948818 0 0 Z " fill="#FFFFFF" transform="translate(915.537841796875,1374.70947265625)"/>
<path d="M0 0 C1.89160606 -0.01007584 1.89160606 -0.01007584 3.82142639 -0.02035522 C7.26587511 -0.03794893 10.71022431 -0.04270784 14.15471363 -0.0439868 C16.31187015 -0.04541297 18.46900174 -0.0496914 20.62615204 -0.05498123 C28.16663709 -0.07346109 35.70705165 -0.0816546 43.24755859 -0.08007812 C50.25208182 -0.07887797 57.25629631 -0.09996064 64.26074147 -0.13156545 C70.29414022 -0.15780871 76.32743865 -0.16844203 82.36089396 -0.16716731 C85.95562411 -0.16665994 89.55007974 -0.17221695 93.1447525 -0.19352341 C97.16051465 -0.21667774 101.17559522 -0.20733603 105.19140625 -0.1953125 C106.36580765 -0.20655151 107.54020905 -0.21779053 108.75019836 -0.22937012 C121.10690787 -0.13575144 131.42404004 3.87390619 140.51464844 12.29052734 C149.12350415 21.30166603 152.64817037 31.8146655 153.66699219 44.04052734 C153.19044384 57.88846171 148.48811028 69.10720212 138.40527344 78.54443359 C128.08488659 87.33150583 115.93708251 89.9060518 102.61035156 89.80810547 C101.4101387 89.81511475 100.20992584 89.82212402 98.9733429 89.8293457 C95.72311747 89.84379594 92.47355852 89.84060516 89.2233448 89.82782936 C85.79549053 89.81758522 82.36767564 89.82712627 78.93981934 89.83337402 C73.18717653 89.84061768 67.43474024 89.83114976 61.68212891 89.81201172 C55.0648822 89.7902491 48.44812877 89.79730283 41.83089399 89.81931734 C36.11323612 89.83756577 30.3957253 89.83998395 24.67804766 89.82956266 C21.27899137 89.82337916 17.88016565 89.82234782 14.48112488 89.83570862 C10.68662928 89.84595043 6.89306002 89.83026503 3.09863281 89.80810547 C1.44611259 89.82025085 1.44611259 89.82025085 -0.23979187 89.8326416 C-11.31851619 89.71372845 -21.69877139 86.96965776 -30.64550781 80.29052734 C-31.65613281 79.56865234 -32.66675781 78.84677734 -33.70800781 78.10302734 C-42.54539435 70.32516398 -47.1037402 59.73897082 -48.05957031 48.13818359 C-48.67926685 35.6667908 -45.73887467 24.97223176 -37.52832031 15.28662109 C-26.4563508 3.54849574 -15.91937213 -0.01220203 0 0 Z " fill="#FFFFFF" transform="translate(286.6455078125,1204.70947265625)"/>
</svg>
