<?xml version="1.0" encoding="UTF-8"?>
<svg version="1.1" xmlns="http://www.w3.org/2000/svg" width="512" height="512">
<path d="M0 0 C6.13052573 3.70468329 9.9448497 8.95587425 12.5625 15.5 C12.5625 23.09 12.5625 30.68 12.5625 38.5 C70.6425 38.5 128.7225 38.5 188.5625 38.5 C188.5625 30.91 188.5625 23.32 188.5625 15.5 C193.08783784 6.44932432 193.08783784 6.44932432 196.5 3.625 C197.14839844 3.07070312 197.79679687 2.51640625 198.46484375 1.9453125 C204.96607557 -2.53412097 211.93390917 -2.17463728 219.5625 -1.5 C226.22209333 0.18085583 230.74797447 4.96378322 234.5625 10.5 C236.28609099 14.15482473 236.80281931 16.99142165 236.7578125 21.01953125 C236.75136719 22.04111328 236.74492187 23.06269531 236.73828125 24.11523438 C236.72152344 25.17033203 236.70476562 26.22542969 236.6875 27.3125 C236.67847656 28.38693359 236.66945313 29.46136719 236.66015625 30.56835938 C236.63665306 33.21246854 236.60379575 35.85611872 236.5625 38.5 C237.45262283 38.49111755 238.34274567 38.48223511 239.25984192 38.4730835 C247.68871258 38.39260861 256.11745238 38.33186939 264.54662037 38.29275131 C268.8791487 38.27196349 273.21135698 38.24380908 277.54370117 38.19824219 C281.73235361 38.15446725 285.92070011 38.13079685 290.10956383 38.12049103 C291.69981381 38.11315596 293.29004891 38.09883375 294.88016701 38.07707977 C308.50640664 37.89824315 319.36254722 39.762805 329.5625 49.5 C339.64661106 60.06335594 341.15952671 71.3545111 341.07043457 85.43406677 C341.07505028 87.03131158 341.08140768 88.62855213 341.08934355 90.22578388 C341.10596823 94.59028972 341.09782191 98.95444356 341.08539867 103.3189503 C341.0763222 108.03548232 341.09033081 112.75195519 341.10131836 117.46847534 C341.1190809 126.6987077 341.11527357 135.92880977 341.1036678 145.15904718 C341.09462429 152.66298366 341.09341345 160.16688369 341.09776306 167.67082405 C341.09837599 168.73993379 341.09898893 169.80904352 341.09962043 170.91055052 C341.10089937 173.08262388 341.10219622 175.25469724 341.1035108 177.42677058 C341.1149101 197.78243486 341.10181335 218.13802702 341.08030933 238.49367947 C341.06244152 255.94740121 341.06554113 273.40101651 341.08398438 290.85473633 C341.10540697 311.1373614 341.11380883 331.41992329 341.10153532 351.7025581 C341.10026117 353.86682545 341.09900368 356.03109281 341.09776306 358.19536018 C341.09683741 359.79252608 341.09683741 359.79252608 341.09589306 361.42195795 C341.09244414 368.91353245 341.09825868 376.40506678 341.10768127 383.89663506 C341.11891817 393.03125369 341.11582577 402.16573489 341.0945583 411.30033784 C341.08407026 415.95806568 341.0798876 420.61556466 341.09315491 425.27329063 C341.10513147 429.54256503 341.09843013 433.81139984 341.0772447 438.08063472 C341.0728008 439.61953581 341.07499477 441.15847455 341.08474785 442.69735115 C341.17850541 458.72881787 337.22458734 470.42125846 326.25 482.25 C314.88948731 493.00191379 302.44660196 494.9544297 287.331604 494.89440918 C285.79852088 494.89930459 284.26544145 494.90549739 282.73236823 494.91286707 C278.54054885 494.92920751 274.34891828 494.92696073 270.15707827 494.9214921 C265.62795 494.91881459 261.09887124 494.93336726 256.56976318 494.94558716 C247.7043809 494.96661334 238.83906406 494.97118361 229.97365978 494.96939927 C222.76481857 494.96809016 215.55599772 494.97190341 208.34716034 494.97932434 C206.2683537 494.98142361 204.18954706 494.98352121 202.11074042 494.98561716 C201.0759595 494.98666069 200.04117857 494.98770422 198.97504064 494.98877937 C179.41622564 495.00767061 159.85744817 495.00663504 140.29862782 494.99981004 C122.42225035 494.99423616 104.54601625 495.01505543 86.66967228 495.04817051 C68.29753415 495.08193883 49.92546463 495.09707187 31.5532949 495.09245348 C21.24546073 495.09021188 10.93775907 495.09540668 0.62995148 495.12034607 C-8.14635622 495.14139985 -16.92245878 495.14491084 -25.69877502 495.12604648 C-30.17250497 495.11691353 -34.64585285 495.1156703 -39.11955261 495.13640213 C-43.22312996 495.15520765 -47.32601488 495.15050268 -51.42956665 495.12785631 C-52.90595498 495.12369454 -54.38239741 495.12778816 -55.85872838 495.14145225 C-71.45529372 495.27585708 -83.27595639 491.29508186 -94.5859375 480.4375 C-99.47592284 475.34755243 -105.4375 467.92767661 -105.4375 460.5 C-106.0975 460.4175 -106.7575 460.335 -107.4375 460.25 C-118.85104752 457.39661312 -127.67295691 448.80585334 -133.96484375 439.15234375 C-138.85182519 430.35059202 -141.19859476 420.5485995 -139.4375 410.5 C-137.23230778 407.56371702 -136.08609701 406.59738379 -132.41308594 406.04589844 C-130.68493652 406.07731934 -130.68493652 406.07731934 -128.921875 406.109375 C-127.67148438 406.12226563 -126.42109375 406.13515625 -125.1328125 406.1484375 C-123.17988281 406.19871094 -123.17988281 406.19871094 -121.1875 406.25 C-119.87007812 406.26804687 -118.55265625 406.28609375 -117.1953125 406.3046875 C-113.94197692 406.35183729 -110.69010375 406.41763956 -107.4375 406.5 C-107.43901888 405.79109515 -107.44053776 405.0821903 -107.44210267 404.35180348 C-107.53164212 362.32332188 -107.60025996 320.29485136 -107.64176132 278.26629354 C-107.64676406 273.21830035 -107.65194136 268.17030735 -107.65722656 263.12231445 C-107.6582758 262.11736269 -107.65932505 261.11241093 -107.66040608 260.07700608 C-107.67780468 243.8113934 -107.70933938 227.54583736 -107.74611118 211.28025826 C-107.78353575 194.58653548 -107.80573906 177.89284234 -107.81385398 161.19907933 C-107.8193386 150.90062229 -107.83665264 140.60232533 -107.86916587 130.30391756 C-107.89033245 123.23902581 -107.89669518 116.17421665 -107.89150551 109.10929551 C-107.88894707 105.03501192 -107.89283035 100.96100779 -107.9143219 96.88677406 C-107.93388203 93.15128034 -107.93470935 89.41625226 -107.92109558 85.68073646 C-107.91862286 83.70054049 -107.93578982 81.72034946 -107.95382524 79.74023408 C-107.87369489 67.70884257 -104.82499384 58.28610741 -96.4375 49.5 C-84.21499334 37.8320116 -71.19959969 37.95938417 -55.25 38.25 C-53.3248884 38.27009883 -51.39975651 38.28834361 -49.47460938 38.3046875 C-44.79506496 38.34840786 -40.11651027 38.41724762 -35.4375 38.5 C-35.4689209 37.51773438 -35.4689209 37.51773438 -35.50097656 36.515625 C-35.58480383 33.51057672 -35.63636895 30.50577536 -35.6875 27.5 C-35.72101563 26.47003906 -35.75453125 25.44007812 -35.7890625 24.37890625 C-35.88893866 16.53862748 -34.68690868 11.20807273 -29.47265625 5.2578125 C-28.82167969 4.71898437 -28.17070313 4.18015625 -27.5 3.625 C-26.85160156 3.07070312 -26.20320313 2.51640625 -25.53515625 1.9453125 C-18.47077988 -2.92213491 -7.84396301 -3.47595223 0 0 Z M-16.75 17.3125 C-19.25681626 20.56207663 -19.56583352 23.1744065 -19.59863281 27.15161133 C-19.60824036 28.09301468 -19.6178479 29.03441803 -19.62774658 30.00434875 C-19.63199646 31.01998398 -19.63624634 32.0356192 -19.640625 33.08203125 C-19.64632507 34.12896652 -19.65202515 35.17590179 -19.65789795 36.25456238 C-19.66734766 38.47121164 -19.67388182 40.68787496 -19.67773438 42.90454102 C-19.68743216 46.2888249 -19.71845313 49.67249949 -19.75 53.05664062 C-19.75653098 55.2109339 -19.76178108 57.36523151 -19.765625 59.51953125 C-19.7779718 60.52909378 -19.7903186 61.53865631 -19.80303955 62.57881165 C-19.78607365 67.9542413 -19.54904548 71.89186364 -16.4375 76.5 C-13.59666359 77.92041821 -11.58272722 77.81452272 -8.4375 77.5 C-5.58969381 75.26793569 -4.58752334 73.95007001 -3.4375 70.5 C-3.33602567 68.95185493 -3.28916142 67.39980303 -3.27636719 65.84838867 C-3.26675964 64.90698532 -3.2571521 63.96558197 -3.24725342 62.99565125 C-3.24300354 61.98001602 -3.23875366 60.9643808 -3.234375 59.91796875 C-3.22582489 58.34756584 -3.22582489 58.34756584 -3.21710205 56.74543762 C-3.20765234 54.52878836 -3.20111818 52.31212504 -3.19726562 50.09545898 C-3.18756784 46.7111751 -3.15654687 43.32750051 -3.125 39.94335938 C-3.11846902 37.7890661 -3.11321892 35.63476849 -3.109375 33.48046875 C-3.0970282 32.47090622 -3.0846814 31.46134369 -3.07196045 30.42118835 C-3.08892635 25.0457587 -3.32595452 21.10813636 -6.4375 16.5 C-10.23281479 14.60234261 -13.41071965 14.69522621 -16.75 17.3125 Z M207.25 17.3125 C204.74318374 20.56207663 204.43416648 23.1744065 204.40136719 27.15161133 C204.39175964 28.09301468 204.3821521 29.03441803 204.37225342 30.00434875 C204.36800354 31.01998398 204.36375366 32.0356192 204.359375 33.08203125 C204.35367493 34.12896652 204.34797485 35.17590179 204.34210205 36.25456238 C204.33265234 38.47121164 204.32611818 40.68787496 204.32226562 42.90454102 C204.31256784 46.2888249 204.28154687 49.67249949 204.25 53.05664062 C204.24346902 55.2109339 204.23821892 57.36523151 204.234375 59.51953125 C204.2220282 60.52909378 204.2096814 61.53865631 204.19696045 62.57881165 C204.21392635 67.9542413 204.45095452 71.89186364 207.5625 76.5 C210.40333641 77.92041821 212.41727278 77.81452272 215.5625 77.5 C218.41030619 75.26793569 219.41247666 73.95007001 220.5625 70.5 C220.66397433 68.95185493 220.71083858 67.39980303 220.72363281 65.84838867 C220.73324036 64.90698532 220.7428479 63.96558197 220.75274658 62.99565125 C220.75699646 61.98001602 220.76124634 60.9643808 220.765625 59.91796875 C220.77417511 58.34756584 220.77417511 58.34756584 220.78289795 56.74543762 C220.79234766 54.52878836 220.79888182 52.31212504 220.80273438 50.09545898 C220.81243216 46.7111751 220.84345313 43.32750051 220.875 39.94335938 C220.88153098 37.7890661 220.88678108 35.63476849 220.890625 33.48046875 C220.9029718 32.47090622 220.9153186 31.46134369 220.92803955 30.42118835 C220.91107365 25.0457587 220.67404548 21.10813636 217.5625 16.5 C213.76718521 14.60234261 210.58928035 14.69522621 207.25 17.3125 Z M-84.06640625 62.140625 C-96.13032922 75.5126842 -91.4375 92.92280591 -91.4375 110.5 C35.2825 110.5 162.0025 110.5 292.5625 110.5 C294.71619947 86.27754437 294.71619947 86.27754437 286.5625 63.5 C280.06561134 57.04951769 274.16473779 54.675755 264.94384766 54.38647461 C262.9800415 54.39432983 262.9800415 54.39432983 260.9765625 54.40234375 C260.27477875 54.4037587 259.572995 54.40517365 258.84994507 54.40663147 C256.62908496 54.4121871 254.40832916 54.42473108 252.1875 54.4375 C250.67317855 54.44252074 249.1588555 54.44708264 247.64453125 54.45117188 C243.95048748 54.46214193 240.25650394 54.47937551 236.5625 54.5 C236.54848145 55.48226562 236.54848145 55.48226562 236.53417969 56.484375 C236.4800474 59.49030905 236.39648611 62.49475775 236.3125 65.5 C236.29832031 66.52996094 236.28414063 67.55992188 236.26953125 68.62109375 C236.02942183 76.16052946 234.80889368 81.7379599 229.81640625 87.5234375 C229.25824219 87.96945313 228.70007813 88.41546875 228.125 88.875 C227.56941406 89.33648437 227.01382812 89.79796875 226.44140625 90.2734375 C219.96012494 94.50446106 213.05488331 94.17032648 205.5625 93.5 C199.35655629 91.86788567 195.02631883 87.80604094 191.5625 82.5 C189.5625 77.5 189.5625 77.5 188.5625 54.5 C130.4825 54.5 72.4025 54.5 12.5625 54.5 C12.2325 62.09 11.9025 69.68 11.5625 77.5 C7.03942308 86.54615385 7.03942308 86.54615385 4.125 88.875 C3.56941406 89.33648437 3.01382813 89.79796875 2.44140625 90.2734375 C-4.03987506 94.50446106 -10.94511669 94.17032648 -18.4375 93.5 C-24.64344371 91.86788567 -28.97368117 87.80604094 -32.4375 82.5 C-34.1052778 78.893198 -34.71876531 75.94225171 -34.8515625 71.98046875 C-34.90957031 70.4480957 -34.90957031 70.4480957 -34.96875 68.88476562 C-34.9996875 67.82966797 -35.030625 66.77457031 -35.0625 65.6875 C-35.12050781 64.07584961 -35.12050781 64.07584961 -35.1796875 62.43164062 C-35.27368613 59.78792912 -35.35934573 57.1442195 -35.4375 54.5 C-39.8299818 54.45011596 -44.22230824 54.41405419 -48.61499023 54.39013672 C-50.1055794 54.3801533 -51.59614936 54.36656178 -53.08666992 54.34912109 C-69.9410756 53.86572169 -69.9410756 53.86572169 -84.06640625 62.140625 Z M302.5625 55.5 C302.9646875 56.4590625 302.9646875 56.4590625 303.375 57.4375 C303.766875 58.448125 304.15875 59.45875 304.5625 60.5 C304.81283385 61.08040564 305.0631677 61.66081128 305.32108742 62.25880498 C308.10915384 69.40222379 307.98545194 76.40707391 307.95018005 83.97871399 C307.95435771 85.44223745 307.95983759 86.90575767 307.96649987 88.36927193 C307.98091689 92.37339421 307.97672151 96.37730999 307.96933305 100.38144338 C307.96459433 104.70672801 307.97711752 109.03196841 307.98735046 113.35723877 C308.00453058 121.82437729 308.00538003 130.29144158 308.00013756 138.758593 C307.99609281 145.6428181 307.99754305 152.52702129 308.00288582 159.41124535 C308.00363424 160.3918145 308.00438266 161.37238366 308.00515376 162.38266703 C308.00668528 164.37483946 308.00822362 166.36701187 308.00976873 168.35918429 C308.02349117 187.03425509 308.0180581 205.70928399 308.00658352 224.38435384 C307.99665359 241.45704623 308.00958812 258.5296302 308.03351771 275.60230587 C308.05792021 293.14497252 308.06751361 310.68758871 308.06086498 328.230272 C308.05737505 338.07413808 308.05958986 347.91792083 308.07711601 357.76177406 C308.09185246 366.14252368 308.09245468 374.52313126 308.0750451 382.90387813 C308.06654421 387.17680349 308.06436311 391.4494753 308.07969666 395.72238731 C308.09358128 399.64016706 308.08873263 403.55747693 308.06945742 407.47522976 C308.06570858 408.88633449 308.06858699 410.29747721 308.07906907 411.70854799 C308.18053825 426.42396729 304.6758456 437.91915679 294.4609375 448.72265625 C283.01753132 459.53930343 271.40344467 461.80189666 256.1676178 461.7784729 C254.68901958 461.78347874 253.21042409 461.78935538 251.73183244 461.79602563 C247.67727195 461.81180482 243.6227808 461.81525517 239.56819332 461.81667423 C235.19265899 461.82037191 230.81716255 461.83552924 226.44165039 461.84928894 C218.86358602 461.87155402 211.28553514 461.88657183 203.70744514 461.89665604 C192.75082719 461.91124656 181.79425622 461.93678446 170.83766585 461.96498732 C153.06097913 462.01044851 135.28428565 462.04706611 117.50756836 462.078125 C100.23997815 462.10831329 82.97240449 462.14266486 65.70483398 462.18261719 C64.64031563 462.18507874 63.57579727 462.18754028 62.47902078 462.19007643 C57.13860162 462.20245108 51.79818266 462.2149076 46.45776379 462.22740483 C2.15936561 462.33096255 -42.13905313 462.42016914 -86.4375 462.5 C-85.49073174 463.79375318 -84.53961634 465.08432589 -83.58666992 466.37353516 C-83.05748459 467.09256012 -82.52829926 467.81158508 -81.983078 468.55239868 C-80.14003676 470.87483699 -78.30412602 472.37461357 -75.75 473.875 C-75.00363281 474.33648437 -74.25726563 474.79796875 -73.48828125 475.2734375 C-64.33672054 478.95281018 -54.54008724 478.78783671 -44.82543945 478.75396729 C-43.37185415 478.75627581 -41.91827002 478.75945495 -40.4646883 478.76342177 C-36.49739172 478.77172462 -32.5301921 478.76766515 -28.5628953 478.76144934 C-24.27380645 478.75690728 -19.98473378 478.76391728 -15.69564819 478.76940918 C-7.30399247 478.77828615 1.08762741 478.77638873 9.47928452 478.7705839 C16.30149011 478.76606073 23.12368568 478.76545734 29.94589233 478.76763153 C30.91815315 478.767938 31.89041396 478.76824446 32.89213723 478.76856022 C34.86748131 478.76919969 36.8428254 478.76984812 38.81816947 478.7705054 C57.32582278 478.77620373 75.83345625 478.76965861 94.3411063 478.75890467 C110.20951048 478.74996961 126.0778854 478.75152179 141.94628906 478.76074219 C160.38929762 478.7714536 178.8322888 478.77565445 197.27530003 478.76951766 C199.2432359 478.76888059 201.21117178 478.76825184 203.17910767 478.76763153 C204.14728178 478.76732298 205.1154559 478.76701443 206.11296862 478.76669653 C212.92422414 478.7649722 219.73546861 478.76787903 226.54672241 478.77259064 C234.85129449 478.77820915 243.15582877 478.77666262 251.46039653 478.76602915 C255.69466401 478.7607855 259.92886856 478.75869336 264.16313553 478.76532745 C268.04426981 478.77131615 271.9252832 478.76796394 275.80640662 478.75737235 C277.20532094 478.75515065 278.60424562 478.75624673 280.0031532 478.76112393 C292.3326508 478.80078982 303.60463984 478.45610974 313.5625 470.5 C322.25618303 461.64259412 324.6833815 452.13730961 324.69113445 439.91661263 C324.6943589 438.626336 324.69758335 437.33605938 324.7009055 436.00668347 C324.69943458 434.58714801 324.69786688 433.16761265 324.69621277 431.74807739 C324.69808205 430.23052313 324.70038322 428.71296935 324.70307809 427.19541633 C324.70918794 423.03282262 324.70906346 418.87024902 324.70788372 414.70765185 C324.70767951 410.21539676 324.71320037 405.72314809 324.71794128 401.230896 C324.72624367 392.43296834 324.72899593 383.63504738 324.72955366 374.83711614 C324.73002897 367.68585228 324.73208445 360.53459064 324.73525429 353.38332748 C324.74405934 333.10606392 324.74867384 312.82880564 324.74792381 292.55154015 C324.74788386 291.45864811 324.7478439 290.36575607 324.74780273 289.23974609 C324.74776185 288.14551916 324.74772097 287.05129223 324.74767885 285.92390691 C324.74727231 268.18627431 324.75684432 250.44866292 324.7709411 232.71103646 C324.78530297 214.49609999 324.79221141 196.28117388 324.79134732 178.06623161 C324.79101531 167.84071638 324.79376424 157.61522341 324.80452538 147.38971329 C324.81362782 138.68461126 324.81580768 129.97954157 324.80901595 121.27443685 C324.80574961 116.83386629 324.80569823 112.39335779 324.8143692 107.95279312 C324.82222991 103.8853339 324.82080716 99.81798601 324.81208507 95.75052951 C324.81054915 94.28154343 324.81236971 92.81254906 324.81794515 91.34357275 C325.04683277 76.47283123 325.04683277 76.47283123 318.5625 63.5 C313.68151864 58.65388279 309.67071316 55.5 302.5625 55.5 Z M-91.4375 126.5 C-91.4375 218.9 -91.4375 311.3 -91.4375 406.5 C-68.66105469 406.53738281 -45.88460937 406.57476562 -22.41796875 406.61328125 C-8.03059309 406.64353965 6.3567753 406.67453211 20.74414062 406.70898438 C28.29858346 406.7270355 35.85302669 406.74489961 43.4074707 406.76245117 C44.35434291 406.76465886 45.30121512 406.76686655 46.27678043 406.76914114 C61.57836188 406.80454483 76.87994327 406.82938415 92.18155054 406.85034702 C107.87634013 406.87208272 123.57107641 406.9051118 139.26582068 406.94870156 C148.95619438 406.97525683 158.64650161 406.99292362 168.33690991 406.99934604 C174.97519944 407.00458811 181.6134052 407.02076509 188.25164989 407.04566566 C192.08589195 407.05972138 195.91998394 407.06883639 199.75425339 407.06500816 C203.90471439 407.06098972 208.05474652 407.07993633 212.20515442 407.10127258 C213.42595556 407.09642501 214.64675669 407.09157743 215.9045518 407.08658296 C217.01127795 407.0960395 218.1180041 407.10549604 219.2582674 407.11523914 C220.69645815 407.11808705 220.69645815 407.11808705 222.16370326 407.12099248 C224.5625 407.5 224.5625 407.5 226.34787196 408.82263154 C228.28409692 411.49650583 228.39180476 414.33133726 228.875 417.5625 C230.69943231 427.88853865 234.64444354 435.01253161 243.29296875 441.09375 C251.07111598 445.91325603 258.45545467 446.41172895 267.5625 445.5 C277.77119217 443.04825168 283.83735859 437.2174161 289.30078125 428.55078125 C292.76059413 420.18510366 292.85078904 411.16944663 292.80300903 402.24360657 C292.80472107 401.06098236 292.80643311 399.87835815 292.80819702 398.65989685 C292.81091339 395.40238951 292.80470939 392.14504442 292.79464546 388.88755621 C292.7858601 385.31139434 292.78883809 381.73523782 292.7902813 378.15906811 C292.79134107 371.22924077 292.78214108 364.29946562 292.76927864 357.36965166 C292.75483659 349.34746292 292.75328684 341.32530518 292.75170898 333.30310059 C292.74122307 312.13955883 292.71330069 290.97602862 292.6875 269.8125 C292.64625 222.519375 292.605 175.22625 292.5625 126.5 C165.8425 126.5 39.1225 126.5 -91.4375 126.5 Z M-121.4375 422.5 C-119.78047075 430.78514624 -115.3821441 436.53068497 -108.44140625 441.28515625 C-98.95059647 447.03884405 -89.25690998 446.64627374 -78.5168457 446.62025452 C-77.22369131 446.62110894 -75.93053692 446.62196337 -74.59819603 446.62284368 C-71.02476377 446.6250714 -67.45136168 446.62109102 -63.87793326 446.61606562 C-60.01846047 446.6117365 -56.15898931 446.61320929 -52.29951477 446.6139679 C-45.61798705 446.61449157 -38.93646911 446.6113611 -32.25494385 446.60573006 C-22.59464797 446.59759388 -12.9343568 446.59499766 -3.27405787 446.59374207 C12.40014249 446.59155488 28.07433763 446.58490381 43.74853516 446.57543945 C58.9721677 446.56625673 74.19579883 446.5591801 89.41943359 446.55493164 C90.82763632 446.55453756 90.82763632 446.55453756 92.26428759 446.55413551 C96.97410495 446.55283045 101.68392232 446.55156674 106.3937397 446.55032361 C145.44999678 446.53996136 184.50624805 446.5223521 223.5625 446.5 C223.10359375 445.77296875 222.6446875 445.0459375 222.171875 444.296875 C221.55828125 443.29140625 220.9446875 442.2859375 220.3125 441.25 C219.70921875 440.27546875 219.1059375 439.3009375 218.484375 438.296875 C215.9447402 433.2795477 214.34079464 427.83488391 212.5625 422.5 C102.3425 422.5 -7.8775 422.5 -121.4375 422.5 Z " fill="#000000" transform="translate(155.4375,9.5)"/>
<path d="M0 0 C3.67403584 1.27973035 7.30076201 2.65912838 10.92156982 4.08023071 C12.30197175 4.60770374 13.68295954 5.13364575 15.06448364 5.65817261 C18.76551951 7.0677964 22.458655 8.4971033 26.15063477 9.93024826 C29.99681546 11.4192927 33.84996722 12.89004924 37.70281982 14.36172485 C42.42133312 16.16509347 47.13929738 17.96981968 51.85424805 19.78248596 C62.10083345 23.72067759 72.36730294 27.60097106 82.65594482 31.42788696 C83.96931772 31.91690395 85.2826825 32.40594276 86.59603882 32.89500427 C91.54497892 34.73712476 96.49458772 36.57742206 101.44628906 38.41210938 C104.80171012 39.65639511 108.15481788 40.90673218 111.50750732 42.15835571 C112.97768814 42.70039642 112.97768814 42.70039642 114.47756958 43.25338745 C126.04729172 47.58558076 126.04729172 47.58558076 127.82000732 51.13101196 C128.39987603 58.32138395 128.39987603 58.32138395 126.37078857 61.15444946 C122.78180586 63.93549885 118.93112862 65.32174457 114.69500732 66.88101196 C113.87129639 67.19683228 113.04758545 67.51265259 112.19891357 67.83804321 C106.1339616 70.13101196 106.1339616 70.13101196 103.82000732 70.13101196 C103.82000732 76.40101196 103.82000732 82.67101196 103.82000732 89.13101196 C105.14000732 89.79101196 106.46000732 90.45101196 107.82000732 91.13101196 C111.47781648 94.99203273 112.13541772 97.81746848 112.32000732 103.13101196 C112.13541772 108.44455545 111.47781648 111.26999119 107.82000732 115.13101196 C105.84000732 116.12101196 105.84000732 116.12101196 103.82000732 117.13101196 C103.82000732 123.07101196 103.82000732 129.01101196 103.82000732 135.13101196 C98.54000732 135.13101196 93.26000732 135.13101196 87.82000732 135.13101196 C87.82000732 129.19101196 87.82000732 123.25101196 87.82000732 117.13101196 C86.50000732 116.47101196 85.18000732 115.81101196 83.82000732 115.13101196 C80.16219817 111.26999119 79.50459692 108.44455545 79.32000732 103.13101196 C79.50459692 97.81746848 80.16219817 94.99203273 83.82000732 91.13101196 C85.14000732 90.47101196 86.46000732 89.81101196 87.82000732 89.13101196 C87.49000732 85.17101196 87.16000732 81.21101196 86.82000732 77.13101196 C85.90477295 77.49194946 84.98953857 77.85288696 84.04656982 78.22476196 C82.8580542 78.68882446 81.66953857 79.15288696 80.44500732 79.63101196 C79.26164795 80.09507446 78.07828857 80.55913696 76.85906982 81.03726196 C73.82000732 82.13101196 73.82000732 82.13101196 71.82000732 82.13101196 C71.84095459 83.42200806 71.86190186 84.71300415 71.88348389 86.04312134 C71.95619378 90.85876255 72.00191957 95.67435577 72.03973389 100.49038696 C72.05977892 102.56989721 72.08702246 104.64935159 72.12176514 106.72866821 C72.1705968 109.72750684 72.1930476 112.72559659 72.21063232 115.72476196 C72.23127747 116.64591797 72.25192261 117.56707397 72.27319336 118.5161438 C72.27602706 126.77279832 69.71898991 132.78981461 63.88250732 138.69351196 C58.82000732 143.13101196 58.82000732 143.13101196 45.82000732 150.13101196 C62.65000732 150.62601196 62.65000732 150.62601196 79.82000732 151.13101196 C79.82000732 156.41101196 79.82000732 161.69101196 79.82000732 167.13101196 C74.54000732 167.13101196 69.26000732 167.13101196 63.82000732 167.13101196 C63.82000732 177.69101196 63.82000732 188.25101196 63.82000732 199.13101196 C69.10000732 199.13101196 74.38000732 199.13101196 79.82000732 199.13101196 C79.82000732 204.41101196 79.82000732 209.69101196 79.82000732 215.13101196 C59.1140729 215.22368958 38.4081886 215.29503224 17.70208836 215.33826065 C8.08743278 215.35886771 -1.52709138 215.38695277 -11.1416626 215.43276978 C-19.52375045 215.47269442 -27.9057431 215.49845827 -36.2879234 215.50736594 C-40.72442701 215.51257117 -45.16065834 215.5247665 -49.59707451 215.55393219 C-53.77741475 215.58119035 -57.95737192 215.58943608 -62.13779259 215.58344269 C-63.66757543 215.58453829 -65.1973718 215.59243023 -66.72707748 215.60783386 C-74.95376352 215.68657315 -81.95936802 215.48200135 -89.17999268 211.13101196 C-89.98952393 210.66179321 -90.79905518 210.19257446 -91.63311768 209.70913696 C-98.27069821 204.80309918 -101.98628212 199.09764502 -104.17999268 191.13101196 C-105.17850779 180.03123924 -104.5294647 170.39652537 -97.42999268 161.31851196 C-90.02466283 153.38957293 -81.34941056 150.90962604 -70.80499268 150.50601196 C-69.97354736 150.46734009 -69.14210205 150.42866821 -68.28546143 150.38882446 C-66.25064112 150.29526951 -64.21534852 150.21208484 -62.17999268 150.13101196 C-63.01401611 149.73011353 -63.84803955 149.32921509 -64.70733643 148.91616821 C-75.07641214 143.67818151 -84.04409294 137.49926214 -88.17999268 126.13101196 C-88.68542431 122.6470912 -88.64938174 119.23909917 -88.57061768 115.72476196 C-88.56495789 114.75945557 -88.5592981 113.79414917 -88.5534668 112.79959106 C-88.5312323 109.7428748 -88.48106043 106.68736868 -88.42999268 103.63101196 C-88.40991096 101.54769566 -88.39166313 99.46436083 -88.37530518 97.38101196 C-88.33140992 92.29721857 -88.26247271 87.21431982 -88.17999268 82.13101196 C-88.78558014 81.95682236 -89.3911676 81.78263275 -90.0151062 81.60316467 C-96.17715344 79.79738458 -102.19575928 77.74206759 -108.20343018 75.47866821 C-109.11202789 75.13726303 -110.02062561 74.79585785 -110.95675659 74.44410706 C-112.85824226 73.72752353 -114.75898281 73.00895986 -116.65899658 72.28848267 C-119.56458214 71.1898862 -122.47564647 70.10672824 -125.38702393 69.02359009 C-127.24284986 68.32206031 -129.09833132 67.61961841 -130.95343018 66.91616821 C-132.25345474 66.43628197 -132.25345474 66.43628197 -133.57974243 65.94670105 C-137.90514041 64.28594892 -141.26362403 62.91212351 -144.17999268 59.13101196 C-144.71124268 57.13101196 -144.71124268 57.13101196 -144.67999268 55.13101196 C-144.69030518 54.47101196 -144.70061768 53.81101196 -144.71124268 53.13101196 C-143.94119421 50.23200599 -142.43135976 49.08953658 -140.17999268 47.13101196 C-137.45629883 45.804245 -137.45629883 45.804245 -134.28057861 44.6234436 C-133.0782811 44.17026764 -131.87598358 43.71709167 -130.63725281 43.25018311 C-129.31302995 42.7636483 -127.98873253 42.27731636 -126.66436768 41.79116821 C-125.2743237 41.27177525 -123.8846476 40.75139684 -122.49531555 40.23010254 C-118.75400241 38.82931631 -115.00787186 37.44186134 -111.260746 36.0567131 C-107.36973381 34.61566564 -103.4834288 33.16204171 -99.59674072 31.7093811 C-93.24373044 29.33645688 -86.88830846 26.97011448 -80.53106689 24.60855103 C-67.89782549 19.91479107 -55.28000914 15.17999769 -42.66229248 10.44470215 C-39.03258728 9.08354761 -35.40185737 7.72516183 -31.77081299 6.36758423 C-30.65613144 5.95042145 -29.54144989 5.53325867 -28.39299011 5.10345459 C-26.32312002 4.3288419 -24.25295764 3.55500965 -22.18244934 2.78210449 C-21.28163132 2.44470245 -20.38081329 2.10730042 -19.45269775 1.75967407 C-18.67042313 1.46725327 -17.8881485 1.17483246 -17.08216858 0.87355042 C-11.11944012 -1.45407615 -6.34839233 -1.73480808 0 0 Z M-15.23321533 18.32730103 C-16.16604591 18.67877701 -16.16604591 18.67877701 -17.11772156 19.03735352 C-19.19435276 19.8206782 -21.26917887 20.60867685 -23.34405518 21.39663696 C-24.8114208 21.95111447 -26.27890141 22.50528777 -27.74649048 23.05917358 C-31.64471056 24.53128708 -35.54144814 26.007286 -39.43786621 27.48416138 C-43.27039766 28.93622071 -47.10410177 30.38517525 -50.93780518 31.83413696 C-52.45471492 32.40749327 -53.97162166 32.98085753 -55.48852539 33.55422974 C-56.23841484 33.83767746 -56.98830429 34.12112518 -57.76091766 34.41316223 C-60.03015868 35.27110898 -62.2992183 36.12953392 -64.5682373 36.98806763 C-79.75991043 42.73505035 -94.96811955 48.43774604 -110.17999268 54.13101196 C-110.17999268 54.79101196 -110.17999268 55.45101196 -110.17999268 56.13101196 C-109.66746948 56.32320816 -109.15494629 56.51540436 -108.62689209 56.71342468 C-107.04568969 57.30637558 -105.46448753 57.89932711 -103.88328552 58.49227905 C-101.98363916 59.20464514 -100.08399107 59.91700664 -98.18434143 60.62936401 C-92.83348691 62.63591099 -87.48266414 64.6425426 -82.13189697 66.64932251 C-72.53194032 70.24965401 -62.93194116 73.84986792 -53.33053589 77.44633484 C-49.73012656 78.79497557 -46.12986101 80.14399991 -42.52960205 81.49304199 C-40.85959354 82.11867247 -39.18951085 82.744105 -37.51934814 83.36932373 C-35.93864922 83.9610632 -34.35818717 84.55343589 -32.77798462 85.14649963 C-31.2914365 85.70268137 -29.80353703 86.25526733 -28.31417847 86.80387878 C-24.99878614 88.03174629 -21.77053868 89.31445043 -18.54083252 90.76138306 C-17.43562256 91.24816528 -16.3304126 91.73494751 -15.19171143 92.23648071 C-14.26189453 92.67500366 -13.33207764 93.11352661 -12.37408447 93.56533813 C-7.46479416 94.43477371 -3.79192936 92.81995854 0.82000732 91.13101196 C2.56295326 90.50299431 2.56295326 90.50299431 4.34111023 89.86228943 C8.50911813 88.3449735 12.6585087 86.77937124 16.80828857 85.21304321 C18.35784263 84.63087471 19.90750201 84.04898649 21.45726013 83.46736145 C25.52564057 81.93957627 29.59249486 80.40776818 33.65905762 78.87515259 C37.727991 77.34256285 41.79851566 75.81421172 45.86883545 74.28530884 C61.86765212 68.27346702 77.85784381 62.23963864 93.82000732 56.13101196 C93.82000732 55.47101196 93.82000732 54.81101196 93.82000732 54.13101196 C85.37630936 50.94795862 76.93249472 47.76521502 68.48854828 44.58282089 C64.5636629 43.10358169 60.6388114 41.62425274 56.71405029 40.14468384 C55.19598566 39.5724135 53.67791926 39.00014786 52.15985107 38.42788696 C51.40699326 38.14408424 50.65413544 37.86028152 49.87846375 37.56787872 C43.80439292 35.27840938 37.72930729 32.99164115 31.65400696 30.70543671 C27.02917544 28.96449512 22.40614939 27.21884836 17.78435516 25.46986008 C14.78996 24.33727613 11.79459258 23.20727973 8.79902649 22.07779694 C7.38471336 21.54383023 5.97083733 21.00870424 4.55741882 20.47237396 C2.61676652 19.73612609 0.67464356 19.00389834 -1.2678833 18.27261353 C-2.9146405 17.64978485 -2.9146405 17.64978485 -4.59466553 17.01437378 C-8.86404524 15.55560017 -11.0687035 16.75122135 -15.23321533 18.32730103 Z M-72.17999268 88.13101196 C-72.25450631 92.43598966 -72.30876491 96.7406193 -72.3447876 101.04605103 C-72.35981464 102.50868271 -72.38024223 103.97126978 -72.40631104 105.43374634 C-72.44296535 107.54388476 -72.45977944 109.65342422 -72.47296143 111.76382446 C-72.48867187 113.03113403 -72.50438232 114.2984436 -72.52056885 115.60415649 C-72.07075025 120.26227796 -70.59247557 123.57855329 -67.44561768 127.03726196 C-46.42641258 143.65709855 -15.38585025 144.68830886 10.11688232 141.92007446 C24.79859473 140.05880261 43.93334465 136.17853205 53.82000732 124.13101196 C55.90049775 119.95768116 56.05343166 116.49206844 56.01531982 111.86148071 C56.01248993 111.18047806 56.00966003 110.4994754 56.00674438 109.7978363 C55.99561257 107.63787741 55.97052189 105.47834402 55.94500732 103.31851196 C55.93496844 101.84781486 55.92584418 100.3771112 55.91766357 98.90640259 C55.89569646 95.31446911 55.86121552 91.72278212 55.82000732 88.13101196 C46.56834169 91.30993794 37.39519629 94.64175689 28.28875732 98.21694946 C26.47106053 98.92661444 24.6533521 99.63624962 22.83563232 100.34585571 C20.05722033 101.43145059 17.28096826 102.52155027 14.50946045 103.62466431 C11.77449332 104.71111235 9.03255287 105.77802938 6.28875732 106.84194946 C5.46984009 107.1731076 4.65092285 107.50426575 3.80718994 107.84545898 C-7.32018843 112.10990759 -15.07679992 109.52980633 -25.92999268 105.31851196 C-27.2370218 104.82392546 -28.54456759 104.33070236 -29.8526001 103.83877563 C-33.27003784 102.54965399 -36.68059349 101.24324316 -40.08984375 99.93264771 C-44.25264421 98.336087 -48.4232742 96.76011883 -52.59274292 95.18107605 C-55.83114759 93.9542055 -59.06829639 92.7243104 -62.30206299 91.48526001 C-63.4541626 91.04480347 -64.60626221 90.60434692 -65.79327393 90.15054321 C-66.81203613 89.75971558 -67.83079834 89.36888794 -68.88043213 88.96621704 C-70.92889049 88.07411488 -70.92889049 88.07411488 -72.17999268 88.13101196 Z M-84.17999268 173.19351196 C-87.60715087 178.22715057 -87.83767927 182.10993748 -87.17999268 188.13101196 C-84.83206609 193.00747486 -81.89238413 195.5343881 -77.17999268 198.13101196 C-73.74815859 198.99719614 -70.55466875 199.2549645 -67.02305603 199.25126648 C-66.00648422 199.25264114 -64.98991241 199.25401581 -63.9425354 199.25543213 C-62.83842316 199.25183685 -61.73431091 199.24824158 -60.59674072 199.24453735 C-59.42558212 199.24468338 -58.25442352 199.24482941 -57.04777527 199.24497986 C-53.17906844 199.24428354 -49.31040984 199.23650418 -45.44171143 199.22866821 C-42.75842711 199.22680304 -40.07514546 199.22533041 -37.39186096 199.22438049 C-31.05256103 199.22127527 -24.71327839 199.21307278 -18.37398607 199.203031 C-11.15514651 199.19184475 -3.93630611 199.18635309 3.28253996 199.18133557 C18.12837321 199.17088949 32.97418552 199.15255406 47.82000732 199.13101196 C47.82000732 188.57101196 47.82000732 178.01101196 47.82000732 167.13101196 C32.32939825 167.06318511 16.83886314 167.00796635 1.34814548 166.97557545 C-5.84512603 166.96013331 -13.03829845 166.93909486 -20.23150635 166.9046936 C-26.50408547 166.87470962 -32.7765928 166.85541769 -39.0492416 166.84874648 C-42.36790033 166.84484936 -45.68630687 166.83415181 -49.00491142 166.81382179 C-52.71761024 166.79198592 -56.42988626 166.7890477 -60.14263916 166.79043579 C-61.2323703 166.77964996 -62.32210144 166.76886414 -63.44485474 166.75775146 C-71.00499136 166.78825616 -78.95236022 167.08866716 -84.17999268 173.19351196 Z " fill="#000000" transform="translate(264.17999267578125,168.86898803710938)"/>
</svg>
