<?xml version="1.0" encoding="UTF-8"?>
<svg version="1.1" xmlns="http://www.w3.org/2000/svg" width="256" height="256">
<path d="M0 0 C2.47377401 3.30886969 3.71749323 7.27499071 5.20703125 11.09765625 C7.50422724 14.81621097 9.33694668 15.39090628 13.4375 16.75 C19.94590563 18.97129885 19.94590563 18.97129885 22.171875 20.15234375 C25.37206213 21.6361912 28.6860579 20.78667411 32 20 C33.26399549 19.49184828 34.51549291 18.95110331 35.75 18.375 C39.16652971 16.92954512 39.72998 16.6982805 43 18 C44.921875 19.62890625 44.921875 19.62890625 46.75 21.5625 C47.36359375 22.20316406 47.9771875 22.84382813 48.609375 23.50390625 C49.06828125 23.99761719 49.5271875 24.49132812 50 25 C49.80664062 25.56847656 49.61328125 26.13695312 49.4140625 26.72265625 C48.87012465 28.33562047 48.33965389 29.9531677 47.8203125 31.57421875 C47 34 47 34 45.5 37.375 C44.82921344 42.23820254 46.37810915 44.93654356 48.6015625 49.21875 C50 52 50 52 50.7734375 54.53125 C52.09733853 58.80189848 53.08733925 60.51529087 57.140625 62.66796875 C60.37656236 63.91821727 63.68649715 64.97281412 67 66 C67 70.62 67 75.24 67 80 C64.9375 80.639375 62.875 81.27875 60.75 81.9375 C56.0600063 83.66984504 56.0600063 83.66984504 52.421875 86.9140625 C51.45054614 89.06770453 51.45054614 89.06770453 50.78515625 91.42578125 C50 94 50 94 48.49609375 96.79296875 C46.07494646 101.38647375 44.59005789 104.33807252 45.8671875 109.515625 C47.25671861 112.98903038 47.25671861 112.98903038 48.92578125 116.1875 C50 119 50 119 49.34375 121.16796875 C47.16277266 124.14145239 45.00417352 126.81786401 42 129 C38.66007959 129.08563898 36.61748602 127.82613001 33.5625 126.4375 C28.92622897 124.56672397 25.76371689 124.41898389 21 125.98828125 C18.94328063 126.89613004 16.89004891 127.81190939 14.83984375 128.734375 C12 130 12 130 8.5625 131.0625 C4.69468359 133.98694656 3.63538068 137.916157 1.98046875 142.3828125 C1 145 1 145 0 146 C-2.18639453 146.07258946 -4.37500389 146.08373783 -6.5625 146.0625 C-8.35880859 146.04896484 -8.35880859 146.04896484 -10.19140625 146.03515625 C-11.11824219 146.02355469 -12.04507813 146.01195312 -13 146 C-13.32871094 145.10796875 -13.65742188 144.2159375 -13.99609375 143.296875 C-16.93097002 135.37320999 -16.93097002 135.37320999 -23.3125 130.4375 C-24.87111872 129.94585517 -26.43375001 129.46676324 -28 129 C-29.52709479 128.24164681 -31.04806468 127.47082861 -32.5625 126.6875 C-37.24372886 124.61961803 -40.03164984 124.7979798 -45 126 C-46.26039446 126.51701895 -47.51115149 127.0582927 -48.75 127.625 C-52.17094264 129.07232189 -52.71596536 129.23551401 -56 128 C-58.42833425 126.32472222 -60.33586909 124.43920559 -62 122 C-62.08051966 118.21557605 -60.99157608 115.98218018 -59.375 112.5625 C-56.60771255 105.3927098 -59.81146333 99.56801607 -62.6484375 92.8671875 C-65.40597894 87.01737417 -66.86302755 84.58340808 -73.125 82.3125 C-78.90815577 80.18368846 -78.90815577 80.18368846 -80 78 C-80.0952699 76.52331663 -80.12985959 75.04224543 -80.125 73.5625 C-80.12757812 72.78003906 -80.13015625 71.99757813 -80.1328125 71.19140625 C-80 69 -80 69 -79 66 C-76.34765625 64.61328125 -76.34765625 64.61328125 -73.0625 63.3125 C-71.98097656 62.87550781 -70.89945313 62.43851563 -69.78515625 61.98828125 C-67 61 -67 61 -65 61 C-64.82984375 60.3709375 -64.6596875 59.741875 -64.484375 59.09375 C-63.24916866 54.73110633 -61.98854849 50.76882355 -59.75 46.8125 C-57.68687166 42.87595627 -57.8130865 40.35201617 -59 36 C-59.804375 34.205625 -59.804375 34.205625 -60.625 32.375 C-62.0933379 28.77089787 -62.40567586 27.56104551 -61 24 C-58.47854547 20.12776625 -56.46392657 18.23052521 -52 17 C-49.37129078 17.77339837 -47.14238536 18.92880732 -44.6953125 20.15234375 C-38.54782923 22.08568269 -32.81513059 19.35094157 -27.1875 16.9375 C-20.23026316 14 -20.23026316 14 -18 14 C-17.70996094 13.11248047 -17.70996094 13.11248047 -17.4140625 12.20703125 C-16.87758438 10.57900606 -16.33164801 8.95407367 -15.77734375 7.33203125 C-15.19084604 5.57253813 -14.67233907 3.79017504 -14.1875 2 C-13 0 -13 0 -10.3125 -0.875 C-3.58572844 -1.12884044 -3.58572844 -1.12884044 0 0 Z M-44 40 C-53.97808251 51.80962347 -56.89759915 64.82241441 -56 80 C-53.73099234 93.75697555 -46.64579843 105.43408704 -35.515625 113.88671875 C-23.45345756 121.51200613 -10.27520355 124.884626 3.78637695 121.92260742 C11.89767535 120.03866237 18.32069025 117.10178433 25 112 C26.29357422 111.01386719 26.29357422 111.01386719 27.61328125 110.0078125 C36.68478329 102.37646709 42.4148901 90.04385309 43.75 78.4375 C44.72591071 63.83498417 40.55558655 51.06188591 31 40 C30.47664063 39.39414063 29.95328125 38.78828125 29.4140625 38.1640625 C20.78405153 28.8857878 9.18712237 23.68247062 -3.390625 22.83984375 C-19.56131843 22.30852097 -32.95714686 28.36324552 -44 40 Z " fill="#FFFFFF" transform="translate(189,110)"/>
<path d="M0 0 C0.85705032 -0.00570007 1.71410065 -0.01140015 2.59712219 -0.01727295 C4.4084043 -0.02669797 6.21970335 -0.03324698 8.03100586 -0.03710938 C10.77423818 -0.04678141 13.51670993 -0.07781445 16.25976562 -0.109375 C30.83724479 -0.19959195 42.83367829 1.36540789 53.91796875 11.921875 C57.11328125 15.60460805 57.11328125 15.60460805 57.11328125 18.203125 C54.11328125 19.203125 54.11328125 19.203125 52.1328125 18.42578125 C51.40449219 18.04292969 50.67617187 17.66007812 49.92578125 17.265625 C45.16705162 15.07876543 42.33544163 14.29131922 37.11328125 15.203125 C34.10179533 17.22362835 31.64252259 19.61780293 29.11328125 22.203125 C28.30890625 22.88375 27.50453125 23.564375 26.67578125 24.265625 C24.4245628 27.05713587 24.11328125 28.59032511 24.11328125 32.203125 C24.72983796 33.86837862 25.4021835 35.51349507 26.11328125 37.140625 C28.06734485 41.71599343 28.57705529 44.29517675 27.11328125 49.203125 C26.85804687 50.09386719 26.6028125 50.98460937 26.33984375 51.90234375 C24.7255664 56.44780893 23.51886486 59.40643793 19.21875 61.84375 C15.98828125 63.078125 15.98828125 63.078125 12.85546875 64.0078125 C9.34835174 65.53655581 8.57811745 66.68943295 7.11328125 70.203125 C6.88400484 71.59048401 6.69413488 72.98477866 6.53857422 74.38232422 C6.39822754 75.64318848 6.25788086 76.90405273 6.11328125 78.203125 C-0.20371758 78.30465282 -6.52050554 78.37464379 -12.83813477 78.42285156 C-14.98665225 78.44295086 -17.13511515 78.47023493 -19.28344727 78.50488281 C-22.3739978 78.55347413 -25.4638243 78.57611079 -28.5546875 78.59375 C-29.99245796 78.62471771 -29.99245796 78.62471771 -31.45927429 78.65631104 C-35.75627419 78.65775262 -38.21485643 78.60340152 -41.9699707 76.36621094 C-45.36867615 72.53070842 -45.07434202 68.57527773 -45.125 63.7109375 C-45.13307175 62.96915253 -45.14114349 62.22736755 -45.14945984 61.46310425 C-45.16329187 59.88786138 -45.17401798 58.31258864 -45.18188477 56.73730469 C-45.1933126 55.14899725 -45.21361545 53.56072536 -45.2434082 51.97265625 C-45.52815673 36.77758385 -43.53469482 23.67635525 -32.921875 12.05078125 C-23.61599938 3.01415339 -12.60701636 0.06551721 0 0 Z " fill="#FFFFFF" transform="translate(94.88671875,104.796875)"/>
<path d="M0 0 C8.18613126 5.72341278 13.34120807 13.87563675 15.57421875 23.5625 C16.70294595 35.58475718 15.1359784 46.22633406 7.31640625 55.71875 C-0.40495252 63.89023283 -9.76077125 68.59824271 -21.17578125 68.9375 C-32.11341325 68.31876534 -41.60594268 64.38233857 -49.42578125 56.5625 C-56.3028973 47.12332111 -59.63197247 37.25585382 -58.42578125 25.5625 C-56.44527662 14.57069932 -50.42142883 6.04812606 -41.42578125 -0.4375 C-28.58825512 -8.11667472 -12.76999587 -7.56740496 0 0 Z " fill="#FFFFFF" transform="translate(126.42578125,28.4375)"/>
<path d="M0 0 C1.421875 1.72265625 1.421875 1.72265625 2.75 4.0625 C5.80225904 9.00872491 9.4644036 12.41987188 14 16 C11.79995924 18.20004076 10.46596298 18.63085428 7.5625 19.625 C-5.55523743 24.73161559 -13.56330196 33.57670257 -19.703125 45.83984375 C-22.8020315 53.39109484 -23.34422967 60.36149769 -23.5625 68.4375 C-23.62213166 70.41549471 -23.68570908 72.39337583 -23.75390625 74.37109375 C-23.77783447 75.23661865 -23.8017627 76.10214355 -23.82641602 76.99389648 C-24 79 -24 79 -25 80 C-29.45034272 80.24391515 -33.90649691 80.22858647 -38.36279297 80.24023438 C-40.59511563 80.24987099 -42.82649017 80.28084597 -45.05859375 80.3125 C-46.48957788 80.31903701 -47.92056859 80.32428474 -49.3515625 80.328125 C-50.64916504 80.3374707 -51.94676758 80.34681641 -53.28369141 80.35644531 C-57.60721062 79.94176012 -60.17695717 79.02511532 -64 77 C-66.51475887 73.2278617 -66.32342794 70.18968511 -66.3359375 65.81640625 C-66.3425943 65.00566147 -66.3492511 64.19491669 -66.35610962 63.35960388 C-66.36623979 61.63892888 -66.37092653 59.91821456 -66.37060547 58.19750977 C-66.37493248 55.60298726 -66.41111581 53.0102318 -66.44921875 50.41601562 C-66.54877988 35.84640699 -64.12790245 23.91968619 -54.03515625 12.84375 C-45.36386906 4.43903041 -34.97379 1.12356226 -23.0859375 0.68359375 C-21.45011719 0.62075195 -21.45011719 0.62075195 -19.78125 0.55664062 C-18.6571875 0.51732422 -17.533125 0.47800781 -16.375 0.4375 C-15.24320313 0.39431641 -14.11140625 0.35113281 -12.9453125 0.30664062 C-8.62611711 0.14543843 -4.32267411 0 0 0 Z " fill="#FFFFFF" transform="translate(66,81)"/>
<path d="M0 0 C4.93517553 3.20900474 9.9537219 6.87671411 13 12 C12.8203125 13.9921875 12.8203125 13.9921875 12 16 C10.328125 17.30859375 10.328125 17.30859375 8.25 18.4375 C4.59937535 20.56920404 1.84876472 22.83470586 -1 26 C-1.66 26.721875 -2.32 27.44375 -3 28.1875 C-11.30953435 39.87278268 -13.47008795 52.14531237 -11.5 66.25 C-11.2525 67.61125 -11.2525 67.61125 -11 69 C-19.78601341 71.44274812 -28.32013744 69.94371614 -36.3515625 65.78125 C-44.73679059 60.59451098 -51.38298311 53.67604035 -54.375 44.15234375 C-56.65711679 32.64191719 -55.59365981 21.75180094 -49.5625 11.57421875 C-38.49508463 -4.25537775 -17.01381656 -9.07757452 0 0 Z " fill="#FFFFFF" transform="translate(73,4)"/>
<path d="M0 0 C8.31927652 6.00103015 13.70658966 13.30213078 16.3125 23.3125 C17.69178943 34.5262352 16.1552281 44.06069904 9.7734375 53.6171875 C3.43253975 61.58087424 -4.84909776 65.47880069 -14.53515625 67.96484375 C-18.69586327 68.42370735 -22.561772 67.91284522 -26.6875 67.3125 C-26.67178955 66.72871582 -26.6560791 66.14493164 -26.63989258 65.54345703 C-26.57667972 62.84157405 -26.53824077 60.13984741 -26.5 57.4375 C-26.47486328 56.5196875 -26.44972656 55.601875 -26.42382812 54.65625 C-26.29680664 42.63154958 -30.19490078 32.67235173 -38.0625 23.5625 C-42.39760447 19.84669617 -46.93808932 16.47877379 -51.6875 13.3125 C-49.36307818 6.65147032 -44.98962672 2.16624562 -38.85546875 -1.27734375 C-25.80359178 -7.30531906 -12.53060933 -7.76813112 0 0 Z " fill="#FFFFFF" transform="translate(175.6875,5.6875)"/>
<path d="M0 0 C8.00670493 7.55726411 12.57026108 17.61082421 13.02685547 28.52734375 C13.20225276 38.84935442 10.98254243 47.46592956 4.625 55.75 C3.903125 56.74 3.18125 57.73 2.4375 58.75 C-3.65164475 65.8200708 -13.08619436 70.90926153 -22.34765625 71.97753906 C-34.19576793 72.8448732 -44.76100972 71.3038495 -54.375 63.75 C-56.9375 61.375 -56.9375 61.375 -59.375 58.75 C-60.6125 57.4815625 -60.6125 57.4815625 -61.875 56.1875 C-68.11064768 48.47187265 -70.77654021 38.53297958 -70.375 28.75 C-68.95498626 16.57845364 -64.66482676 6.99415289 -55.6953125 -1.4296875 C-38.41798836 -14.98395189 -16.81020861 -13.49282399 0 0 Z M-51.125 8.0625 C-57.42988791 14.84133165 -60.375 22.00878589 -60.375 31.3671875 C-59.70031252 40.61602841 -56.05110479 48.55033877 -49.1875 54.875 C-40.55735275 61.7791178 -32.34022145 62.90731015 -21.375 61.75 C-11.87232483 59.41797867 -6.00456514 54.14227665 -0.671875 46.12890625 C3.47451771 38.52302323 4.16884105 29.44134915 1.90234375 21.0859375 C0.95288471 18.84875061 -0.1131311 16.82544227 -1.375 14.75 C-1.725625 14.12609375 -2.07625 13.5021875 -2.4375 12.859375 C-6.63133532 6.16088803 -13.72118097 1.54131935 -21.375 -0.25 C-32.35888903 -2.44677781 -42.94125349 0.31313494 -51.125 8.0625 Z " fill="#FFFFFF" transform="translate(211.375,152.25)"/>
<path d="M0 0 C6.78950896 3.7515605 10.60471933 8.63447049 13.0390625 15.9375 C13.88595636 25.30886649 12.73144995 31.42458201 6.7890625 38.6875 C0.15473303 44.11558775 -5.18278749 45.62665913 -13.83984375 45.31640625 C-19.9670897 44.57254786 -24.01168933 42.20937677 -28.2734375 37.8125 C-32.48296839 32.42982116 -34.36825666 26.12487779 -33.8984375 19.3125 C-32.66489859 11.95022042 -29.54509635 6.90299621 -23.83984375 2.1640625 C-16.88140355 -2.37845356 -7.74422042 -2.7789287 0 0 Z " fill="#FFFFFF" transform="translate(192.9609375,161.0625)"/>
<path d="M0 0 C2.60693359 -0.29638672 2.60693359 -0.29638672 5.8984375 -0.1796875 C7.70248047 -0.1178125 7.70248047 -0.1178125 9.54296875 -0.0546875 C11.43982422 0.03425781 11.43982422 0.03425781 13.375 0.125 C15.21384766 0.17914063 15.21384766 0.17914063 17.08984375 0.234375 C29.81051096 0.74697877 41.8901033 2.71683548 51.6875 11.375 C52.8321875 12.674375 52.8321875 12.674375 54 14 C54.48082031 14.46664062 54.96164063 14.93328125 55.45703125 15.4140625 C61.06820559 21.18149739 64.81808043 29.33964856 65.1328125 37.40234375 C65.08898437 38.25957031 65.04515625 39.11679688 65 40 C61.57696298 39.6120558 58.92017765 38.8578618 56 37 C53.99067306 33.7395827 52.58584338 30.49715531 51.19140625 26.93359375 C50.19577235 23.93639185 50.19577235 23.93639185 48 22 C41.71193122 19.78068161 33.90253922 20.37802731 27.5 21.75 C23.9272188 24.96550308 22.86289165 28.77697577 21.37109375 33.28515625 C20 36 20 36 17.34765625 37.37109375 C16.57292969 37.57863281 15.79820312 37.78617188 15 38 C14.52691406 37.41992188 14.05382812 36.83984375 13.56640625 36.2421875 C7.07103806 28.56929642 0.30702246 23.70674157 -8.95703125 19.859375 C-11.02121131 18.99107746 -13.00752601 18.02086308 -15 17 C-14.34 16.360625 -13.68 15.72125 -13 15.0625 C-8.32126037 10.38376037 -3.67356812 5.51035219 0 0 Z " fill="#FFFFFF" transform="translate(145,81)"/>
</svg>
