<?xml version="1.0" encoding="UTF-8"?>
<svg version="1.1" xmlns="http://www.w3.org/2000/svg" width="512" height="512">
<path d="M0 0 C4.65157378 2.15965926 8.00698447 5.22880225 10 10 C10.60862772 14.12980908 10.60492175 18.22942488 10.609375 22.3984375 C10.62591125 23.58853424 10.64244751 24.77863098 10.65948486 26.00479126 C10.70795532 29.7949134 10.72933489 33.58463428 10.75 37.375 C10.77816029 39.94923893 10.80808779 42.52345917 10.83984375 45.09765625 C10.91371437 51.39836469 10.96536261 57.69896031 11 64 C12.20076172 64.19118408 13.40152344 64.38236816 14.63867188 64.5793457 C16.24873122 64.84045227 17.8587554 65.10177574 19.46875 65.36328125 C20.64969238 65.55041687 20.64969238 65.55041687 21.85449219 65.74133301 C59.33841938 71.86999359 93.30113303 94.36877924 115.72949219 124.75439453 C135.98745562 153.23149801 144.05571439 185.22892165 144.19923019 219.76835632 C144.2112119 222.40411344 144.23071146 225.03972036 144.25234985 227.67541504 C144.31331191 235.16246366 144.36773025 242.64949311 144.40136719 250.13671875 C144.42258799 254.74020534 144.45809827 259.34340917 144.50212479 263.94673157 C144.51606598 265.67821374 144.5249563 267.40974583 144.52817917 269.14128113 C144.6158405 311.74298667 160.7036046 347.79145593 190.75 377.8125 C193.37354243 380.40919331 195.99968807 382.99969998 198.66015625 385.55859375 C205.47417893 392.66838369 207.95060848 401.28705938 208.3125 410.9375 C208.02419704 421.90997152 203.28938751 432.21073903 195.375 439.8125 C182.69488838 449.53572399 169.95701919 448.66699092 154.640625 448.48828125 C152.28123732 448.47894233 149.92183986 448.47183132 147.56243896 448.46684265 C141.38749881 448.44785809 135.21315757 448.39883089 129.03845215 448.34332275 C122.72363382 448.29194555 116.40871762 448.26928927 110.09375 448.24414062 C97.72890521 448.1907039 85.36450264 448.10549509 73 448 C72.80428406 448.81571976 72.60856812 449.63143951 72.40692139 450.47187805 C72.14469788 451.54632675 71.88247437 452.62077545 71.61230469 453.7277832 C71.22591827 455.32261284 71.22591827 455.32261284 70.83172607 456.94966125 C69.73793588 460.96111493 68.17785135 464.51793791 66.25 468.1875 C65.89784424 468.86965576 65.54568848 469.55181152 65.18286133 470.25463867 C62.31768908 475.66720366 59.14282488 480.46852688 55 485 C54.19949219 485.89203125 53.39898437 486.7840625 52.57421875 487.703125 C39.17026167 501.90239646 20.40448383 511.62321223 0.66796875 512.43359375 C-1.49205799 512.4572833 -3.6524417 512.45811186 -5.8125 512.4375 C-6.95251465 512.42847656 -8.0925293 512.41945313 -9.26708984 512.41015625 C-27.94579788 512.02749386 -44.86593636 505.23980769 -59 493 C-59.79277344 492.40316406 -60.58554688 491.80632812 -61.40234375 491.19140625 C-72.70395233 481.65726728 -80.1110528 467.94345116 -83.58984375 453.75244141 C-83.98804321 452.13542831 -83.98804321 452.13542831 -84.39428711 450.48574829 C-84.69411499 449.25530289 -84.69411499 449.25530289 -85 448 C-86.30132874 448.01110306 -87.60265747 448.02220612 -88.94342041 448.03364563 C-101.24230217 448.13526178 -113.5410981 448.21008065 -125.84030533 448.25906086 C-132.1625959 448.28508919 -138.48454597 448.32036416 -144.80664062 448.37719727 C-150.91452098 448.4317574 -157.02207501 448.46147135 -163.13018036 448.47438622 C-165.45366294 448.48358302 -167.77712885 448.50154183 -170.1004715 448.52865028 C-185.44333832 448.70045412 -198.20061419 448.73668609 -209.95703125 437.515625 C-217.40799208 428.34082811 -220.88842403 417.75066505 -220 406 C-217.85045281 392.33361283 -210.20332805 383.69967971 -200 375 C-174.95379839 352.59867728 -160.28568063 319.10049804 -157 286 C-156.90022338 283.27008353 -156.83644431 280.56366468 -156.82641602 277.83422852 C-156.819729 277.06057449 -156.81304199 276.28692047 -156.80615234 275.48982239 C-156.79219329 273.82246474 -156.7802709 272.15508901 -156.77020454 270.48770332 C-156.75361157 267.83173752 -156.73036391 265.17590299 -156.70530701 262.52000427 C-156.63506646 254.97247029 -156.57485088 247.42488092 -156.52319336 239.87719727 C-156.49102282 235.24481629 -156.44965417 230.6125861 -156.40299797 225.98032951 C-156.38719775 224.23323266 -156.37477785 222.48610125 -156.36609077 220.73895454 C-156.14762805 177.39912464 -143.19932412 139.58971658 -113 108 C-112.33097656 107.2678125 -111.66195312 106.535625 -110.97265625 105.78125 C-96.44401557 90.41389822 -76.850306 78.93514875 -57 72 C-56.36771484 71.77473633 -55.73542969 71.54947266 -55.08398438 71.31738281 C-47.30841594 68.57835092 -39.62520646 66.62980693 -31.48828125 65.35546875 C-30.66670532 65.22281616 -29.84512939 65.09016357 -28.99865723 64.95349121 C-26.99979078 64.63137487 -24.99998929 64.31506956 -23 64 C-22.99635437 63.33680756 -22.99270874 62.67361511 -22.98895264 61.99032593 C-22.94709853 55.07929614 -22.87773176 48.16892865 -22.79248047 41.25830078 C-22.76427841 38.68024321 -22.74306013 36.10209929 -22.72900391 33.52392578 C-22.70756491 29.81498025 -22.66090604 26.10707207 -22.609375 22.3984375 C-22.60814636 21.24822113 -22.60691772 20.09800476 -22.60565186 18.91293335 C-22.49127735 12.64470786 -22.23764399 8.74854482 -18 4 C-12.72867143 -1.00776214 -6.89190982 -0.92775709 0 0 Z M-91.51953125 133.515625 C-104.02775942 146.65791082 -112.96889101 162.63956378 -118.3125 179.9375 C-118.55508545 180.71109863 -118.7976709 181.48469727 -119.04760742 182.28173828 C-122.77682306 195.08155585 -123.28986852 208.08450581 -123.30496025 221.31534195 C-123.30870361 223.96044098 -123.32564188 226.60519064 -123.34571838 229.25021362 C-123.40036973 236.75951547 -123.4316079 244.26886624 -123.45629883 251.77832031 C-123.60438848 292.67443246 -123.60438848 292.67443246 -127 309 C-127.21873779 310.08684082 -127.43747559 311.17368164 -127.6628418 312.29345703 C-128.23791959 314.89375031 -128.89267692 317.44012572 -129.625 320 C-129.87660889 320.89605957 -130.12821777 321.79211914 -130.38745117 322.71533203 C-138.77905563 351.30728072 -154.37543085 377.1890425 -175.92578125 397.765625 C-176.96255005 398.76710571 -176.96255005 398.76710571 -178.02026367 399.78881836 C-179.40386194 401.11913341 -180.80092508 402.43560979 -182.2121582 403.73657227 C-185.97545422 407.13516704 -185.97545422 407.13516704 -187.1796875 411.82421875 C-185.72055063 414.51540827 -184.83365509 414.91609464 -182 416 C-179.174919 416.2994317 -179.174919 416.2994317 -176.02166748 416.25168228 C-174.79001484 416.25689778 -173.5583622 416.26211327 -172.28938675 416.26748681 C-170.92046297 416.26316258 -169.55153979 416.25864926 -168.18261719 416.25396729 C-166.73008442 416.25627103 -165.27755281 416.25944697 -163.82502365 416.26342177 C-159.82839794 416.27179034 -155.83186743 416.26763517 -151.83524132 416.26144934 C-147.52707643 416.25693427 -143.2189282 416.2639039 -138.9107666 416.26940918 C-130.46903141 416.27831494 -122.02733173 416.27637591 -113.58559513 416.2705839 C-106.72645335 416.26607206 -99.86732155 416.26545243 -93.00817871 416.26763153 C-91.54533325 416.26809123 -91.54533325 416.26809123 -90.05293536 416.26856022 C-88.07194042 416.26919965 -86.09094548 416.26984808 -84.10995054 416.2705054 C-65.5224223 416.27621216 -46.93491376 416.26964538 -28.34738874 416.25890467 C-12.38913471 416.24996884 3.56909024 416.25152079 19.52734375 416.26074219 C38.04714309 416.27143871 56.56692514 416.2756628 75.08672714 416.26951766 C77.06054433 416.26888054 79.03436152 416.2682518 81.00817871 416.26763153 C81.97940273 416.26732298 82.95062674 416.26701443 83.95128179 416.26669653 C90.80431739 416.26496773 97.65734206 416.26788866 104.51037598 416.27259064 C112.85886923 416.27819261 121.20732486 416.27669745 129.55581379 416.26602915 C133.81751896 416.26076321 138.07916134 416.25873134 142.34086609 416.26532745 C146.23918413 416.27127 150.13738094 416.26803996 154.03568792 416.25737235 C155.44881873 416.2551311 156.8619597 416.25629077 158.27508402 416.26112393 C160.19060487 416.26717477 162.10615425 416.25979362 164.02166748 416.25168228 C165.08727276 416.25135758 166.15287804 416.25103287 167.25077438 416.25069833 C170.04236938 415.99613639 171.68056839 415.5506215 174 414 C175.19957631 411.68684858 175.19957631 411.68684858 175 409 C173.28928231 406.52269658 173.28928231 406.52269658 170.70703125 404.26171875 C169.77221924 403.36751221 168.83740723 402.47330566 167.87426758 401.55200195 C167.37408112 401.08492828 166.87389465 400.61785461 166.35855103 400.1366272 C163.76147007 397.70236043 161.22310606 395.20896281 158.6875 392.7109375 C158.1864827 392.21783585 157.68546539 391.72473419 157.16926575 391.21669006 C136.02903245 370.22264843 122.36839445 340.7742932 115.8125 312 C115.6575708 311.32533691 115.5026416 310.65067383 115.34301758 309.95556641 C112.59015944 297.18482223 111.70983366 284.64426738 111.69503975 271.62352753 C111.69129866 268.97057674 111.67436732 266.31797497 111.65428162 263.6651001 C111.59960104 256.13373382 111.5683463 248.6023192 111.54370117 241.07080078 C111.52761859 236.43030419 111.49719749 231.79006014 111.45893669 227.14969635 C111.44747485 225.40704321 111.44135803 223.66434458 111.44125557 221.92165375 C111.43827413 184.71746393 99.9713428 154.04567254 73.48046875 127.47265625 C26.00357278 82.35917824 -46.71989738 88.78544792 -91.51953125 133.515625 Z M-50 448 C-48.06055331 457.69723346 -40.64200925 465.95910149 -32.6875 471.65625 C-20.60489325 479.3589118 -7.52953219 480.98759709 6.4765625 478.34375 C19.93707488 474.30907445 29.88270262 465.0901815 36.93359375 453.234375 C38.21536479 450.96139511 38.21536479 450.96139511 38 448 C8.96 448 -20.08 448 -50 448 Z " fill="#000000" transform="translate(262,0)"/>
<path d="M0 0 C8.07512649 6.59193999 14.59026747 14.37478722 21.0625 22.5 C21.69671875 23.25539063 22.3309375 24.01078125 22.984375 24.7890625 C53.74835284 61.78211023 72.85249276 109.91289287 78.0625 157.5 C78.1553125 158.34699463 78.248125 159.19398926 78.34375 160.06665039 C79.03871955 166.98594092 79.27754386 173.86059755 79.3125 180.8125 C79.333125 181.85728516 79.35375 182.90207031 79.375 183.97851562 C79.40342032 189.56666068 79.30371349 193.71572076 76.0625 198.5 C71.96220714 202.38448797 68.35292965 204.24070608 62.75 204.875 C58.1612984 204.40835238 54.82148176 203.17214573 51.0625 200.5 C47.04439408 195.45161051 45.96398774 191.57160705 45.66796875 185.234375 C45.6019043 183.96327881 45.53583984 182.69218262 45.46777344 181.38256836 C45.43292847 180.70870087 45.3980835 180.03483337 45.36218262 179.34054565 C42.35951934 123.385311 21.45670818 74.85852892 -15.078125 32.7890625 C-15.54210693 32.25458496 -16.00608887 31.72010742 -16.48413086 31.16943359 C-17.51316072 29.98742348 -18.54556519 28.8083473 -19.58032227 27.63134766 C-20.11713623 27.01565918 -20.6539502 26.3999707 -21.20703125 25.765625 C-21.69534424 25.20907227 -22.18365723 24.65251953 -22.68676758 24.07910156 C-25.60973444 20.38873466 -26.14094818 16.69798538 -26 12.125 C-25.1991899 6.55701451 -22.21372517 2.99950563 -17.9375 -0.5 C-11.74665666 -3.3140197 -5.98876045 -3.05809044 0 0 Z " fill="#000000" transform="translate(411.9375,25.5)"/>
<path d="M0 0 C3.87195298 3.95905213 5.88231572 7.59319573 6.03515625 13.171875 C5.38337422 20.88462908 1.8106811 24.78471702 -3.6953125 29.98828125 C-7.92176866 34.12066684 -11.49587577 38.75662413 -15.15234375 43.390625 C-15.94511719 44.36644531 -16.73789063 45.34226563 -17.5546875 46.34765625 C-24.60173857 55.19821802 -30.50069521 64.59908575 -36.15234375 74.390625 C-36.75393311 75.42678955 -36.75393311 75.42678955 -37.36767578 76.48388672 C-53.09236523 103.88826577 -62.8532765 135.88902864 -64.69921875 167.453125 C-64.73984436 168.14636368 -64.78046997 168.83960236 -64.82232666 169.55384827 C-65.01476485 172.97991929 -65.17574204 176.4043124 -65.29394531 179.83374023 C-65.61857664 187.05771488 -66.14476886 192.28734582 -70.15234375 198.390625 C-75.39050226 202.55977157 -79.47559797 203.93789924 -86.15234375 203.390625 C-91.42473722 201.58069888 -95.09755132 199.15610118 -98.15234375 194.390625 C-110.25950439 158.06914309 -88.2136134 101.92609719 -72.33203125 69.59765625 C-60.82005463 46.67243677 -46.12273176 26.54265814 -29.15234375 7.390625 C-28.05212891 6.12605469 -28.05212891 6.12605469 -26.9296875 4.8359375 C-19.72917387 -2.98012699 -9.41566249 -7.04038647 0 0 Z " fill="#000000" transform="translate(120.15234375,26.609375)"/>
</svg>
