<?xml version="1.0" encoding="UTF-8"?>
<svg version="1.1" xmlns="http://www.w3.org/2000/svg" width="748" height="748">
<path d="M0 0 C1.03873146 0.85326774 2.07781519 1.70610676 3.1171875 2.55859375 C11.81279392 9.7941818 19.8644472 17.65001308 27.875 25.625 C28.40893372 26.15375732 28.94286743 26.68251465 29.49298096 27.22729492 C36.46911037 34.15005269 42.88099657 41.29340637 49 49 C49.86327863 50.02764214 50.73168424 51.05104559 51.609375 52.06640625 C112.95105641 123.59438878 141.92312844 221.55954253 135.3125 314.875 C128.94793741 391.8067984 99.09853156 466.05044142 49 525 C48.14673226 526.03873146 47.29389324 527.07781519 46.44140625 528.1171875 C39.2058182 536.81279392 31.34998692 544.8644472 23.375 552.875 C22.84624268 553.40893372 22.31748535 553.94286743 21.77270508 554.49298096 C14.84994731 561.46911037 7.70659363 567.88099657 0 574 C-1.02764214 574.86327863 -2.05104559 575.73168424 -3.06640625 576.609375 C-74.59438878 637.95105641 -172.55954253 666.92312844 -265.875 660.3125 C-342.8067984 653.94793741 -417.05044142 624.09853156 -476 574 C-477.03873146 573.14673226 -478.07781519 572.29389324 -479.1171875 571.44140625 C-487.81279392 564.2058182 -495.8644472 556.34998692 -503.875 548.375 C-504.67590057 547.58186401 -504.67590057 547.58186401 -505.49298096 546.77270508 C-512.46911037 539.84994731 -518.88099657 532.70659363 -525 525 C-525.86327863 523.97235786 -526.73168424 522.94895441 -527.609375 521.93359375 C-588.95105641 450.40561122 -617.92312844 352.44045747 -611.3125 259.125 C-604.94793741 182.1932016 -575.09853156 107.94955858 -525 49 C-524.14673226 47.96126854 -523.29389324 46.92218481 -522.44140625 45.8828125 C-515.2058182 37.18720608 -507.34998692 29.1355528 -499.375 21.125 C-498.84624268 20.59106628 -498.31748535 20.05713257 -497.77270508 19.50701904 C-490.84994731 12.53088963 -483.70659363 6.11900343 -476 0 C-474.97235786 -0.86327863 -473.94895441 -1.73168424 -472.93359375 -2.609375 C-393.25284014 -70.94279124 -282.17210471 -98.65681671 0 0 Z M-389 -11 C-390.24064209 -10.39188477 -390.24064209 -10.39188477 -391.50634766 -9.77148438 C-409.79847478 -0.7490911 -427.16463278 10.13798765 -443 23 C-444.31291016 24.02673828 -444.31291016 24.02673828 -445.65234375 25.07421875 C-450.83820933 29.14140763 -455.77833158 33.41957333 -460.64453125 37.86328125 C-462.66993971 39.70059208 -464.72831255 41.48040688 -466.8125 43.25 C-475.53334358 50.87632475 -483.64809549 59.15719041 -490.8046875 68.26953125 C-492.59995175 70.5024311 -494.44154194 72.64120009 -496.34375 74.78125 C-552.09864967 138.19854657 -575.40222933 227.73836969 -570.53515625 310.68774414 C-567.44112268 354.97788476 -555.7531291 398.28094805 -536 438 C-535.39188477 439.24064209 -535.39188477 439.24064209 -534.77148438 440.50634766 C-525.98050105 458.32931098 -515.39860953 475.45253726 -503 491 C-500.80548588 488.95941833 -499.32987047 487.05230147 -497.94140625 484.40234375 C-497.56169678 483.69223145 -497.1819873 482.98211914 -496.79077148 482.25048828 C-496.1827771 481.10555908 -496.1827771 481.10555908 -495.5625 479.9375 C-479.36623277 450.14410528 -456.99180029 421.88783182 -431 400 C-430.46793945 399.54882812 -429.93587891 399.09765625 -429.38769531 398.6328125 C-414.32626649 385.9182985 -398.19393281 374.64907134 -381 365 C-380.24589844 364.57509277 -379.49179687 364.15018555 -378.71484375 363.71240234 C-362.89709797 354.89267612 -346.28118073 347.48373659 -329 342 C-329 341.34 -329 340.68 -329 340 C-330.84937303 338.62280732 -332.75811556 337.32516225 -334.6875 336.0625 C-357.92252422 320.42354139 -376.5726368 299.54519427 -390 275 C-390.34369629 274.37834961 -390.68739258 273.75669922 -391.04150391 273.11621094 C-412.20495883 234.36454453 -416.61451454 188.74455788 -404.36328125 146.4375 C-398.42300292 126.82569014 -389.41664808 108.35588152 -377 92 C-376.35675781 91.14664063 -375.71351563 90.29328125 -375.05078125 89.4140625 C-347.00401169 53.34580306 -306.73644315 28.50802954 -261.29589844 21.82666016 C-216.453013 16.27864875 -170.75501169 27.77318555 -134.97265625 55.58203125 C-121.3685919 66.64762367 -109.57131371 77.97691352 -99 92 C-98.35933594 92.845625 -97.71867187 93.69125 -97.05859375 94.5625 C-70.44984936 131.11093777 -60.18664613 176.81324021 -66.95703125 221.28125 C-73.03937068 256.86747472 -90.62146177 287.85668543 -115 314 C-115.72445313 314.79019531 -116.44890625 315.58039063 -117.1953125 316.39453125 C-125.29935625 324.89690935 -134.84479734 332.83309209 -145.01171875 338.75390625 C-145.66785156 339.16511719 -146.32398438 339.57632812 -147 340 C-147 340.66 -147 341.32 -147 342 C-146.4644751 342.17950195 -145.9289502 342.35900391 -145.37719727 342.54394531 C-123.45106744 349.98469851 -102.58857052 359.62427522 -83 372 C-81.96359375 372.65226562 -80.9271875 373.30453125 -79.859375 373.9765625 C-56.13655697 389.39005122 -33.26448314 408.33825572 -15 430 C-14.55414551 430.52142578 -14.10829102 431.04285156 -13.64892578 431.58007812 C-0.53703336 446.97547821 10.42749196 463.63661424 20.18188477 481.33666992 C20.64135498 482.16658447 21.1008252 482.99649902 21.57421875 483.8515625 C21.97213623 484.58197754 22.37005371 485.31239258 22.7800293 486.06494141 C24.0029129 488.0046203 25.31760682 489.4519424 27 491 C79.90301713 420.58283893 104.24054837 330.93915992 92.51123047 243.35009766 C87.06135721 205.76594044 76.92493888 170.03220437 60 136 C59.59458984 135.17290527 59.18917969 134.34581055 58.77148438 133.49365234 C49.7490911 115.20152522 38.86201235 97.83536722 26 82 C25.31550781 81.12472656 24.63101563 80.24945313 23.92578125 79.34765625 C19.85859237 74.16179067 15.58042667 69.22166842 11.13671875 64.35546875 C9.29940792 62.33006029 7.51959312 60.27168745 5.75 58.1875 C-1.87632475 49.46665642 -10.15719041 41.35190451 -19.26953125 34.1953125 C-21.5024311 32.40004825 -23.64120009 30.55845806 -25.78125 28.65625 C-108.03853265 -43.66229382 -233.72773034 -63.37387596 -389 -11 Z M-270 64 C-270.70624512 64.17160645 -271.41249023 64.34321289 -272.14013672 64.52001953 C-304.84272856 72.76010066 -333.45064694 92.65236156 -351.34765625 121.46875 C-360.876347 137.46248514 -367.68131488 155.45051903 -370 174 C-370.10957031 174.8146875 -370.21914063 175.629375 -370.33203125 176.46875 C-374.36301367 212.15638103 -365.54170909 249.42649316 -343.078125 277.765625 C-322.28885869 303.07503309 -292.14237308 321.36522831 -259.32421875 325.56640625 C-221.77243028 329.21199381 -183.90951692 322.94162785 -153.98046875 298.55078125 C-152.99691406 297.70902344 -152.01335937 296.86726562 -151 296 C-150.4942041 295.57638184 -149.9884082 295.15276367 -149.46728516 294.71630859 C-123.19639467 272.5895117 -109.0325856 240.84024082 -105.3125 207.09375 C-102.29698232 171.66141723 -111.92633501 134.54762842 -135 107 C-143.99788073 96.92560773 -153.44713256 88.05758828 -165 81 C-166.35158203 80.10474609 -166.35158203 80.10474609 -167.73046875 79.19140625 C-196.92633544 60.70206331 -236.75661097 55.88509794 -270 64 Z M-283 371 C-283.88107422 371.1556543 -284.76214844 371.31130859 -285.66992188 371.47167969 C-332.21828274 379.74731091 -372.48726044 401.37389081 -408 432 C-409.0514382 432.8601642 -410.10352013 433.71954212 -411.15625 434.578125 C-413.49136106 436.56681848 -415.42713138 438.46418123 -417.375 440.8125 C-419.67489803 443.52237986 -422.03260134 446.00848781 -424.625 448.4375 C-443.39814082 467.0294329 -457.72440444 492.06512493 -468.75 515.875 C-469.1099707 516.63039063 -469.46994141 517.38578125 -469.84082031 518.1640625 C-471.63203578 522.02205843 -471.63203578 522.02205843 -471.5625 526.16015625 C-469.29733592 528.82738695 -466.84191702 531.22080032 -464.25 533.5625 C-463.67507813 534.0869873 -463.10015625 534.61147461 -462.5078125 535.15185547 C-456.79750569 540.29514858 -450.80323394 545.03263576 -444.69677734 549.69287109 C-443.08044106 550.93803145 -441.48678783 552.21247315 -439.89453125 553.48828125 C-410.98024181 576.46579643 -376.85926142 592.45250615 -342 604 C-341.07558105 604.30808594 -340.15116211 604.61617187 -339.19873047 604.93359375 C-257.25842514 631.87967635 -163.85647255 623.22235805 -87 585 C-86.17290527 584.59458984 -85.34581055 584.18917969 -84.49365234 583.77148438 C-66.20152522 574.7490911 -48.83536722 563.86201235 -33 551 C-32.12472656 550.31550781 -31.24945312 549.63101563 -30.34765625 548.92578125 C-25.17789327 544.87122138 -20.24987567 540.60977964 -15.40234375 536.17578125 C-12.49634861 533.54384744 -9.508344 531.01701089 -6.49609375 528.5078125 C-4.74072854 526.96172045 -4.74072854 526.96172045 -4 524 C-4.52931357 522.03242919 -4.52931357 522.03242919 -5.51953125 519.96484375 C-6.05586182 518.76456543 -6.05586182 518.76456543 -6.60302734 517.54003906 C-7.00215332 516.68120117 -7.4012793 515.82236328 -7.8125 514.9375 C-8.42665771 513.60090332 -8.42665771 513.60090332 -9.05322266 512.23730469 C-16.04035652 497.2660114 -24.27090006 483.34569486 -34 470 C-34.4228125 469.41879395 -34.845625 468.83758789 -35.28125 468.23876953 C-41.32107132 460.00715368 -47.91783968 452.35055006 -55 445 C-55.63357422 444.33919434 -56.26714844 443.67838867 -56.91992188 442.99755859 C-65.55202453 434.04083335 -74.28276679 425.58346396 -84.32910156 418.2265625 C-85.98171254 417.01342434 -87.61224369 415.77461088 -89.2421875 414.53125 C-99.22946297 407.03189737 -110.01216723 400.90400242 -121 395 C-121.76376953 394.58862793 -122.52753906 394.17725586 -123.31445312 393.75341797 C-144.86003317 382.36408406 -169.08268033 375.22533482 -193 371 C-193.82693359 370.83918945 -194.65386719 370.67837891 -195.50585938 370.51269531 C-223.24833847 365.21123654 -255.31399093 365.61600993 -283 371 Z " fill="#000000" transform="translate(612,87)"/>
</svg>
