<?xml version="1.0" encoding="UTF-8"?>
<svg version="1.1" xmlns="http://www.w3.org/2000/svg" width="512" height="512">
<path d="M0 0 C5.77817129 4.8025478 11.10167775 9.95606304 16.40625 15.2734375 C17.28978149 16.15601227 18.17331299 17.03858704 19.08361816 17.94790649 C21.41719483 20.28063292 23.7483335 22.61576341 26.07867432 24.95172119 C27.4973624 26.37235878 28.91798047 27.79103541 30.33935547 29.20898438 C33.09352803 31.956942 35.8441726 34.70838274 38.59375 37.4609375 C39.43248657 38.29764984 40.27122314 39.13436218 41.13537598 39.99642944 C45.37624988 44.25406083 49.44780488 48.58651364 53.36758423 53.14074707 C55.96704004 56.10141794 58.73723626 58.88029443 61.52734375 61.66015625 C62.11995499 62.25372421 62.71256622 62.84729218 63.32313538 63.45884705 C64.56470122 64.70108708 65.80750536 65.94209068 67.05151367 67.18188477 C68.93328274 69.05829475 70.80964738 70.93998969 72.68554688 72.82226562 C73.90332538 74.03938321 75.12141411 75.2561905 76.33984375 76.47265625 C77.16366798 77.29951683 77.16366798 77.29951683 78.00413513 78.14308167 C80.83556313 80.95790118 83.72332787 83.65443215 86.75 86.25878906 C91.93234761 90.74868132 96.78857742 95.56513848 101.66015625 100.38671875 C102.15053312 100.87177195 102.64091 101.35682514 103.14614677 101.85657692 C105.72874857 104.41270759 108.30784203 106.97232421 110.88452148 109.53442383 C113.01244828 111.64889831 115.14746158 113.75581813 117.28881836 115.85668945 C119.88967989 118.40841597 122.47822134 120.97203186 125.05819511 123.54487038 C126.04001219 124.51996494 127.02608695 125.49079176 128.01643562 126.45722008 C129.39241339 127.8017683 130.75147855 129.16355969 132.10961914 130.52612305 C132.88713028 131.29554733 133.66464142 132.06497162 134.4657135 132.85771179 C136 135 136 135 135.76376343 136.9430542 C134.9180976 139.2205772 134.02668167 140.34585936 132.31407166 142.05342102 C131.74368164 142.62938019 131.17329163 143.20533936 130.58561707 143.79875183 C129.95657974 144.41857437 129.32754242 145.03839691 128.67944336 145.67700195 C128.01915131 146.33933838 127.35885925 147.0016748 126.67855835 147.68408203 C124.48950898 149.87614376 122.28988795 152.05725892 120.08984375 154.23828125 C118.56285807 155.76220812 117.0364635 157.28672749 115.51063538 158.81181335 C112.30630384 162.01153785 109.09712135 165.20628593 105.8840332 168.3972168 C101.78077434 172.47231286 97.68612809 176.55592226 93.59468746 180.64288044 C89.67955019 184.55283727 85.75974674 188.45810339 81.83984375 192.36328125 C81.09864729 193.10259699 80.35745083 193.84191273 79.59379387 194.60363197 C77.47386424 196.71662133 75.35060652 198.82620804 73.22631836 200.93481445 C72.61145065 201.5485643 71.99658295 202.16231415 71.36308289 202.79466248 C68.39129051 205.7376995 65.37321989 208.57155979 62.19960022 211.2964325 C57.0841613 215.72587859 52.34895743 220.52676736 47.58007812 225.32226562 C46.55763302 226.34663411 45.53495689 227.37077205 44.5120697 228.3946991 C42.32430454 230.58560512 40.13809772 232.77804978 37.95310974 234.97172546 C34.49175026 238.44670476 31.0264926 241.91777955 27.56066895 245.38830566 C20.20413412 252.75590059 12.8518433 260.12772401 5.5 267.5 C-2.43926755 275.46133285 -10.37927796 283.42191638 -18.32419443 291.37761259 C-21.76306228 294.82143582 -25.19948349 298.26767571 -28.63399506 301.7158432 C-30.77751594 303.86686979 -32.92314835 306.01578086 -35.06933403 308.16414833 C-36.05698511 309.15365733 -37.04377865 310.14402319 -38.02960396 311.13535118 C-42.97235121 316.10479644 -47.94267039 320.96432089 -53.28780842 325.50181389 C-56.26394368 328.10596436 -58.94931744 330.98396131 -61.66796875 333.8515625 C-62.90320271 335.12866337 -64.13956659 336.40467215 -65.37695312 337.6796875 C-67.28495318 339.64914117 -69.18600519 341.62341691 -71.06860352 343.6171875 C-72.91595466 345.56892375 -74.78906997 347.49273632 -76.66796875 349.4140625 C-77.48118843 350.29392319 -77.48118843 350.29392319 -78.31083679 351.19155884 C-87.3344901 360.2776502 -101.93079623 362.60931856 -113.921875 366.0703125 C-115.56567745 366.5493751 -117.20932998 367.02895234 -118.85284424 367.50900269 C-123.24222281 368.78958153 -127.6335302 370.06341164 -132.02539062 371.33544922 C-137.53089294 372.93086091 -143.03462602 374.53236456 -148.53865814 376.1328392 C-149.91914211 376.53425817 -149.91914211 376.53425817 -151.32751465 376.94378662 C-152.24953171 377.2119091 -153.17154877 377.48003159 -154.12150574 377.75627899 C-156.9283615 378.57219805 -159.73547121 379.38723906 -162.54260254 380.20220947 C-173.7730909 383.46483973 -184.990678 386.76795093 -196.19684601 390.11312485 C-200.68410035 391.45142295 -205.17339852 392.78285344 -209.6626091 394.11457253 C-213.1588559 395.15255132 -216.65347876 396.19545837 -220.14489746 397.24957275 C-223.98825271 398.40991637 -227.83751023 399.54936481 -231.6875 400.6875 C-232.79740295 401.0269162 -233.90730591 401.3663324 -235.05084229 401.71603394 C-242.8682362 404.00208706 -249.91031513 405.27383627 -257.8125 402.8125 C-263.80759059 399.40352692 -266.94380039 395.60148295 -269 389 C-270.08432553 380.36225959 -267.48504587 372.5332102 -264.99609375 364.359375 C-264.56429568 362.90481687 -264.13373764 361.44989015 -263.70431519 359.99462891 C-262.54005161 356.06115111 -261.3593796 352.13277512 -260.17563248 348.2051239 C-258.93386307 344.07483856 -257.70709284 339.94010594 -256.47924805 335.80566406 C-254.93467577 330.60825474 -253.38839818 325.41137319 -251.83534241 320.2164917 C-248.29672235 308.37901097 -244.79619606 296.53087628 -241.32457542 284.67357635 C-240.52963649 281.95867104 -239.73398098 279.24397682 -238.93806458 276.52935791 C-238.6789564 275.6456036 -238.41984823 274.76184929 -238.1528883 273.85131454 C-237.6353012 272.08600727 -237.11771354 270.32070016 -236.60012531 268.55539322 C-235.33297846 264.23305592 -234.06676238 259.91045042 -232.80245972 255.58728027 C-231.61181189 251.51716113 -230.4167722 247.4483552 -229.21854019 243.38046265 C-228.77975956 241.88814379 -228.34249514 240.39537813 -227.90688705 238.90213013 C-227.30953558 236.85509749 -226.70680683 234.80972061 -226.1027832 232.76464844 C-225.76720901 231.62074646 -225.43163483 230.47684448 -225.08589172 229.29827881 C-222.54369757 221.57663868 -219.53603531 216.95933827 -213.80981445 211.33984375 C-213.08095535 210.60879425 -212.35209625 209.87774475 -211.60115051 209.12454224 C-209.19803412 206.71912146 -206.78096321 204.32827328 -204.36328125 201.9375 C-202.68199303 200.26113943 -201.00151905 198.58396188 -199.32182312 196.90600586 C-195.80135237 193.39316876 -192.27453202 189.88688519 -188.74243164 186.38574219 C-184.22945561 181.91226371 -179.72724384 177.42815371 -175.22912312 172.93974304 C-170.92317797 168.64380882 -166.61232899 164.35281018 -162.30078125 160.0625 C-161.48510492 159.25021942 -160.6694286 158.43793884 -159.82903481 157.6010437 C-157.50105262 155.28473371 -155.16967767 152.97189614 -152.8371582 150.66015625 C-152.15997742 149.98566437 -151.48279663 149.31117249 -150.78509521 148.61624146 C-147.65922215 145.5249842 -144.49718378 142.53067353 -141.16142273 139.66638184 C-136.05721038 135.25123208 -131.33634358 130.46054839 -126.58007812 125.67773438 C-125.55763302 124.65336589 -124.53495689 123.62922795 -123.5120697 122.6053009 C-121.32430454 120.41439488 -119.13809772 118.22195022 -116.95310974 116.02827454 C-113.49175026 112.55329524 -110.0264926 109.08222045 -106.56066895 105.61169434 C-99.20413412 98.24409941 -91.8518433 90.87227599 -84.5 83.5 C-76.56073245 75.53866715 -68.62072204 67.57808362 -60.67580557 59.62238741 C-57.23693772 56.17856418 -53.80051651 52.73232429 -50.36600494 49.2841568 C-48.22248406 47.13313021 -46.07685165 44.98421914 -43.93066597 42.83585167 C-42.94301489 41.84634267 -41.95622135 40.85597681 -40.97039604 39.86464882 C-36.01798847 34.88549106 -31.03469939 30.01707042 -25.68751526 25.46111202 C-22.98741805 23.12326976 -20.47957417 20.60402307 -17.96875 18.06640625 C-17.4473645 17.5436058 -16.925979 17.02080536 -16.38879395 16.48216248 C-14.75678922 14.84465002 -13.12833426 13.20366151 -11.5 11.5625 C-10.38044368 10.4379167 -9.26065371 9.31356595 -8.140625 8.18945312 C-5.42438466 5.46230656 -2.71131708 2.73204093 0 0 Z M-189 249 C-192.14936354 256.89533316 -194.49729513 265.03318809 -196.921875 273.171875 C-197.15205574 273.94285774 -197.38223648 274.71384048 -197.6193924 275.50818634 C-198.83400696 279.57724377 -200.04514712 283.64731628 -201.25341797 287.71826172 C-202.50115106 291.91962015 -203.76092267 296.11726935 -205.02338791 300.31422043 C-205.99430317 303.54984515 -206.95630167 306.78807098 -207.91587067 310.02707672 C-208.3766265 311.57662731 -208.84075236 313.12517998 -209.30831146 314.67269135 C-209.9594781 316.83087098 -210.5979339 318.99242695 -211.23339844 321.15527344 C-211.59963318 322.38356873 -211.96586792 323.61186401 -212.34320068 324.87738037 C-212.9665394 327.84091834 -213.13724597 329.24875672 -212 332 C-209.76607429 335.03338013 -207.11583285 337.66945447 -204.5 340.375 C-203.81679687 341.13683594 -203.13359375 341.89867187 -202.4296875 342.68359375 C-201.74132812 343.39386719 -201.05296875 344.10414063 -200.34375 344.8359375 C-199.72693359 345.49126465 -199.11011719 346.1465918 -198.47460938 346.82177734 C-194.46992615 348.72850596 -191.05185903 347.19936196 -187 346 C-185.22669815 345.50187302 -185.22669815 345.50187302 -183.41757202 344.99368286 C-179.05961402 343.76368308 -174.7156104 342.48744408 -170.37109375 341.2109375 C-168.76977298 340.74271802 -167.16837708 340.27475545 -165.56690979 339.80703735 C-161.37903978 338.58320401 -157.19219107 337.35591278 -153.0055542 336.12786865 C-148.72241984 334.87219516 -144.43831669 333.61983604 -140.15429688 332.3671875 C-131.76858614 329.91467878 -123.38395274 327.45851169 -115 325 C-114.66918918 321.88783446 -114.66918918 321.88783446 -116.93359375 319.80859375 C-117.75988281 319.02613281 -118.58617187 318.24367188 -119.4375 317.4375 C-123.45103662 313.61239233 -125.05855202 311.91400692 -125.37304688 306.38256836 C-125.45818542 304.94614235 -125.45818542 304.94614235 -125.54504395 303.48069763 C-125.60236694 302.44421585 -125.65968994 301.40773407 -125.71875 300.33984375 C-125.81295227 298.74953087 -125.81295227 298.74953087 -125.90905762 297.12709045 C-126.17856691 292.57623171 -126.43792936 288.02480911 -126.69775391 283.47338867 C-126.88848676 280.15780803 -127.08469422 276.84258344 -127.28125 273.52734375 C-127.338573 272.48883774 -127.395896 271.45033173 -127.45495605 270.38035583 C-127.5400946 268.94865807 -127.5400946 268.94865807 -127.62695312 267.48803711 C-127.67501099 266.64357529 -127.72306885 265.79911346 -127.77258301 264.92906189 C-127.79867935 262.99483524 -127.79867935 262.99483524 -129 262 C-130.48981662 261.82601009 -131.98706873 261.71503983 -133.48461914 261.63037109 C-134.43973892 261.57295746 -135.3948587 261.51554382 -136.37892151 261.45639038 C-137.42047897 261.39601593 -138.46203644 261.33564148 -139.53515625 261.2734375 C-141.72862805 261.12798777 -143.92198488 260.98079563 -146.11523438 260.83203125 C-149.58170802 260.59938201 -153.04747479 260.37583904 -156.51635742 260.18212891 C-159.85861392 259.99220894 -163.19601371 259.76132477 -166.53515625 259.5234375 C-167.5625441 259.47520844 -168.58993195 259.42697937 -169.64845276 259.37728882 C-177.23672111 258.78457938 -180.761275 256.34445197 -186 251 C-186.99 250.34 -187.98 249.68 -189 249 Z " fill="#000000" transform="translate(271,106)"/>
<path d="M0 0 C1.89708243 1.78780526 3.74693944 3.61246039 5.5836277 5.46224213 C6.27756126 6.14931244 6.97149483 6.83638275 7.68645668 7.54427338 C9.95387464 9.79354948 12.21019926 12.05356741 14.46570778 14.31478119 C16.0523656 15.89687145 17.63939278 17.47859136 19.2267704 19.05995941 C22.54250045 22.36678327 25.85253189 25.67918499 29.15882301 28.99544525 C33.38001497 33.22812801 37.61685767 37.44474239 41.85835743 41.65706253 C45.13667013 44.91696248 48.40555021 48.18619588 51.67181778 51.4581604 C53.22953651 53.01603169 54.79033017 54.57083504 56.3543396 56.12239075 C68.26808549 67.95457155 78.74061551 79.05879058 80.04773903 96.59603119 C80.04773903 112.96491649 73.90313482 124.52772891 62.62586403 135.82991791 C61.57767934 136.86804884 60.52561 137.90227278 59.46961403 138.93245697 C55.8929176 142.42673584 52.62823815 146.05539169 49.54773903 150.00228119 C48.04773903 151.33040619 48.04773903 151.33040619 44.04773903 151.33040619 C42.09037067 149.75734746 40.41379765 148.21893834 38.6693821 146.43306732 C38.13918614 145.90628907 37.60899019 145.37951081 37.06272769 144.83676958 C35.28278043 143.063428 33.51753505 141.27613448 31.75184059 139.48860931 C30.48118982 138.21683066 29.20965839 136.94593136 27.93731117 135.67584991 C24.48029635 132.21998543 21.03577548 128.75190313 17.59331036 125.28155327 C13.99563686 121.65891956 10.3866759 118.0475674 6.77887917 114.43502045 C-0.05368534 107.59001036 -6.87598732 100.73486523 -13.6946919 93.87605143 C-21.45701121 86.06906372 -29.23065574 78.27339523 -37.0052886 70.47867298 C-53.00027708 54.44184433 -68.98093757 38.39080094 -84.95226097 22.33040619 C-83.38473557 19.03102281 -81.69015562 16.81110859 -79.10069847 14.21321869 C-78.33112816 13.44107025 -77.56155785 12.66892181 -76.76866722 11.87337494 C-75.96300316 11.07544525 -75.1573391 10.27751556 -74.32726097 9.45540619 C-73.54480003 8.66521088 -72.7623391 7.87501556 -71.95616722 7.06087494 C-51.37491355 -13.45211586 -23.76424466 -20.32342827 0 0 Z " fill="#000000" transform="translate(427.95226097106934,16.669593811035156)"/>
<path d="M0 0 C3.9425255 1.59523825 6.59302432 4.31868845 9.5302124 7.28970337 C10.07674257 7.83452468 10.62327273 8.379346 11.18636441 8.94067705 C13.01672504 10.76774306 14.83984509 12.60186625 16.66308594 14.43603516 C17.97357453 15.74708786 19.28450362 17.05770038 20.59584045 18.36790466 C24.15576769 21.92725741 27.70948913 25.49274874 31.26214504 29.05935717 C34.97549204 32.78519552 38.69449283 36.50538156 42.41290283 40.22616577 C49.45393653 47.27341893 56.4898559 54.32575543 63.52396131 61.37992322 C71.53205094 69.41035736 79.54581142 77.43512213 87.56005812 85.45941091 C104.0463656 101.96663093 120.52552308 118.48097346 137 135 C133.7312445 141.81034593 127.69003577 146.32118066 122.0390625 151.17578125 C119.26946463 153.65356325 116.70836674 156.3119633 114.15234375 159.0078125 C111.33480742 161.61569549 108.12409699 163.76850215 105 166 C60.12 121.12 15.24 76.24 -31 30 C-24.24700146 22.12150171 -24.24700146 22.12150171 -21.23046875 19.31640625 C-20.57304687 18.70224854 -19.915625 18.08809082 -19.23828125 17.45532227 C-18.56152344 16.83069092 -17.88476562 16.20605957 -17.1875 15.5625 C-16.48625 14.91015381 -15.785 14.25780762 -15.0625 13.58569336 C-10.10452657 8.98570669 -5.10414878 4.4377738 0 0 Z " fill="#000000" transform="translate(321,56)"/>
</svg>
