<?xml version="1.0" encoding="UTF-8"?>
<svg version="1.1" xmlns="http://www.w3.org/2000/svg" width="469" height="532">
<path d="M0 0 C1.19182955 -0.00153894 2.3836591 -0.00307789 3.61160469 -0.00466347 C34.32251606 -0.00526862 58.84315819 7.40469194 81.35595703 28.96240234 C99.80103677 48.15243684 109.56401066 72.73023781 109.07104492 99.30078125 C107.95229765 125.36850226 96.13577656 148.32528539 77.34033203 166.13427734 C58.36870853 183.27067729 35.04093758 189.39205473 10.04345703 190.02490234 C11.06181641 190.40259766 12.08017578 190.78029297 13.12939453 191.16943359 C23.88231197 195.29904698 33.41831161 200.54527236 43.08691406 206.77929688 C44.75760253 207.84291711 46.45840056 208.85899296 48.16455078 209.86474609 C55.48743175 214.21171027 61.45050193 219.66131606 67.52832031 225.56542969 C68.87495165 226.86258762 70.25214304 228.12785111 71.63330078 229.38818359 C98.62970422 254.72192361 115.03892029 294.6004708 116.32250977 331.30682373 C116.76535599 347.63566667 116.72211686 364.03777066 113.04345703 380.02490234 C112.74544189 381.34288818 112.74544189 381.34288818 112.44140625 382.6875 C109.37844837 395.81806776 105.04593373 407.96291829 99.04345703 420.02490234 C98.55208252 421.02408691 98.55208252 421.02408691 98.05078125 422.04345703 C91.33437179 435.56997773 82.91530881 447.57810053 73.04345703 459.02490234 C72.61806641 459.51877441 72.19267578 460.01264648 71.75439453 460.52148438 C65.4142102 467.82335603 58.7434829 474.12906664 51.04345703 480.02490234 C49.64160156 481.13285156 49.64160156 481.13285156 48.21142578 482.26318359 C12.01330278 510.32036327 -29.09239527 517.48049007 -73.91064453 517.16015625 C-76.45543065 517.14970535 -79.00022069 517.14017481 -81.54501343 517.13148499 C-86.98062397 517.1108862 -92.41614299 517.08401724 -97.8516922 517.05116653 C-105.71016646 517.00368372 -113.5686613 516.96793913 -121.42720792 516.93488328 C-134.18312594 516.88091647 -146.93898025 516.81770873 -159.69482422 516.74853516 C-172.07175686 516.68143652 -184.44869911 516.61878606 -196.82568359 516.56201172 C-197.59107398 516.55849928 -198.35646437 516.55498683 -199.14504841 516.55136795 C-202.98552578 516.53377076 -206.82600354 516.5162599 -210.66648149 516.49879193 C-242.42990763 516.35420836 -274.19323973 516.19440612 -305.95654297 516.02490234 C-307.42810638 513.08177553 -307.08255848 510.47218628 -307.08352661 507.18540955 C-307.0850866 506.47386815 -307.08664659 505.76232676 -307.08825386 505.0292235 C-307.0922583 502.63314973 -307.08907636 500.23713876 -307.0859375 497.84106445 C-307.08729177 496.12812767 -307.08907185 494.41519118 -307.09124756 492.70225525 C-307.09581843 488.04129093 -307.09403383 483.38034867 -307.09086847 478.71938396 C-307.0883435 473.85113511 -307.09068276 468.9828882 -307.09225464 464.11463928 C-307.09407576 455.93913431 -307.09167135 447.76363837 -307.08691406 439.58813477 C-307.08146974 430.12233315 -307.08323557 420.65655306 -307.08874047 411.19075197 C-307.09327107 403.07696089 -307.09392246 394.96317631 -307.0913018 386.84938437 C-307.08973896 381.99745014 -307.08954547 377.14552604 -307.09283829 372.29359245 C-307.09571629 367.7341428 -307.09374263 363.17472105 -307.08794403 358.61527443 C-307.08661613 356.93702109 -307.08701106 355.25876543 -307.0892067 353.580513 C-307.09191698 351.29944692 -307.08853862 349.0184717 -307.08352661 346.7374115 C-307.08314959 345.4577951 -307.08277256 344.17817869 -307.08238411 342.85978603 C-306.95654297 340.02490234 -306.95654297 340.02490234 -305.95654297 339.02490234 C-273.49348128 336.59706997 -242.62575964 345.6738171 -217.60498047 366.81005859 C-201.53911112 380.84514959 -191.54475411 398.23454265 -183.95654297 418.02490234 C-183.62783203 417.04392578 -183.29912109 416.06294922 -182.96044922 415.05224609 C-173.01389461 386.42147671 -153.06717544 364.56979943 -125.95654297 351.02490234 C-119.81173656 348.23301969 -113.53147982 345.59244286 -106.95654297 344.02490234 C-108.12185547 344.03650391 -109.28716797 344.04810547 -110.48779297 344.06005859 C-152.37977683 344.35055362 -189.87673913 339.58881021 -227.01904297 319.08740234 C-228.55286621 318.24628906 -228.55286621 318.24628906 -230.11767578 317.38818359 C-237.35906164 313.27584985 -243.66577454 308.46649169 -249.95654297 303.02490234 C-250.824646 302.28127441 -251.69274902 301.53764648 -252.5871582 300.77148438 C-274.84807133 281.50492204 -289.88763042 256.86965394 -298.95654297 229.02490234 C-299.31425781 227.93628906 -299.31425781 227.93628906 -299.67919922 226.82568359 C-306.85691024 204.30817873 -309.502136 179.4890178 -306.95654297 156.02490234 C-306.86985352 155.20666992 -306.78316406 154.3884375 -306.69384766 153.54541016 C-301.74741711 110.25103397 -279.14328321 67.63355783 -245.17700195 40.06665039 C-242.14769302 37.6595465 -239.06369771 35.33031626 -235.95654297 33.02490234 C-235.38581055 32.59918945 -234.81507813 32.17347656 -234.22705078 31.73486328 C-213.79717459 16.72635573 -189.78373969 7.50705842 -164.95654297 3.02490234 C-164.0618631 2.85650345 -163.16718323 2.68810455 -162.24539185 2.51460266 C-149.02752104 0.39017057 -135.68535385 0.6712336 -122.33215094 0.62018538 C-118.70756458 0.60430773 -115.08305635 0.57757184 -111.45852661 0.55215454 C-105.36137288 0.51084812 -99.26421392 0.47630701 -93.16699219 0.44677734 C-84.67384164 0.40564355 -76.18079442 0.35293128 -67.68772674 0.29749751 C-45.12534272 0.15133742 -22.56291441 0.0161661 0 0 Z " fill="#1DCDD7" transform="translate(313.95654296875,2.97509765625)"/>
<path d="M0 0 C1.19182955 -0.00153894 2.3836591 -0.00307789 3.61160469 -0.00466347 C34.32251606 -0.00526862 58.84315819 7.40469194 81.35595703 28.96240234 C99.80103677 48.15243684 109.56401066 72.73023781 109.07104492 99.30078125 C107.95229765 125.36850226 96.13577656 148.32528539 77.34033203 166.13427734 C58.01396878 183.59110122 33.1827862 190.44915706 7.53613281 190.16748047 C1.7247353 189.83507536 -3.54477035 188.11930961 -8.95654297 186.02490234 C-25.13031309 180.07038001 -41.69291488 180.71949964 -58.69824219 180.70605469 C-61.39978719 180.69674543 -64.10131904 180.68666087 -66.80285645 180.6756134 C-72.59538126 180.65345625 -78.38788876 180.63837398 -84.18044662 180.62824631 C-92.55526532 180.61359336 -100.9300236 180.58803851 -109.3048066 180.55991502 C-122.89589666 180.51456649 -136.48699547 180.47790264 -150.078125 180.44677734 C-163.27215103 180.41654269 -176.46615571 180.38217002 -189.66015625 180.34228516 C-190.47491491 180.33982361 -191.28967357 180.33736206 -192.12912188 180.33482592 C-196.21696873 180.32245036 -200.30481533 180.30999401 -204.39266181 180.29749751 C-238.24725978 180.19410869 -272.10188155 180.10484675 -305.95654297 180.02490234 C-305.98965633 176.39211198 -306.00935356 172.75936131 -306.02685547 169.12646484 C-306.03628174 168.11011963 -306.04570801 167.09377441 -306.05541992 166.04663086 C-306.12696415 146.18118422 -301.4170699 125.71503525 -293.03466797 107.69287109 C-291.82008214 104.90057685 -291.82008214 104.90057685 -291.13232422 101.27880859 C-289.93709958 96.27520102 -287.5145631 92.16325847 -284.89404297 87.77490234 C-284.400896 86.93934814 -283.90774902 86.10379395 -283.3996582 85.24291992 C-271.15462834 64.80029788 -255.04843864 47.19050582 -235.95654297 33.02490234 C-235.38581055 32.59918945 -234.81507813 32.17347656 -234.22705078 31.73486328 C-213.79717459 16.72635573 -189.78373969 7.50705842 -164.95654297 3.02490234 C-164.0618631 2.85650345 -163.16718323 2.68810455 -162.24539185 2.51460266 C-149.02752104 0.39017057 -135.68535385 0.6712336 -122.33215094 0.62018538 C-118.70756458 0.60430773 -115.08305635 0.57757184 -111.45852661 0.55215454 C-105.36137288 0.51084812 -99.26421392 0.47630701 -93.16699219 0.44677734 C-84.67384164 0.40564355 -76.18079442 0.35293128 -67.68772674 0.29749751 C-45.12534272 0.15133742 -22.56291441 0.0161661 0 0 Z " fill="#F66787" transform="translate(313.95654296875,2.97509765625)"/>
<path d="M0 0 C31.57295812 0.0312162 60.64581225 12.01831298 83.37109375 34.09765625 C95.99394692 46.82284624 104.06757205 62.63697182 110.4375 79.25 C110.76621094 78.26902344 111.09492188 77.28804688 111.43359375 76.27734375 C121.38014764 47.64657645 141.32678751 25.79488879 168.4375 12.25 C175.26998405 9.15071164 182.30759631 6.57591371 189.4375 4.25 C189.4375 3.92 189.4375 3.59 189.4375 3.25 C202.45999345 1.77376593 215.25194453 2.25 228.4375 2.25 C228.4375 59.67 228.4375 117.09 228.4375 176.25 C263.00842964 174.92034886 292.62178013 170.86384888 322.79296875 154.203125 C325.60576199 152.65873273 328.41704505 151.35261268 331.4375 150.25 C319.59215388 163.9906015 295.03299487 170.22677073 278 174.0625 C277.14438477 174.25755127 276.28876953 174.45260254 275.40722656 174.65356445 C257.27414573 178.436017 238.9214759 178.51703817 220.48339844 178.38525391 C217.93861232 178.374803 215.39382228 178.36527247 212.84902954 178.35658264 C207.413419 178.33598386 201.97789998 178.30911489 196.54235077 178.27626419 C188.68387651 178.22878138 180.82538167 178.19303679 172.96683505 178.15998094 C160.21091703 178.10601413 147.45506272 178.04280639 134.69921875 177.97363281 C122.32228611 177.90653417 109.94534386 177.84388372 97.56835938 177.78710938 C96.42027379 177.78184071 96.42027379 177.78184071 95.24899456 177.77646561 C91.40851719 177.75886842 87.56803943 177.74135756 83.72756147 177.72388959 C51.96413534 177.57930601 20.20080324 177.41950378 -11.5625 177.25 C-13.03406341 174.30687319 -12.68851551 171.69728393 -12.68948364 168.4105072 C-12.69104363 167.69896581 -12.69260362 166.98742441 -12.69421089 166.25432116 C-12.69821533 163.85824738 -12.6950334 161.46223641 -12.69189453 159.06616211 C-12.69324881 157.35322533 -12.69502889 155.64028884 -12.69720459 153.92735291 C-12.70177546 149.26638859 -12.69999087 144.60544633 -12.6968255 139.94448161 C-12.69430054 135.07623276 -12.69663979 130.20798586 -12.69821167 125.33973694 C-12.70003279 117.16423197 -12.69762838 108.98873602 -12.69287109 100.81323242 C-12.68742677 91.34743081 -12.6891926 81.88165072 -12.6946975 72.41584963 C-12.6992281 64.30205854 -12.6998795 56.18827396 -12.69725883 48.07448202 C-12.695696 43.22254779 -12.6955025 38.3706237 -12.69879532 33.51869011 C-12.70167332 28.95924046 -12.69969966 24.39981871 -12.69390106 19.84037209 C-12.69257316 18.16211875 -12.69296809 16.48386308 -12.69516373 14.80561066 C-12.69787401 12.52454457 -12.69449565 10.24356936 -12.68948364 7.96250916 C-12.68910662 6.68289275 -12.68872959 5.40327635 -12.68834114 4.08488369 C-12.40842031 -2.22102706 -4.9732528 0.01214731 0 0 Z " fill="#B29EFD" transform="translate(19.5625,341.75)"/>
<path d="M0 0 C1.19182955 -0.00153894 2.3836591 -0.00307789 3.61160469 -0.00466347 C34.32251606 -0.00526862 58.84315819 7.40469194 81.35595703 28.96240234 C99.80103677 48.15243684 109.56401066 72.73023781 109.07104492 99.30078125 C107.95229765 125.36850226 96.13577656 148.32528539 77.34033203 166.13427734 C58.01396878 183.59110122 33.1827862 190.44915706 7.53613281 190.16748047 C1.71824666 189.83470422 -3.53256109 188.09941334 -8.95654297 186.02490234 C-10.74628394 185.43568721 -12.53772485 184.85158576 -14.33154297 184.27490234 C-16.12591797 183.65615234 -16.12591797 183.65615234 -17.95654297 183.02490234 C-17.95654297 182.36490234 -17.95654297 181.70490234 -17.95654297 181.02490234 C-19.23464844 180.64011719 -19.23464844 180.64011719 -20.53857422 180.24755859 C-41.88619593 172.61120934 -58.52426296 154.88946236 -68.49169922 134.95458984 C-72.86296326 124.9287549 -76.54597337 114.02474616 -76.95654297 103.02490234 C-77.00810547 101.85572266 -77.05966797 100.68654297 -77.11279297 99.48193359 C-77.8527197 74.81974745 -69.49268865 53.09898219 -53.95654297 34.02490234 C-53.43576172 33.28240234 -52.91498047 32.53990234 -52.37841797 31.77490234 C-51.90919922 31.19740234 -51.43998047 30.61990234 -50.95654297 30.02490234 C-50.29654297 30.02490234 -49.63654297 30.02490234 -48.95654297 30.02490234 C-48.62654297 29.03490234 -48.29654297 28.04490234 -47.95654297 27.02490234 C-46.09571698 25.35401712 -44.2595537 23.83862713 -42.26904297 22.33740234 C-41.68960938 21.89823486 -41.11017578 21.45906738 -40.51318359 21.0065918 C-29.50241734 12.83869658 -17.35673278 6.27207785 -3.95654297 3.02490234 C-22.49948379 2.95445874 -41.04239703 2.90174257 -59.58544445 2.86946583 C-68.19755241 2.8540731 -76.80957667 2.83313112 -85.42163086 2.79858398 C-92.93805658 2.76844662 -100.45442161 2.74927236 -107.97090608 2.74263686 C-111.94161493 2.73876527 -115.91215036 2.72983042 -119.88280296 2.70771217 C-140.4750043 2.59748483 -160.95999397 2.6801681 -180.83154297 8.83740234 C-181.6873999 9.09094482 -182.54325684 9.3444873 -183.42504883 9.60571289 C-190.11763575 11.63943407 -196.58755503 14.09225529 -203.02294922 16.82568359 C-205.95654297 18.02490234 -205.95654297 18.02490234 -208.29638672 18.56787109 C-208.84423828 18.71869141 -209.39208984 18.86951172 -209.95654297 19.02490234 C-210.28654297 19.68490234 -210.61654297 20.34490234 -210.95654297 21.02490234 C-211.61654297 20.36490234 -212.27654297 19.70490234 -212.95654297 19.02490234 C-200.34413685 12.81709394 -187.68512971 7.96832829 -173.95654297 4.83740234 C-173.28196045 4.68247314 -172.60737793 4.52754395 -171.91235352 4.36791992 C-169.60103225 3.8697506 -167.28341965 3.4449491 -164.95654297 3.02490234 C-163.61452316 2.772304 -163.61452316 2.772304 -162.24539185 2.51460266 C-149.02752104 0.39017057 -135.68535385 0.6712336 -122.33215094 0.62018538 C-118.70756458 0.60430773 -115.08305635 0.57757184 -111.45852661 0.55215454 C-105.36137288 0.51084812 -99.26421392 0.47630701 -93.16699219 0.44677734 C-84.67384164 0.40564355 -76.18079442 0.35293128 -67.68772674 0.29749751 C-45.12534272 0.15133742 -22.56291441 0.0161661 0 0 Z " fill="#C8C963" transform="translate(313.95654296875,2.97509765625)"/>
<path d="M0 0 C0.33 0 0.66 0 1 0 C1.12951208 6.66267698 0.93796203 13.2867637 0.5625 19.9375 C0.52326416 20.670896 0.48402832 21.40429199 0.44360352 22.15991211 C0.23937729 25.559632 -0.10793173 28.7169892 -1 32 C-0.44458413 31.99962028 0.11083175 31.99924056 0.68307841 31.99884933 C33.64317994 31.97644356 66.60327956 31.95929946 99.56338701 31.94893467 C103.52598198 31.94768405 107.48857693 31.94638972 111.45117188 31.94506836 C112.24001244 31.94480605 113.02885301 31.94454374 113.84159784 31.94427348 C126.59383229 31.93992893 139.34606221 31.93204807 152.09829397 31.9228472 C165.19520502 31.91347686 178.2921137 31.90793724 191.38902795 31.90591151 C199.46251132 31.90454329 207.53598187 31.90023083 215.60946129 31.89208353 C221.81301324 31.88614433 228.01655554 31.88554958 234.22010994 31.88689232 C236.75562048 31.88661825 239.29113154 31.88464307 241.82663918 31.88079453 C265.02341966 31.84732572 265.02341966 31.84732572 275.55562401 32.78524113 C278.08911599 33.04376061 278.08911599 33.04376061 281 33 C282.68236471 33.62599617 284.3523962 34.28752268 286 35 C286 35.33 286 35.66 286 36 C285.29962049 35.93019456 284.59924099 35.86038912 283.87763786 35.78846836 C271.02285742 34.68337622 258.15067652 34.8237837 245.25830078 34.79467773 C242.55676029 34.78508608 239.85522363 34.77511693 237.15368652 34.76467896 C231.36116351 34.74304341 225.56863816 34.72485254 219.77609634 34.70907402 C211.40129468 34.68625649 203.02651728 34.65813093 194.65173636 34.62875474 C181.06064101 34.58122344 167.46953565 34.53792061 153.87841797 34.49731445 C140.68439966 34.45788557 127.49039019 34.41644193 114.29638672 34.37231445 C113.48162806 34.36959018 112.6668694 34.36686591 111.82742108 34.36405908 C107.73957433 34.35037839 103.65172771 34.33665836 99.56388116 34.32291877 C65.70927242 34.20918149 31.85464516 34.10232243 -2 34 C-2.05906119 30.39590461 -2.09394639 26.79193691 -2.125 23.1875 C-2.14175781 22.18267578 -2.15851562 21.17785156 -2.17578125 20.14257812 C-2.22036024 13.21054456 -1.48266066 6.77059416 0 0 Z " fill="#C56D8A" transform="translate(10,149)"/>
<path d="M0 0 C35.41500481 -0.06875437 70.82999786 -0.12157352 106.24505574 -0.15319599 C110.43168115 -0.15694785 114.61830643 -0.16083084 118.80493164 -0.16479492 C119.63836912 -0.16558185 120.4718066 -0.16636878 121.33049976 -0.16717956 C134.80309444 -0.18021267 148.27565049 -0.20385491 161.7482223 -0.23145839 C175.58529417 -0.259571 189.42234588 -0.27618861 203.25944513 -0.28226548 C211.78900319 -0.28636981 220.31845202 -0.29930538 228.84797644 -0.3237494 C234.70700323 -0.33967898 240.56597404 -0.34438412 246.42502088 -0.34050413 C249.79906504 -0.33859372 253.17276685 -0.34307122 256.54680252 -0.35761642 C282.5379708 -0.46412153 282.5379708 -0.46412153 295 3 C295 3.33 295 3.66 295 4 C288.73 3.67 282.46 3.34 276 3 C276 2.34 276 1.68 276 1 C185.58 1 95.16 1 2 1 C1.04287543 10.87887823 1.04287543 10.87887823 4 19 C4.40501894 21.39759386 4.75408183 23.77726914 5.0625 26.1875 C5.15337891 26.84814453 5.24425781 27.50878906 5.33789062 28.18945312 C5.85836141 32.15364041 6.09322295 36.00384268 6 40 C3.80695617 36.31644586 3.16852407 32.41180898 2.4375 28.25 C2.24897461 27.23292969 2.24897461 27.23292969 2.05664062 26.1953125 C0.81054022 19.33197416 -0.0568516 12.71959709 -0.02563477 5.73535156 C-0.02193375 4.65981018 -0.01823273 3.5842688 -0.01441956 2.47613525 C-0.0096611 1.65901062 -0.00490265 0.84188599 0 0 Z " fill="#37C3D0" transform="translate(9,184)"/>
<path d="M0 0 C14.99580563 -0.07038682 29.99159835 -0.12313243 44.98753452 -0.15543652 C51.95195127 -0.17084109 58.91626479 -0.19180632 65.88061523 -0.22631836 C72.61093997 -0.2596545 79.34113573 -0.27689089 86.07154655 -0.28463173 C88.62975685 -0.290143 91.18796179 -0.30090451 93.74612617 -0.31719017 C119.46798701 -0.4743165 119.46798701 -0.4743165 132 3 C132 3.33 132 3.66 132 4 C125.73 3.67 119.46 3.34 113 3 C113 2.34 113 1.68 113 1 C75.71 1 38.42 1 0 1 C0 0.67 0 0.34 0 0 Z " fill="#3DC3D1" transform="translate(172,184)"/>
<path d="M0 0 C-27.14363616 19.70102624 -27.14363616 19.70102624 -42 19 C-38.99559979 16.99706653 -37.29006055 16.50728374 -33.8125 15.875 C-32.91144531 15.70742187 -32.01039063 15.53984375 -31.08203125 15.3671875 C-30.39496094 15.24601562 -29.70789063 15.12484375 -29 15 C-28.34 13.02 -27.68 11.04 -27 9 C-25.5459375 9.1546875 -25.5459375 9.1546875 -24.0625 9.3125 C-18.97974348 9.36457742 -15.16908676 6.64703921 -11 4 C-11.33 3.01 -11.66 2.02 -12 1 C-11.34 1 -10.68 1 -10 1 C-10 1.66 -10 2.32 -10 3 C-9.01 2.67 -8.02 2.34 -7 2 C-7.495 1.01 -7.495 1.01 -8 0 C-2.25 -1.125 -2.25 -1.125 0 0 Z " fill="#D5D78F" transform="translate(389,171)"/>
<path d="M0 0 C0.33 0 0.66 0 1 0 C0.78857175 1.83237814 0.5694597 3.66402766 0.32421875 5.4921875 C0.10589485 7.18090969 -0.07839827 8.87434005 -0.23046875 10.5703125 C-1.85485535 24.29160165 -9.13434235 37.19314934 -16 49 C-16.33 48.34 -16.66 47.68 -17 47 C-16.13852454 45.08887696 -15.18428406 43.21916723 -14.1875 41.375 C-11.55188351 36.30316226 -11.55188351 36.30316226 -9.875 30.875 C-9.18055559 27.79960331 -8.40334484 25.42189793 -7.1875 22.5625 C-4.1488472 15.25826666 -2.1515783 7.60106761 0 0 Z " fill="#6DD3D7" transform="translate(423,385)"/>
<path d="M0 0 C9.57 0 19.14 0 29 0 C29 0.33 29 0.66 29 1 C20.09 1 11.18 1 2 1 C2.144375 3.784375 2.28875 6.56875 2.4375 9.4375 C2.50215454 10.75512329 2.50215454 10.75512329 2.56811523 12.09936523 C2.42687477 15.85970733 2.42687477 15.85970733 4 19 C4.40501894 21.39759386 4.75408183 23.77726914 5.0625 26.1875 C5.15337891 26.84814453 5.24425781 27.50878906 5.33789062 28.18945312 C5.85836141 32.15364041 6.09322295 36.00384268 6 40 C3.80695617 36.31644586 3.16852407 32.41180898 2.4375 28.25 C2.24897461 27.23292969 2.24897461 27.23292969 2.05664062 26.1953125 C0.4422806 17.30365414 0 9.16598624 0 0 Z " fill="#33BDC7" transform="translate(9,184)"/>
<path d="M0 0 C0.33 0 0.66 0 1 0 C1.51508309 6.15722398 0.15261888 9.4351286 -3.0625 14.4375 C-3.46718506 15.08984619 -3.87187012 15.74219238 -4.28881836 16.41430664 C-7.41590751 21.34919621 -10.87488177 25.84835368 -15 30 C-15.33 28.68 -15.66 27.36 -16 26 C-15.01 25.67 -14.02 25.34 -13 25 C-12.67 22.69 -12.34 20.38 -12 18 C-11.38415039 17.91371338 -10.76830078 17.82742676 -10.13378906 17.73852539 C-7.89449749 17.19494698 -7.89449749 17.19494698 -6.81152344 15.32592773 C-6.49731445 14.61895752 -6.18310547 13.9119873 -5.859375 13.18359375 C-5.51132812 12.41982422 -5.16328125 11.65605469 -4.8046875 10.86914062 C-4.45664062 10.06669922 -4.10859375 9.26425781 -3.75 8.4375 C-3.38648438 7.63119141 -3.02296875 6.82488281 -2.6484375 5.99414062 C-1.75236831 4.00156571 -0.87035558 2.0039082 0 0 Z " fill="#CFD17A" transform="translate(413,132)"/>
<path d="M0 0 C5.18300701 2.63696848 8.89598879 6.60095803 12.9375 10.6875 C13.62779297 11.37005859 14.31808594 12.05261719 15.02929688 12.75585938 C19.47220836 17.21561602 23.36982942 21.85747365 27 27 C26.67 27.66 26.34 28.32 26 29 C21.07231288 26.88813409 19.49099081 23.74696136 17.2109375 19.15625 C16.00115023 17.00204815 14.91643063 15.55186542 13 14 C10.37429296 13.74930087 10.37429296 13.74930087 8 14 C7.4121875 12.14375 7.4121875 12.14375 6.8125 10.25 C5.34580203 6.25888917 3.50571204 4.46347333 0 2 C0 1.34 0 0.68 0 0 Z " fill="#89E2E5" transform="translate(372,221)"/>
<path d="M0 0 C1 3 1 3 0.28735352 4.90112305 C-0.28607788 5.94586792 -0.28607788 5.94586792 -0.87109375 7.01171875 C-1.48500977 8.14770508 -1.48500977 8.14770508 -2.11132812 9.30664062 C-2.54896484 10.09232422 -2.98660156 10.87800781 -3.4375 11.6875 C-4.0881543 12.88342773 -4.0881543 12.88342773 -4.75195312 14.10351562 C-5.82574763 16.07410554 -6.90864182 18.03909927 -8 20 C-8.66 19.67 -9.32 19.34 -10 19 C-8.1538817 6.79390018 -8.1538817 6.79390018 -5 2 C-4.01 1.67 -3.02 1.34 -2 1 C-1.67 1.33 -1.34 1.66 -1 2 C-0.67 1.34 -0.34 0.68 0 0 Z " fill="#1CC6CC" transform="translate(412,417)"/>
<path d="M0 0 C0.33 0.66 0.66 1.32 1 2 C0.07490415 4.39806401 -0.90820355 6.67900609 -2 9 C-2.2995459 9.65210449 -2.5990918 10.30420898 -2.90771484 10.97607422 C-3.82543693 12.96748714 -4.75470025 14.95310972 -5.6875 16.9375 C-6.00783203 17.62134766 -6.32816406 18.30519531 -6.65820312 19.00976562 C-7.43778679 20.67365316 -8.21874751 22.33689538 -9 24 C-9.66 24 -10.32 24 -11 24 C-11.66 26.97 -12.32 29.94 -13 33 C-14.16440212 28.34239152 -13.2264232 25.85018451 -11.5625 21.5625 C-11.29679199 20.86253906 -11.03108398 20.16257812 -10.75732422 19.44140625 C-7.97665183 12.42858541 -4.2122131 6.24348337 0 0 Z " fill="#CBC0F1" transform="translate(144,392)"/>
<path d="M0 0 C5.01301729 -0.02506123 10.02599666 -0.04302751 15.0390625 -0.05493164 C16.73796221 -0.05990387 18.43685777 -0.06668402 20.13574219 -0.07543945 C29.57660258 -0.12281095 38.91256987 -0.01338958 48.32568359 0.78344727 C51.05119049 1.04035541 51.05119049 1.04035541 54 1 C55.68236471 1.62599617 57.3523962 2.28752268 59 3 C59 3.33 59 3.66 59 4 C56.87486962 3.85607907 54.74990244 3.70974804 52.625 3.5625 C51.44164062 3.48128906 50.25828125 3.40007812 49.0390625 3.31640625 C46.99545486 3.16891637 44.96480688 2.99594628 42.92919922 2.76147461 C34.26959188 1.76529422 25.58110614 1.65295414 16.875 1.4375 C15.23436615 1.3942145 13.59374101 1.35059737 11.953125 1.30664062 C7.96884016 1.20060372 3.9844643 1.09905423 0 1 C0 0.67 0 0.34 0 0 Z " fill="#DE6282" transform="translate(237,181)"/>
<path d="M0 0 C1.07174763 3.65188082 0.76411467 6.26432828 0 10 C-0.99 10 -1.98 10 -3 10 C-4.10636395 12.39068734 -4.10636395 12.39068734 -5 15 C-4.67 15.66 -4.34 16.32 -4 17 C-5.25 18.5 -5.25 18.5 -7 20 C-8.32 20 -9.64 20 -11 20 C-9.56952311 14.89115395 -7.28610306 10.98255739 -4.375 6.625 C-3.95476563 5.98433594 -3.53453125 5.34367187 -3.1015625 4.68359375 C-2.07370232 3.11844302 -1.03768114 1.55865686 0 0 Z " fill="#EA7D96" transform="translate(38,77)"/>
<path d="M0 0 C3.2344907 2.74075224 4.99558688 6.30834224 6.9375 10 C7.28941406 10.66628418 7.64132813 11.33256836 8.00390625 12.01904297 C15.33447465 26.16771873 15.33447465 26.16771873 15 34 C12.87888848 30.81833272 11.6470156 27.61039108 10.3125 24.0625 C7.88657495 17.74911062 4.96891479 12.19810691 1.3203125 6.48828125 C0 4 0 4 0 0 Z " fill="#AE9FE4" transform="translate(114,391)"/>
<path d="M0 0 C0 3.92823101 -1.51754449 5.06618894 -4 8 C-4.33 8.66 -4.66 9.32 -5 10 C-3.02 9.67 -1.04 9.34 1 9 C0.67 10.32 0.34 11.64 0 13 C-2.31 12.67 -4.62 12.34 -7 12 C-7.68707555 14.49064888 -8 16.37886292 -8 19 C-9.65 19.33 -11.3 19.66 -13 20 C-13.33 20.99 -13.66 21.98 -14 23 C-14.33 22.34 -14.66 21.68 -15 21 C-11.41921613 13.36195698 -5.95957064 5.95957064 0 0 Z " fill="#D6CA71" transform="translate(262,35)"/>
<path d="M0 0 C0.66 0.99 1.32 1.98 2 3 C-0.17632189 7.89672424 -2.88229672 11.98947371 -8 14 C-8.6875 12.3125 -8.6875 12.3125 -9 10 C-7.6007781 7.20155619 -6.21208617 5.21208617 -4 3 C-4 3.66 -4 4.32 -4 5 C-3.01 5 -2.02 5 -1 5 C-0.67 3.35 -0.34 1.7 0 0 Z " fill="#41CDD5" transform="translate(395,445)"/>
<path d="M0 0 C1.35432679 0.14433868 2.70845225 0.29056661 4.0625 0.4375 C5.19365234 0.55931641 5.19365234 0.55931641 6.34765625 0.68359375 C8.22919805 0.90804866 10.10349692 1.19746787 11.96875 1.53125 C17.74626941 2.36912722 23.61512539 2.10379344 29.4375 2.0625 C30.64599609 2.05798828 31.85449219 2.05347656 33.09960938 2.04882812 C36.06645789 2.03710145 39.0332027 2.02068896 42 2 C42 2.33 42 2.66 42 3 C27.83164414 5.71560154 13.55029481 6.38774521 0 1 C0 0.67 0 0.34 0 0 Z " fill="#E2F2CE" transform="translate(305,188)"/>
<path d="M0 0 C-1.65 0.66 -3.3 1.32 -5 2 C-5 2.99 -5 3.98 -5 5 C-6.98 5.66 -8.96 6.32 -11 7 C-11.66 6.34 -12.32 5.68 -13 5 C-13.33 5.66 -13.66 6.32 -14 7 C-14.66 7 -15.32 7 -16 7 C-16 7.66 -16 8.32 -16 9 C-16.99 8.67 -17.98 8.34 -19 8 C-18.67 7.67 -18.34 7.34 -18 7 C-18.99 6.67 -19.98 6.34 -21 6 C-18.56292162 5.0197729 -16.12536055 4.04077829 -13.6875 3.0625 C-12.99720703 2.78470703 -12.30691406 2.50691406 -11.59570312 2.22070312 C-3.30761719 -1.10253906 -3.30761719 -1.10253906 0 0 Z " fill="#E05574" transform="translate(129,14)"/>
<path d="M0 0 C0.66 0.33 1.32 0.66 2 1 C1.66093677 4.05156911 0.73958327 5.33482151 -1.1875 7.8125 C-4 10 -4 10 -7.3125 9.8125 C-8.199375 9.544375 -9.08625 9.27625 -10 9 C-6.83047153 5.73991357 -3.60062011 2.77762123 0 0 Z " fill="#F1819C" transform="translate(82,33)"/>
<path d="M0 0 C0.99 0.33 1.98 0.66 3 1 C2.01 2.1446875 2.01 2.1446875 1 3.3125 C-1.29850538 5.84277939 -1.29850538 5.84277939 -1 9 C-3.97 10.65 -6.94 12.3 -10 14 C-8.2062572 10.4125144 -6.3896203 7.83243778 -3.875 4.75 C-3.15054688 3.85796875 -2.42609375 2.9659375 -1.6796875 2.046875 C-0.84824219 1.03367187 -0.84824219 1.03367187 0 0 Z " fill="#EE8CA3" transform="translate(49,63)"/>
<path d="M0 0 C2.20776721 0.23058902 4.41294855 0.47180108 6.6171875 0.734375 C8.48926106 0.94306517 10.36945745 1.07900716 12.25 1.1875 C16.27908545 2.37791161 17.56550142 4.63466373 20 8 C13.14381674 6.07443364 6.56747868 3.7527517 0 1 C0 0.67 0 0.34 0 0 Z " fill="#4ECBD0" transform="translate(102,329)"/>
<path d="M0 0 C1.09163158 4.36652634 1.04665876 4.4452769 -1 8 C-1.309375 8.86625 -1.61875 9.7325 -1.9375 10.625 C-3 13 -3 13 -6 15 C-6 14.01 -6 13.02 -6 12 C-6.66 12.66 -7.32 13.32 -8 14 C-7.5205537 9.78087253 -6.83374881 7.20336822 -4 4 C-4 5.32 -4 6.64 -4 8 C-2.68 5.36 -1.36 2.72 0 0 Z " fill="#EB5C7A" transform="translate(27,104)"/>
<path d="M0 0 C4.3573226 1.47130373 7.71934134 3.83080615 11.3125 6.625 C11.86228516 7.04523437 12.41207031 7.46546875 12.97851562 7.8984375 C14.32292168 8.92720039 15.66201413 9.9629009 17 11 C14.12862585 11 11.7696959 10.72886734 9 10 C8.67 9.34 8.34 8.68 8 8 C4.97065509 7.34227572 4.97065509 7.34227572 2 7 C2.66 6.34 3.32 5.68 4 5 C2.68 3.35 1.36 1.7 0 0 Z " fill="#D9DB97" transform="translate(373,16)"/>
<path d="M0 0 C1.21236328 0.02707031 1.21236328 0.02707031 2.44921875 0.0546875 C3.37154297 0.08949219 3.37154297 0.08949219 4.3125 0.125 C1.0095294 1.86845664 -2.37993808 3.18882982 -5.875 4.5 C-11.23209467 6.53763082 -16.48609243 8.719181 -21.6875 11.125 C-20.6875 8.125 -20.6875 8.125 -17.8515625 6.58984375 C-16.09972656 5.83380859 -16.09972656 5.83380859 -14.3125 5.0625 C-2.52523037 -0.07319508 -2.52523037 -0.07319508 0 0 Z " fill="#D6666C" transform="translate(305.6875,5.875)"/>
<path d="M0 0 C1.32 0 2.64 0 4 0 C3.91621094 0.84046875 3.83242188 1.6809375 3.74609375 2.546875 C4.06292025 6.85571539 5.80500064 9.69227145 8.0625 13.25 C9.45365498 15.47584797 10.74669851 17.68894761 12 20 C11.67 20.66 11.34 21.32 11 22 C6.35242583 14.85752853 2.25276482 8.30707027 0 0 Z " fill="#2BBBBE" transform="translate(24,249)"/>
<path d="M0 0 C0.33 0 0.66 0 1 0 C2.49034994 4.85303026 3.47208388 9.51017289 4.125 14.5625 C4.29257813 15.82191406 4.46015625 17.08132812 4.6328125 18.37890625 C4.96154325 21.62075099 5.07020815 24.7453507 5 28 C2.81601047 24.31570462 2.13217229 20.40672134 1.375 16.25 C1.2409375 15.57195312 1.106875 14.89390625 0.96875 14.1953125 C0.0744892 9.39550455 -0.12038434 4.88103792 0 0 Z " fill="#25B3BA" transform="translate(10,196)"/>
<path d="M0 0 C0.66 0.33 1.32 0.66 2 1 C1.125 3.8125 1.125 3.8125 -1 7 C-5.60219881 9.21849584 -10.03498142 10.67036588 -15 9 C-11.38026598 7.68373308 -8.90432869 7 -5 7 C-5.33 6.01 -5.66 5.02 -6 4 C-4.02 2.68 -2.04 1.36 0 0 Z " fill="#BEC05A" transform="translate(361,179)"/>
<path d="M0 0 C-0.33 1.32 -0.66 2.64 -1 4 C-2.32 4 -3.64 4 -5 4 C-5 4.99 -5 5.98 -5 7 C-5.7425 7.268125 -6.485 7.53625 -7.25 7.8125 C-9.86636554 8.94229421 -11.80187111 10.20893202 -14 12 C-14.66 11.67 -15.32 11.34 -16 11 C-14.60886005 9.72403068 -13.21185587 8.45445352 -11.8125 7.1875 C-11.03519531 6.47980469 -10.25789063 5.77210937 -9.45703125 5.04296875 C-3.39196941 0 -3.39196941 0 0 0 Z " fill="#C2CC59" transform="translate(285,19)"/>
<path d="M0 0 C4.12172083 3.76843047 7.63068221 7.88904305 10 13 C9.67 13.66 9.34 14.32 9 15 C5.34349701 13.78116567 5.151313 12.9451769 3.4375 9.625 C2.04605731 6.96348656 0.6708223 4.50623345 -1 2 C-0.67 1.34 -0.34 0.68 0 0 Z " fill="#7AD8DC" transform="translate(399,250)"/>
<path d="M0 0 C0.99 0.33 1.98 0.66 3 1 C-1.625 5.875 -1.625 5.875 -5 7 C-5.33 7.66 -5.66 8.32 -6 9 C-8.62581138 10.57548683 -9.87099787 11 -13 11 C-11.58510266 9.72719706 -10.16800334 8.4568417 -8.75 7.1875 C-7.96109375 6.47980469 -7.1721875 5.77210938 -6.359375 5.04296875 C-1.89995514 1.18158367 -1.89995514 1.18158367 0 0 Z " fill="#A38FED" transform="translate(173,364)"/>
<path d="M0 0 C6.53004622 0.75346687 6.53004622 0.75346687 8.90625 2 C11.40905284 3.19536852 13.49314568 3.40735361 16.25 3.625 C17.14203125 3.69976562 18.0340625 3.77453125 18.953125 3.8515625 C19.96632813 3.92503906 19.96632813 3.92503906 21 4 C21 4.99 21 5.98 21 7 C15.72 6.01 10.44 5.02 5 4 C5 3.34 5 2.68 5 2 C3.35 1.67 1.7 1.34 0 1 C0 0.67 0 0.34 0 0 Z " fill="#CAA372" transform="translate(291,182)"/>
<path d="M0 0 C5.53846154 0.61538462 5.53846154 0.61538462 7.875 2.5625 C8.431875 3.2740625 8.431875 3.2740625 9 4 C8.67 4.66 8.34 5.32 8 6 C6.68 5.34 5.36 4.68 4 4 C4 4.66 4 5.32 4 6 C2.68 6.33 1.36 6.66 0 7 C-1.04449911 3.86650268 -0.93423645 3.01031744 0 0 Z " fill="#26C7D0" transform="translate(313,191)"/>
<path d="M0 0 C6.88940671 0.43632909 13.35751464 1.08389845 20 3 C20 3.33 20 3.66 20 4 C13.73 3.67 7.46 3.34 1 3 C0.67 2.01 0.34 1.02 0 0 Z " fill="#8CBBD2" transform="translate(284,184)"/>
<path d="M0 0 C0.66 0 1.32 0 2 0 C1.67 1.32 1.34 2.64 1 4 C5.39253773 5.56272189 5.39253773 5.56272189 10 6 C10 6.66 10 7.32 10 8 C9.01 8.33 8.02 8.66 7 9 C6.34 9.66 5.68 10.32 5 11 C4.7525 10.38125 4.505 9.7625 4.25 9.125 C2.77229238 6.61289704 1.56044823 6.23892656 -1 5 C-1.33 4.01 -1.66 3.02 -2 2 C-1.34 2 -0.68 2 0 2 C0 1.34 0 0.68 0 0 Z " fill="#C1CC59" transform="translate(264,156)"/>
<path d="M0 0 C5.74986417 1.60461326 9.48911997 3.7076303 12.8125 8.75 C13.204375 9.4925 13.59625 10.235 14 11 C10.77026656 9.52186113 8.11002902 7.68253503 5.3125 5.5 C4.52488281 4.8915625 3.73726563 4.283125 2.92578125 3.65625 C1 2 1 2 0 0 Z " fill="#8FE0E3" transform="translate(63,304)"/>
<path d="M0 0 C3.36720387 1.39332574 4.9859524 2.9789286 7 6 C5.68 6 4.36 6 3 6 C3 6.66 3 7.32 3 8 C2.34 8 1.68 8 1 8 C1 8.66 1 9.32 1 10 C0.01 9.67 -0.98 9.34 -2 9 C-1.34 7.35 -0.68 5.7 0 4 C0.66 4 1.32 4 2 4 C1.34 2.68 0.68 1.36 0 0 Z " fill="#1CC4C9" transform="translate(372,223)"/>
<path d="M0 0 C2.98937495 0.46456503 5.98570995 0.75045093 9 1 C9 1.33 9 1.66 9 2 C6.60385874 2.05425226 4.20896147 2.09379027 1.8125 2.125 C0.80219727 2.15013672 0.80219727 2.15013672 -0.22851562 2.17578125 C-4.28807807 2.21538674 -7.34998815 1.80020002 -11 0 C-11 -0.33 -11 -0.66 -11 -1 C-6.4165225 -2.065925 -4.26376097 -1.78483017 0 0 Z " fill="#28BEC7" transform="translate(156,342)"/>
<path d="M0 0 C1.2380014 3.57644848 0.74926071 6.33694766 0 10 C-0.99 10 -1.98 10 -3 10 C-3.99 10.33 -4.98 10.66 -6 11 C-4.54955729 6.89041233 -2.48889248 3.56741255 0 0 Z " fill="#EC85A0" transform="translate(38,77)"/>
<path d="M0 0 C0.33 0.66 0.66 1.32 1 2 C-0.36328125 4.56640625 -0.36328125 4.56640625 -2.3125 7.5625 C-3.26576172 9.04943359 -3.26576172 9.04943359 -4.23828125 10.56640625 C-6 13 -6 13 -8 14 C-7.45276317 10.62537285 -6.9451 8.91765 -5 6 C-4.34 6 -3.68 6 -3 6 C-3.33 5.01 -3.66 4.02 -4 3 C-2.68 2.01 -1.36 1.02 0 0 Z " fill="#72D6DA" transform="translate(405,434)"/>
<path d="M0 0 C0.43570312 0.37511719 0.87140625 0.75023437 1.3203125 1.13671875 C5.18607599 4.45859777 9.07657648 7.74642927 13 11 C12.01 11.33 11.02 11.66 10 12 C10 11.34 10 10.68 10 10 C7.60931266 8.89363605 7.60931266 8.89363605 5 8 C4.01 8.495 4.01 8.495 3 9 C2 6 1 3 0 0 Z " fill="#E16675" transform="translate(259,159)"/>
<path d="M0 0 C0.33 0 0.66 0 1 0 C2.7578125 5.95703125 2.7578125 5.95703125 3 8 C2.01 9.485 2.01 9.485 1 11 C0.34 11 -0.32 11 -1 11 C-1.33 11.66 -1.66 12.32 -2 13 C-2.19294408 8.17639811 -1.75747614 4.50353262 0 0 Z " fill="#E05575" transform="translate(13,135)"/>
<path d="M0 0 C3.35250701 0.57575664 4.93818629 1.59306263 7.25 4.0625 C8.03117187 4.88427734 8.03117187 4.88427734 8.828125 5.72265625 C9.21484375 6.14417969 9.6015625 6.56570312 10 7 C9 9 9 9 7 10 C6.731875 9.38125 6.46375 8.7625 6.1875 8.125 C5.04443152 5.7004767 5.04443152 5.7004767 2 4 C2 3.34 2 2.68 2 2 C1.34 2 0.68 2 0 2 C0 1.34 0 0.68 0 0 Z " fill="#CBD07F" transform="translate(390,30)"/>
<path d="M0 0 C0.33 0 0.66 0 1 0 C1.29201904 4.96432365 1.14707573 8.03701574 -2 12 C-2.99 12.33 -3.98 12.66 -5 13 C-3.58192622 8.52761347 -1.88695626 4.28853694 0 0 Z " fill="#C8CA7D" transform="translate(413,132)"/>
<path d="M0 0 C0.99 0.33 1.98 0.66 3 1 C2.34 1 1.68 1 1 1 C1.33 1.99 1.66 2.98 2 4 C5.00847418 5.22520264 5.00847418 5.22520264 8 6 C6.4375 7.25 6.4375 7.25 4 8 C1.42998985 6.93237266 -0.6530403 5.53455057 -3 4 C-3 3.34 -3 2.68 -3 2 C-2.01 1.34 -1.02 0.68 0 0 Z " fill="#4EC9D0" transform="translate(96,321)"/>
<path d="M0 0 C3.43950364 0.61198376 5.51564485 1.92058847 8.25 4.0625 C8.95640625 4.61035156 9.6628125 5.15820312 10.390625 5.72265625 C11.18726563 6.35494141 11.18726563 6.35494141 12 7 C7.19784004 7 3.57030218 5.17360194 0 2 C0 1.34 0 0.68 0 0 Z " fill="#7CD9DD" transform="translate(360,213)"/>
<path d="M0 0 C0.33 1.32 0.66 2.64 1 4 C1.66 4 2.32 4 3 4 C2.67 5.65 2.34 7.3 2 9 C1.34 8.67 0.68 8.34 0 8 C-0.66 8.99 -1.32 9.98 -2 11 C-2.19622241 6.78121808 -1.80230168 3.82989106 0 0 Z " fill="#D4CC6C" transform="translate(242,69)"/>
<path d="M0 0 C0.33 0.66 0.66 1.32 1 2 C0.22265625 3.7265625 0.22265625 3.7265625 -0.9375 5.625 C-1.618125 6.73875 -2.29875 7.8525 -3 9 C-3.66 8.01 -4.32 7.02 -5 6 C-5.99 6.66 -6.98 7.32 -8 8 C-7.67 6.68 -7.34 5.36 -7 4 C-6.401875 3.896875 -5.80375 3.79375 -5.1875 3.6875 C-2.71756736 2.91123545 -1.67748765 1.92911079 0 0 Z " fill="#E46B79" transform="translate(251,47)"/>
<path d="M0 0 C3.19199167 2.41556126 5.74716687 4.68003538 8 8 C7.67 8.66 7.34 9.32 7 10 C5.82174642 9.09827532 4.65768423 8.17798498 3.5 7.25 C2.8503125 6.73953125 2.200625 6.2290625 1.53125 5.703125 C0 4 0 4 0 0 Z " fill="#CEC2F0" transform="translate(106,381)"/>
<path d="M0 0 C5.21979128 -0.1799928 9.07262981 0.02905192 14 2 C14 2.33 14 2.66 14 3 C4.58997722 3.3690205 4.58997722 3.3690205 0 1 C0 0.67 0 0.34 0 0 Z " fill="#4BC7CB" transform="translate(128,338)"/>
<path d="M0 0 C3.72114571 2.31537955 6.61229661 4.28579473 9 8 C8.67 8.66 8.34 9.32 8 10 C3.97881358 7.93506643 1.98665002 6.07786057 0 2 C0 1.34 0 0.68 0 0 Z " fill="#6AD1D3" transform="translate(390,240)"/>
<path d="M0 0 C1.48280196 0.78483659 2.9611498 1.57809334 4.4375 2.375 C5.67306641 3.03628906 5.67306641 3.03628906 6.93359375 3.7109375 C9 5 9 5 10 7 C7.36 6.67 4.72 6.34 2 6 C1.34 4.02 0.68 2.04 0 0 Z " fill="#48C9CF" transform="translate(350,206)"/>
<path d="M0 0 C0.66 0 1.32 0 2 0 C2.33 0.66 2.66 1.32 3 2 C5.02463255 2.65213292 5.02463255 2.65213292 7 3 C5.25 4.5625 5.25 4.5625 3 6 C0.75 5.6875 0.75 5.6875 -1 5 C-0.67 3.35 -0.34 1.7 0 0 Z " fill="#4FD4DD" transform="translate(350,486)"/>
<path d="M0 0 C0.78375 0.04125 1.5675 0.0825 2.375 0.125 C-1.07115385 5.90961538 -1.07115385 5.90961538 -3.875 7 C-4.4525 7.04125 -5.03 7.0825 -5.625 7.125 C-4.53409091 0.21590909 -4.53409091 0.21590909 0 0 Z " fill="#23C6D0" transform="translate(358.625,481.875)"/>
<path d="M0 0 C2.97 0.495 2.97 0.495 6 1 C3.33333333 3.66666667 0.66666667 6.33333333 -2 9 C-2.66 8.67 -3.32 8.34 -4 8 C-3.34 6.68 -2.68 5.36 -2 4 C-1.01 4 -0.02 4 1 4 C0.67 2.68 0.34 1.36 0 0 Z " fill="#71DBE1" transform="translate(370,472)"/>
<path d="M0 0 C2.00993705 3.01490557 2.72623341 5.2149927 3.625 8.6875 C3.88539063 9.68136719 4.14578125 10.67523438 4.4140625 11.69921875 C4.60742188 12.45847656 4.80078125 13.21773437 5 14 C4.34 13.67 3.68 13.34 3 13 C3 12.34 3 11.68 3 11 C2.01 11.33 1.02 11.66 0 12 C0 8.04 0 4.08 0 0 Z " fill="#D86F70" transform="translate(240,123)"/>
<path d="M0 0 C2.475 0.99 2.475 0.99 5 2 C3.25 4 3.25 4 1 6 C-0.32 6 -1.64 6 -3 6 C-1.125 1.125 -1.125 1.125 0 0 Z " fill="#4BD3DC" transform="translate(341,201)"/>
<path d="M0 0 C-2.29326361 2.29326361 -3.86660021 2.7940077 -6.9375 3.75 C-8.25041016 4.17539063 -8.25041016 4.17539063 -9.58984375 4.609375 C-12 5 -12 5 -15 3 C-13.44033782 2.491217 -11.87710759 1.99336531 -10.3125 1.5 C-9.44238281 1.2215625 -8.57226562 0.943125 -7.67578125 0.65625 C-5.00608323 0.00149195 -2.73603316 -0.11831495 0 0 Z " fill="#D24E6D" transform="translate(145,9)"/>
<path d="M0 0 C5.75 1.75 5.75 1.75 8 4 C1.07 3.505 1.07 3.505 -6 3 C-6 2.67 -6 2.34 -6 2 C-4.02 1.67 -2.04 1.34 0 1 C0 0.67 0 0.34 0 0 Z " fill="#CB5E7D" transform="translate(288,181)"/>
<path d="M0 0 C3.36591427 2.72478774 4.44226276 6.06856792 6 10 C5.01 10.495 5.01 10.495 4 11 C0 4.5 0 4.5 0 0 Z " fill="#BDB1ED" transform="translate(114,391)"/>
<path d="M0 0 C6.13545817 -0.66932271 6.13545817 -0.66932271 8.9375 1.5 C9.288125 1.995 9.63875 2.49 10 3 C8.948125 2.814375 7.89625 2.62875 6.8125 2.4375 C3.42880118 2.04920669 1.23574112 2.11752515 -2 3 C-1.34 2.01 -0.68 1.02 0 0 Z " fill="#16D3DE" transform="translate(282,187)"/>
<path d="M0 0 C2.5 2.3125 2.5 2.3125 5 5 C5 5.99 5 6.98 5 8 C4.01 7.34 3.02 6.68 2 6 C1.01 6.33 0.02 6.66 -1 7 C-0.67 4.69 -0.34 2.38 0 0 Z " fill="#DE6A74" transform="translate(253,151)"/>
<path d="M0 0 C0.33 0.66 0.66 1.32 1 2 C0.22265625 3.9453125 0.22265625 3.9453125 -0.9375 6.125 C-1.31777344 6.84945312 -1.69804687 7.57390625 -2.08984375 8.3203125 C-2.39019531 8.87460938 -2.69054687 9.42890625 -3 10 C-3.33 10 -3.66 10 -4 10 C-4.25 7.25 -4.25 7.25 -4 4 C-2 1.625 -2 1.625 0 0 Z " fill="#DD8098" transform="translate(27,98)"/>
<path d="M0 0 C1.21236328 0.01353516 1.21236328 0.01353516 2.44921875 0.02734375 C3.37154297 0.04474609 3.37154297 0.04474609 4.3125 0.0625 C0.75154445 1.93751642 -2.7997886 3.01580847 -6.6875 4.0625 C-7.0175 3.0725 -7.3475 2.0825 -7.6875 1.0625 C-4.80538698 0.10179566 -2.98899956 -0.04331883 0 0 Z " fill="#DD6A76" transform="translate(305.6875,5.9375)"/>
<path d="M0 0 C4.2742558 1.5830577 6.26531794 4.50568404 9 8 C8.67 8.66 8.34 9.32 8 10 C6.66070495 8.71451591 5.32871357 7.42141845 4 6.125 C2.88625 5.04605469 2.88625 5.04605469 1.75 3.9453125 C0 2 0 2 0 0 Z " fill="#30BBC0" transform="translate(49,288)"/>
<path d="M0 0 C1.46015291 0.28241641 2.91809793 0.57626614 4.375 0.875 C5.18710937 1.03742188 5.99921875 1.19984375 6.8359375 1.3671875 C9 2 9 2 11 4 C6.78121808 4.19622241 3.82989106 3.80230168 0 2 C0 1.34 0 0.68 0 0 Z " fill="#6AD2D7" transform="translate(321,193)"/>
<path d="M0 0 C0.99 0.33 1.98 0.66 3 1 C3 1.66 3 2.32 3 3 C3.66 3 4.32 3 5 3 C5 3.66 5 4.32 5 5 C3.02 5 1.04 5 -1 5 C-0.67 3.35 -0.34 1.7 0 0 Z " fill="#FC6281" transform="translate(10,176)"/>
<path d="M0 0 C0.33 0.66 0.66 1.32 1 2 C0.0390625 3.9453125 0.0390625 3.9453125 -1.375 6.125 C-1.83648437 6.84945312 -2.29796875 7.57390625 -2.7734375 8.3203125 C-3.17820312 8.87460938 -3.58296875 9.42890625 -4 10 C-4.33 10 -4.66 10 -5 10 C-5.3125 7.8125 -5.3125 7.8125 -5 5 C-2.5 2.1875 -2.5 2.1875 0 0 Z " fill="#D6D795" transform="translate(409,144)"/>
<path d="M0 0 C0.99 0.33 1.98 0.66 3 1 C1.35 2.98 -0.3 4.96 -2 7 C-2.6875 5.1875 -2.6875 5.1875 -3 3 C-1.5625 1.25 -1.5625 1.25 0 0 Z " fill="#E27893" transform="translate(49,63)"/>
<path d="M0 0 C1.98 0.495 1.98 0.495 4 1 C3.34 3.31 2.68 5.62 2 8 C1.87625 7.360625 1.7525 6.72125 1.625 6.0625 C1.315625 5.0415625 1.315625 5.0415625 1 4 C0.34 3.67 -0.32 3.34 -1 3 C-0.67 2.01 -0.34 1.02 0 0 Z " fill="#1DC6CF" transform="translate(394,441)"/>
<path d="M0 0 C1.98 1.65 3.96 3.3 6 5 C5.67 5.66 5.34 6.32 5 7 C4.401875 6.484375 3.80375 5.96875 3.1875 5.4375 C2.465625 4.963125 1.74375 4.48875 1 4 C0.01 4.33 -0.98 4.66 -2 5 C-1.34 3.35 -0.68 1.7 0 0 Z " fill="#20BFC4" transform="translate(384,234)"/>
<path d="M0 0 C0.66 0.33 1.32 0.66 2 1 C0.35 2.65 -1.3 4.3 -3 6 C-3.99 5.34 -4.98 4.68 -6 4 C-4.02 2.68 -2.04 1.36 0 0 Z " fill="#EA97AC" transform="translate(90,28)"/>
<path d="M0 0 C2.97 0.99 5.94 1.98 9 3 C9 3.33 9 3.66 9 4 C6.36 3.67 3.72 3.34 1 3 C0.67 2.01 0.34 1.02 0 0 Z " fill="#70D6DA" transform="translate(332,197)"/>
<path d="M0 0 C0.99 0 1.98 0 3 0 C3 1.32 3 2.64 3 4 C3.99 4.33 4.98 4.66 6 5 C1.44615385 5.36923077 1.44615385 5.36923077 -0.8125 3.5 C-1.204375 3.005 -1.59625 2.51 -2 2 C-1.34 1.34 -0.68 0.68 0 0 Z " fill="#C2CB58" transform="translate(294,178)"/>
<path d="M0 0 C-1.65 1.32 -3.3 2.64 -5 4 C-7 3 -7 3 -8 0 C-2.25 -1.125 -2.25 -1.125 0 0 Z " fill="#D9DA91" transform="translate(389,171)"/>
</svg>
