<?xml version="1.0" encoding="UTF-8"?>
<svg version="1.1" xmlns="http://www.w3.org/2000/svg" width="650" height="591">
<path d="M0 0 C0.78259186 -0.00511093 1.56518372 -0.01022186 2.37149048 -0.01548767 C4.95550203 -0.02937468 7.53924661 -0.02842761 10.12329102 -0.02612305 C11.92163695 -0.03001043 13.71998197 -0.03434519 15.51832581 -0.03910828 C19.28682431 -0.04656853 23.05522912 -0.04628059 26.82373047 -0.04101562 C31.65031048 -0.0352208 36.47650677 -0.05215318 41.30302334 -0.0753603 C45.01681252 -0.09009994 48.73050934 -0.09096903 52.44432259 -0.08785057 C54.22370222 -0.08836365 56.00308703 -0.09359894 57.78243828 -0.10366249 C60.27187839 -0.11601434 62.76057163 -0.10924309 65.25 -0.09765625 C65.98314926 -0.10529999 66.71629852 -0.11294373 67.47166443 -0.12081909 C71.87697638 -0.07555325 74.73963439 0.47617303 78.18969727 3.2746582 C80.32927884 6.59889825 80.43859539 9.31066809 80.43579292 13.21731186 C80.43977502 14.44098111 80.44375712 15.66465036 80.44785988 16.9254005 C80.44215382 18.28528973 80.43626263 19.6451782 80.4302063 21.00506592 C80.43107822 22.44807424 80.43282897 23.89108225 80.43538463 25.33408856 C80.43986473 29.30424083 80.43184541 33.27428555 80.42182851 37.2444241 C80.41320584 41.52387572 80.41611333 45.80332108 80.41763306 50.08277893 C80.41868266 57.49885245 80.41239821 64.91489083 80.40115738 72.33095551 C80.38491552 83.0533859 80.37969572 93.77579926 80.3771814 104.49824062 C80.37280223 121.89393763 80.35948711 139.2896159 80.34057617 156.68530273 C80.32222311 173.58536688 80.3080638 190.48542595 80.29956055 207.38549805 C80.29877238 208.94761389 80.29877238 208.94761389 80.29796828 210.54128763 C80.29535824 215.76564593 80.29283082 220.99000426 80.29034448 226.21436262 C80.26960507 269.56780746 80.2343735 312.92123187 80.18969727 356.2746582 C81.60448364 356.22752686 81.60448364 356.22752686 83.04785156 356.17944336 C86.5610973 356.07693314 90.072746 356.00185229 93.58691406 355.94506836 C95.10507337 355.91496734 96.62305977 355.87407474 98.140625 355.82202148 C100.32798926 355.74889426 102.51304897 355.71514076 104.70141602 355.6887207 C106.67307739 355.64158936 106.67307739 355.64158936 108.68457031 355.59350586 C112.31354167 356.29872492 112.85839959 356.54356901 115.11621094 359.17626953 C118.05965568 363.57462786 118.01046843 365.10379989 117.18969727 370.2746582 C115.20674404 373.00938066 113.63133282 374.93721321 110.23923671 375.73120435 C107.80220319 375.91938091 105.41183363 375.93671148 102.96763611 375.90386391 C101.56325584 375.91476471 101.56325584 375.91476471 100.13050425 375.92588574 C96.97527105 375.94421629 93.82124112 375.92674241 90.66601562 375.90957642 C88.38836766 375.91533439 86.11072434 375.92327332 83.83309078 375.93321264 C77.56024622 375.95415337 71.28778028 375.94373775 65.01493406 375.92828155 C58.94921358 375.91815928 52.88358522 375.93144078 46.81787708 375.94401837 C33.64306366 375.97036946 20.46837134 375.96805628 7.29354635 375.95362381 C-4.23580347 375.9410556 -15.76510885 375.93775804 -27.29446411 375.94373703 C-28.05865821 375.94411896 -28.82285231 375.94450088 -29.61020381 375.94489438 C-32.71216597 375.94645102 -35.81412811 375.94804302 -38.91609022 375.9496932 C-68.02638397 375.96499487 -97.1366005 375.95111035 -126.24688233 375.92420871 C-152.1206029 375.90047993 -177.99420043 375.90260303 -203.86791992 375.92651367 C-232.92430605 375.95327562 -261.98062394 375.96390976 -291.03702068 375.94845235 C-294.13339423 375.94684872 -297.22976779 375.94528452 -300.32614136 375.94373703 C-301.08857081 375.94334164 -301.85100025 375.94294626 -302.63653363 375.94253889 C-314.15981756 375.93684688 -325.68305223 375.94351152 -337.20632935 375.9561348 C-350.30630102 375.97041355 -363.40613244 375.96689459 -376.50608659 375.93973108 C-383.19425959 375.92632098 -389.88215113 375.92149724 -396.5703392 375.93797684 C-402.68684162 375.95282026 -408.80286078 375.94478057 -414.91931903 375.91808908 C-417.13794692 375.91248031 -419.35661522 375.91539772 -421.57521737 375.92746802 C-424.58014767 375.94256867 -427.58340042 375.9271875 -430.58824158 375.90386391 C-431.89479314 375.92142265 -431.89479314 375.92142265 -433.22773969 375.93933612 C-437.60852611 375.8708928 -439.29126136 375.68456339 -442.84517765 372.87791097 C-444.86833918 370.1977758 -445.49340731 369.07499832 -445.43530273 365.7746582 C-445.44819336 365.0424707 -445.46108398 364.3102832 -445.47436523 363.5559082 C-444.45491368 360.05379229 -442.61256266 358.56121066 -439.81030273 356.2746582 C-436.30517578 355.70703125 -436.30517578 355.70703125 -432.32202148 355.78637695 C-431.61882278 355.79345169 -430.91562408 355.80052643 -430.19111633 355.80781555 C-427.95890047 355.83566608 -425.72925196 355.898375 -423.49780273 355.9621582 C-421.97895892 355.98725369 -420.46007553 356.01006469 -418.94116211 356.03051758 C-415.23005025 356.08545814 -411.52042732 356.17166081 -407.81030273 356.2746582 C-407.82695732 354.3026796 -407.82695732 354.3026796 -407.84394836 352.29086304 C-407.94530458 339.90181411 -408.02025899 327.5128493 -408.06936359 315.12347984 C-408.09545754 308.75393774 -408.13085317 302.38473033 -408.1875 296.01538086 C-408.24182507 289.86862523 -408.27172479 283.72219155 -408.28468895 277.57521439 C-408.29392778 275.23002682 -408.31196909 272.88485688 -408.33895302 270.53980637 C-408.37524839 267.25490997 -408.38024766 263.97134394 -408.37792969 260.6862793 C-408.39590607 259.71667267 -408.41388245 258.74706604 -408.43240356 257.74807739 C-408.39867116 253.33039254 -408.26274685 250.23113677 -405.46232605 246.68643188 C-401.32214541 242.92131465 -397.70282095 243.12600614 -392.38891602 243.12939453 C-391.6357309 243.12603592 -390.88254578 243.12267731 -390.10653687 243.11921692 C-387.61454625 243.10971155 -385.12262286 243.10776398 -382.63061523 243.10668945 C-380.89810152 243.10347644 -379.16558809 243.10011234 -377.43307495 243.09660339 C-373.79985932 243.09061306 -370.16666748 243.08876338 -366.53344727 243.08935547 C-361.88068005 243.08945705 -357.22806557 243.07580827 -352.57533455 243.05858326 C-348.99623923 243.04745759 -345.41718076 243.04543644 -341.83806992 243.04596519 C-340.12288766 243.04478581 -338.40770444 243.04036632 -336.69253922 243.03263283 C-334.29174395 243.02282207 -331.89127924 243.02571527 -329.49047852 243.03173828 C-328.78381042 243.02611877 -328.07714233 243.02049927 -327.34906006 243.01470947 C-322.5560538 243.04522394 -318.81853932 243.6250353 -315.06030273 246.7121582 C-312.81484553 249.51897971 -312.68593114 252.17563089 -312.69004822 255.62162781 C-312.68798622 256.95304306 -312.68798622 256.95304306 -312.68588257 258.31135559 C-312.68947784 259.28239731 -312.69307312 260.25343903 -312.69677734 261.25390625 C-312.69663132 262.27846924 -312.69648529 263.30303223 -312.69633484 264.35864258 C-312.6970325 267.75124211 -312.70481812 271.14378699 -312.71264648 274.53637695 C-312.71451118 276.8862149 -312.71593484 279.23605324 -312.7169342 281.58589172 C-312.7207553 287.77549307 -312.73058214 293.965071 -312.74163818 300.15466309 C-312.75186104 306.46874678 -312.7564337 312.78283425 -312.76147461 319.09692383 C-312.77220474 331.4895139 -312.78979828 343.88208044 -312.81030273 356.2746582 C-300.93030273 356.2746582 -289.05030273 356.2746582 -276.81030273 356.2746582 C-276.82140579 353.31882782 -276.83250885 350.36299744 -276.84394836 347.31759644 C-276.94344014 320.21305943 -277.01808611 293.10852659 -277.06562938 266.00385212 C-277.07188293 262.45154233 -277.07835454 258.89923298 -277.08496094 255.34692383 C-277.08692827 254.28612107 -277.08692827 254.28612107 -277.08893534 253.20388795 C-277.11069288 241.75242309 -277.15011627 230.3010837 -277.19606671 218.84969328 C-277.24282177 207.0998032 -277.27059609 195.34997884 -277.28074521 183.59999955 C-277.28727039 177.00003187 -277.3026336 170.40034882 -277.33895302 163.80047226 C-277.37285118 157.59035745 -277.38336795 151.38064494 -277.37584114 145.1704464 C-277.37721843 142.88956327 -277.38718724 140.6086669 -277.40633011 138.32786369 C-277.43117072 135.21595351 -277.42523985 132.10556651 -277.41157532 128.99362183 C-277.43342163 127.63660528 -277.43342163 127.63660528 -277.45570928 126.25217426 C-277.40505696 121.9909139 -277.153463 119.13903245 -274.4602232 115.72972298 C-270.31702508 111.89118522 -266.65602979 112.12184476 -261.29711914 112.11352539 C-260.53418045 112.10856049 -259.77124176 112.10359558 -258.98518372 112.09848022 C-256.46073505 112.08387274 -253.93634922 112.07705919 -251.41186523 112.0715332 C-249.65693154 112.06578086 -247.90199787 112.06002313 -246.14706421 112.05426025 C-242.46677355 112.04375448 -238.78650471 112.03790895 -235.10620117 112.03442383 C-230.39283634 112.02893809 -225.67976024 112.00490666 -220.96648598 111.97645187 C-217.34106607 111.95781932 -213.71571566 111.95261958 -210.09025192 111.95108795 C-208.35273026 111.9480626 -206.61520978 111.94003802 -204.87773514 111.92690277 C-202.44569224 111.90982814 -200.01435408 111.91172569 -197.58227539 111.91821289 C-196.86625656 111.90899811 -196.15023773 111.89978333 -195.41252136 111.89028931 C-191.02838846 111.92688082 -188.23440931 112.49055159 -184.81030273 115.2746582 C-181.1150679 119.88344039 -181.39502823 124.19812076 -181.44953918 129.83540344 C-181.44697591 130.80339392 -181.44441264 131.7713844 -181.44177169 132.76870793 C-181.43682727 136.01475687 -181.45333791 139.26034151 -181.46972656 142.50634766 C-181.47057269 144.83217864 -181.47009797 147.15801043 -181.46839905 149.48384094 C-181.46753712 155.80159518 -181.48519507 162.1191791 -181.50612092 168.4368937 C-181.52295708 174.36929844 -181.52598953 180.30169653 -181.52907654 186.23412194 C-181.53564029 197.98342465 -181.55559937 209.73266483 -181.58398438 221.48193359 C-181.61152692 232.89436531 -181.63275954 244.30678003 -181.64550781 255.71923828 C-181.64629598 256.42285562 -181.64708415 257.12647296 -181.64789621 257.85141204 C-181.65181136 261.38129957 -181.65560247 264.91118723 -181.65933192 268.44107497 C-181.69042545 297.71897785 -181.74408558 326.99681432 -181.81030273 356.2746582 C-169.93030273 356.2746582 -158.05030273 356.2746582 -145.81030273 356.2746582 C-145.83648682 350.82305176 -145.8626709 345.37144531 -145.88964844 339.75463867 C-145.97240614 321.76551597 -146.02794468 303.77638588 -146.06936359 285.78712273 C-146.09514938 274.87759578 -146.13030721 263.96824912 -146.1875 253.05883789 C-146.23732333 243.55060873 -146.26959102 234.04251013 -146.28074521 224.53415406 C-146.28726575 219.49910516 -146.30259883 214.4644298 -146.33895302 209.42950058 C-146.37289547 204.69018313 -146.3833592 199.95139301 -146.37584114 195.21196556 C-146.37721647 193.47289476 -146.38715952 191.7338063 -146.40633011 189.99484062 C-146.43124216 187.61846253 -146.42521642 185.24407016 -146.41157532 182.86764526 C-146.42613952 182.18086067 -146.44070373 181.49407608 -146.45570928 180.78647983 C-146.39839796 177.08801278 -145.73708795 174.72073503 -143.50751019 171.84687424 C-139.99383186 168.49602345 -137.23188237 168.43703626 -132.61108398 168.5300293 C-131.79908539 168.52272797 -130.98708679 168.51542664 -130.15048218 168.50790405 C-127.47373049 168.49172784 -124.79941438 168.51887497 -122.12280273 168.5480957 C-120.25862632 168.54913338 -118.39444769 168.54809613 -116.53027344 168.54507446 C-112.62621319 168.54525375 -108.72298034 168.56607671 -104.8190918 168.60229492 C-99.81858104 168.64767087 -94.81927875 168.64875655 -89.81861877 168.63525963 C-85.97006517 168.62857179 -82.12178636 168.64185534 -78.27328491 168.6615181 C-76.42973265 168.66920826 -74.58614979 168.67152424 -72.74258423 168.66834641 C-70.16430592 168.66760333 -67.58756796 168.692888 -65.00952148 168.7253418 C-64.24989105 168.72038696 -63.49026062 168.71543213 -62.70761108 168.71032715 C-59.07697429 168.78315002 -56.96465993 169.17802208 -53.86035156 171.12149048 C-50.3126176 174.84767795 -50.6696251 178.61960205 -50.69004822 183.46891785 C-50.68876658 184.5753219 -50.68876658 184.5753219 -50.68745905 185.70407754 C-50.6858084 188.18230015 -50.69131885 190.66045547 -50.69677734 193.13867188 C-50.69705933 194.91249083 -50.69690126 196.6863099 -50.69633484 198.46012878 C-50.69604731 203.28212158 -50.70193682 208.10408962 -50.7089088 212.92607665 C-50.71514979 217.96294896 -50.71574673 222.99982181 -50.7169342 228.03669739 C-50.72004531 237.57766456 -50.72825575 247.1186203 -50.73828369 256.65958244 C-50.74945165 267.52038699 -50.75495701 278.38119208 -50.75997913 289.24200094 C-50.77043853 311.58622782 -50.7887813 333.93043904 -50.81030273 356.2746582 C-38.93030273 356.2746582 -27.05030273 356.2746582 -14.81030273 356.2746582 C-14.82029549 349.73286491 -14.82029549 349.73286491 -14.83049011 343.05891418 C-14.89015595 303.08874347 -14.93495841 263.11857801 -14.96349872 223.14837252 C-14.96725095 217.91239149 -14.97113391 212.67641056 -14.97509766 207.44042969 C-14.97588459 206.39801668 -14.97667152 205.35560368 -14.9774823 204.28160241 C-14.99054504 187.39116364 -15.01420365 170.50075542 -15.04176112 153.61033479 C-15.06979117 136.28609244 -15.08647391 118.96186613 -15.09256822 101.63760203 C-15.09668965 90.9430076 -15.10971841 80.24849953 -15.13405214 69.55393168 C-15.1498797 62.22558079 -15.15470986 54.8972747 -15.15080687 47.56890795 C-15.14888067 43.33744747 -15.15188469 39.10613814 -15.16791916 34.87470436 C-15.18248498 31.00266062 -15.18327684 27.13087013 -15.17299942 23.25881489 C-15.17172862 21.85630752 -15.17556237 20.45378453 -15.18495228 19.05130801 C-15.19695874 17.14769555 -15.18872338 15.24398741 -15.17944622 13.34035969 C-15.18115496 11.75293885 -15.18115496 11.75293885 -15.18289822 10.1334489 C-14.7531261 6.83596255 -13.73938214 4.95765022 -11.81030273 2.2746582 C-8.30178941 -0.39970544 -4.22867282 -0.01424995 0 0 Z M5.18969727 20.2746582 C5.18969727 131.1546582 5.18969727 242.0346582 5.18969727 356.2746582 C23.33969727 356.2746582 41.48969727 356.2746582 60.18969727 356.2746582 C60.18969727 245.3946582 60.18969727 134.5146582 60.18969727 20.2746582 C42.03969727 20.2746582 23.88969727 20.2746582 5.18969727 20.2746582 Z M-256.81030273 132.2746582 C-256.81030273 206.1946582 -256.81030273 280.1146582 -256.81030273 356.2746582 C-238.66030273 356.2746582 -220.51030273 356.2746582 -201.81030273 356.2746582 C-201.81030273 282.3546582 -201.81030273 208.4346582 -201.81030273 132.2746582 C-219.96030273 132.2746582 -238.11030273 132.2746582 -256.81030273 132.2746582 Z M-125.81030273 188.2746582 C-125.81030273 243.7146582 -125.81030273 299.1546582 -125.81030273 356.2746582 C-107.66030273 356.2746582 -89.51030273 356.2746582 -70.81030273 356.2746582 C-70.81030273 300.8346582 -70.81030273 245.3946582 -70.81030273 188.2746582 C-88.96030273 188.2746582 -107.11030273 188.2746582 -125.81030273 188.2746582 Z M-387.81030273 263.2746582 C-387.81030273 293.9646582 -387.81030273 324.6546582 -387.81030273 356.2746582 C-369.66030273 356.2746582 -351.51030273 356.2746582 -332.81030273 356.2746582 C-332.81030273 325.5846582 -332.81030273 294.8946582 -332.81030273 263.2746582 C-350.96030273 263.2746582 -369.11030273 263.2746582 -387.81030273 263.2746582 Z " fill="#000000" transform="translate(474.810302734375,198.725341796875)"/>
<path d="M0 0 C8.66510797 6.47943148 14.42176814 14.49746295 16.2421875 25.26953125 C17.33159502 36.83608027 15.54254981 46.97816104 8.2421875 56.26953125 C0.84305771 64.23782487 -7.27594776 69.59202439 -18.30078125 70.47265625 C-24.96602125 70.59079935 -30.50018195 69.54996928 -36.7578125 67.26953125 C-42.5207094 73.48960995 -48.08061371 79.78823751 -53.41015625 86.38671875 C-55.98596486 89.54969172 -58.61486472 92.66270797 -61.2578125 95.76953125 C-64.630832 99.73840621 -67.96958358 103.72970715 -71.2578125 107.76953125 C-75.00569048 112.37406705 -78.82764694 116.90972316 -82.671875 121.43359375 C-85.57026073 124.85012665 -88.4293635 128.29457963 -91.2578125 131.76953125 C-95.00569048 136.37406705 -98.82764694 140.90972316 -102.671875 145.43359375 C-106.31049533 149.72269369 -109.87549348 154.06783166 -113.421875 158.43359375 C-115.14865006 160.52997952 -116.89006325 162.60529426 -118.65625 164.66796875 C-119.15060547 165.24611328 -119.64496094 165.82425781 -120.15429688 166.41992188 C-121.11332088 167.53857206 -122.07538531 168.65462557 -123.04101562 169.76757812 C-126.91468984 174.19097031 -126.91468984 174.19097031 -129.7578125 179.26953125 C-129.07141186 182.07873594 -129.07141186 182.07873594 -127.5078125 184.76953125 C-122.55452378 194.25001934 -122.73447952 203.51118337 -125.7734375 213.66015625 C-127.25714084 217.59314766 -129.29524248 220.88252642 -131.7578125 224.26953125 C-132.3353125 225.13578125 -132.9128125 226.00203125 -133.5078125 226.89453125 C-140.64897918 234.43242941 -149.24855926 238.23760301 -159.53662109 238.67211914 C-171.64954816 238.87386018 -180.92804981 235.68539882 -189.7578125 227.26953125 C-196.52722958 220.13746683 -199.68201557 211.65023193 -200.36328125 201.91015625 C-200.4408667 200.84829102 -200.51845215 199.78642578 -200.59838867 198.69238281 C-200.65099854 197.8928418 -200.7036084 197.09330078 -200.7578125 196.26953125 C-201.63033661 195.92096573 -202.50286072 195.57240021 -203.40182495 195.21327209 C-211.61317248 191.93278246 -219.82415826 188.65138887 -228.03478813 185.36910343 C-232.25624526 183.68156556 -236.47783045 181.99434958 -240.69970703 180.30786133 C-244.7718782 178.68116143 -248.84371462 177.05362636 -252.91531754 175.42550468 C-254.47096926 174.80361434 -256.02674261 174.18202815 -257.58263779 173.56074715 C-259.75707206 172.69241922 -261.9310765 171.82302368 -264.10498047 170.95336914 C-264.75234161 170.69514374 -265.39970276 170.43691833 -266.06668091 170.17086792 C-268.33346416 169.26310143 -270.57272177 168.36207661 -272.7578125 167.26953125 C-273.00660156 167.85734375 -273.25539063 168.44515625 -273.51171875 169.05078125 C-277.14195812 175.51465573 -284.84286304 179.39998878 -291.671875 181.609375 C-302.05013911 183.8295353 -311.18018768 182.55879129 -320.7578125 178.26953125 C-321.7478125 177.93953125 -322.7378125 177.60953125 -323.7578125 177.26953125 C-326.21154593 178.81306646 -326.21154593 178.81306646 -328.7578125 181.08203125 C-329.7375 181.91347656 -330.7171875 182.74492187 -331.7265625 183.6015625 C-335.5462778 186.93892884 -339.28008341 190.36946575 -343.01171875 193.8046875 C-345.67656416 196.19660422 -348.40613075 198.46208009 -351.1953125 200.70703125 C-355.19005236 203.92896226 -359.00335599 207.2760862 -362.7578125 210.76953125 C-367.36785586 215.05908238 -372.13564206 219.07363797 -377.04296875 223.0234375 C-379.86454745 225.35783715 -382.56371962 227.78943723 -385.2578125 230.26953125 C-390.58087829 235.16614256 -396.129347 239.73102256 -401.7578125 244.26953125 C-403.76493986 245.92792991 -405.76207753 247.59742898 -407.7578125 249.26953125 C-407.54125 249.82898438 -407.3246875 250.3884375 -407.1015625 250.96484375 C-403.53413924 261.23770148 -403.26058181 271.69921192 -407.5 281.80859375 C-412.51802948 291.62647752 -420.02549125 298.70178668 -430.36328125 302.54296875 C-441.00174333 305.77095235 -450.53605056 304.48928426 -460.7578125 300.26953125 C-471.16192629 294.44736161 -476.97722237 285.50109049 -480.34375 274.32421875 C-482.38693577 264.18539125 -480.48471757 254.25135693 -475.0078125 245.58203125 C-468.5460316 236.62401225 -460.94754124 230.35183039 -449.7578125 228.26953125 C-441.55330111 227.63198323 -434.67150652 228.07056372 -427.0625 231.296875 C-426.30195313 231.61785156 -425.54140625 231.93882812 -424.7578125 232.26953125 C-424.09136719 232.55699219 -423.42492187 232.84445313 -422.73828125 233.140625 C-420.580725 233.49001198 -420.580725 233.49001198 -418.56640625 231.71484375 C-417.78394531 230.94914063 -417.00148438 230.1834375 -416.1953125 229.39453125 C-412.69052095 226.06934102 -409.15788593 222.91021943 -405.3828125 219.89453125 C-400.83000743 216.21381278 -396.52363839 212.34304477 -392.2409668 208.3581543 C-388.13020293 204.55568111 -383.83514727 201.02689826 -379.47265625 197.515625 C-376.65107755 195.18122535 -373.95190538 192.74962527 -371.2578125 190.26953125 C-367.67988787 186.97621426 -364.04241584 183.82301804 -360.2578125 180.76953125 C-355.4087216 176.85696005 -350.80371641 172.72883685 -346.21875 168.51171875 C-343.46606926 166.00372074 -340.64968698 163.61429434 -337.7578125 161.26953125 C-338.23927734 159.56023437 -338.23927734 159.56023437 -338.73046875 157.81640625 C-341.34116617 147.29961982 -341.13410209 135.5989549 -336.296875 125.81640625 C-330.66757052 116.50090747 -322.92446625 111.02750227 -312.7578125 107.26953125 C-301.90840919 104.80375777 -291.43051954 106.14090702 -281.88671875 111.8671875 C-273.76836122 117.21487622 -269.11964823 123.57965428 -265.3828125 132.58203125 C-264.44104185 138.13847808 -264.60566879 143.64866659 -264.7578125 149.26953125 C-264.06627579 149.38263641 -263.37473907 149.49574158 -262.6622467 149.61227417 C-259.35721772 150.36018359 -256.4241626 151.50282597 -253.28686523 152.78564453 C-252.65857819 153.04098969 -252.03029114 153.29633484 -251.38296509 153.55941772 C-250.02579083 154.11141488 -248.66938921 154.66531475 -247.31368828 155.22092056 C-245.1677067 156.09954703 -243.0191282 156.97150215 -240.86964417 157.84152222 C-234.76098759 160.31487167 -228.65570026 162.79636818 -222.5559082 165.29150391 C-218.81925795 166.81944417 -215.07833004 168.33645866 -211.3344593 169.84661484 C-209.90981272 170.4237911 -208.48685122 171.00514485 -207.0656414 171.59073257 C-205.08088136 172.40818236 -203.09099021 173.21165786 -201.09936523 174.01220703 C-199.96861069 174.47329865 -198.83785614 174.93439026 -197.6728363 175.40945435 C-194.73688047 176.27570724 -193.52849317 176.45215834 -190.7578125 175.26953125 C-188.84224166 173.78324685 -188.84224166 173.78324685 -187.0078125 171.95703125 C-179.70872521 165.3851593 -171.5956074 162.19093591 -161.69921875 162.3046875 C-156.14470496 162.68608358 -151.02723503 163.47313721 -145.7578125 165.26953125 C-145.23574219 164.62628906 -144.71367187 163.98304688 -144.17578125 163.3203125 C-139.91837115 158.09361464 -135.62310076 152.90620191 -131.2578125 147.76953125 C-127.88501066 143.80046519 -124.54604713 139.80936236 -121.2578125 135.76953125 C-117.50993452 131.16499545 -113.68797806 126.62933934 -109.84375 122.10546875 C-106.94536427 118.68893585 -104.0862615 115.24448287 -101.2578125 111.76953125 C-97.50993452 107.16499545 -93.68797806 102.62933934 -89.84375 98.10546875 C-86.94536427 94.68893585 -84.0862615 91.24448287 -81.2578125 87.76953125 C-77.96956742 83.7296873 -74.6301964 79.73896237 -71.2578125 75.76953125 C-67.73775077 71.61930463 -64.22839929 67.46127894 -60.7578125 63.26953125 C-60.0565625 62.42390625 -59.3553125 61.57828125 -58.6328125 60.70703125 C-56.75884046 58.2708676 -55.07138592 56.0535896 -53.7578125 53.26953125 C-54.18168845 51.24307677 -54.18168845 51.24307677 -55.4453125 49.45703125 C-60.00486188 41.40634175 -60.98945011 33.08482021 -59.0703125 24.0234375 C-56.09538306 13.30129597 -50.82920395 5.75615236 -41.7578125 -0.73046875 C-28.5333043 -7.92006959 -12.94780563 -8.12447294 0 0 Z M-37.1953125 22.39453125 C-39.70385602 27.01025133 -40.40699547 31.07606753 -39.7578125 36.26953125 C-37.86411723 42.47537599 -34.4193593 46.20888066 -28.7578125 49.26953125 C-23.38344541 51.06098695 -18.68986684 50.98129753 -13.5703125 48.64453125 C-8.76657352 45.98734492 -5.52014803 42.55653784 -3.7578125 37.26953125 C-3.22396108 31.30476831 -3.20511101 26.3120753 -6.7578125 21.26953125 C-11.30137004 16.70449117 -14.84954184 14.16374638 -21.4453125 13.89453125 C-28.56119059 13.9776364 -32.89210088 16.87759328 -37.1953125 22.39453125 Z M-316.6328125 133.14453125 C-320.09003234 138.22867807 -321.33621778 142.06563388 -320.28515625 148.25390625 C-318.92416898 153.45590203 -316.55417194 157.02720756 -312.1953125 160.20703125 C-307.1924556 163.01123968 -302.34538555 163.26992643 -296.7578125 162.26953125 C-291.54100642 160.29254464 -287.88537368 157.18496994 -285.4453125 152.15234375 C-283.38487591 146.50955718 -283.21823739 141.732165 -285.609375 136.16015625 C-288.50516009 131.39294543 -293.3389483 127.6242473 -298.7578125 126.26953125 C-305.93770642 125.45671307 -311.82275174 127.76858099 -316.6328125 133.14453125 Z M-176.7578125 189.26953125 C-180.46367718 194.50885718 -180.58068841 200.07484747 -179.7578125 206.26953125 C-177.18683765 211.60924825 -173.19962973 215.8408524 -167.6875 218.12890625 C-162.65682312 219.5662425 -158.70580043 219.36871793 -153.8359375 217.453125 C-149.42042082 214.93827245 -146.83611541 211.18106823 -144.3828125 206.83203125 C-143.12548511 201.67698893 -142.91254823 197.30641166 -145.3828125 192.58203125 C-148.58595855 187.62451192 -152.99081665 183.85545511 -158.7578125 182.26953125 C-165.81161699 181.50281337 -171.74962379 184.4004589 -176.7578125 189.26953125 Z M-457.0703125 254.76953125 C-460.62749048 260.03942456 -461.58023548 263.93999746 -460.7578125 270.26953125 C-458.90352025 276.48751723 -455.41423198 280.21165251 -449.7578125 283.26953125 C-444.32720415 285.07973403 -439.66037478 284.97050872 -434.5078125 282.58203125 C-429.72648046 279.92886073 -426.90151053 276.25635421 -424.7578125 271.26953125 C-423.77871856 264.47279777 -424.67239382 259.75259317 -428.7578125 254.26953125 C-432.93798504 250.06753014 -436.55768188 248.13257858 -442.5078125 247.95703125 C-448.95286298 248.03219219 -452.63803837 249.97788354 -457.0703125 254.76953125 Z " fill="#000000" transform="translate(547.7578125,17.73046875)"/>
</svg>
